<svg width="128" height="40" viewBox="0 0 128 40" fill="none" xmlns="http://www.w3.org/2000/svg">
<rect width="128" height="40" rx="8" fill="#262E37"/>
<path d="M45.888 23.24H47.712V15.56H46.176V17.496H44.416V13.8H53.184V17.496H51.424V15.56H49.904V23.24H51.712V25H45.888V23.24ZM59.2098 18.92L60.4098 22.424H60.4898L60.6338 21.048L61.2898 17H63.1618L61.5458 25H59.4498L58.5538 21.832H58.4738L57.4658 25H55.3058L53.6258 17H55.7057L56.4898 21.432L56.6178 22.424H56.6978L57.8818 18.92H59.2098ZM64.1315 23.24H66.9475V18.76H64.1315V17H69.0275V23.24H71.9875V25H64.1315V23.24ZM66.5635 14.824C66.5635 14.4933 66.6862 14.2107 66.9315 13.976C67.1768 13.7413 67.5182 13.624 67.9555 13.624C68.4035 13.624 68.7608 13.7413 69.0275 13.976C69.2942 14.2107 69.4275 14.4933 69.4275 14.824C69.4275 15.1653 69.2942 15.448 69.0275 15.672C68.7608 15.8853 68.4035 15.992 67.9555 15.992C67.5182 15.992 67.1768 15.8853 66.9315 15.672C66.6862 15.448 66.5635 15.1653 66.5635 14.824ZM74.6373 18.76H73.0533V17H74.6373V15.176L76.7173 14.584V17H80.9093V18.76H76.7173V21.048C76.7173 21.8693 76.8719 22.4667 77.1813 22.84C77.4906 23.2027 77.9226 23.384 78.4773 23.384C78.7653 23.384 79.0266 23.352 79.2613 23.288C79.4959 23.2133 79.7039 23.1227 79.8853 23.016C80.0773 22.9093 80.2479 22.792 80.3973 22.664C80.5573 22.536 80.7013 22.4187 80.8293 22.312L81.7893 23.752C81.6079 23.9653 81.3786 24.1627 81.1013 24.344C80.8346 24.5147 80.5413 24.6693 80.2213 24.808C79.9119 24.936 79.5866 25.0373 79.2453 25.112C78.9039 25.1867 78.5679 25.224 78.2373 25.224C77.0426 25.224 76.1413 24.8933 75.5333 24.232C74.9359 23.56 74.6373 22.4987 74.6373 21.048V18.76ZM84.231 18.76H82.647V17H84.231V15.176L86.311 14.584V17H90.503V18.76H86.311V21.048C86.311 21.8693 86.4657 22.4667 86.775 22.84C87.0843 23.2027 87.5163 23.384 88.071 23.384C88.359 23.384 88.6203 23.352 88.855 23.288C89.0897 23.2133 89.2977 23.1227 89.479 23.016C89.671 22.9093 89.8417 22.792 89.991 22.664C90.151 22.536 90.295 22.4187 90.423 22.312L91.383 23.752C91.2017 23.9653 90.9723 24.1627 90.695 24.344C90.4283 24.5147 90.135 24.6693 89.815 24.808C89.5057 24.936 89.1803 25.0373 88.839 25.112C88.4977 25.1867 88.1617 25.224 87.831 25.224C86.6363 25.224 85.735 24.8933 85.127 24.232C84.5297 23.56 84.231 22.4987 84.231 21.048V18.76ZM100.513 24.152C100.374 24.28 100.193 24.408 99.9688 24.536C99.7554 24.6533 99.4994 24.7653 99.2008 24.872C98.9128 24.9787 98.5928 25.064 98.2408 25.128C97.8888 25.192 97.5154 25.224 97.1208 25.224C96.4381 25.224 95.8248 25.128 95.2808 24.936C94.7474 24.744 94.2941 24.4667 93.9208 24.104C93.5474 23.7307 93.2594 23.288 93.0568 22.776C92.8648 22.2533 92.7688 21.6613 92.7688 21C92.7688 20.296 92.8808 19.6827 93.1048 19.16C93.3288 18.6267 93.6328 18.184 94.0168 17.832C94.4114 17.48 94.8701 17.2187 95.3928 17.048C95.9154 16.8667 96.4808 16.776 97.0888 16.776C97.4941 16.776 97.9101 16.8293 98.3368 16.936C98.7741 17.0427 99.1741 17.2293 99.5368 17.496C99.8994 17.752 100.193 18.0987 100.417 18.536C100.651 18.9733 100.769 19.528 100.769 20.2C100.769 20.6587 100.715 21.1547 100.609 21.688H94.8488C94.8594 22.0293 94.9288 22.3173 95.0568 22.552C95.1954 22.7867 95.3714 22.9787 95.5848 23.128C95.8088 23.2773 96.0594 23.3893 96.3368 23.464C96.6248 23.528 96.9288 23.56 97.2488 23.56C97.8888 23.56 98.4114 23.4853 98.8168 23.336C99.2328 23.1867 99.5688 23.0053 99.8248 22.792L100.513 24.152ZM97.0568 18.44C96.7794 18.44 96.5181 18.4773 96.2728 18.552C96.0274 18.6267 95.8034 18.7387 95.6008 18.888C95.4088 19.0267 95.2488 19.2027 95.1208 19.416C94.9928 19.6293 94.9181 19.8693 94.8968 20.136H98.8328C98.8328 19.6133 98.6834 19.2027 98.3848 18.904C98.0968 18.5947 97.6541 18.44 97.0568 18.44ZM102.187 23.24H104.171V18.76H102.187V17H105.786L106.027 18.056H106.091C106.389 17.704 106.731 17.4107 107.115 17.176C107.499 16.9413 107.947 16.824 108.459 16.824C109.099 16.824 109.6 17.0587 109.963 17.528C110.336 17.9973 110.523 18.7813 110.523 19.88H108.651C108.651 19.496 108.592 19.2187 108.475 19.048C108.368 18.8667 108.192 18.776 107.947 18.776C107.52 18.776 107.173 18.8827 106.907 19.096C106.651 19.3093 106.432 19.5547 106.251 19.832V23.24H109.723V25H102.187V23.24Z" fill="white"/>
<path d="M34.4 13.5496C33.6344 13.8896 32.812 14.1184 31.9488 14.2216C32.8304 13.6936 33.5064 12.8576 33.8248 11.8608C33.0008 12.3496 32.0872 12.7048 31.1144 12.8968C30.336 12.0672 29.2272 11.5488 28 11.5488C25.6432 11.5488 23.7328 13.46 23.7328 15.816C23.7328 16.1504 23.7712 16.4768 23.8432 16.788C20.2968 16.6104 17.1528 14.9112 15.0472 12.3288C14.6808 12.9592 14.4704 13.692 14.4704 14.4752C14.4704 15.9552 15.2232 17.2616 16.368 18.0264C15.6688 18.004 15.0104 17.812 14.4352 17.4928C14.4352 17.5112 14.4352 17.528 14.4352 17.5464C14.4352 19.6144 15.9056 21.3392 17.8584 21.7304C17.5008 21.828 17.1232 21.88 16.7336 21.88C16.4592 21.88 16.1912 21.8528 15.9312 21.804C16.4744 23.4992 18.0504 24.7336 19.9176 24.768C18.4576 25.9128 16.6176 26.5952 14.6176 26.5952C14.2736 26.5952 13.9336 26.5752 13.5992 26.5352C15.488 27.7456 17.7304 28.452 20.1408 28.452C27.9904 28.452 32.2816 21.9496 32.2816 16.3104C32.2816 16.1256 32.2776 15.9416 32.2696 15.7584C33.104 15.156 33.828 14.4048 34.4 13.5496Z" fill="#00ACEE"/>
</svg>
