<svg width="24" height="24" viewBox="0 0 24 24" fill="none" xmlns="http://www.w3.org/2000/svg">
<path d="M22.4 5.54963C21.6344 5.88963 20.812 6.11843 19.9488 6.22163C20.8304 5.69363 21.5064 4.85763 21.8248 3.86083C21.0008 4.34963 20.0872 4.70483 19.1144 4.89683C18.336 4.06723 17.2272 3.54883 16 3.54883C13.6432 3.54883 11.7328 5.46003 11.7328 7.81603C11.7328 8.15043 11.7712 8.47683 11.8432 8.78803C8.29678 8.61043 5.15278 6.91123 3.04718 4.32883C2.68078 4.95923 2.47038 5.69203 2.47038 6.47523C2.47038 7.95523 3.22318 9.26163 4.36798 10.0264C3.66878 10.004 3.01038 9.81203 2.43518 9.49283C2.43518 9.51123 2.43518 9.52803 2.43518 9.54643C2.43518 11.6144 3.90558 13.3392 5.85838 13.7304C5.50078 13.828 5.12318 13.88 4.73358 13.88C4.45918 13.88 4.19118 13.8528 3.93118 13.804C4.47438 15.4992 6.05038 16.7336 7.91758 16.768C6.45758 17.9128 4.61758 18.5952 2.61758 18.5952C2.27358 18.5952 1.93358 18.5752 1.59918 18.5352C3.48798 19.7456 5.73038 20.452 8.14078 20.452C15.9904 20.452 20.2816 13.9496 20.2816 8.31043C20.2816 8.12563 20.2776 7.94163 20.2696 7.75843C21.104 7.15603 21.828 6.40483 22.4 5.54963Z" fill="#00ACEE"/>
</svg>
