<svg width="212" height="40" viewBox="0 0 212 40" fill="none" xmlns="http://www.w3.org/2000/svg">
<g clip-path="url(#clip0_6285_11998)">
<path d="M75.4673 22.7583H78.5621V25.5436C78.6184 25.5624 78.6747 25.5812 78.7309 25.5999C79.1624 25.7875 79.6313 25.9469 80.1377 26.0782C80.6629 26.1907 81.2162 26.247 81.7976 26.247C82.848 26.247 83.6639 26.0407 84.2454 25.6281C84.8268 25.1967 85.1176 24.6246 85.1176 23.9118C85.1176 23.2741 84.8737 22.7583 84.386 22.3644C83.9171 21.9705 83.3263 21.6235 82.6136 21.3234C81.9196 21.0233 81.1505 20.7232 80.3065 20.4231C79.4812 20.123 78.7122 19.7479 77.9994 19.2977C77.3055 18.8288 76.7146 18.2474 76.227 17.5534C75.758 16.8594 75.5236 15.9591 75.5236 14.8524C75.5236 14.0084 75.683 13.2394 76.0019 12.5454C76.3395 11.8326 76.799 11.223 77.3805 10.7166C77.9807 10.2102 78.6934 9.81629 79.5187 9.53494C80.344 9.25359 81.2631 9.11292 82.2759 9.11292C83.4201 9.11292 84.5455 9.21608 85.6521 9.4224C86.7587 9.62872 87.6403 9.91007 88.2968 10.2664V15.9778H85.202V12.8548C85.1457 12.8548 85.0894 12.8455 85.0331 12.8267C84.6205 12.7142 84.1703 12.6298 83.6827 12.5735C83.2138 12.4985 82.7448 12.461 82.2759 12.461C81.3756 12.461 80.6629 12.6391 80.1377 12.9955C79.6313 13.3519 79.3781 13.8302 79.3781 14.4304C79.3781 15.0494 79.6125 15.5558 80.0814 15.9497C80.5691 16.3436 81.1599 16.6999 81.8539 17.0188C82.5667 17.3377 83.3357 17.6565 84.161 17.9754C85.005 18.2942 85.774 18.6881 86.468 19.157C87.1808 19.6072 87.7716 20.1793 88.2405 20.8733C88.7282 21.5673 88.972 22.4394 88.972 23.4898C88.972 24.5027 88.7845 25.3936 88.4093 26.1626C88.0342 26.9129 87.509 27.5506 86.8338 28.0758C86.1585 28.5822 85.3614 28.9573 84.4423 29.2012C83.5232 29.4638 82.5291 29.5951 81.46 29.5951C80.7473 29.5951 80.0814 29.5388 79.4625 29.4263C78.8622 29.3137 78.2995 29.173 77.7744 29.0042C77.2679 28.8354 76.8178 28.6572 76.4239 28.4697C76.03 28.2821 75.7111 28.1227 75.4673 27.9914V22.7583ZM100.304 15.1338H105.538V24.9247C105.538 25.3186 105.538 25.7125 105.538 26.1063H107.676V29.2012H103.23L102.583 27.1192H102.471C102.039 27.8319 101.392 28.4228 100.53 28.8917C99.6667 29.3606 98.7102 29.5951 97.6598 29.5951C96.9471 29.5951 96.2906 29.5013 95.6904 29.3137C95.1089 29.1261 94.6119 28.8167 94.1992 28.3853C93.7866 27.9539 93.4677 27.3724 93.2426 26.6409C93.0176 25.9094 92.905 24.9903 92.905 23.8837V18.2286H91.3013V15.1338H96.5625V23.1241C96.5625 24.2682 96.7407 25.0935 97.0971 25.5999C97.4722 26.1063 98.0537 26.3596 98.8415 26.3596C99.5355 26.3596 100.154 26.1532 100.698 25.7406C101.261 25.3279 101.655 24.8215 101.88 24.2213V18.2286H100.304V15.1338ZM108.401 15.1338H113.184L113.606 16.8219H113.719C114.694 15.4339 116.27 14.7399 118.446 14.7399C119.308 14.7399 120.096 14.8806 120.809 15.1619C121.54 15.4245 122.159 15.8465 122.666 16.428C123.191 17.0094 123.594 17.7409 123.876 18.6225C124.157 19.504 124.298 20.5638 124.298 21.8017C124.298 23.0021 124.138 24.09 123.819 25.0654C123.5 26.0219 123.041 26.8378 122.441 27.5131C121.84 28.1883 121.109 28.7041 120.246 29.0605C119.383 29.4169 118.399 29.5951 117.292 29.5951C116.711 29.5951 116.138 29.5482 115.576 29.4544C115.013 29.3794 114.544 29.2481 114.169 29.0605V34.8281H110.512V18.2286H108.401V15.1338ZM117.348 17.8347C116.636 17.8347 115.979 18.0129 115.379 18.3693C114.797 18.7256 114.394 19.2602 114.169 19.973V25.825C114.432 26.0313 114.807 26.2001 115.294 26.3314C115.801 26.444 116.307 26.5002 116.814 26.5002C117.339 26.5002 117.827 26.4158 118.277 26.247C118.727 26.0595 119.121 25.7687 119.458 25.3748C119.796 24.981 120.059 24.4839 120.246 23.8837C120.434 23.2835 120.528 22.5614 120.528 21.7173C120.528 20.4794 120.227 19.5228 119.627 18.8476C119.027 18.1723 118.267 17.8347 117.348 17.8347ZM140.807 27.71C140.563 27.9351 140.244 28.1602 139.85 28.3853C139.475 28.5916 139.025 28.7885 138.5 28.9761C137.993 29.1637 137.431 29.3137 136.812 29.4263C136.193 29.5388 135.536 29.5951 134.842 29.5951C133.642 29.5951 132.563 29.4263 131.607 29.0886C130.669 28.751 129.872 28.2633 129.215 27.6256C128.559 26.9691 128.052 26.1907 127.696 25.2904C127.358 24.3714 127.19 23.3304 127.19 22.1675C127.19 20.9295 127.387 19.851 127.78 18.932C128.174 17.9941 128.709 17.2157 129.384 16.5968C130.078 15.9778 130.885 15.5183 131.804 15.2182C132.723 14.8993 133.717 14.7399 134.786 14.7399C135.499 14.7399 136.23 14.8337 136.981 15.0212C137.75 15.2088 138.453 15.537 139.091 16.0059C139.728 16.4561 140.244 17.0657 140.638 17.8347C141.051 18.6037 141.257 19.5791 141.257 20.7607C141.257 21.5673 141.163 22.4394 140.976 23.3773H130.847C130.866 23.9775 130.988 24.4839 131.213 24.8965C131.457 25.3092 131.766 25.6468 132.141 25.9094C132.535 26.172 132.976 26.3689 133.464 26.5002C133.97 26.6128 134.505 26.669 135.067 26.669C136.193 26.669 137.112 26.5377 137.825 26.2752C138.556 26.0126 139.147 25.6937 139.597 25.3186L140.807 27.71ZM134.73 17.6659C134.242 17.6659 133.783 17.7315 133.351 17.8628C132.92 17.9941 132.526 18.1911 132.169 18.4537C131.832 18.6975 131.55 19.007 131.325 19.3821C131.1 19.7573 130.969 20.1793 130.932 20.6482H137.853C137.853 19.7291 137.59 19.007 137.065 18.4818C136.558 17.9379 135.78 17.6659 134.73 17.6659ZM144.262 26.1063H147.75V18.2286H144.262V15.1338H150.592L151.014 16.9907H151.126C151.652 16.3717 152.252 15.8559 152.927 15.4433C153.602 15.0306 154.39 14.8243 155.29 14.8243C156.416 14.8243 157.297 15.2369 157.935 16.0622C158.592 16.8875 158.92 18.2661 158.92 20.198H155.628C155.628 19.5228 155.525 19.0351 155.319 18.735C155.131 18.4162 154.821 18.2567 154.39 18.2567C153.64 18.2567 153.03 18.4443 152.561 18.8194C152.111 19.1946 151.727 19.626 151.408 20.1136V26.1063H157.513V29.2012H144.262V26.1063ZM169.155 9.50681H175.035V21.661C175.035 23.0678 175.11 24.4558 175.26 25.825C175.26 25.9188 175.27 26.0126 175.288 26.1063H177.089V29.2012H172.559L172.194 27.4005H172.081C171.893 27.7382 171.64 28.0383 171.321 28.3009C171.003 28.5634 170.646 28.7979 170.252 29.0042C169.858 29.1918 169.427 29.3325 168.958 29.4263C168.489 29.5388 168.02 29.5951 167.551 29.5951C166.67 29.5951 165.835 29.4544 165.047 29.173C164.278 28.8917 163.603 28.4603 163.022 27.8788C162.44 27.2786 161.981 26.5284 161.643 25.6281C161.305 24.709 161.137 23.6305 161.137 22.3925C161.137 21.1921 161.315 20.123 161.671 19.1852C162.046 18.2474 162.553 17.4596 163.19 16.8219C163.847 16.1654 164.616 15.6683 165.497 15.3307C166.379 14.9743 167.345 14.7962 168.395 14.7962C168.977 14.7962 169.521 14.8337 170.027 14.9087C170.552 14.965 171.003 15.0681 171.378 15.2182V12.6016H169.155V9.50681ZM168.395 26.5002C169.108 26.5002 169.736 26.3314 170.28 25.9938C170.843 25.6374 171.209 25.131 171.378 24.4745V18.5099C171.115 18.3036 170.749 18.1536 170.28 18.0598C169.83 17.9472 169.352 17.891 168.845 17.891C168.339 17.891 167.842 17.9754 167.354 18.1442C166.885 18.313 166.463 18.585 166.088 18.9601C165.732 19.3165 165.441 19.7854 165.216 20.3668C165.01 20.9483 164.907 21.661 164.907 22.5051C164.907 23.7055 165.207 24.6715 165.807 25.403C166.407 26.1345 167.27 26.5002 168.395 26.5002ZM180.459 16.0904C181.21 15.7527 182.072 15.462 183.048 15.2182C184.042 14.9743 185.214 14.8524 186.565 14.8524C187.54 14.8524 188.365 14.9743 189.04 15.2182C189.734 15.4433 190.288 15.7715 190.7 16.2029C191.132 16.6343 191.441 17.1501 191.629 17.7503C191.816 18.3505 191.91 19.0257 191.91 19.776C191.91 20.7326 191.873 21.5485 191.798 22.2237C191.741 22.899 191.713 23.4992 191.713 24.0244C191.713 24.4183 191.732 24.859 191.769 25.3467C191.807 25.6093 191.835 25.8625 191.854 26.1063H193.683V29.2012H189.012L188.647 27.288H188.506C188.131 27.8695 187.596 28.3759 186.902 28.8073C186.208 29.2199 185.27 29.4263 184.089 29.4263C182.682 29.4263 181.566 29.0511 180.741 28.3009C179.915 27.5506 179.503 26.5565 179.503 25.3186C179.503 24.5308 179.643 23.8556 179.925 23.2929C180.225 22.7114 180.647 22.2425 181.191 21.8861C181.753 21.511 182.419 21.239 183.188 21.0702C183.976 20.8826 184.848 20.7889 185.805 20.7889C186.143 20.7889 186.499 20.8076 186.874 20.8451C187.249 20.8826 187.709 20.9202 188.253 20.9577C188.29 20.7701 188.309 20.5825 188.309 20.395V19.8604C188.309 19.1477 188.103 18.6412 187.69 18.3411C187.277 18.0223 186.668 17.8628 185.861 17.8628C184.905 17.8628 184.042 17.9848 183.273 18.2286C182.504 18.4724 181.857 18.7163 181.331 18.9601L180.459 16.0904ZM185.27 26.4158C186.171 26.4158 186.846 26.2564 187.296 25.9375C187.746 25.5999 188.074 25.2435 188.281 24.8684V23.1803C188.093 23.1428 187.812 23.1053 187.437 23.0678C187.062 23.0115 186.658 22.9834 186.227 22.9834C185.871 22.9834 185.514 23.0209 185.158 23.0959C184.801 23.1522 184.483 23.2553 184.201 23.4054C183.92 23.5367 183.695 23.7149 183.526 23.94C183.357 24.165 183.273 24.437 183.273 24.7559C183.273 25.2811 183.423 25.6937 183.723 25.9938C184.042 26.2752 184.558 26.4158 185.27 26.4158ZM196.293 22.1675C196.293 20.9858 196.472 19.9354 196.828 19.0164C197.184 18.0973 197.691 17.3189 198.347 16.6812C199.004 16.0435 199.782 15.5652 200.682 15.2463C201.601 14.9087 202.624 14.7399 203.749 14.7399C204.931 14.7399 205.981 14.9181 206.9 15.2744C207.838 15.6308 208.626 16.1372 209.263 16.7937C209.901 17.4314 210.379 18.2098 210.698 19.1289C211.036 20.048 211.205 21.0608 211.205 22.1675C211.205 23.3491 211.027 24.3995 210.67 25.3186C210.314 26.2376 209.807 27.016 209.151 27.6538C208.494 28.2915 207.707 28.7791 206.788 29.1168C205.887 29.4356 204.874 29.5951 203.749 29.5951C202.567 29.5951 201.508 29.4169 200.57 29.0605C199.651 28.7041 198.872 28.2071 198.235 27.5694C197.597 26.9129 197.109 26.1251 196.772 25.206C196.453 24.287 196.293 23.2741 196.293 22.1675ZM200.063 22.1675C200.063 22.7864 200.148 23.3585 200.317 23.8837C200.485 24.4089 200.729 24.8684 201.048 25.2623C201.367 25.6562 201.751 25.9657 202.202 26.1907C202.652 26.3971 203.168 26.5002 203.749 26.5002C204.837 26.5002 205.718 26.1532 206.394 25.4592C207.088 24.7653 207.435 23.668 207.435 22.1675C207.435 20.8733 207.116 19.8323 206.478 19.0445C205.84 18.238 204.931 17.8347 203.749 17.8347C203.224 17.8347 202.736 17.9191 202.286 18.0879C201.836 18.238 201.442 18.4912 201.104 18.8476C200.786 19.2039 200.532 19.6541 200.345 20.198C200.157 20.742 200.063 21.3985 200.063 22.1675Z" fill="white"/>
<path d="M43.7722 9.21488L47.0963 23.0922C47.4606 24.6132 46.3077 26.075 44.7436 26.075H14.7642C11.9084 26.075 9.35643 24.2917 8.37471 21.6099L8.10242 20.8661C7.95795 20.4714 8.2501 20.0533 8.67037 20.0533H28.2492C28.4811 20.0533 28.669 19.8654 28.669 19.6335C28.669 17.8946 27.2594 16.4849 25.5204 16.4849H11.2535C8.3977 16.4849 5.84578 14.7016 4.86405 12.0198L4.61898 11.3503C4.4745 10.9557 4.76666 10.5376 5.18693 10.5376H23.7887C24.0206 10.5376 24.2085 10.3496 24.2085 10.1178C24.2085 8.37886 22.7989 6.96919 21.0599 6.96919H7.77009C4.91426 6.96919 2.36234 5.18584 1.38061 2.50405L1.16275 1.90892C1.01828 1.51426 1.31043 1.09619 1.7307 1.09619H33.4792C38.3749 1.09619 42.6318 4.45381 43.7722 9.21488Z" fill="url(#paint0_linear_6285_11998)"/>
<path d="M55.542 13.3453L60.2039 33.3662C60.5571 34.8834 59.4054 36.3341 57.8476 36.3341H26.5788C23.6172 36.3341 20.9958 34.4185 20.0962 31.5968L19.7793 30.6031C19.5928 30.0179 20.0295 29.4203 20.6437 29.4203H49.1965C50.7629 29.4203 51.9164 27.9543 51.5478 26.4318L47.3771 9.20492C47.2389 8.63399 47.6715 8.08423 48.2589 8.08423H48.9151C52.0785 8.08423 54.8246 10.2644 55.542 13.3453Z" fill="url(#paint1_linear_6285_11998)"/>
</g>
<defs>
<linearGradient id="paint0_linear_6285_11998" x1="24.1342" y1="1.09619" x2="24.1342" y2="26.075" gradientUnits="userSpaceOnUse">
<stop stop-color="#FFC803"/>
<stop offset="1" stop-color="#FFA903"/>
</linearGradient>
<linearGradient id="paint1_linear_6285_11998" x1="39.9448" y1="8.08423" x2="39.9448" y2="36.3341" gradientUnits="userSpaceOnUse">
<stop stop-color="#FF7421"/>
<stop offset="1" stop-color="#EC5901"/>
</linearGradient>
<clipPath id="clip0_6285_11998">
<rect width="212" height="40" fill="white"/>
</clipPath>
</defs>
</svg>
