<svg width="223" height="35" viewBox="0 0 223 35" fill="none" xmlns="http://www.w3.org/2000/svg">
<path d="M203.446 15.8356C203.035 15.7287 202.618 15.6303 202.207 15.5191C201.622 15.3565 200.869 15.4763 200.546 14.8604C200.508 14.9032 200.471 14.9417 200.434 14.9844C200.49 15.0657 200.546 15.1512 200.614 15.2453C199.892 15.1641 199.195 15.0871 198.498 15.0058C198.479 15.0358 198.467 15.0614 198.448 15.0914C198.747 15.1983 199.046 15.3095 199.282 15.395C199.12 15.395 198.766 15.472 198.654 15.3822C197.919 14.7791 196.787 14.9074 195.903 14.5952C195.922 14.5439 195.94 14.4968 195.953 14.4455C196.525 14.4968 197.092 14.5439 197.664 14.5952C197.67 14.5824 197.677 14.5695 197.683 14.5567C197.484 14.4968 197.291 14.4369 197.092 14.3771C197.098 14.3471 197.104 14.3172 197.104 14.2872C197.602 14.3343 198.1 14.3813 198.598 14.4284C198.61 14.4113 198.623 14.3942 198.635 14.3813C198.523 14.3343 198.417 14.283 198.305 14.2359C198.299 14.2017 198.299 14.1718 198.293 14.1375C198.728 14.0991 199.158 14.0606 199.593 14.0221C199.587 13.9878 199.587 13.9536 199.581 13.9194C199.089 14.0306 198.641 13.774 198.094 13.9665C197.789 14.0734 197.303 13.9023 196.917 13.7783C197.197 13.7483 197.477 13.7184 197.758 13.6884C197.758 13.6671 197.751 13.6457 197.745 13.6243C197.322 13.6243 196.899 13.6243 196.388 13.6243C196.538 13.7569 196.644 13.8467 196.843 14.0221C196.127 13.9494 195.542 13.8724 194.951 13.8381C194.173 13.7954 193.389 13.7997 192.611 13.7569C192.43 13.7483 192.256 13.6457 192.088 13.5003C194.086 13.4703 196.09 13.4404 198.087 13.4147C198.087 13.3762 198.094 13.3334 198.094 13.2949C197.596 13.218 197.092 13.1367 196.594 13.0597C196.594 13.0383 196.594 13.0212 196.6 12.9998C197.291 12.9998 197.988 12.9998 198.679 12.9998C198.685 12.9485 198.691 12.8972 198.704 12.8458C198.554 12.8458 198.399 12.8416 198.249 12.8458C198.006 12.8501 197.764 12.8758 197.521 12.8672C197.303 12.8587 197.079 12.8159 196.818 12.786C196.886 12.6833 196.93 12.6106 196.967 12.555C196.519 12.4866 196.083 12.4181 195.642 12.3497C195.648 12.324 195.648 12.2941 195.654 12.2684C196.121 12.3069 196.594 12.3454 197.061 12.3839C197.061 12.3454 197.061 12.3112 197.061 12.2727C197.229 12.2813 197.397 12.2855 197.558 12.2941C197.558 12.2727 197.565 12.247 197.565 12.2257C196.438 12.1016 195.312 11.9776 194.011 11.8322C194.565 11.768 194.988 11.7209 195.405 11.6739C195.405 11.6354 195.411 11.5969 195.411 11.5584C195.169 11.567 194.932 11.5841 194.689 11.5841C194.378 11.5841 194.055 11.5969 193.75 11.5499C193.476 11.5071 193.227 11.3831 192.984 11.2034C193.606 11.2034 194.223 11.2034 194.845 11.2034C194.086 10.7543 193.221 11.1136 192.43 10.9724C192.43 10.9339 192.43 10.8955 192.43 10.8527C192.829 10.8527 193.233 10.8741 193.631 10.8484C194.366 10.8056 195.1 10.8826 195.841 10.6688C196.363 10.5191 197.029 10.6132 197.627 10.6303C198.087 10.6431 198.548 10.703 199.027 10.7415C198.828 10.7629 198.635 10.7842 198.448 10.8056C198.461 10.8527 198.467 10.8997 198.479 10.9468C198.903 10.8783 199.338 10.8399 199.737 10.7286C200.06 10.6345 200.322 10.4036 200.645 10.3223C200.963 10.2453 201.336 10.2966 201.678 10.271C201.933 10.2496 202.189 10.1641 202.444 10.1598C202.811 10.1512 203.178 10.194 203.552 10.2111C203.813 10.2239 204.074 10.2282 204.342 10.2368C204.348 10.1983 204.354 10.1598 204.354 10.1213C204.074 10.1085 203.794 10.0956 203.514 10.0828C203.514 10.0614 203.514 10.0443 203.52 10.0229C204.031 9.99297 204.541 9.96303 205.051 9.93737C205.051 9.91598 205.051 9.89887 205.051 9.87749C202.637 9.87749 200.216 9.87749 197.801 9.87749C197.801 9.85182 197.801 9.82616 197.801 9.79622C198.679 9.72351 199.562 9.6123 200.44 9.59519C201.33 9.57808 202.226 9.67218 203.122 9.67646C204.336 9.68074 205.556 9.71068 206.757 9.60803C207.864 9.51393 208.947 9.26585 210.049 9.03061C208.941 9.0135 207.833 9.00067 206.732 8.97501C205.786 8.95362 204.809 9.00494 203.9 8.85524C202.581 8.63711 201.268 8.68843 199.942 8.64566C198.735 8.60717 197.533 8.49596 196.332 8.48313C195.797 8.47885 195.262 8.64566 194.72 8.7141C194.59 8.73121 194.44 8.67132 194.154 8.62C194.509 8.55584 194.727 8.51735 195.038 8.46602C194.428 8.11101 193.781 8.188 193.171 8.08535C193.582 8.08535 193.986 8.08535 194.422 8.08535C194.198 8.02119 194.005 7.96559 193.806 7.90999C193.818 7.87577 193.824 7.83728 193.837 7.80306C194.279 7.84155 194.72 7.88005 195.162 7.91427C195.169 7.8886 195.175 7.86722 195.181 7.84155C195.106 7.80734 195.032 7.77312 194.957 7.73462C195.1 7.5892 195.361 7.65764 196.276 8.08535C196.115 8.12385 195.978 8.15806 195.847 8.188C195.878 8.20084 195.909 8.21794 195.934 8.23078C196.917 8.23078 197.901 8.23078 198.884 8.23078C198.89 8.19228 198.89 8.15379 198.896 8.11957C197.913 7.98698 196.924 7.85439 195.94 7.72179C195.934 7.70041 195.928 7.67474 195.922 7.65336C197.496 7.60203 199.077 7.55071 200.651 7.4951C200.658 7.45233 200.658 7.41384 200.664 7.37107C200.508 7.31974 200.353 7.26413 200.079 7.17431C200.44 7.1957 200.67 7.20853 200.9 7.22136C200.907 7.20426 200.913 7.19142 200.919 7.17431C200.745 7.11871 200.564 7.05883 200.328 6.98184C200.452 6.90485 200.533 6.8578 200.502 6.87919C199.289 6.80648 198 6.72949 196.712 6.65678C196.251 6.63112 195.785 6.62684 195.318 6.5969C194.646 6.55413 193.98 6.49425 193.314 6.44292C193.314 6.4087 193.32 6.37021 193.32 6.33599C195.878 6.33599 198.43 6.33599 200.988 6.33599C200.994 6.30605 200.994 6.27183 201 6.24189C200.371 6.20767 199.737 6.14352 199.108 6.13924C197.397 6.13068 195.685 6.17346 193.967 6.15207C193.09 6.14352 192.219 6.03231 191.341 5.99381C191.13 5.98526 190.905 6.09219 190.688 6.14352C190.576 6.16918 190.457 6.21623 190.345 6.20767C189.829 6.1649 189.312 6.08791 188.796 6.06225C187.987 6.01948 187.178 5.99809 186.369 5.98098C185.79 5.96815 185.205 5.97671 184.62 5.97671C184.638 5.95104 184.694 5.88261 184.775 5.78424C184.184 5.75002 183.618 5.73291 183.051 5.68158C182.149 5.60459 181.253 5.51049 180.357 5.40784C179.292 5.2838 178.234 5.11272 177.164 5.02717C176.728 4.99296 176.274 5.15549 175.82 5.19398C175.527 5.21965 175.222 5.20681 174.936 5.16404C174.139 5.04 173.355 4.88603 172.565 4.74488C172.117 5.08705 171.339 4.71922 170.909 5.16404C170.847 5.2282 170.555 5.1726 170.368 5.1726C170.399 5.03573 170.424 4.89458 170.455 4.77054C169.883 4.97585 169.64 4.49253 169.204 4.38987C168.881 4.31289 168.551 4.25301 168.221 4.1974C167.984 4.15891 167.742 4.15035 167.505 4.12469C167.455 4.12041 167.406 4.09903 167.356 4.09903C166.852 4.08192 166.348 4.06909 165.806 4.05198C165.719 4.09047 165.551 4.24017 165.383 4.24017C164.736 4.2359 164.088 4.18885 163.441 4.14608C162.844 4.10758 162.246 4.05626 161.649 4.01348C160.883 3.96216 160.118 3.91939 159.309 3.94933C159.67 4.03059 160.037 4.11614 160.398 4.1974C160.379 4.24017 160.361 4.27867 160.342 4.32144C159.639 4.15035 158.935 3.97927 158.232 3.80818C158.245 3.75685 158.251 3.70553 158.263 3.64992C159.259 3.64992 160.255 3.64992 161.288 3.64992C161.238 3.49167 160.678 3.5045 161.195 3.21793C159.856 3.10245 158.649 2.99979 157.33 2.88859C157.504 2.99552 157.604 3.05968 157.716 3.12811C156.739 3.21793 155.78 3.30775 154.778 3.40185C156.023 3.64992 157.236 3.89372 158.456 4.13752C158.444 4.20168 158.431 4.26584 158.419 4.32572C156.844 4.26584 155.27 4.20168 153.701 4.1418C153.701 4.08192 153.701 4.02632 153.701 3.96644C154.112 3.96644 154.523 3.96644 155.058 3.96644C154.417 3.6542 153.888 3.81673 153.353 3.86378C152.868 3.90655 152.376 3.91939 151.884 3.92366C151.772 3.92366 151.666 3.79963 151.542 3.78252C151.324 3.75258 151.1 3.76113 150.882 3.75685C150.664 3.75257 150.44 3.75685 150.167 3.75685C150.31 3.83384 150.428 3.89372 150.559 3.96216C150.179 3.9921 149.824 4.04342 149.469 4.03915C149.326 4.03915 149.183 3.92366 149.071 3.78252C148.816 3.80818 148.561 3.83384 148.299 3.85951C148.293 3.81673 148.281 3.77396 148.275 3.73547C149.339 3.47884 150.496 3.69269 151.573 3.43606C151.48 3.38902 151.361 3.33341 151.249 3.27353C151.262 3.24787 151.274 3.22221 151.287 3.19654C151.666 3.28636 152.052 3.37619 152.463 3.47028C152.388 3.53872 152.32 3.5986 152.133 3.76969C152.681 3.7483 153.098 3.73119 153.54 3.71836C153.502 3.58577 153.477 3.51306 153.44 3.38902C153.845 3.45318 154.206 3.50878 154.573 3.56438C154.579 3.52161 154.591 3.48311 154.598 3.44034C153.291 2.96985 151.778 3.29492 150.422 2.9613C150.621 3.03829 150.814 3.11955 151.013 3.19654C151.007 3.22221 151 3.24359 150.988 3.26926C150.167 3.111 149.345 2.94847 148.524 2.79021C148.505 2.82443 148.492 2.85437 148.474 2.88859C148.866 3.0169 149.264 3.14522 149.725 3.29492C149.606 3.34625 149.513 3.41896 149.426 3.41468C148.231 3.38046 147.036 3.34197 145.835 3.29492C145.711 3.29064 145.598 3.2051 145.48 3.15805C145.455 3.18799 145.437 3.2222 145.412 3.25214C145.542 3.31203 145.661 3.38474 145.798 3.42751C145.953 3.47884 146.121 3.50022 146.445 3.57293C146.177 3.67986 146.065 3.72263 145.928 3.77396C146.078 3.85095 146.196 3.91511 146.345 3.99637C145.823 4.34283 145.194 4.16746 144.64 4.25728C143.769 4.39415 142.897 4.30861 142.026 4.32572C141.622 4.33427 141.174 4.52674 140.838 4.44548C139.86 4.20168 138.858 4.38988 137.919 4.25728C137.29 4.16746 136.637 4.26156 136.027 4.05626C136.151 4.05626 136.282 4.05626 136.406 4.05626C136.413 4.03487 136.413 4.01348 136.419 3.9921C136.226 3.97071 136.033 3.94932 135.84 3.92794C135.74 4.0092 135.635 4.15463 135.535 4.15463C135.28 4.15035 135.031 4.06909 134.776 4.04342C134.079 3.97071 133.382 3.91511 132.691 3.84667C132.56 3.83384 132.436 3.78679 132.305 3.75685C132.815 3.66703 133.32 3.64992 133.817 3.67131C134.135 3.68414 134.446 3.74402 134.751 3.79963C134.907 3.82956 135.043 3.898 135.187 3.94933C135.18 3.9921 135.174 4.03914 135.168 4.08192C135.392 4.03059 135.616 3.97927 135.84 3.92366C136.045 3.84667 136.269 3.68414 136.45 3.7098C136.948 3.77824 137.39 3.78252 137.869 3.61571C138.155 3.51733 138.529 3.55155 138.865 3.53016C138.877 3.49595 138.883 3.46173 138.896 3.42751C138.522 3.34197 138.149 3.25642 137.776 3.17088C137.912 3.12383 138.068 3.07251 138.217 3.02118C138.211 2.98696 138.205 2.95274 138.199 2.91853C137.091 3.20937 135.983 3.15805 134.875 2.94847C134.869 2.98696 134.857 3.02118 134.851 3.05967C135.012 3.09817 135.18 3.13239 135.342 3.17088C135.342 3.19227 135.342 3.21365 135.342 3.23504C135.05 3.22221 134.751 3.21365 134.458 3.18371C134.402 3.17943 134.315 3.09389 134.315 3.04684C134.315 2.99979 134.396 2.9228 134.458 2.90997C134.608 2.88431 134.763 2.88859 134.919 2.85865C134.21 2.85865 133.506 2.85865 132.703 2.85865C133.152 3.00835 133.544 3.14094 134.079 3.32058C132.585 3.50022 131.222 3.27781 129.722 3.29492C130.133 3.39757 130.395 3.46173 130.656 3.52589C130.65 3.57293 130.643 3.61571 130.637 3.66276C130.357 3.64137 130.071 3.64137 129.81 3.58149C129.679 3.55155 129.598 3.4104 129.492 3.32058C129.523 3.27781 129.548 3.23931 129.579 3.19654C128.671 3.12383 127.756 3.05112 126.847 2.97841C126.847 2.9228 126.853 2.8672 126.853 2.80732C127.793 2.72605 128.739 2.64479 129.679 2.5678C129.679 2.55497 129.679 2.54214 129.673 2.5293C128.664 2.5293 127.662 2.5293 126.642 2.5293C126.947 2.46942 127.258 2.40955 127.569 2.34966C127.563 2.324 127.557 2.30261 127.544 2.27695C126.499 2.37105 125.453 2.46942 124.42 2.56352C125.067 2.73461 125.708 2.9057 126.449 3.09817C125.397 3.2051 124.476 3.29492 123.555 3.38902C123.555 3.41896 123.555 3.4489 123.555 3.47884C123.835 3.49167 124.115 3.5045 124.457 3.51733C124.196 3.79535 124.314 3.88089 124.706 3.92366C125.441 4.00921 126.169 4.14607 126.897 4.26583C126.909 4.21879 126.922 4.17602 126.934 4.12896C126.299 4.03059 125.665 3.93649 124.912 3.82101C125.136 3.76113 125.248 3.73119 125.509 3.65848C125.117 3.6157 124.862 3.59004 124.607 3.5601C124.613 3.53871 124.613 3.51305 124.619 3.49167C125.248 3.49167 125.876 3.49167 126.511 3.49167C126.511 3.52161 126.517 3.54727 126.517 3.57721C126.38 3.60715 126.25 3.63709 126.113 3.66276C126.505 3.7483 126.884 4.00065 127.264 3.63709C127.339 3.56438 127.706 3.64137 127.93 3.68414C128.254 3.74402 128.559 3.89372 128.882 3.90655C129.934 3.94077 130.992 3.91938 132.044 3.94077C132.237 3.94505 132.43 4.03914 132.623 4.09475C132.61 4.13324 132.598 4.17174 132.585 4.21023C131.975 4.21023 131.359 4.21023 130.749 4.21023C130.482 4.21023 130.22 4.21023 129.953 4.21023C129.704 4.21451 129.461 4.22306 129.212 4.22306C128.944 4.22306 128.733 4.16746 128.44 4.3471C128.204 4.49253 127.65 4.35138 127.239 4.35138C126.81 4.35138 126.374 4.35993 125.945 4.38987C125.49 4.41981 125.03 4.61229 124.632 4.27439C124.594 4.24445 124.495 4.23162 124.432 4.24445C123.729 4.37277 123.057 4.3471 122.404 4.0477C122.441 4.1033 122.478 4.15891 122.509 4.21023C122.31 4.24445 122.111 4.27439 121.931 4.30433C121.999 4.09047 122.043 3.94932 122.099 3.75685C122.491 3.82956 122.92 3.90228 123.343 3.97926C122.808 3.57293 122.117 3.57293 121.451 3.51305C121.028 3.47456 120.611 3.42323 120.188 3.40612C119.815 3.38901 119.441 3.42751 119.068 3.41468C118.657 3.39757 118.246 3.35907 117.842 3.30347C117.176 3.21365 116.51 3.10244 115.832 3.04256C116.547 3.42751 117.562 3.23931 118.352 3.74402C116.734 3.75257 115.253 3.73547 113.703 3.54727C113.877 3.35052 113.971 3.24787 114.077 3.12383C114.263 3.17516 114.469 3.23076 114.718 3.29919C114.506 3.05539 114.512 3.03829 113.51 2.87575C113.075 2.80304 112.614 2.8116 112.166 2.69183C112.732 2.65334 113.299 2.61485 113.859 2.57208C112.129 2.33683 110.367 2.79021 108.643 2.4181C109.677 2.22135 110.753 2.67901 111.774 2.27267C111.357 2.30261 110.934 2.33683 110.504 2.36677C110.598 2.25556 110.679 2.16147 110.759 2.06309L110.772 2.07165C109.652 2.10586 108.531 2.16147 107.411 2.1743C106.602 2.18285 105.793 2.14008 104.99 2.09731C104.555 2.07165 104.119 2.00749 103.696 1.93905C103.584 1.92194 103.497 1.82357 103.341 1.72519C103.391 1.86634 103.422 1.96472 103.459 2.07592C103.111 2.16574 102.619 2.1914 102.507 2.58491C101.972 2.55496 101.424 2.53358 100.883 2.48653C100.547 2.45659 100.136 2.60629 99.8932 2.28123C99.8683 2.24701 99.6941 2.25984 99.5883 2.2684C98.8041 2.31545 98.0262 2.35822 97.242 2.4181C97.13 2.42665 97.0242 2.51647 96.9184 2.64051C98.3809 2.14436 99.6941 2.82871 101.094 2.86292C100.267 2.99979 99.4327 3.12383 98.5738 2.99979C98.1755 2.94419 97.771 2.90997 97.3665 2.8672C97.1238 2.84154 96.8561 2.86292 96.6445 2.79021C96.4392 2.7175 96.2898 2.55069 96.0907 2.40954C96.3458 2.34538 96.5325 2.29834 96.7192 2.25129C96.2338 2.2299 95.7484 2.20424 95.2692 2.18285C95.7795 2.00749 96.2836 1.87062 96.713 2.25984C97.0926 2.23418 97.4723 2.18713 97.8519 2.18285C98.6921 2.17002 99.5385 2.17858 100.453 2.17858C100.335 2.23846 100.279 2.26412 100.223 2.29406C100.229 2.324 100.242 2.34966 100.248 2.3796C100.677 2.30689 101.101 2.21279 101.536 2.16147C101.916 2.1187 102.308 2.12725 102.7 2.11014C102.694 2.05881 102.681 2.00749 102.675 1.95616C101.107 1.95616 99.5447 1.95616 97.9764 1.95616C97.9701 1.92194 97.9639 1.88772 97.9577 1.84923C98.2129 1.79791 98.4618 1.75086 98.717 1.69953C98.5987 1.60116 98.4929 1.51134 98.2938 1.34025C98.3124 1.51989 98.3249 1.60116 98.3373 1.71664C97.6527 1.71664 96.9682 1.71664 96.1716 1.71664C96.2898 1.68242 96.3769 1.65676 96.5076 1.61827C96.0533 1.48995 95.6675 1.38302 95.2629 1.27181C95.6301 1.22476 95.9786 1.18199 96.3334 1.13494C96.3334 1.11783 96.3271 1.10501 96.3271 1.0879C95.8604 1.0879 95.3874 1.0879 94.8709 1.0879C94.8335 1.33169 94.8024 1.57549 94.7588 1.87062C94.0867 1.81929 93.4083 1.72519 92.7362 1.72519C92.145 1.72519 91.56 1.84068 90.9687 1.892C90.7385 1.90911 90.502 1.88345 90.2655 1.87489L90.2779 1.88773C89.7054 1.52417 89.0706 1.6867 88.5727 1.91339C88.2988 2.03743 88.1682 2.03315 87.913 1.98182C87.7076 1.93905 87.4649 1.98182 87.2471 1.96044C87.079 1.94333 86.9172 1.88772 86.7554 1.84923C86.4194 1.84923 86.0833 1.84923 85.7472 1.84923C85.9526 1.70381 86.158 1.60544 86.3633 1.61399C86.494 1.61826 86.6185 1.77225 86.743 1.85779C87.216 1.72519 87.6827 1.57122 88.1619 1.46001C88.3611 1.41296 88.5976 1.45146 88.9088 1.45146C88.386 1.11783 87.8632 1.20766 87.384 1.26326C86.7119 1.34453 86.0584 1.4985 85.38 1.62254C85.4298 1.66531 85.5107 1.74658 85.5979 1.82785C85.5854 1.86207 85.5667 1.90056 85.5543 1.93478C85.2493 1.90911 84.9444 1.88345 84.5834 1.85351C84.1727 2.05026 83.5939 1.91767 83.0587 1.91767C82.5048 1.91767 81.9509 1.85351 81.3783 1.81929C81.3597 1.75941 81.3348 1.67387 81.3223 1.63965C81.5899 1.54983 81.8575 1.46001 82.1563 1.35736C81.8638 1.07079 81.2601 1.39157 81.229 0.976686C81.8451 0.886865 82.399 0.805601 82.9466 0.724336C82.9466 0.690118 82.9466 0.651624 82.9466 0.617406C82.3554 0.617406 81.7642 0.617406 81.0983 0.617406C80.9302 0.882593 78.5155 1.50706 77.47 1.45146C77.5509 1.53272 77.6069 1.58832 77.6816 1.65248C77.0903 1.65248 76.5116 1.65248 75.9328 1.65248C75.8456 1.65248 75.7336 1.60971 75.6776 1.63537C75.0241 1.96044 74.4142 1.51133 73.8106 1.66531C73.8479 1.46856 73.8728 1.34025 73.8977 1.21621L73.9164 1.22904C73.3687 1.46429 72.5659 1.57549 72.5534 1.4044C72.6655 1.3873 72.7775 1.37019 72.8895 1.35736C72.821 1.28892 72.7588 1.22476 72.6966 1.16061C71.4768 1.47712 69.5537 1.57977 68.7011 1.4429C68.7944 1.54555 68.8442 1.65676 68.9127 1.66531C69.2861 1.69525 69.6657 1.71664 70.0454 1.70808C71.0909 1.68242 72.1364 1.6311 73.1882 1.61399C73.3127 1.60971 73.4372 1.73802 73.5616 1.80646C73.4372 1.87489 73.3314 1.9861 73.1944 2.00749C72.2485 2.1743 71.3336 1.92194 70.4001 1.87489C70.0827 1.85779 69.7591 1.97755 69.4292 1.99893C69.1928 2.01177 68.9438 1.96471 68.7011 1.94761C68.5082 1.93477 68.3152 1.92194 68.1223 1.90911C68.1099 1.94333 68.1036 1.97755 68.0912 2.01177C68.2654 2.05454 68.4459 2.09303 68.7758 2.17002C68.0289 2.44803 67.3506 2.22134 66.7345 2.34111C66.7594 2.24273 66.7718 2.18713 66.7843 2.12725C67.0768 2.10586 67.4128 2.0802 67.7427 2.05881C67.7427 2.0246 67.7365 1.99466 67.7365 1.96044C67.3319 1.96044 66.9336 1.96044 66.5291 1.96044C66.5229 1.93477 66.5229 1.90911 66.5166 1.88773C66.6785 1.86207 66.8465 1.83212 67.1079 1.78935C66.2615 1.57549 65.4649 2.18285 64.7056 1.75513C64.1766 1.79363 63.5978 1.84068 63.0128 1.86634C62.9319 1.87062 62.8386 1.7423 62.6892 1.62682C62.154 1.62682 61.5067 1.62682 60.7412 1.62682C60.9466 1.55411 61.0586 1.51989 61.1644 1.48139C61.152 1.4429 61.1395 1.4044 61.1271 1.36591C59.9633 1.68242 58.7186 1.48139 57.5424 1.83212C58.1336 1.83212 58.7186 1.83212 59.3098 1.83212C56.7395 2.05881 54.1817 2.42665 51.5741 2.25556C51.6736 2.24273 51.767 2.23418 51.8666 2.22134C52.2462 2.16574 52.632 2.17857 53.0179 2.12725C54.0323 1.9861 55.0903 2.02887 56.1296 1.97327C56.4968 1.95616 56.8578 1.87489 57.225 1.82357C57.2188 1.78935 57.2063 1.75941 57.2001 1.72519C56.4284 1.75941 55.6566 1.80646 54.8849 1.82357C53.4722 1.85351 52.0595 1.87062 50.6467 1.87062C49.9435 1.87062 49.234 1.77224 48.537 1.80646C47.9644 1.8364 47.4105 2.01176 46.8442 2.10586C46.533 2.15719 46.2032 2.21279 45.8858 2.19568C44.8776 2.15291 43.8756 2.07592 42.8674 2.01604C42.8612 2.05453 42.8487 2.09303 42.8425 2.13152C43.0292 2.15719 43.2097 2.17857 43.3964 2.20423C43.4026 2.23417 43.4026 2.26411 43.4088 2.29406C42.6309 2.36249 41.853 2.4352 41.075 2.50363C41.0688 2.48653 41.0626 2.46514 41.0564 2.44803C41.2804 2.39671 41.5044 2.3411 41.7285 2.28978C40.8199 2.41381 39.9921 1.99893 39.0773 2.11441C38.1375 2.23418 37.1667 2.24701 36.2083 2.30261C36.1958 2.34538 36.1771 2.38388 36.1647 2.42665C36.3576 2.51647 36.5505 2.60629 36.8555 2.75171C36.4696 2.76454 36.1647 2.77738 35.8535 2.79021C35.8473 2.76454 35.8411 2.73888 35.8349 2.71322C35.9033 2.68328 35.9718 2.64906 36.0464 2.61912C36.0215 2.60201 36.0029 2.57207 35.978 2.56779C35.6295 2.51219 35.2747 2.46514 34.9262 2.41382C34.8391 2.40098 34.7146 2.36249 34.6773 2.38815C34.1358 2.7346 33.6193 2.33255 33.0779 2.36677C32.5302 2.40098 31.9701 2.31544 31.4162 2.2855C31.4099 2.23845 31.3975 2.19141 31.3913 2.14863C31.8518 2.07592 32.3123 1.9476 32.7791 1.93478C34.4719 1.88773 36.1709 1.88772 37.8637 1.84923C38.6479 1.83212 39.4258 1.75085 40.21 1.72092C40.4465 1.71236 40.6829 1.78508 40.9257 1.78508C41.6787 1.78508 42.4317 1.77224 43.1848 1.75941C43.2221 1.75941 43.2595 1.71664 43.2906 1.65676C42.7243 1.75941 42.2264 1.46856 41.6102 1.61399C41.1248 1.72519 40.5398 1.56266 39.9921 1.55838C39.208 1.54555 38.4176 1.57549 37.6334 1.56694C37.3534 1.56266 37.0671 1.45145 36.7933 1.46001C36.3514 1.47284 35.9158 1.55838 35.4801 1.59688C34.0114 1.71664 32.5426 1.88345 31.0677 1.92194C29.6985 1.96044 28.292 1.97327 26.9601 1.77652C25.9582 1.62681 25.1367 1.80218 24.2654 2.02032C24.1347 2.05453 24.0476 2.18712 23.9044 2.30261C23.2136 2.25556 22.4295 2.19996 21.6826 2.14863C22.249 1.60115 23.1576 1.99893 23.8609 1.71236C22.9896 1.71236 22.1183 1.71236 21.1101 1.71236C21.3715 1.78079 21.5271 1.82357 21.8196 1.90056C21.5271 1.96899 21.359 2.03742 21.191 2.0417C19.9961 2.07592 18.8074 2.08019 17.6125 2.13152C15.621 2.21279 13.6294 2.31544 11.6379 2.42237C10.0509 2.51219 8.46394 2.63195 6.87074 2.72177C6.60935 2.7346 6.34174 2.65761 6.07413 2.61912C6.07413 2.5849 6.08035 2.54641 6.08035 2.51219C7.2815 2.324 8.47019 2.0973 9.68376 1.96471C10.9658 1.82356 12.2665 1.77224 13.561 1.68242C13.5548 1.63965 13.5548 1.59687 13.5485 1.55838C12.6399 1.61398 11.7375 1.65676 10.8289 1.72519C9.93269 1.79362 9.03029 1.87062 8.13411 1.96044C7.21303 2.05453 6.29817 2.16574 5.37711 2.27267C4.46225 2.37532 3.54741 2.47797 2.56409 2.59346C2.55165 2.44376 2.56409 2.31544 2.52052 2.19996C2.47696 2.08447 2.39604 1.92194 2.2778 1.892C2.14711 1.85779 1.84837 1.91766 1.81104 1.99037C1.46253 2.61912 0.653474 2.94846 1.31873e-06 3.50022C0.311174 3.53871 0.510347 3.54726 0.697053 3.59004C0.902421 3.63708 1.10156 3.71835 1.2945 3.79106C1.38785 3.82528 1.46875 3.87661 1.55588 3.92366C1.58699 3.84667 1.59323 3.76112 1.64925 3.70124C1.79237 3.54299 1.92307 3.36762 2.12221 3.26069C2.21556 3.20937 2.45207 3.30347 2.65744 3.33341C2.26537 3.60287 1.9604 3.81673 1.54343 4.1033C1.91684 4.1589 2.12222 4.17173 2.30893 4.21878C2.52675 4.27866 2.73212 4.36848 2.94371 4.44119C3.03706 4.47541 3.13666 4.52674 3.22379 4.52246C3.27358 4.51818 3.35448 4.4027 3.34203 4.3471C3.26112 3.93649 3.68431 3.94076 4.09506 3.75685C3.98305 3.95359 3.92079 4.03914 3.88968 4.13324C3.72165 4.65505 3.74655 4.67644 4.48091 4.69782C4.65518 4.7021 4.8232 4.73204 4.99747 4.75343C5.15305 4.77054 5.30243 4.79192 5.45801 4.80903C5.32109 5.29235 5.33977 5.30091 6.01813 5.33512C6.37909 5.35223 6.73383 5.40783 7.08856 5.51476C6.90186 5.51476 6.7027 5.53615 6.52222 5.51049C5.91855 5.42922 5.43933 5.36506 4.92278 5.827C4.59917 6.11785 3.76523 6.10073 3.14911 6.20339C2.96863 6.23333 2.76946 6.20767 2.43962 6.20767C2.86904 6.51134 3.21755 6.7637 3.50383 6.96473C3.36691 7.44805 3.27979 7.85438 3.11797 8.2436C3.04329 8.42324 2.81302 8.56439 2.65122 8.72264C2.55786 8.81246 2.39604 8.898 2.37738 8.9921C2.26535 9.72778 2.34627 10.4506 2.67612 11.1521C2.69478 11.1948 2.77568 11.2248 2.88149 11.2932C2.65122 11.4386 2.43961 11.5755 2.22179 11.7167C2.54541 12.0717 2.14711 12.3155 1.82971 12.5721C2.64499 12.9143 3.16153 13.3377 2.98105 14.0819C2.94994 14.1974 3.27979 14.36 3.42291 14.4797C3.06818 14.6251 2.72589 14.762 2.2778 14.9459C2.55786 15.0315 2.69478 15.0742 2.86281 15.1256C2.71344 15.2197 2.5703 15.3052 2.37738 15.425C2.61388 15.5362 2.80681 15.6303 3.06197 15.7543C2.90637 15.8869 2.76325 16.0067 2.63878 16.1136C2.75079 16.3018 3.05574 16.5969 2.96861 16.6953C2.75702 16.9263 2.35872 17.0674 1.97908 17.2727C2.08489 17.7175 2.84415 17.6534 3.29846 17.9399C3.02463 18.0683 2.76947 18.1837 2.52052 18.2992C2.57654 18.3078 2.63254 18.3163 2.68855 18.3249C2.73212 18.4831 2.86903 18.6671 2.80057 18.7911C2.60143 19.1461 2.33383 19.484 2.06 19.8133C1.92308 19.9802 1.88573 20.07 2.0911 20.2453C2.40849 20.5148 2.75079 20.827 2.32137 21.2248C2.23424 21.3061 2.17824 21.4686 2.22801 21.5584C2.5392 22.123 1.91061 22.5293 1.82971 23.0383C1.91684 23.1153 2.02885 23.2094 2.17822 23.3377C1.9355 23.3634 1.76747 23.3805 1.73636 23.3805C1.86083 23.5473 2.0351 23.7355 2.13467 23.9408C2.27782 24.2274 2.23424 24.5653 2.71346 24.7364C2.82547 24.7749 2.88149 24.993 2.86281 25.1256C2.8317 25.4207 2.9375 25.626 3.34203 25.7158C3.45406 25.7415 3.55985 25.7928 3.67188 25.8356C3.64697 25.8784 3.61586 25.9254 3.59096 25.9682C3.27356 26.0537 2.95618 26.1436 2.63878 26.2291C2.63878 26.2548 2.63254 26.2762 2.63254 26.3018C2.93127 26.3146 3.24245 26.3018 3.52873 26.3489C3.72165 26.3788 3.93326 26.4729 4.05772 26.5841C4.23198 26.7466 4.33156 26.9519 4.46848 27.1359C4.76099 27.5251 4.68629 27.6705 4.11374 27.8416C3.97682 27.8844 3.84612 27.9357 3.71542 27.987C3.72788 28.0212 3.7341 28.0512 3.74655 28.0854C4.16353 28.0854 4.57428 28.0854 5.00992 28.0854C5.20285 28.3805 5.43933 28.6928 5.60736 29.0264C5.72562 29.2702 5.65717 29.4969 5.45801 29.762C5.07838 30.2668 5.37087 30.5533 6.24216 30.6175C6.07413 30.7201 5.92476 30.81 5.78163 30.8955C5.80029 30.9254 5.81897 30.9554 5.83763 30.981C6.12392 30.9212 6.4102 30.8613 6.75249 30.7886C6.89563 30.9639 6.94542 31.2847 7.43707 31.2933C7.49931 31.2933 7.54909 31.4686 7.62378 31.5542C7.71091 31.6526 7.79181 31.7937 7.91628 31.8322C8.35814 31.9562 8.44528 32.2257 8.50128 32.5165L8.48885 32.508C8.92448 32.3155 8.92448 32.3155 9.78955 32.5508C9.4597 32.8715 9.40991 32.8801 9.04272 32.6534C9.07384 32.7432 9.08008 32.8502 9.14853 32.9314C9.19832 32.9956 9.39125 33.0811 9.4037 33.0726C9.85802 32.7261 10.3497 33.0041 10.8289 33.0084C11.084 33.0127 11.3392 32.9699 11.6006 32.9528C11.6504 32.9956 11.7002 33.0384 11.75 33.0854C11.4512 33.2094 11.1525 33.3292 10.86 33.4532C10.9222 33.5174 10.9845 33.5816 11.0467 33.65C11.6877 33.526 12.3225 33.3677 12.976 33.2864C13.5361 33.2137 14.1211 33.218 14.6937 33.2094C15.4716 33.1966 16.2558 33.218 17.0337 33.2052C17.7432 33.1923 18.4527 33.1581 19.1621 33.1153C19.6662 33.0854 20.1703 33.0041 20.6744 32.9999C21.0976 32.9956 21.5208 33.0769 21.944 33.1196L21.9254 33.1068C22.4792 33.0597 23.0394 33.0084 23.5932 32.9614C23.6804 32.9528 23.8173 32.9443 23.8484 32.9785C24.3152 33.4575 25.0122 33.2009 25.703 33.295C25.4727 33.4917 25.2798 33.6585 25.0869 33.8211C25.0993 33.8467 25.1118 33.8767 25.1242 33.9023C25.759 33.774 26.3876 33.6115 27.0348 33.5302C27.5638 33.4661 28.1177 33.4917 28.6592 33.4875C29.767 33.4832 30.8747 33.5046 31.9763 33.4746C33.3268 33.4361 34.6711 33.3591 36.0215 33.2993C36.1771 33.2907 36.3327 33.3121 36.5506 33.3207C36.4385 33.419 36.3701 33.4789 36.202 33.6286C37.0111 33.5816 37.7019 33.804 38.3927 33.4575C38.6416 33.3335 39.0151 33.3591 39.3387 33.2608C39.9548 33.0769 40.6705 33.0769 41.3488 33.0041C41.3675 33.0384 41.3924 33.0726 41.4111 33.1025C41.2119 33.2651 41.019 33.4276 40.8199 33.5944C40.8385 33.6243 40.8634 33.6543 40.8821 33.6842C41.5418 33.5431 42.1953 33.3634 42.8736 33.2736C43.3528 33.2094 43.8569 33.2608 44.3486 33.2565C45.4875 33.2522 46.6326 33.2779 47.7715 33.2394C48.6801 33.2094 49.5825 33.0683 50.4911 33.0469C51.0139 33.0341 51.5429 33.171 52.0719 33.2094C52.7192 33.2565 53.3477 33.3634 54.0074 33.094C54.3808 32.9443 54.9223 33.017 55.389 32.9999C55.6131 32.9913 55.8371 33.017 56.111 33.0255C56.0487 32.9314 56.0176 32.8716 55.974 32.8117C56.2541 32.8117 56.5155 32.8117 56.8516 32.8117C56.7022 32.9742 56.5902 33.1025 56.3786 33.3292C57.1441 33.171 57.7664 32.9956 58.4137 32.9186C58.9427 32.8544 59.5028 32.863 60.0442 32.8929C61.6561 32.9828 63.2618 33.1068 64.8736 32.8887C65.1973 32.8459 65.5396 32.8929 65.8756 32.9058C66.2926 32.9186 66.7158 32.9314 67.1328 32.9528C67.3693 32.9656 67.724 32.8117 67.7302 33.1795C67.7302 33.2052 67.8485 33.2479 67.9107 33.2479C68.4708 33.2479 69.0683 33.3292 69.5724 33.2094C70.425 32.9999 71.2527 33.1453 72.0867 33.1538C72.3792 33.1581 72.6779 33.171 72.9704 33.1838C74.1466 33.2223 75.3229 33.2651 76.4991 33.2993C76.9099 33.3121 77.3268 33.2993 77.6193 33.2993C77.2397 33.5174 76.7916 33.7783 76.2439 34.0948C77.4326 34.2873 78.4035 34.0777 79.4739 33.8724C78.8516 33.727 78.3475 33.6072 77.806 33.4789C78.3413 33.1624 78.9387 33.1667 79.53 33.171C79.5984 33.171 79.7042 33.1795 79.7229 33.2137C80.0838 33.7484 80.7311 33.5602 81.3036 33.5687C81.3534 33.5687 81.4095 33.5773 81.5588 33.5944C81.3161 33.7954 81.1045 33.9708 80.8991 34.1419C80.9116 34.1675 80.924 34.1975 80.9365 34.2231C81.5899 34.0991 82.2309 33.9451 82.8969 33.8596C83.4259 33.7911 83.9735 33.7997 84.515 33.7954C85.5854 33.7869 86.6496 33.8254 87.7201 33.7869C88.7532 33.7526 89.78 33.6201 90.8194 33.5816C91.9271 33.5388 93.0349 33.5516 94.1427 33.5431C94.8024 33.5388 95.4621 33.5431 96.2151 33.5431C96.2151 33.3549 96.2151 33.1624 96.2151 32.9314C97.9452 32.8844 99.7314 32.8544 101.518 32.786C102.675 32.7432 103.826 32.6149 104.978 32.5807C105.818 32.555 106.664 32.6192 107.511 32.6491C107.915 32.662 108.32 32.6962 108.724 32.7176C110.504 32.8117 112.284 32.91 114.07 32.9956C115.01 33.0384 115.95 33.064 116.896 33.0897C118.377 33.1282 119.858 33.1496 121.339 33.2009C123.088 33.2608 124.843 33.3506 126.592 33.4148C128.229 33.4746 129.866 33.4746 131.496 33.5773C133.058 33.6757 134.583 33.5046 136.126 33.4361C136.842 33.4062 137.558 33.4319 138.273 33.419C139.649 33.3976 141.024 33.3891 142.4 33.3292C143.52 33.2822 144.634 33.1624 145.754 33.0982C146.837 33.0341 147.92 33.017 148.997 32.9443C150.142 32.8673 151.287 32.739 152.432 32.6577C152.911 32.6235 153.403 32.6748 153.882 32.6663C154.946 32.6534 156.017 32.6534 157.075 32.5978C158.151 32.5379 159.228 32.4139 160.298 32.3241C161.356 32.2343 162.421 32.1145 163.479 32.076C164.798 32.0247 166.124 32.0503 167.449 32.0332C167.916 32.0247 168.376 31.9776 168.843 31.9562C169.876 31.9092 170.916 31.8707 171.949 31.8236C172.54 31.7937 173.131 31.7424 173.729 31.7124C174.04 31.6996 174.357 31.7253 174.668 31.721C175.621 31.7082 176.579 31.6868 177.531 31.6739C177.961 31.6697 178.396 31.6654 178.826 31.6825C179.423 31.7082 179.977 31.7509 180.593 31.5542C181.11 31.3917 181.788 31.5285 182.398 31.52C182.666 31.5157 182.927 31.4686 183.195 31.443C183.195 31.4088 183.195 31.3745 183.195 31.3403C182.51 31.2847 181.825 31.2248 181.141 31.1692C181.147 31.1393 181.153 31.1094 181.153 31.0837C181.975 31.0837 182.79 31.0837 183.711 31.0837C183.599 30.9853 183.549 30.9426 183.475 30.8741C184.719 30.5747 185.976 30.8741 187.259 30.7929C187.184 30.6988 187.134 30.6303 187.053 30.5319C188.08 30.5319 189.076 30.5319 190.078 30.5319C190.078 30.5148 190.078 30.4934 190.078 30.4763C189.748 30.4207 189.412 30.3609 189.082 30.3053C189.088 30.2539 189.094 30.2069 189.101 30.1556C190.613 30.1128 192.125 30.07 193.644 30.0315C193.65 30.0144 193.656 30.0016 193.662 29.9845C192.903 29.8775 192.138 29.7706 191.378 29.6637C191.385 29.6081 191.391 29.5567 191.403 29.5011C191.578 29.4926 191.783 29.437 191.92 29.4883C192.387 29.6594 192.829 29.6124 193.326 29.5653C194.191 29.484 195.069 29.4926 195.984 29.4627C195.89 29.0478 196.121 29.0135 196.625 29.052C197.913 29.1461 199.214 29.159 200.508 29.2017C200.515 29.159 200.527 29.1162 200.533 29.0734C200.403 29.052 200.278 29.0221 200.147 29.0093C199.998 28.9964 199.842 28.9964 199.587 28.9879C199.793 28.8724 199.923 28.804 200.054 28.7313C199.923 28.6885 199.768 28.6414 199.481 28.5473C199.718 28.5174 199.849 28.5003 199.973 28.4832L199.961 28.4917C199.587 28.4618 199.214 28.4147 198.84 28.4062C198.075 28.3848 197.309 28.3805 196.544 28.3763C195.797 28.3763 195.05 28.3976 194.303 28.3891C194.005 28.3848 193.706 28.3206 193.407 28.2822C193.414 28.2479 193.42 28.2094 193.42 28.1752C194.49 28.1496 195.567 28.1367 196.637 28.0854C197.67 28.0384 198.76 28.4447 199.886 27.8459C199.562 27.7817 199.363 27.709 199.158 27.7047C197.627 27.6662 196.096 27.6192 194.565 27.6277C193.569 27.632 192.58 27.7218 191.584 27.7732C191.515 27.7774 191.447 27.7646 191.372 27.6962C191.777 27.6705 192.188 27.6491 192.592 27.6235C192.598 27.6021 192.604 27.5764 192.611 27.555C192.368 27.5251 192.119 27.4609 191.876 27.4695C191.017 27.4952 190.121 27.6791 189.312 27.5465C188.36 27.3882 187.501 27.7475 186.599 27.6192C186.449 27.5978 186.319 27.5208 186.107 27.4438C186.661 27.4053 187.084 27.3797 187.514 27.3497C187.507 27.3112 187.507 27.2727 187.501 27.2342C186.954 27.2342 186.406 27.2342 185.858 27.2342C185.858 27.2129 185.858 27.1915 185.858 27.1701C186.891 27.1316 187.924 27.0888 188.958 27.0503C188.958 27.0204 188.958 26.9862 188.958 26.9562C186.804 26.9562 184.657 26.9562 182.504 26.9562C182.498 26.9434 182.498 26.9306 182.491 26.9177C183.051 26.8365 183.612 26.7295 184.178 26.6825C185.572 26.5627 186.96 26.4387 188.36 26.3788C189.723 26.3189 191.086 26.3531 192.449 26.3232C193.183 26.3061 193.918 26.2419 194.652 26.1949C195.05 26.1692 195.442 26.1307 195.841 26.0366C194.994 26.0366 194.148 26.0366 193.302 26.0366C193.295 26.0238 193.295 26.011 193.295 26.0024C193.457 25.9725 193.619 25.9383 193.781 25.9083C193.252 25.7672 192.629 26.1008 192.069 25.6218C194.005 25.425 195.859 25.2368 197.72 25.0529C197.733 25.0786 197.739 25.0999 197.751 25.1256C197.664 25.0957 197.577 25.07 197.471 25.0358C197.533 24.9973 197.558 24.9673 197.583 24.9673C197.739 24.9631 197.894 24.9631 198.056 24.9631C198.156 25.2539 199.145 25.2667 200.651 24.9588C200.253 24.9845 199.855 25.0058 199.457 25.0315C199.457 25.0058 199.45 24.9802 199.45 24.9502C201.99 24.7321 204.522 24.5097 207.062 24.2916C207.062 24.2531 207.055 24.2103 207.055 24.1718C206.956 24.1632 206.85 24.1547 206.75 24.1547C206.24 24.1547 205.618 24.0221 205.244 24.1932C204.827 24.3857 204.417 24.3215 204.025 24.3899C203.34 24.514 202.618 24.5097 201.909 24.5525C201.205 24.5952 200.502 24.6423 199.799 24.6508C198.654 24.6637 197.509 24.638 196.363 24.6466C195.399 24.6508 194.44 24.6765 193.476 24.6936C193.333 24.6979 193.196 24.7064 193.028 24.715C193.519 24.4797 193.519 24.5054 194.129 24.5439C194.384 24.561 194.646 24.4284 194.913 24.4113C195.424 24.3728 195.934 24.3728 196.444 24.3386C196.65 24.3258 196.868 24.36 197.023 24.1376C197.11 24.0093 197.515 24.0007 197.776 23.9408C197.789 23.975 197.807 24.0135 197.82 24.0478C197.627 24.1119 197.434 24.1718 197.241 24.2359C197.247 24.2616 197.247 24.283 197.253 24.3087C197.745 24.3087 198.231 24.3172 198.722 24.3087C199.444 24.2958 200.166 24.2787 200.888 24.2531C201.324 24.2402 201.821 24.2958 202.189 24.1632C203.054 23.8596 203.913 24.1247 204.765 24.0691C205.742 24.0093 206.726 23.9665 207.709 23.928C208.269 23.9066 208.823 23.9023 209.383 23.8895C209.725 23.8809 210.068 23.8895 210.404 23.8638C210.677 23.8425 210.945 23.8681 211.206 23.6628C211.393 23.5131 211.872 23.5687 212.227 23.5345C212.7 23.4917 213.173 23.4532 213.64 23.3335C209.028 23.7911 204.392 23.7569 199.762 23.7697C199.755 23.7312 199.755 23.6885 199.749 23.65C200.49 23.5944 201.236 23.5388 201.977 23.4832C201.99 23.4618 202.002 23.4404 202.014 23.4147C201.622 23.2907 201.236 23.1709 200.844 23.0469C200.851 23.017 200.851 22.9913 200.857 22.9614C201.61 22.9614 202.363 22.9614 203.234 22.9614C202.892 22.8245 202.649 22.7261 202.4 22.6277C201.411 22.833 200.446 22.8929 199.575 22.4224C199.581 22.3754 199.593 22.3283 199.6 22.2813C200.533 22.3968 201.461 22.5165 202.394 22.632C202.475 22.632 202.562 22.632 202.774 22.632C202.593 22.5294 202.506 22.478 202.419 22.431C202.431 22.401 202.444 22.3668 202.456 22.3369C202.879 22.4139 203.303 22.4951 203.726 22.5721C203.732 22.5251 203.745 22.4738 203.751 22.4267C202.979 22.3583 202.201 22.2941 201.392 22.2214C201.541 22.1786 201.678 22.1444 201.815 22.1059C201.759 22.0503 201.716 22.0075 201.722 22.0118C202.481 21.922 203.234 21.8279 203.987 21.7381C203.993 21.7595 204 21.7809 204.006 21.8065C203.85 21.8407 203.695 21.8792 203.545 21.9134C205.027 22.0247 206.489 22.1145 208.039 21.8365C207.448 21.7338 206.993 21.6525 206.533 21.5713C206.551 21.5157 206.57 21.4601 206.582 21.4045C207.143 21.3745 207.69 21.3874 208.157 21.6825C208.425 21.8493 208.543 21.845 208.935 21.6739C209.016 21.6354 209.165 21.6782 209.283 21.6825C209.451 21.691 209.62 21.7039 209.788 21.7124C209.794 21.6654 209.806 21.6183 209.812 21.567C208.935 21.4515 208.051 21.3403 207.174 21.2248C207.174 21.1992 207.18 21.1735 207.18 21.1478C207.653 21.1778 208.132 21.2633 208.593 21.2205C209.072 21.1778 209.532 21.0152 209.98 20.8185C208.593 20.7757 207.223 21.1179 205.854 20.7629C207.111 20.6602 208.375 20.5533 209.57 20.4549C209.974 20.3822 210.329 20.3223 210.684 20.2582C210.684 20.2411 210.684 20.224 210.684 20.2069C209.352 20.2582 208.026 20.3095 206.694 20.3566C206.688 20.2924 206.682 20.2282 206.676 20.1598C210.036 19.9631 213.403 19.762 216.777 19.561C216.235 19.3685 215.694 19.33 215.071 19.4113C214.58 19.4755 214.044 19.3856 213.447 19.36C213.609 19.3001 213.702 19.2659 213.833 19.2188C213.677 19.1632 213.547 19.1205 213.372 19.0606C214.063 18.9964 214.704 18.9365 215.351 18.8809C215.351 18.8595 215.351 18.8382 215.345 18.8168C214.928 18.8168 214.511 18.8168 214.094 18.8168C214.094 18.774 214.094 18.7312 214.094 18.6927C215.021 18.6927 215.955 18.697 216.882 18.6927C217.399 18.6885 217.922 18.6542 218.438 18.6628C218.762 18.6671 219.092 18.7654 219.415 18.7569C220.119 18.7355 220.816 18.6671 221.519 18.62L221.506 18.6286C221.233 18.5901 220.965 18.5559 220.691 18.5174C220.598 18.5045 220.498 18.4917 220.417 18.3891C221.276 18.3463 222.135 18.2992 222.994 18.2565C222.994 18.2137 223 18.1709 223 18.1282C220.598 17.8715 218.171 17.8501 215.731 17.8672C215.911 17.8929 216.092 17.9228 216.279 17.9485C216.285 17.9699 216.285 17.9913 216.291 18.0084C216.154 18.0169 216.023 18.0255 215.887 18.0298C214.972 18.0554 214.057 18.0725 213.142 18.111C212.787 18.1282 212.439 18.2094 212.084 18.2222C211.711 18.2394 211.617 18.0725 211.76 17.7475C211.294 17.8373 210.883 17.9143 210.565 17.9742C210.833 18.0169 211.182 18.0683 211.53 18.1239C211.524 18.1666 211.518 18.2094 211.511 18.2522C209.75 18.3078 207.989 18.3634 206.234 18.419C206.228 18.3933 206.228 18.3677 206.221 18.342C207.099 18.2779 207.977 18.2094 208.854 18.1453C208.854 18.1025 208.854 18.0597 208.854 18.0169C207.472 17.987 206.091 17.9571 204.715 17.9271C204.722 17.91 204.722 17.8886 204.728 17.8715C205.649 17.786 206.57 17.6748 207.491 17.6192C207.964 17.5892 208.449 17.6748 208.922 17.6534C209.781 17.6106 210.64 17.4994 211.505 17.4695C212.389 17.4395 213.279 17.4737 214.169 17.4823C214.474 17.4823 214.779 17.4823 215.252 17.4823C215.028 17.3711 214.947 17.3326 214.86 17.2898C214.86 17.2599 214.86 17.2299 214.86 17.2C216.023 17.2 217.181 17.2 218.345 17.2C218.345 17.1444 218.345 17.0888 218.351 17.0375C216.864 16.9477 215.376 16.8578 213.783 16.7595C214.206 16.6782 214.511 16.5884 214.829 16.5627C215.202 16.5328 215.557 16.5542 215.955 16.6397C216.478 16.7509 217.106 16.6183 217.685 16.567C218.059 16.537 218.432 16.4344 218.805 16.4258C219.465 16.413 220.125 16.4344 220.784 16.4643C221.158 16.4814 221.525 16.5328 221.911 16.49C221.805 16.4643 221.693 16.4344 221.587 16.4087C221.587 16.3831 221.587 16.3617 221.581 16.336C221.973 16.2932 222.371 16.2505 222.764 16.2077C222.77 16.1735 222.77 16.1393 222.776 16.105C221.662 16.0195 220.554 15.9126 219.44 15.8612C218.892 15.8356 218.332 15.9553 217.778 15.9596C216.702 15.9639 215.625 15.9297 214.549 15.9169C214.412 15.9169 214.275 15.981 214.144 15.9767C213.976 15.9767 213.814 15.9382 213.733 15.9254C213.291 15.9767 212.881 16.0922 212.513 16.0452C211.742 15.9468 211.057 16.2077 210.323 16.2462C210.08 16.259 209.781 16.3446 209.601 16.2719C208.711 15.9126 207.734 16.0323 206.794 15.9596C206.06 15.904 205.307 15.9425 204.566 15.9254C204.18 15.9169 203.801 15.8741 203.415 15.8484C203.178 15.8784 202.948 15.9297 202.711 15.934C202.245 15.9425 201.778 15.9169 201.317 15.9254C199.93 15.9468 198.548 15.9853 197.16 15.9896C196.625 15.9896 196.071 15.9682 195.586 15.6132C196.015 15.6303 196.376 15.6388 196.805 15.6559C196.687 15.5405 196.637 15.4849 196.482 15.3266C197.465 15.4763 198.293 15.6003 199.189 15.7372C199.176 15.7458 199.264 15.6474 199.363 15.6431C199.78 15.6132 200.203 15.579 200.62 15.6089C201.573 15.6474 202.506 15.75 203.446 15.8356ZM118.508 4.26583C118.62 4.37276 118.725 4.48397 118.875 4.62939C118.358 4.57807 117.904 4.53102 117.387 4.47969C117.823 4.39843 118.165 4.33427 118.508 4.26583C118.57 4.25728 118.626 4.24445 118.8 4.21023C118.408 4.14608 118.128 4.09902 117.848 4.05198C118.153 3.99637 118.47 4.03487 118.732 3.95788C119.192 3.81673 119.454 4.05198 119.783 4.18029C119.908 4.23162 120.045 4.27439 120.169 4.32144C120.07 4.21451 119.976 4.10758 119.871 3.99637C119.908 3.97071 119.952 3.94933 119.989 3.92366C120.431 3.64565 120.729 3.69269 121.097 4.03487C121.227 4.1589 121.464 4.22306 121.638 4.31288C121.171 4.31288 120.667 4.31288 120.157 4.31288C120.07 4.56524 119.671 4.69783 119.447 4.48825C119.155 4.21451 118.813 4.32999 118.508 4.26583ZM192.623 12.9228C192.244 13.2992 191.82 12.9827 191.397 12.9399C191.434 13.0212 191.453 13.0725 191.478 13.1239C191.397 13.1196 191.31 13.1239 191.242 13.1025C191.067 13.0469 190.899 12.9314 190.725 12.9314C190.053 12.9228 189.381 12.9528 188.709 12.957C188.615 12.957 188.522 12.91 188.429 12.8843C188.989 12.8031 189.567 12.8715 190.053 12.7475C190.756 12.5678 191.391 12.7945 192.063 12.7774C192.268 12.7731 192.48 12.863 192.685 12.91C193.221 12.9314 193.756 12.9528 194.291 12.9699C194.291 13.0041 194.285 13.0383 194.285 13.0725C193.812 13.0725 193.345 13.0811 192.872 13.064C192.791 13.0597 192.704 12.9699 192.623 12.9228ZM78.4408 2.4737C78.2417 2.50791 78.0363 2.53358 77.8496 2.58918C77.7625 2.61485 77.7127 2.70467 77.5758 2.82015C77.0592 2.77738 76.4244 2.72178 75.7834 2.67045C75.7896 2.64479 75.7896 2.61485 75.7959 2.58918C76.2315 2.58918 76.6671 2.58918 77.2397 2.58918C77.0281 2.53358 76.9472 2.51219 76.8352 2.47798C77.4015 2.2299 77.9181 2.40098 78.4408 2.4737C78.7396 2.38815 79.0321 2.29833 79.3993 2.18713C77.7314 2.18713 76.163 2.18713 74.5947 2.18713C74.5947 2.14863 74.5947 2.11014 74.5947 2.06737C76.6111 2.06737 78.6275 2.06737 80.644 2.06737C80.644 2.09303 80.6502 2.11869 80.6502 2.14436C80.2705 2.16574 79.8847 2.19141 79.5051 2.21279C79.5051 2.24273 79.5051 2.27267 79.5051 2.30689C79.7104 2.33255 79.9158 2.35821 80.1274 2.38388C80.1212 2.41382 80.1212 2.44376 80.115 2.4737C79.5548 2.4737 78.9947 2.4737 78.4408 2.4737ZM56.1172 2.50364C56.1048 2.46087 56.0985 2.41809 56.0861 2.37532C56.2479 2.34538 56.4097 2.29406 56.5777 2.28123C57.6171 2.19568 58.6626 2.11014 59.7019 2.0417C60.2247 2.00749 60.7475 1.99466 61.2702 2.00748C62.2971 2.03315 63.324 2.08875 64.3447 2.12725C64.662 2.14008 64.9732 2.12725 65.2906 2.12725C64.7367 2.1914 64.1891 2.2299 63.6414 2.2855C63.2804 2.31972 62.8199 2.29406 62.5834 2.44803C62.2971 2.63623 62.0606 2.5849 61.7806 2.5849C61.5565 2.5849 61.3325 2.57635 61.1022 2.57635C60.4487 2.57635 59.7953 2.59774 59.148 2.57635C59.0111 2.57207 58.8866 2.42665 58.7248 2.31972C57.9594 2.74316 57.0196 2.40954 56.1172 2.50364ZM168.078 4.93307C168.053 4.95018 168.159 4.82615 168.227 4.83898C168.694 4.90741 169.242 4.92024 169.596 5.11699C170.163 5.42923 170.673 5.50194 171.189 5.28808C171.42 5.40784 171.6 5.50194 171.83 5.6217C171.886 5.46772 171.918 5.37362 171.93 5.34796C173.237 5.34796 174.5 5.34796 175.807 5.34796C176.255 5.62598 176.884 5.6217 177.494 5.65164C177.662 5.66019 177.83 5.65164 177.998 5.65164C177.998 5.68586 177.998 5.7158 177.998 5.75002C177.774 5.7714 177.556 5.81845 177.332 5.8099C176.473 5.77996 175.621 5.72435 174.768 5.70297C173.772 5.6773 172.776 5.70297 171.787 5.66447C170.791 5.6217 169.802 5.5276 168.806 5.44634C168.713 5.43778 168.6 5.40784 168.538 5.36079C168.401 5.24959 168.283 5.12555 168.078 4.93307ZM48.5245 2.76454C46.1036 2.76454 43.7325 2.76454 41.3613 2.76454C41.3613 2.70466 41.3551 2.64478 41.3551 2.5849C42.4629 2.53785 43.5644 2.46942 44.6722 2.44803C45.4563 2.43093 46.2405 2.51647 47.0185 2.47797C47.5537 2.45659 48.0578 2.39243 48.5245 2.76454ZM12.03 2.69611C12.0238 2.65761 12.0176 2.61484 12.0176 2.57635C12.7768 2.50364 13.5299 2.40098 14.2954 2.37104C14.9301 2.34538 15.5774 2.41809 16.2184 2.42237C16.7225 2.42237 17.2204 2.38387 17.5813 2.36676C17.7805 2.5293 17.8988 2.6234 17.9921 2.69611C17.1955 2.93135 16.3616 2.55924 15.4903 2.84581C14.9364 3.02545 14.1709 2.84153 13.4988 2.82442C13.4988 2.77737 13.4925 2.73033 13.4925 2.679C13.8784 2.64051 14.2642 2.59773 14.6874 2.55496C13.7415 2.32827 12.92 2.89714 12.03 2.69611ZM195.256 15.4592C195.231 15.502 195.206 15.5447 195.181 15.5875C194.945 15.4849 194.714 15.3266 194.459 15.2967C194.173 15.2624 193.868 15.3523 193.55 15.3865C193.47 15.3052 193.37 15.1983 193.264 15.0914C193.258 15.1299 193.252 15.1726 193.246 15.2111C192.909 15.2667 192.573 15.3437 192.231 15.3694C191.988 15.3908 191.64 15.2624 191.497 15.348C191.042 15.6132 190.713 15.3737 190.333 15.2582C190.569 15.2368 190.812 15.2154 191.167 15.1855C190.974 15.117 190.899 15.0914 190.681 15.0144C191.827 15.0144 192.81 15.0144 193.799 15.0144C193.955 15.0144 194.123 15.0186 194.272 14.9887C194.664 14.9117 194.982 14.963 195.225 15.2582C195.137 15.2924 195.05 15.3223 194.945 15.3608C195.057 15.395 195.156 15.425 195.256 15.4592ZM58.1896 4.21878C58.4883 4.16318 58.7311 4.08619 58.98 4.07764C59.8264 4.05625 60.6666 3.70124 61.5316 4.03486C61.5939 4.06053 61.7681 4.04342 61.7743 4.02203C61.8739 3.7483 62.1726 3.87661 62.3718 3.86806C62.7576 3.85095 63.1497 3.85522 63.5294 3.89372C63.7347 3.9151 63.9277 4.02631 64.1268 4.09474C64.1019 4.13752 64.077 4.17601 64.0584 4.21878C62.1229 4.21878 60.1873 4.21878 58.1896 4.21878ZM18.0792 2.44375C19.5729 2.44375 21.0914 2.44375 22.6037 2.44375C22.6037 2.49936 22.6099 2.55924 22.6099 2.61484C22.4108 2.63195 22.2179 2.65334 22.0187 2.66189C21.7635 2.67472 21.5084 2.67045 21.2532 2.68328C20.9732 2.70039 20.6931 2.73888 20.4068 2.75171C19.9899 2.7731 19.5667 2.78593 19.1497 2.79021C18.714 2.79449 18.3033 2.71749 18.0792 2.44375ZM108.289 3.61143C108.289 3.63709 108.289 3.66703 108.289 3.69269C108.133 3.73547 107.946 3.75258 107.834 3.82956C107.641 3.96643 107.666 3.97926 107.517 3.83384C107.467 3.78679 107.336 3.73119 107.293 3.7483C106.527 4.06481 105.768 3.73119 105.028 3.69269C104.567 3.66703 104.063 3.55582 103.565 3.52589C103.378 3.51305 103.198 3.47883 103.011 3.45317C103.017 3.42751 103.024 3.40185 103.03 3.38046C104.038 3.38046 105.04 3.38046 106.054 3.38046C106.042 3.42323 106.023 3.51305 106.005 3.60715C106.795 3.61143 107.542 3.61143 108.289 3.61143ZM49.651 4.27866C49.6634 4.32571 49.6759 4.36848 49.6821 4.41553C48.2881 4.62084 46.8691 4.6465 45.4252 4.56523C45.8049 4.42837 46.197 4.33426 46.5953 4.26155C46.7011 4.24444 46.8753 4.26155 46.9375 4.31288C47.1989 4.53957 47.4168 4.47541 47.6595 4.3086C47.7279 4.26155 47.8337 4.21451 47.9209 4.21878C48.4996 4.23161 49.0722 4.25728 49.651 4.27866ZM15.4654 4.68499C15.4716 4.69355 15.4716 4.7021 15.4778 4.71493C13.8348 4.86891 12.198 5.01861 10.5551 5.17259C10.6671 5.01434 10.8289 4.89885 11.0031 4.88174C11.7811 4.80048 12.5652 4.72776 13.3494 4.69355C14.0464 4.66361 14.7559 4.68499 15.4654 4.68499ZM191.466 14.3429C191.472 14.3086 191.478 14.2787 191.484 14.2445C191.777 14.2231 192.088 14.1504 192.368 14.1889C192.723 14.2359 193.102 14.1932 193.426 14.4327C193.613 14.5695 194.048 14.5738 194.366 14.5567C194.758 14.5396 194.839 14.5353 195.057 14.8775C193.949 14.7535 192.897 14.638 191.851 14.5225C191.851 14.5054 191.851 14.4926 191.858 14.4754C192.206 14.4754 192.555 14.4754 192.903 14.4754C192.903 14.4583 192.903 14.437 192.909 14.4198C192.424 14.3942 191.945 14.3685 191.466 14.3429ZM12.8889 4.5524C12.8826 4.51818 12.8702 4.48397 12.864 4.44975C13.8411 4.35993 14.8119 4.27011 15.8139 4.17601C15.7579 4.65505 16.2931 4.40698 16.5981 4.5524C15.316 4.5524 14.1024 4.5524 12.8889 4.5524ZM82.0256 2.5678C82.0443 2.59774 82.0629 2.63195 82.0878 2.66189C81.7766 2.69183 81.4655 2.72178 81.1854 2.74744C81.4717 2.09731 82.2496 2.25556 82.8346 2.22135C83.4756 2.18285 84.21 1.97327 84.7888 2.43521C84.6208 2.46514 84.4403 2.47798 84.2909 2.43521C83.6126 2.22135 82.928 2.37532 82.2434 2.39243C82.1625 2.39671 82.094 2.50791 82.0256 2.5678ZM22.5726 2.9784C21.4586 3.14521 20.3384 3.4104 19.2928 3.00407C20.3384 3.01262 21.4524 2.74743 22.5726 2.9784ZM191.41 14.3685C191.428 14.3985 191.447 14.4284 191.459 14.4626C191.391 14.5054 191.329 14.5439 191.248 14.5952C191.347 14.6166 191.441 14.638 191.459 14.6423C191.403 14.7235 191.341 14.8091 191.266 14.916C190.644 14.7877 189.941 14.6465 189.213 14.4968C189.935 14.1461 190.7 14.5995 191.41 14.3685ZM69.0123 2.9613C69.0123 2.92708 69.006 2.88858 69.006 2.85437C69.2799 2.85437 69.5599 2.86292 69.8338 2.85437C70.4125 2.82871 71.01 2.83298 71.5701 2.74744C71.9684 2.68756 72.0306 2.65762 72.1489 2.99124C71.1033 3.02118 70.0516 3.13238 69.0123 2.9613ZM93.6324 2.8287C92.9913 2.79021 92.4748 2.76027 91.9707 2.73033C91.9707 2.65762 91.9707 2.58491 91.9707 2.51647C92.3006 2.55069 92.593 2.57635 93.0411 2.6234C92.8358 2.5293 92.7673 2.49508 92.6615 2.44804C93.5764 2.40954 94.4352 2.37532 95.294 2.33683C95.294 2.36249 95.3003 2.39243 95.3003 2.4181C94.6468 2.49936 93.9933 2.57635 93.2776 2.66617C93.4021 2.72605 93.4643 2.75171 93.6324 2.8287ZM37.6086 2.67045C37.6023 2.62768 37.5961 2.5849 37.5899 2.53785C38.5545 2.48653 39.5254 2.43093 40.49 2.3796C40.4962 2.42237 40.5025 2.46086 40.5087 2.50363C39.5752 2.80304 38.5732 2.58918 37.6086 2.67045ZM110.622 3.2607C111.295 3.09389 111.929 2.84581 112.608 3.19654C112.483 3.45745 112.147 3.47456 111.842 3.4489C111.444 3.41896 111.052 3.33341 110.622 3.2607ZM193.065 8.49596C192.928 8.80819 191.173 8.79536 190.258 8.49596C191.204 8.49596 192.113 8.49596 193.065 8.49596ZM108.233 3.38046C108.948 3.30347 109.689 3.21365 110.398 3.47456C109.658 3.55155 108.905 3.85523 108.233 3.38046ZM196.108 9.48399C195.48 9.71495 195.019 9.45405 194.546 9.18886C194.783 9.17175 195.013 9.22736 195.243 9.24447C195.343 9.24874 195.442 9.1632 195.554 9.13754C195.71 9.09904 195.878 9.07338 196.04 9.05199C196.071 9.04772 196.115 9.09476 196.183 9.13326C196.077 9.20597 195.984 9.27013 195.884 9.33429C195.978 9.39417 196.046 9.44121 196.108 9.48399ZM63.6725 3.0725C63.6476 3.02973 63.6289 2.98268 63.6041 2.93991C63.0066 2.83298 62.3656 2.96557 61.7681 2.84153C62.5772 2.78593 63.38 2.73033 64.1891 2.67472C64.2139 2.7175 64.2388 2.76455 64.2637 2.80732C64.0708 2.89714 63.8717 2.98696 63.6725 3.0725ZM53.3726 2.8672C53.3726 2.85009 53.3726 2.8287 53.3664 2.81159C53.7274 2.79021 54.0883 2.75599 54.4493 2.74316C54.8103 2.73033 55.1774 2.73888 55.5384 2.73888C55.5135 2.74744 55.4264 2.76882 55.2895 2.80732C55.5011 2.89714 55.6193 2.94846 55.8309 3.03828C54.9285 2.9784 54.1506 2.9228 53.3726 2.8672ZM65.9192 3.92794C65.2657 4.19312 64.6371 4.1589 64.438 3.92794C64.9359 3.92794 65.4275 3.92794 65.9192 3.92794ZM211.337 19.0135C212.408 18.7911 213.042 18.8211 213.217 19.1376C212.582 19.0991 211.966 19.0563 211.337 19.0135ZM187.781 15.5062C187.775 15.5661 187.769 15.626 187.763 15.6816C187.041 15.6089 186.319 15.5362 185.597 15.4635C185.864 15.395 186.132 15.3822 186.393 15.3993C186.655 15.4164 186.91 15.4635 187.165 15.4849C187.371 15.5062 187.576 15.502 187.781 15.5062ZM27.234 3.27353C27.2278 3.3163 27.2278 3.35479 27.2215 3.39756C26.6614 3.58576 26.2009 3.32058 25.6906 3.24786C25.703 3.20082 25.7092 3.15377 25.7217 3.10244C26.232 3.15804 26.7299 3.21365 27.234 3.27353ZM146.588 3.97927C147.117 3.97927 147.646 3.97927 148.324 3.97927C147.708 4.22306 147.708 4.22306 146.588 3.97927ZM45.4377 3.13238C46.0974 2.85864 46.4023 2.8843 46.8317 3.25214C46.3588 3.20937 45.9293 3.17515 45.4377 3.13238ZM193.034 12.3882C193.501 12.3882 193.924 12.3882 194.366 12.3882C194.216 12.709 193.694 12.709 193.034 12.3882ZM22.722 2.59773C23.3319 2.56352 23.7924 2.53785 24.3214 2.50791C23.8297 2.95702 23.3505 2.76027 22.722 2.59773ZM191.889 25.981C191.889 26.0067 191.889 26.0324 191.889 26.0537C191.441 26.0537 190.986 26.0537 190.532 26.0537C190.551 26.0238 190.582 25.9554 190.607 25.904C191.042 25.9297 191.466 25.9554 191.889 25.981ZM67.7053 2.54641C67.7178 2.58063 67.7302 2.61484 67.7427 2.64906C67.0954 2.71322 66.4544 2.77738 65.8072 2.84581C65.801 2.82015 65.8009 2.79449 65.7947 2.76882C66.4295 2.69611 67.0643 2.6234 67.7053 2.54641ZM194.646 9.50537C194.023 9.50537 193.457 9.50537 192.773 9.50537C193.457 9.37706 194.023 9.27868 194.646 9.50537ZM65.6578 4.41126C65.2097 4.53102 64.8799 4.62512 64.5376 4.69783C64.494 4.70638 64.4007 4.59517 64.326 4.53957C64.4007 4.4968 64.4691 4.41981 64.55 4.41553C64.8612 4.4027 65.1724 4.41126 65.6578 4.41126ZM167.312 4.63367C167.294 4.65934 167.281 4.68928 167.262 4.71494C166.889 4.65506 166.516 4.59518 166.204 4.54813C166.267 4.44976 166.316 4.36849 166.391 4.25728C166.671 4.36849 166.995 4.50108 167.312 4.63367Z" fill="url(#paint0_linear_6249_14178)"/>
<defs>
<linearGradient id="paint0_linear_6249_14178" x1="218.643" y1="34.2275" x2="17.0372" y2="-39.5601" gradientUnits="userSpaceOnUse">
<stop stop-color="#533CA3"/>
<stop offset="0.294518" stop-color="#BF5AB8"/>
<stop offset="0.682384" stop-color="#ED641F"/>
<stop offset="1" stop-color="#FFE322"/>
</linearGradient>
</defs>
</svg>
