<svg width="96" height="24" viewBox="0 0 96 24" fill="none" xmlns="http://www.w3.org/2000/svg">
<path d="M24 12C24 18.6274 18.6274 24 12 24C5.37258 24 0 18.6274 0 12C0 5.37258 5.37258 0 12 0C18.6274 0 24 5.37258 24 12Z" fill="url(#paint0_linear_6288_9277)"/>
<path opacity="0.2" fill-rule="evenodd" clip-rule="evenodd" d="M48 24C54.6274 24 60 18.6274 60 12C60 5.37258 54.6274 0 48 0C41.3726 0 36 5.37258 36 12C36 18.6274 41.3726 24 48 24ZM84 24C90.6274 24 96 18.6274 96 12C96 5.37258 90.6274 0 84 0C77.3726 0 72 5.37258 72 12C72 18.6274 77.3726 24 84 24Z" fill="url(#paint1_linear_6288_9277)"/>
<defs>
<linearGradient id="paint0_linear_6288_9277" x1="6.25" y1="-3.72529e-09" x2="16.75" y2="24" gradientUnits="userSpaceOnUse">
<stop stop-color="#68C0FF"/>
<stop offset="1" stop-color="#207ACC"/>
</linearGradient>
<linearGradient id="paint1_linear_6288_9277" x1="51.625" y1="-3.72529e-09" x2="56.4802" y2="27.7441" gradientUnits="userSpaceOnUse">
<stop stop-color="#68C0FF"/>
<stop offset="1" stop-color="#207ACC"/>
</linearGradient>
</defs>
</svg>
