<svg width="645" height="25" viewBox="0 0 645 25" fill="none" xmlns="http://www.w3.org/2000/svg">
<path d="M202.177 21.2842C202.283 21.244 202.354 21.1751 202.478 21.1722C203.008 21.1607 203.556 21.1664 204.263 21.1664C203.185 21.0114 200.799 21.0257 199.968 21.1636C199.031 21.3186 198.942 21.3129 198.2 21.1147C198.076 21.0803 197.67 21.0774 197.44 21.0487C197.387 21.043 197.564 20.9827 197.617 20.9626C195.283 20.9137 192.967 20.8448 190.652 20.8247C189.202 20.8132 187.912 20.9137 186.657 21.0918C185.773 21.2181 184.235 21.2038 182.997 21.2468C182.485 21.2641 181.972 21.2698 181.459 21.2813C181.477 21.31 181.495 21.3387 181.512 21.3674C182.149 21.356 182.785 21.3416 183.404 21.3359C183.917 21.333 184.429 21.3359 184.924 21.3588C185.048 21.3646 185.172 21.4852 185.101 21.4909C184.712 21.5282 184.252 21.5627 183.811 21.5742C181.972 21.6144 180.116 21.646 178.26 21.6804C178.26 21.7149 178.26 21.7465 178.26 21.7809C186.816 21.9015 195.372 22.0193 203.998 22.1399C204.016 22.114 204.016 22.0911 204.034 22.071C204.104 21.9848 207.056 21.5369 207.516 21.5483C209.319 21.5943 211.034 21.6345 212.89 21.4995C214.11 21.4105 215.718 21.4823 217.15 21.5254C216.16 21.5397 215.17 21.5512 214.039 21.5684C214.799 21.8211 215.824 21.7522 216.779 21.7436C217.433 21.7379 218.105 21.7493 218.759 21.7637C220.085 21.7924 221.393 21.8355 222.719 21.8556C224.752 21.8872 226.784 21.9274 228.817 21.913C229.825 21.9044 230.603 21.9073 231.275 22.0767C230.78 22.0882 230.355 22.091 229.931 22.1083C227.527 22.2002 225.282 22.2777 222.701 22.1226C220.686 22.002 218.229 22.0997 215.966 22.1226C218.794 22.1801 221.623 22.2346 224.451 22.2921C224.451 22.3265 224.451 22.361 224.451 22.3954C222.613 22.4241 220.774 22.45 218.936 22.4787C218.953 22.5074 218.953 22.5361 218.971 22.562C219.36 22.5907 219.731 22.6194 220.12 22.6453C220.138 22.6654 220.155 22.6854 220.173 22.7027C219.219 22.7314 218.264 22.7831 217.309 22.786C216.302 22.7888 215.294 22.7486 214.287 22.7257C214.269 22.7572 214.251 22.7888 214.233 22.8204C217.327 22.852 220.438 22.8865 223.532 22.918C223.532 22.9439 223.532 22.9669 223.549 22.9927C221.11 23.1851 218.494 23.053 215.931 23.0674C215.824 23.1277 215.736 23.188 215.595 23.2712C219.289 23.343 223.037 23.4148 226.961 23.4895C226.785 23.5612 226.661 23.6072 226.519 23.6646C228.446 23.7594 230.179 23.7019 231.911 23.6244C231.911 23.5928 231.911 23.5641 231.911 23.5325C230.391 23.5038 228.87 23.4722 227.067 23.4378C227.863 23.2626 228.269 23.1506 229.436 23.2712C229.949 23.3258 230.903 23.2454 231.734 23.2224C232.353 23.2597 233.131 23.3373 233.909 23.3459C237.391 23.3803 240.873 23.3803 244.356 23.4205C247.326 23.455 250.278 23.5297 253.23 23.5756C254.114 23.59 255.192 23.455 255.758 23.7536C253.142 23.7134 250.631 23.6675 248.139 23.6359C246.053 23.6072 243.967 23.5871 241.881 23.5785C240.644 23.5727 239.389 23.59 238.151 23.6072C237.727 23.6129 237.338 23.656 236.914 23.6675C236.595 23.6761 236.048 23.6847 235.977 23.6618C235.164 23.3631 233.82 23.5928 232.742 23.5124C233.078 23.8857 234.686 23.8111 235.888 23.8484C237.479 23.8972 239.106 23.9259 240.679 24.0035C232.901 23.8427 224.999 23.9575 217.345 23.567C217.292 23.5928 217.256 23.6187 217.203 23.6445C217.398 23.6876 217.592 23.7307 217.787 23.7737C217.734 23.7881 217.698 23.7996 217.645 23.8139C217.062 23.745 216.514 23.6675 215.913 23.6072C215.4 23.5584 214.569 23.4694 214.304 23.5009C212.678 23.7048 210.839 23.6101 209.107 23.6474C207.339 23.6847 205.554 23.7134 203.786 23.7278C201.965 23.745 200.127 23.7393 198.288 23.7479C197.917 23.7508 197.564 23.7737 197.192 23.7881C197.192 23.8111 197.175 23.8312 197.175 23.8541C198.766 23.9087 200.357 23.9661 201.948 24.0207C201.948 24.0322 201.93 24.0437 201.93 24.0551C200.48 24.0781 199.031 24.1183 197.599 24.1183C195.814 24.1183 194.01 24.1097 192.26 24.0551C191.076 24.0178 189.945 23.8082 188.884 23.8283C187.77 23.8513 186.745 23.9374 185.49 23.9001C184.076 23.857 182.485 23.8025 181.177 23.8742C178.985 23.992 176.828 23.9489 174.654 23.9604C172.621 23.969 170.605 23.9231 168.573 23.9202C167.406 23.9173 166.221 23.9518 165.055 23.9633C164.56 23.969 164.012 23.992 163.605 23.9604C161.06 23.7651 158.408 23.8599 155.809 23.857C154.572 23.8541 153.335 23.8972 152.079 23.903C151.761 23.903 151.425 23.8053 151.125 23.8111C150.206 23.8283 149.322 23.8771 148.42 23.9087C147.819 23.9317 147.2 23.9747 146.617 23.9604C145.061 23.9259 143.541 23.8685 141.72 23.8111C141.933 23.9346 142.039 23.9834 142.18 24.0695C139.263 23.9862 136.523 23.9087 133.677 23.8283C133.783 23.8857 133.889 23.9432 134.031 24.0264C133.589 24.0322 133.2 24.0437 132.829 24.0437C129.93 24.0293 127.048 24.0207 124.167 23.9948C122.77 23.9834 121.391 23.9231 119.995 23.9202C119.394 23.9202 118.757 23.9977 118.227 24.0638C118.086 24.081 118.174 24.2274 118.315 24.2361C119.376 24.3078 120.472 24.3681 121.568 24.417C122.505 24.4572 123.513 24.394 124.149 24.6323C124.379 24.7213 126.182 24.7156 127.243 24.6984C129.187 24.6639 131.114 24.5864 133.041 24.5232C133.271 24.5146 133.483 24.5002 134.031 24.4686C132.528 24.3882 131.361 24.3222 130.177 24.259C130.195 24.2389 130.212 24.2217 130.23 24.2016C131.803 24.216 133.377 24.2303 135.197 24.2475C134.685 24.4801 135.003 24.5548 136.17 24.5577C136.93 24.5577 137.672 24.6381 138.432 24.6668C138.998 24.6897 139.688 24.8391 140.147 24.6323C140.182 24.6151 140.854 24.618 140.872 24.6266C141.155 24.8419 142.127 24.7587 142.834 24.7644C144.991 24.7845 147.147 24.8132 149.304 24.8075C151.054 24.8017 152.804 24.7529 154.554 24.7213C154.572 24.7472 154.59 24.773 154.607 24.8017C152.327 24.8391 150.047 24.8907 147.748 24.9109C143.559 24.9511 139.369 24.997 135.18 24.9999C132.228 25.0027 129.258 24.9568 126.288 24.908C121.268 24.8247 116.265 24.7271 111.262 24.6294C108.982 24.5864 106.719 24.5261 104.439 24.4801C99.7187 24.3854 94.9988 24.2964 90.2613 24.1729C91.8522 24.1729 93.4609 24.1614 95.0519 24.1758C98.9232 24.2045 102.795 24.2447 106.666 24.282C106.701 24.2447 106.737 24.2102 106.772 24.1729C106.312 24.1499 105.87 24.1155 105.411 24.1068C99.8601 24.0063 94.2917 23.9202 88.7587 23.8025C86.3545 23.7508 83.9681 23.6445 81.5993 23.5383C80.4502 23.4866 79.3896 23.3717 78.2582 23.3C77.834 23.2741 77.3213 23.2971 76.6673 23.2971C76.9501 23.3746 77.0738 23.4062 77.2683 23.4608C74.7404 23.432 72.2832 23.4033 69.4902 23.3689C69.9498 23.2971 70.1619 23.2626 70.4978 23.2109C68.9776 23.0099 67.2098 23.0214 65.5304 23.0387C62.3839 23.0702 59.2549 23.1334 56.126 23.1794C55.9669 23.1822 55.7902 23.165 55.2421 23.1391C56.073 23.0903 56.4973 23.0645 56.9569 23.0387C56.8155 22.8147 56.073 22.8463 55.2245 22.8865C54.429 22.9238 53.6158 22.9381 52.8027 22.9554C50.4692 22.9984 48.1535 23.0387 45.8201 23.0817L45.8554 23.0846C47.4817 23.0214 49.1081 22.9582 50.7521 22.8979C51.5652 22.8692 52.3784 22.8463 53.1739 22.7802C51.0703 22.7544 48.9843 22.5562 46.9868 22.7974C43.08 22.4644 38.8905 22.6194 34.8777 22.5074C34.8423 22.5419 34.807 22.5735 34.7893 22.6079C36.0621 22.651 37.3525 22.6941 38.6076 22.7371C38.4662 22.7458 38.2187 22.7802 37.9889 22.7773C34.3474 22.7343 30.7058 22.6855 27.0819 22.6366C25.8798 22.6194 25.597 22.4787 25.6147 22.338C23.5287 22.0451 21.5489 21.7666 19.4806 21.4766C20.8771 21.198 22.5565 21.4794 24.0414 21.4076C23.8116 21.1664 23.1045 21.0516 21.708 21.0516C21.2483 21.0516 20.8064 20.9626 20.2407 20.9023C20.7534 20.753 21.2837 20.6324 21.5665 20.4917C21.6549 20.4486 21.1069 20.3337 20.7003 20.2964C19.7988 20.216 18.7912 20.1643 17.8366 20.1011C17.8012 20.0695 17.7659 20.0351 17.7305 20.0035C18.4907 19.9489 19.2685 19.9001 19.9932 19.8341C20.4882 19.7881 20.9125 19.7135 21.5665 19.6216C19.9579 19.5096 18.5437 19.4091 17.1118 19.3086C17.1295 19.2741 17.1295 19.2397 17.1472 19.2081C18.2255 19.1622 19.3215 19.1191 20.3998 19.0731C15.6976 18.8377 11.5964 18.3409 6.61138 18.2232C6.68209 18.183 6.77048 18.1456 6.84119 18.1054C9.01552 18.1916 11.1722 18.2921 13.3465 18.3639C15.2733 18.4271 17.2356 18.473 19.1978 18.5046C19.5513 18.5103 19.9579 18.4127 20.3645 18.3754C20.718 18.3438 21.1069 18.3093 21.4958 18.3064C22.2913 18.3036 23.0868 18.3208 23.6525 18.3265C24.0414 18.2088 24.3065 18.1284 24.6954 18.0107C22.8747 17.9274 21.0362 17.8441 18.8442 17.7436C20.8418 17.6604 22.4504 17.5943 24.4126 17.5139C23.8469 17.4421 23.4403 17.3876 22.804 17.3072C24.9606 17.3072 26.8344 17.3072 28.6906 17.3072C28.7259 17.2899 28.7436 17.2756 28.779 17.2584C28.0895 17.2153 27.4001 17.1722 26.7637 17.1349C26.9405 17.1062 27.2057 17.066 27.4531 17.0258C27.2057 16.9856 26.9935 16.9195 26.7284 16.9109C25.7031 16.8736 24.6424 16.8564 23.6171 16.8305C23.0691 16.8162 22.5034 16.8018 21.9554 16.7271C23.0691 16.7013 24.1828 16.6726 25.2788 16.6467C25.2788 16.6094 25.2788 16.5721 25.2788 16.5347C23.6348 16.5146 21.9731 16.4917 20.2054 16.4716C20.3114 16.4084 20.3998 16.3596 20.5589 16.2706C18.8972 16.239 17.3593 16.2074 15.8214 16.1787C15.8214 16.1672 15.8037 16.1528 15.8037 16.1413C16.9527 16.1069 18.1194 16.0724 19.2685 16.038C19.2685 16.0208 19.2685 16.0035 19.2685 15.9892C18.1548 15.926 17.0234 15.8599 15.9097 15.7968C15.9451 15.7738 15.9804 15.748 16.0158 15.725C17.5714 15.7681 19.1447 15.8111 20.7003 15.8542C20.7357 15.8255 20.771 15.7996 20.8064 15.7709C19.6043 15.702 18.1901 15.679 17.2532 15.5498C16.4224 15.435 16.1219 15.2024 15.5208 15.0014C16.9527 15.0588 18.3316 15.1134 19.7281 15.1679C19.7634 15.1421 19.8165 15.1162 19.8518 15.0904C19.074 15.033 18.2608 14.9813 17.5184 14.9095C17.2532 14.8836 17.1472 14.8004 16.9704 14.7458C17.2709 14.7257 17.5891 14.6884 17.8719 14.6913C19.0563 14.7027 20.2584 14.7286 21.6019 14.7516C21.5489 14.6769 21.5135 14.6252 21.4251 14.5103C22.7333 14.5391 23.953 14.5649 25.1727 14.5936C25.1904 14.5735 25.2258 14.5563 25.2435 14.5362C22.9807 14.4414 20.7357 14.3467 18.473 14.2548C18.4907 14.2376 18.5083 14.2203 18.526 14.2002C19.7811 14.1457 21.0185 14.094 22.4858 14.0308C22.2029 14.0882 22.0615 14.1198 21.7963 14.1715C22.5388 14.2002 23.1752 14.2232 24.0237 14.2548C23.7409 13.9361 24.7131 13.9619 25.8445 14.0021C26.4455 14.0222 27.0996 14.005 27.736 13.9619C27.0642 13.9073 26.3395 13.8671 25.7207 13.7925C25.1904 13.7293 24.8015 13.6288 24.1298 13.5053C21.9201 13.3991 19.2861 13.2699 16.6699 13.1435C16.7052 13.1091 16.7406 13.0746 16.7759 13.043C20.117 13.1263 23.4404 13.2096 26.7814 13.2928C26.7991 13.2699 26.8168 13.2469 26.8521 13.2239C22.9984 13.0344 19.1447 12.8449 15.291 12.6554C15.291 12.6468 15.3087 12.6381 15.3087 12.6295C18.0487 12.6984 20.7887 12.7645 23.5464 12.8334C23.5641 12.8076 23.5818 12.7817 23.6171 12.7559C18.6851 12.5463 13.7531 12.3338 8.82107 12.1241C8.83874 12.1012 8.8741 12.0811 8.89178 12.0581C11.3843 12.1241 13.9122 12.1701 16.3694 12.262C20.4705 12.417 24.5717 12.575 28.7966 12.5979C29.8396 12.6037 30.8826 12.5836 31.9255 12.5807C33.4104 12.5778 34.913 12.5807 36.4156 12.5319C24.3949 12.0782 12.3566 11.6245 -6.0512e-07 11.1565C2.72233 10.9325 5.05576 11.1679 7.76042 11.1507C7.14171 11.1794 6.87654 11.1938 6.61138 11.2053C11.7025 11.5384 17.2179 11.369 22.6272 11.6705C21.708 11.4752 21.708 11.4867 19.7104 11.4551C18.7558 11.4407 17.8189 11.3661 16.935 11.257C18.2962 11.2742 19.675 11.2914 21.0362 11.3115C21.0716 11.2914 21.0892 11.2713 21.1246 11.2541C19.7281 11.1737 18.3316 11.0933 16.8643 11.01C17.3063 10.9842 17.6952 10.9583 18.1371 10.9325C17.0411 10.7573 15.786 10.7315 14.4955 10.7803C13.2758 10.8262 11.9853 10.8176 10.7302 10.832C10.7126 10.7975 10.6772 10.7631 10.6595 10.7286C11.7555 10.697 12.8515 10.631 13.9475 10.6396C16.0865 10.6568 18.2078 10.7257 20.3468 10.7602C22.1852 10.7889 24.0414 10.8061 25.8798 10.8176C26.1804 10.8205 26.4809 10.7745 27.2233 10.72C25.7384 10.6597 24.6778 10.6166 23.3343 10.5621C24.501 10.3898 26.092 10.6626 26.6577 10.3697C27.4178 10.3008 28.1602 10.229 29.0971 10.1428C27.3824 9.90737 25.0667 10.071 22.9277 9.84706C26.693 9.91024 30.1048 9.97054 33.5165 10.028C33.5519 10.0079 33.5872 9.98776 33.6049 9.96766C32.4382 9.89875 31.2892 9.80112 30.0871 9.76953C28.3193 9.72359 26.4986 9.7322 24.7308 9.692C24.3065 9.68339 23.9707 9.56853 23.3166 9.45654C26.8521 9.45654 29.9633 9.5714 33.0392 9.38763C30.4406 9.25267 28.1249 8.91096 25.102 9.11197C24.9429 9.02869 24.7662 8.93968 24.5717 8.84205C29.1502 8.84205 33.711 8.84205 38.2718 8.84205C38.2894 8.81046 38.3071 8.77887 38.3071 8.74442C36.9813 8.72719 35.6555 8.71857 34.3474 8.68698C33.0923 8.65827 31.8372 8.60658 30.6174 8.56351C31.0593 8.54054 31.5543 8.51469 32.2084 8.48024C31.9432 8.42855 31.7311 8.38835 31.3599 8.31656C33.7463 8.262 36.009 8.21032 38.2541 8.15863C36.1151 7.89445 33.6226 7.96911 31.3068 7.91455C28.9381 7.85712 26.5339 7.8399 24.1298 7.78247C29.5214 7.52978 35.2489 7.74513 40.6052 7.46373C40.6052 7.44076 40.6229 7.41779 40.6229 7.39482C38.3778 7.31154 36.1328 7.22827 33.9054 7.14787C33.8877 7.15362 34.0115 7.1249 34.2943 7.0646C33.5342 7.0445 32.8801 7.02727 31.9255 7.00143C32.8094 6.95548 33.4458 6.92102 34.0645 6.88657C34.0468 6.87508 34.0292 6.86646 34.0115 6.85498C32.173 6.82913 30.3346 6.80617 28.4784 6.78032C28.4784 6.75448 28.4784 6.72863 28.4784 6.70279C31.024 6.67694 33.5872 6.6511 36.1328 6.62526C36.1505 6.59942 36.1505 6.57644 36.1681 6.5506C35.7262 6.50753 35.2843 6.46733 34.4004 6.38406C36.0444 6.35822 37.2641 6.33811 38.4839 6.31801C38.5016 6.29791 38.5016 6.27781 38.5193 6.25484C35.3196 6.15146 32.12 6.04809 28.9204 5.94472C28.9381 5.91888 28.9557 5.89591 28.9734 5.87006C29.7335 5.8557 30.5113 5.84135 31.2715 5.82412C31.2892 5.79253 31.2892 5.76095 31.3068 5.72936C29.4684 5.68055 27.6299 5.6346 25.7915 5.58579C27.294 5.40776 29.2739 5.66332 30.4937 5.35894C30.5821 5.33884 30.3699 5.28141 30.3169 5.24121C32.721 5.27279 35.1252 5.30725 37.547 5.33596C38.5016 5.34745 39.4562 5.3532 40.4107 5.35032C41.2062 5.35032 41.8249 5.30725 41.5421 5.15793C39.3678 5.08902 37.2995 5.02298 35.2312 4.95693C38.8728 4.80474 42.8149 5.18377 46.1382 4.67552C36.4333 4.58077 26.7284 4.48601 17.0234 4.39125C17.0234 4.35679 17.0234 4.3252 17.0234 4.29075C20.7534 4.29936 24.5187 4.42858 28.2486 4.23045C23.5111 3.98924 18.5614 3.95766 13.3995 3.74517C25.8445 3.4695 37.8652 3.49247 49.8859 3.64466C49.9036 3.67051 49.9036 3.69348 49.9212 3.71932C47.7115 3.71932 45.5195 3.71932 43.3098 3.71932C43.3098 3.75378 43.2922 3.78823 43.2922 3.82269C45.0422 3.84854 46.81 3.87151 48.5601 3.89735C48.5601 3.92607 48.5601 3.95765 48.5601 3.98637C45.9791 4.01221 43.3806 4.03806 40.3754 4.06965C41.0294 4.11559 41.3123 4.15004 41.6128 4.15291C44.2114 4.17875 46.8277 4.19025 49.4263 4.22183C50.8051 4.23906 52.2016 4.27926 53.5628 4.31659C55.3305 4.3654 56.1437 4.29075 56.1614 4.05816C55.2421 4.00934 53.8456 4.0639 54.0931 3.75378C54.1108 3.73655 52.838 3.68487 52.0956 3.64754C52.9971 3.48099 54.8709 3.72794 55.4012 3.38623C54.8886 3.38049 54.4467 3.37761 54.0224 3.37187C54.0047 3.35464 53.987 3.34029 53.9694 3.32306C54.9063 3.25414 55.8255 3.18523 56.9038 3.1077C56.4265 3.04452 56.0023 2.98996 55.2775 2.89234C56.3028 2.82916 57.0099 2.76886 57.7347 2.74589C61.7121 2.61954 65.6896 2.49033 69.6847 2.38982C73.6975 2.28932 77.7102 2.20605 81.7407 2.14287C82.6776 2.12852 83.6852 2.22902 84.6752 2.27497C85.2409 2.30081 85.8065 2.33814 86.3899 2.34675C90.1552 2.40705 94.0089 2.40418 97.6858 2.54201C100.62 2.65113 103.396 2.59944 106.259 2.58221C108.222 2.57072 110.184 2.65112 112.146 2.6741C113.436 2.68845 114.745 2.68558 116.053 2.6741C116.937 2.66548 117.82 2.62815 118.457 2.61092C117.555 2.46448 116.548 2.29506 115.487 2.13713C114.656 2.01366 113.755 1.90167 113.083 1.81265C113.083 1.81265 113.543 1.80117 113.967 1.78969C114.144 1.49967 113.313 1.41926 111.916 1.41639C105.853 1.40203 99.7894 1.35322 93.7261 1.37619C91.2866 1.38481 88.8647 1.54273 86.4252 1.63175C85.9833 1.64898 85.5414 1.67195 85.0464 1.66621C86.9202 1.41926 89.0946 1.33886 91.3396 1.31876C96.0948 1.27856 100.85 1.26133 105.588 1.23262C109.866 1.20677 114.144 1.16083 118.422 1.15221C124.485 1.14073 130.566 1.15508 136.629 1.15508C139.369 1.15508 142.127 1.14647 144.867 1.15221C147.519 1.15796 150.153 1.18954 152.804 1.18954C158.408 1.18667 164.029 1.1637 169.633 1.15795C171.047 1.15795 172.479 1.18954 173.893 1.20964C173.893 1.23261 173.876 1.25559 173.876 1.27856C172.833 1.26707 171.79 1.24697 170.747 1.24984C165.939 1.26707 161.13 1.29004 156.322 1.31875C150.506 1.35321 144.69 1.38768 138.892 1.43075C135.639 1.45659 132.404 1.50541 128.834 1.54848C131.026 1.6375 132.988 1.71789 135.445 1.81839C134.649 1.88444 134.278 1.93899 133.872 1.94474C132.157 1.96771 130.442 1.9792 128.727 1.98782C128.409 1.99069 128.073 1.96197 127.755 1.91028C128.409 1.89592 129.046 1.88157 129.7 1.86434C129.7 1.84424 129.7 1.82126 129.7 1.80116C127.207 1.80116 124.715 1.80116 122.222 1.80116C122.204 1.7667 122.204 1.73225 122.187 1.69779C123.884 1.67482 125.581 1.65185 127.26 1.62888C127.26 1.61453 127.243 1.60303 127.243 1.58868C123.636 1.53125 120.048 1.47381 116.424 1.41639C116.159 1.72651 116.707 1.83562 118.298 1.8385C120.72 1.84424 123.141 1.89018 125.563 1.91889C125.563 1.94474 125.563 1.97345 125.563 1.9993C122.823 1.97919 120.083 1.95623 117.202 1.93326C117.396 2.26061 118.669 2.25486 119.641 2.28644C120.826 2.32377 122.045 2.31516 123.23 2.34962C124.114 2.37546 124.927 2.4731 125.811 2.48745C126.977 2.50468 128.162 2.47022 129.346 2.46161C130.725 2.45587 132.086 2.46448 133.465 2.45012C134.402 2.44151 135.339 2.40992 136.258 2.38407C137.389 2.35249 138.521 2.30655 139.67 2.29219C140.094 2.28645 140.536 2.34675 141.172 2.38982C140.448 2.49607 140.006 2.55924 139.228 2.67697C142.074 2.58508 144.319 2.92966 146.865 2.6942C147.678 2.61954 148.968 2.70855 150.047 2.70855C154.501 2.70281 158.956 2.70281 163.393 2.67697C166.929 2.65687 170.446 2.60518 173.982 2.5535C174.848 2.54201 175.944 2.54775 176.28 2.33239C176.315 2.30654 176.793 2.30367 177.075 2.28932C177.323 2.68845 179.78 2.45299 180.469 2.65687C178.843 2.67697 177.146 2.69707 175.431 2.72004C175.431 2.75163 175.431 2.78608 175.431 2.81767C181.548 2.82915 187.682 2.83777 193.798 2.84926C193.816 2.86936 193.834 2.88945 193.851 2.90668C193.71 2.88945 193.551 2.87223 193.144 2.82628C193.816 2.78321 194.311 2.75162 194.93 2.70855C195.354 3.12779 197.192 2.9153 198.412 2.9756C199.597 3.03303 200.834 3.05887 202.001 3.13927C202.672 3.12491 203.45 2.95837 203.963 3.21106C205.289 3.13066 206.491 3.54989 207.958 3.23978C208.152 3.1967 209.001 3.24265 209.549 3.257C211.158 3.30295 212.731 3.38048 214.34 3.39484C217.946 3.42642 221.552 3.43791 225.14 3.43791C226.378 3.43791 227.633 3.34889 228.87 3.34602C230.355 3.34315 231.858 3.38622 233.343 3.41494C234.262 3.43217 234.792 3.40345 234.085 3.19383C234.227 3.19096 234.368 3.18521 234.527 3.18234C234.881 3.26849 235.234 3.35176 235.818 3.49247C236.313 3.46375 237.108 3.40632 237.921 3.37186C238.222 3.36037 238.699 3.37761 238.911 3.41494C240.343 3.67337 243.985 3.69347 245.54 3.45801C245.912 3.40058 246.477 3.38047 247.043 3.38047C246.778 3.42355 246.513 3.46662 246.23 3.51257C246.336 3.54415 246.407 3.58436 246.477 3.58436C248.563 3.59584 250.667 3.60158 252.753 3.60732C253.407 3.60732 254.061 3.60158 254.697 3.59583C255.952 3.58148 257.207 3.57861 258.427 3.54702C259.947 3.50682 261.397 3.49534 262.705 3.69347C263.624 3.40632 264.986 3.54702 266.188 3.52979C266.223 3.55851 266.258 3.58435 266.294 3.61306C264.614 3.67336 262.864 3.8112 261.256 3.77674C259.17 3.7308 257.154 3.72505 255.068 3.75664C252.806 3.79109 250.508 3.74229 248.21 3.75377C246.053 3.76526 243.896 3.79397 241.74 3.83417C239.937 3.86863 238.169 3.93755 236.366 3.97775C235.906 3.98636 235.411 3.91457 234.934 3.91457C232.919 3.91745 230.903 3.9318 228.87 3.94329C228.853 3.97201 228.853 4.00072 228.835 4.02943C229.03 4.06102 229.224 4.0926 229.436 4.12706C228.623 4.14142 227.827 4.15578 227.032 4.16727C227.014 4.18737 227.014 4.21034 226.997 4.23044C227.279 4.25054 227.633 4.30222 227.827 4.28786C229.259 4.17875 230.461 4.33381 231.77 4.37114C232.141 4.38262 232.565 4.32807 232.883 4.24479C232.388 4.22182 231.911 4.20172 231.416 4.17874C231.451 4.14429 231.487 4.11271 231.522 4.07825C232.123 4.10122 232.777 4.10696 233.325 4.1529C234.174 4.22469 234.828 4.25915 235.075 4.00933C235.234 4.01507 235.376 4.02082 235.535 4.02943C235.853 4.15578 236.154 4.27925 236.472 4.40559C236.348 4.41995 236.207 4.43718 236.083 4.45154C236.861 4.46877 237.656 4.486 238.452 4.50322C238.434 4.53481 238.416 4.56353 238.399 4.59511C237.409 4.5865 236.419 4.58363 235.429 4.55492C235.34 4.55205 235.411 4.38263 235.411 4.24767C235.058 4.28212 234.633 4.29648 234.492 4.33956C233.696 4.60086 232.265 4.57214 230.956 4.59799C228.305 4.64967 225.724 4.83631 222.984 4.76166C221.782 4.73007 220.58 4.68413 219.36 4.65829C218.9 4.64967 218.388 4.66977 217.91 4.68413C217.115 4.7071 216.337 4.73582 215.453 4.76453C215.877 5.05455 214.675 5.04306 213.579 5.04881C212.872 5.05168 212.165 5.04881 211.458 5.04881C211.44 5.06891 211.423 5.09188 211.423 5.11198C211.653 5.12634 211.9 5.14931 212.13 5.14931C215.153 5.13208 218.176 5.10911 221.216 5.09475C223.85 5.08326 226.502 5.08614 229.136 5.06891C229.984 5.06316 230.85 4.98277 231.699 4.98564C233.661 4.99138 235.606 5.03732 237.568 5.04594C239.99 5.05742 242.411 5.03445 244.833 5.05168C245.982 5.06029 247.131 5.15505 248.28 5.15218C251.409 5.14069 254.397 5.26704 257.437 5.3618C258.197 5.38477 258.993 5.37615 259.788 5.3819C259.983 5.38477 260.23 5.37903 260.372 5.39626C262.316 5.64895 264.491 5.60587 266.7 5.56568C267.779 5.54845 268.875 5.58865 269.971 5.60013C270.236 5.603 270.519 5.59152 270.801 5.5226C270.342 5.5226 269.9 5.53122 269.458 5.51973C269.069 5.51112 268.698 5.4824 268.362 5.45082C268.309 5.44507 268.397 5.34744 268.486 5.34457C268.91 5.32447 269.617 5.28426 269.758 5.31872C271.014 5.59438 272.039 5.38477 273.259 5.31011C274.319 5.24406 275.557 5.26991 276.741 5.30724C275.946 5.31873 275.15 5.33021 274.372 5.3417C274.372 5.36754 274.355 5.39339 274.355 5.41636C274.673 5.43933 275.009 5.46517 275.362 5.49101C275.15 5.51973 274.973 5.54558 274.514 5.61162C277.095 5.61162 279.41 5.61162 281.496 5.61162C281.496 5.71499 281.496 5.80688 281.496 5.92461C281.408 5.93322 281.125 5.95619 280.86 5.98203C281.85 6.23185 283.246 6.24621 284.731 6.23472C286.075 6.22611 287.454 6.26632 288.779 6.23186C290.141 6.1974 291.431 6.09689 292.757 6.03659C293.234 6.01362 293.764 6.02224 294.259 6.0165C294.312 6.04808 294.366 6.08254 294.419 6.11413C293.765 6.1572 293.128 6.20027 292.456 6.24621C293.217 6.24621 294.012 6.26057 294.754 6.24047C295.249 6.22612 295.656 6.14571 296.151 6.11699C296.893 6.07392 297.353 5.87005 298.414 6.00501C298.573 6.02511 299.015 5.97916 299.545 5.90451C299.121 5.87579 298.714 5.84421 298.237 5.80975C300.323 5.48527 302.32 5.73796 304.194 5.7236C304.212 5.70063 304.247 5.68053 304.265 5.65756C303.116 5.60588 301.949 5.55419 300.8 5.50537C300.977 5.43933 301.154 5.36754 301.26 5.32447C303.346 5.41923 305.414 5.51399 307.518 5.61162C307.146 5.66331 306.81 5.70063 306.528 5.74658C305.874 5.85569 305.22 5.90164 304.247 5.87005C302.904 5.82411 301.507 5.82698 300.146 5.80975C299.881 6.2376 299.881 6.23186 301.985 6.24047C303.204 6.24622 304.442 6.28929 305.661 6.28642C306.192 6.28642 306.687 6.20601 307.217 6.16581C307.429 6.14858 307.73 6.12561 307.906 6.13997C309.55 6.24908 311.071 6.18591 312.662 6.08828C313.333 6.04521 314.217 6.11412 314.995 6.11125C317.134 6.10264 319.344 6.01937 321.394 6.08828C323.268 6.15146 324.965 6.07105 326.733 6.05095C327.051 6.04808 327.369 6.02511 327.688 6.01075C327.688 5.98778 327.688 5.96193 327.67 5.93896C326.185 5.92748 324.682 5.90451 323.198 5.90738C320.086 5.91025 316.975 5.96481 313.899 5.92461C312.591 5.90738 311.336 5.79539 309.939 5.8844C309.179 5.93322 308.366 5.95906 307.588 5.99352C307.5 5.95619 307.394 5.91887 307.305 5.88154C307.853 5.82411 308.366 5.73796 308.967 5.71499C310.629 5.6432 312.52 5.48814 313.988 5.56567C316.781 5.70925 319.485 5.61449 322.208 5.62023C322.897 5.6231 323.586 5.5427 324.294 5.49963C324.258 5.47665 324.205 5.45081 324.17 5.42784C322.526 5.42784 320.882 5.42784 319.22 5.42784C319.22 5.40199 319.22 5.37615 319.22 5.34744C321.341 5.34744 323.445 5.34744 325.725 5.34744C325.513 5.44507 325.39 5.50537 325.089 5.63746C326.273 5.60587 327.21 5.5829 327.688 5.57141C330.145 5.57141 332.178 5.57716 334.228 5.56855C336.544 5.55993 338.86 5.5427 341.158 5.5226C345.1 5.49101 349.06 5.49101 352.966 5.40487C355.229 5.35605 357.35 5.53695 359.525 5.44794C361.01 5.38477 362.777 5.5226 364.015 5.26129C364.121 5.23832 364.545 5.23831 364.704 5.25554C366.225 5.41348 366.225 5.41348 367.939 5.27852C368.257 5.25268 368.611 5.24693 368.947 5.23258C367.886 5.01147 367.886 5.01435 366.384 5.12921C366.048 5.15505 365.606 5.15217 365.217 5.1493C363.52 5.13207 361.823 5.09187 360.126 5.09762C359.26 5.10049 358.429 5.19238 357.563 5.23258C356.997 5.25842 356.396 5.26417 355.742 5.23545C356.06 5.21535 356.378 5.19525 356.714 5.17515C356.714 5.15217 356.714 5.1292 356.696 5.10623C353.762 5.10623 350.827 5.10623 347.681 5.10623C347.964 5.0287 348.14 4.97989 348.512 4.87364C347.31 4.86216 346.284 4.85067 345.277 4.84206C345.277 4.87078 345.277 4.90236 345.259 4.93108C345.807 4.91959 346.373 4.90523 346.921 4.89374C346.921 4.92246 346.938 4.95117 346.938 4.97989C344.004 5.13782 341.052 5.15218 337.976 4.93969C338.1 4.90523 338.259 4.86503 338.559 4.7875C337.233 4.7071 335.978 4.63244 334.741 4.55778C334.741 4.54055 334.759 4.5262 334.759 4.50897C336.509 4.55778 338.259 4.6066 340.009 4.65254C341.441 4.68987 342.873 4.72432 344.304 4.76165C344.357 4.73294 344.428 4.70135 344.481 4.67263C344.269 4.62956 344.075 4.58936 343.721 4.52045C345.082 4.47163 346.284 4.40559 347.504 4.39698C348.282 4.39123 348.812 4.53481 349.908 4.48886C352.153 4.39411 354.54 4.32519 356.802 4.3539C358.34 4.37401 359.825 4.46876 361.381 4.38549C362.088 4.34816 362.795 4.31945 363.502 4.28499C363.502 4.26202 363.485 4.24192 363.485 4.21895C357.28 4.13854 351.093 4.05527 344.729 3.97199C346.426 3.73653 350.934 3.69346 353.567 3.86862C353.514 3.79397 353.444 3.72218 353.373 3.62455C356.042 3.87436 357.545 3.8916 359.224 3.65614C355.689 3.44652 352.1 3.61881 348.795 3.47523C348.812 3.45226 348.83 3.42929 348.83 3.40344C350.209 3.42067 351.57 3.44365 352.949 3.458C355.194 3.48098 357.439 3.49246 359.684 3.52118C359.914 3.52405 360.073 3.61593 360.356 3.64177C360.78 3.68485 361.275 3.7394 361.734 3.7394C363.732 3.72792 365.712 3.69921 367.727 3.63604C366.755 3.63604 365.765 3.63604 364.793 3.63604C364.793 3.61019 364.793 3.58435 364.81 3.55851C369 3.55851 373.207 3.55851 377.52 3.55851C377.167 3.77961 376.513 3.77386 375.647 3.73079C374.957 3.69633 374.215 3.6992 373.366 3.68484C374.091 3.93466 374.798 3.97774 376.053 3.89447C376.389 3.87149 376.831 3.89447 377.22 3.89447C378.864 3.89447 380.508 3.88585 382.152 3.89446C382.983 3.89734 383.796 3.9318 384.609 3.94902C384.609 3.97774 384.627 4.00932 384.627 4.03804C382.612 4.06675 380.596 4.09547 378.581 4.12132C378.581 4.14142 378.563 4.16152 378.563 4.18449C381.498 4.18449 384.432 4.18449 387.367 4.18449C387.367 4.2132 387.367 4.24191 387.384 4.27063C385.634 4.30796 383.902 4.34529 382.152 4.38262C382.17 4.41421 382.187 4.44579 382.205 4.48025C384.521 4.45441 386.836 4.43143 389.435 4.40271C388.993 4.31083 388.852 4.28212 388.498 4.21033C390.938 4.14141 393.094 4.08111 395.251 4.01794C395.233 3.98922 395.233 3.96338 395.216 3.93467C394.067 3.88585 392.988 3.75089 391.68 3.88585C390.938 3.96051 390.284 4.01507 389.382 3.89734C388.852 3.82555 387.95 3.83704 387.208 3.82555C385.387 3.79109 383.584 3.76525 381.763 3.73654C381.763 3.71356 381.763 3.69346 381.763 3.67049C383.283 3.68485 384.804 3.71069 386.324 3.70782C388.905 3.70208 391.486 3.66762 394.049 3.66187C394.65 3.659 395.233 3.7394 395.852 3.74802C398.274 3.77673 400.696 3.79396 403.135 3.81406C407.979 3.85426 412.822 3.90595 417.648 3.92892C422.492 3.95189 427.353 3.94615 432.215 3.95764C433.982 3.96051 435.785 4.00358 437.536 3.97199C438.738 3.95189 439.904 3.83703 441.336 3.75089C442.856 4.02081 445.119 3.91456 447.329 3.89446C449.503 3.87436 451.695 3.88298 453.87 3.87723C456.822 3.86862 459.792 3.85713 462.761 3.80257C460.728 3.6992 458.43 3.87723 456.45 3.56998C458.112 3.56424 459.456 3.47235 461.135 3.5183C464.052 3.59583 467.092 3.52404 470.08 3.50107C472.396 3.48384 474.676 3.35463 477.027 3.51256C477.716 3.5585 478.671 3.47522 479.52 3.45225C479.52 3.42641 479.52 3.40056 479.52 3.37185C479.025 3.33739 478.512 3.30006 478.017 3.26561C478.017 3.25125 478.035 3.23689 478.035 3.22253C479.025 3.21105 480.032 3.20244 481.022 3.19095C481.022 3.16511 481.04 3.14214 481.04 3.11629C477.54 3.09332 474.075 2.92964 470.522 3.10193L470.557 3.10768C471.105 3.03589 471.635 2.9641 472.183 2.89232C472.166 2.87222 472.166 2.85212 472.148 2.82914C470.769 2.82914 469.39 2.83489 468.012 2.82914C464.211 2.80904 460.428 2.76597 456.627 2.7631C451.236 2.75735 445.826 2.78033 440.435 2.79181C438.808 3.03015 437.058 2.93538 435.061 2.78894C435.308 2.92964 435.432 2.99569 435.556 3.06747C435.397 3.07896 435.255 3.09907 435.131 3.09907C433.028 3.08184 430.906 3.09619 428.856 3.03302C426.611 2.9641 424.507 3.03877 422.333 3.07322C420.671 3.09907 418.939 3.0244 417.259 2.99569C417.259 2.96985 417.242 2.94113 417.242 2.91529C418.727 2.89232 420.229 2.86935 421.714 2.84638C421.714 2.82627 421.732 2.80904 421.732 2.78894C419.098 2.74013 416.464 2.69418 413.83 2.64537C413.795 2.62527 413.759 2.60804 413.724 2.58794C414.396 2.5621 415.085 2.51616 415.757 2.51616C419.858 2.51041 423.959 2.51615 428.078 2.51902C433.187 2.52189 438.296 2.52477 443.387 2.52477C443.988 2.52477 444.713 2.56209 444.748 2.37545C444.748 2.35247 445.614 2.31227 446.074 2.31227C447.064 2.31227 448.071 2.34099 449.061 2.3496C452.279 2.37258 455.496 2.40704 458.731 2.40704C459.862 2.40704 460.994 2.30941 462.125 2.25772C462.408 2.24624 462.797 2.22039 462.991 2.24336C464.706 2.42426 466.615 2.32089 468.4 2.37832C470.009 2.43001 471.158 2.26633 472.555 2.24623C474.729 2.21178 476.939 2.1687 479.113 2.17445C485.972 2.19167 492.831 2.23188 499.707 2.25772C501.404 2.26346 503.101 2.25484 504.781 2.23187C511.339 2.1486 517.862 2.20316 524.403 2.34099C530.607 2.4702 536.83 2.59943 543.123 2.47308C545.898 2.41852 548.727 2.48743 551.538 2.47595C554.967 2.46159 558.396 2.42426 561.844 2.39554C564.301 2.37544 566.758 2.35534 569.197 2.32376C570.064 2.31227 570.93 2.26633 571.796 2.23474C571.796 2.20603 571.796 2.17444 571.796 2.14573C569.286 2.09691 566.793 2.04809 564.283 1.99928C564.301 1.97343 564.301 1.94472 564.318 1.91887C570.912 1.90452 577.453 2.11127 584.047 2.15434C584.082 2.12275 584.1 2.0883 584.135 2.05671C580.776 1.94472 577.435 1.83273 574.076 1.72362C574.076 1.70065 574.094 1.67767 574.094 1.6547C577.912 1.70065 581.748 1.74372 585.567 1.78966C585.584 1.75808 585.602 1.72936 585.62 1.69777C584.983 1.68629 584.347 1.67767 583.622 1.66618C583.569 1.54845 584.135 1.40488 582.473 1.43359C579.91 1.47954 577.258 1.38765 574.642 1.36468C573.829 1.35894 572.998 1.38765 572.132 1.35319C573.263 1.32735 574.395 1.30151 575.526 1.27567C575.508 1.25844 575.508 1.23834 575.491 1.22111C574.907 1.21537 574.324 1.20675 573.741 1.20101C573.705 1.17516 573.652 1.14932 573.617 1.12348C574.483 1.06031 575.349 0.997129 576.215 0.931085C576.233 0.90237 576.251 0.876533 576.268 0.84782C574.624 0.79326 572.963 0.738699 571.319 0.684141C571.336 0.646812 571.354 0.606613 571.372 0.569284C574.607 0.724344 577.824 0.796129 581.236 0.612356C580.776 0.520467 580.423 0.448682 580.087 0.379766C581.961 0.465911 583.799 0.138559 585.638 0.342433C585.638 0.374021 585.62 0.402738 585.62 0.434323C584.665 0.434324 583.711 0.434324 582.756 0.434324C582.738 0.463039 582.721 0.49175 582.703 0.520465C583.198 0.552051 583.693 0.609481 584.188 0.609481C586.734 0.615224 589.385 0.666911 591.648 0.440062C592.744 0.330947 593.734 0.184502 594.971 0.135688C598.772 -0.0193724 602.537 0.112713 606.32 0.161528C607.717 0.178757 609.131 0.201729 610.51 0.178757C612.932 0.135685 615.353 0.0524118 617.775 0.000726399C618.146 -0.00788911 618.571 0.0581547 618.977 0.0897423C618.641 0.193115 618.429 0.356792 617.952 0.388378C616.414 0.48888 614.752 0.526207 613.161 0.60948C611.111 0.718595 609.078 0.842075 607.045 0.96555C605.755 1.04595 604.57 1.04308 603.35 0.91099C601.83 0.750187 599.939 0.827712 599.497 1.04882C600.345 1.08902 601.211 1.12922 602.078 1.16942C602.06 1.18952 602.06 1.21249 602.042 1.23259C598.047 1.35033 594.034 1.46806 589.862 1.59153C590.128 1.62599 590.269 1.66045 590.41 1.66332C595.113 1.67193 599.815 1.68629 604.517 1.67767C605.206 1.67767 605.896 1.58291 606.762 1.51687C609.131 1.73797 611.765 1.59727 614.293 1.4537C616.591 1.32448 618.412 1.33309 620.056 1.68628C621.77 2.05958 624.068 2.13424 626.667 1.99353C627.657 1.93898 628.7 1.916 629.725 1.88442C629.92 1.87867 630.255 1.87868 630.291 1.89591C631.051 2.16008 632.925 2.08542 633.773 2.25484C634.003 2.5707 634.145 2.8722 634.48 3.1651C634.604 3.27421 635.205 3.36898 635.612 3.46661C635.753 3.50106 636.107 3.53265 636.089 3.5585C635.93 3.76237 636.637 3.90307 637.008 4.07248C637.45 4.27062 637.945 4.27349 638.776 4.28498C639.147 4.29072 639.518 4.30795 639.907 4.31944C639.943 4.34528 639.978 4.37112 640.013 4.39696C636.955 4.61232 633.879 4.83056 630.715 5.05166C630.892 5.20672 631.051 5.34168 631.281 5.54556C626.172 5.50536 621.046 5.33881 616.184 5.70636C616.485 5.93033 617.351 6.01073 618.694 5.90162C619.331 5.84993 619.879 5.77241 620.515 5.72646C622.336 5.59725 624.015 5.76379 625.748 5.82409C627.233 5.87578 628.7 5.93034 630.167 5.99926C630.75 6.02797 631.281 6.09688 631.67 6.19164C635.665 6.15144 639.642 6.11411 643.637 6.07391C643.69 6.11124 643.743 6.1457 643.796 6.18303C643.142 6.2261 642.506 6.27491 641.834 6.3065C640.88 6.35244 639.554 6.2261 639.2 6.52761C639.13 6.58504 638.104 6.63672 637.503 6.64534C636.213 6.66257 634.887 6.6482 633.596 6.65682C633.19 6.65969 632.819 6.70563 632.412 6.73148C632.589 6.80901 632.66 6.91238 632.978 6.96407C634.339 7.17082 635.965 7.26844 637.768 7.27418C638.44 7.27705 639.094 7.29142 639.748 7.30003C639.748 7.33449 639.766 7.37182 639.766 7.40628C637.503 7.45509 635.241 7.50103 632.483 7.56133C635.912 7.69342 638.9 7.85997 640.791 8.36823C640.597 8.52903 639.89 8.59507 638.882 8.60082C638.034 8.60656 637.185 8.62379 636.337 8.63527C636.337 8.66399 636.337 8.68983 636.319 8.71855C637.38 8.74439 638.44 8.7731 639.483 8.79895C639.483 8.81905 639.501 8.83627 639.501 8.85637C639.165 8.88509 638.829 8.9138 638.546 8.93677C639.236 9.3474 641.781 9.28997 643.496 9.51968C642.488 9.57424 641.764 9.61158 641.039 9.65178C641.021 9.67475 640.986 9.69772 640.968 9.72069C642.029 9.82406 643.107 9.92743 644.168 10.0308C644.132 10.0538 644.097 10.0768 644.044 10.0969C640.95 10.1543 637.751 10.0222 634.693 10.1773C634.64 10.206 634.586 10.2347 634.533 10.2634C637.733 10.5563 640.915 10.8492 644.115 11.1449C644.097 11.165 644.097 11.1851 644.079 11.2052C641.94 11.2627 639.801 11.3201 637.415 11.3861C639.465 11.6331 641.269 11.8456 643.142 12.0724C642.188 12.1069 641.216 12.1442 640.296 12.1787C640.12 12.4113 642.365 12.4572 641.41 12.7702C639.359 12.3452 636.92 12.2591 634.109 12.3567C632.253 12.4199 630.362 12.4429 628.488 12.4831C628.47 12.5175 628.452 12.5491 628.435 12.5836C630.132 12.6525 631.811 12.73 633.526 12.7846C635.17 12.8362 635.47 12.8966 635.223 13.178C636.69 13.3675 636.619 13.5053 635.011 13.669C634.321 13.7408 633.597 13.8039 632.925 13.8757C632.677 13.9016 632.43 13.936 632.288 13.9762C631.811 14.1198 631.387 14.2662 630.874 14.4357C631.493 14.4471 632.377 14.4615 633.667 14.4845C632.288 14.5792 631.281 14.6453 629.973 14.7372C630.521 14.8549 630.857 15.0013 631.458 15.0444C633.544 15.1909 634.551 15.4148 633.897 15.8168C633.879 15.8312 633.985 15.8484 634.003 15.8657C634.021 15.88 633.968 15.8972 633.915 15.9288C633.526 15.9432 633.049 15.9489 632.66 15.9805C632.324 16.0064 632.041 16.0638 631.74 16.104C632.041 16.1614 632.324 16.2533 632.677 16.2648C633.685 16.2993 634.728 16.2964 635.912 16.3136C634.728 16.6725 631.316 16.4199 631.069 16.9482C629.973 16.9568 628.682 16.9166 628.399 17.2124C630.945 17.3473 633.455 17.3272 636.001 17.2411C636.602 17.221 637.273 17.2641 637.927 17.2756C637.927 17.3071 637.91 17.3416 637.91 17.3732C635.647 17.4909 633.384 17.6086 631.069 17.7293C632.006 17.9015 632.872 18.0652 633.826 18.2432C633.526 18.3035 633.296 18.3524 633.066 18.3983C633.985 18.9496 636.796 18.7831 639.448 18.8204C637.362 19.0875 634.958 18.8577 633.65 19.1334C634.198 19.2913 634.657 19.4148 635.099 19.5412C634.374 19.6129 633.65 19.6819 632.642 19.7824C633.773 19.8341 634.64 19.8742 635.594 19.9202C635.187 19.9489 634.887 19.9719 634.41 20.0063C635.506 20.1126 636.425 20.2016 637.344 20.2906C637.291 20.3078 637.238 20.3222 637.185 20.3394C634.905 20.2791 632.624 20.2188 630.326 20.1585C630.273 20.1872 630.238 20.2188 630.185 20.2475C631.192 20.3452 632.2 20.4399 633.19 20.5376C633.172 20.5462 633.137 20.5577 633.119 20.5663C631.776 20.4945 630.45 20.3997 629.071 20.3538C627.056 20.2877 625.005 20.2303 622.972 20.2217C621.629 20.216 620.02 20.3997 618.96 20.3165C617.634 20.216 616.414 20.17 615.088 20.1844C614.452 20.1901 613.851 20.2562 613.232 20.2935C613.267 20.3337 613.32 20.3739 613.356 20.4141C614.593 20.4141 615.813 20.4141 617.05 20.4141C617.068 20.4256 617.086 20.4399 617.103 20.4514C615.336 20.5634 613.586 20.6725 611.765 20.7874C613.621 20.8965 615.495 21.0056 617.369 21.1176C617.351 21.1463 617.333 21.1722 617.333 21.2009C616.909 21.2181 616.467 21.2382 615.937 21.2612C616.096 21.31 616.255 21.3559 616.449 21.4134C616.237 21.4191 616.078 21.4277 615.954 21.4249C614.911 21.3904 614.222 21.488 613.409 21.5885C612.03 21.7608 610.492 21.89 609.025 22.0422C608.477 22.0997 607.876 22.1542 607.416 22.2289C607.239 22.2576 607.275 22.3868 607.416 22.4012C609.096 22.5447 610.404 22.8548 612.719 22.7802C612.631 22.7199 612.543 22.6625 612.384 22.562C612.861 22.5935 613.179 22.605 613.444 22.6337C614.452 22.74 615.389 22.8778 616.467 22.9582C617.492 23.0358 617.439 23.1793 617.404 23.3085C617.369 23.455 617.05 23.5986 616.838 23.7479C617.669 23.7967 618.306 23.8312 618.924 23.8685C618.871 23.8972 618.836 23.9259 618.783 23.9546C617.174 23.88 615.548 23.8082 613.939 23.7335C613.904 23.7565 613.851 23.7795 613.798 23.8024C614.116 23.8312 614.417 23.8627 614.735 23.8915C614.77 23.9144 614.788 23.9374 614.823 23.9632C614.063 23.9891 613.267 24.0465 612.525 24.035C610.121 23.9948 608.123 24.1987 605.949 24.3136C604.287 24.4026 602.467 24.4342 600.716 24.4313C596.067 24.4255 591.418 24.3853 586.787 24.3624C585.178 24.3538 583.658 24.3365 582.049 24.2619C580.281 24.1786 578.266 24.2418 576.374 24.2446C569.905 24.2533 563.435 24.2447 556.965 24.2762C549.611 24.3107 542.239 24.3681 534.885 24.4342C530.837 24.4715 526.824 24.5462 522.794 24.6093C521.769 24.6266 520.743 24.7041 519.736 24.6983C517.65 24.684 515.529 24.572 513.478 24.6093C508.793 24.6955 504.215 24.4284 499.53 24.5691C499.53 24.5433 499.513 24.5174 499.513 24.4916C501.422 24.4686 503.349 24.4428 505.258 24.4198C493.856 24.1556 482.436 24.3911 471.052 24.2963C472.696 24.1154 472.855 24.1154 474.747 24.259C474.959 24.2762 475.224 24.2849 475.471 24.282C480.456 24.2274 485.424 24.1671 490.391 24.1154C492.318 24.0953 494.245 24.0953 496.172 24.0781C496.614 24.0752 497.038 24.0293 497.48 24.0034C497.48 23.9776 497.48 23.9518 497.462 23.9259C496.437 23.8886 495.376 23.8656 494.386 23.8082C493.202 23.7393 492.3 23.7766 491.646 23.9719C490.745 23.7335 489.755 23.6933 487.987 23.8111C485.972 23.9432 484.01 23.9202 481.535 23.722C482.79 23.7048 483.744 23.6905 484.717 23.6761C484.717 23.6531 484.717 23.633 484.699 23.6101C483.851 23.5928 483.002 23.5756 482.154 23.5612C482.154 23.544 482.154 23.5297 482.154 23.5124C485.495 23.5124 488.818 23.5124 492.035 23.5124C492.265 23.5584 492.513 23.6531 492.76 23.6531C494.634 23.6531 496.508 23.6359 498.452 23.5612C498.24 23.5354 498.046 23.5096 497.533 23.4464C504.975 23.4234 512.188 23.5698 519.294 23.2655C515.051 23.2396 510.791 23.2138 506.548 23.1879C506.531 23.1506 506.531 23.1104 506.513 23.0731C507.079 23.0472 507.644 23.0214 508.21 22.9956C508.21 22.9726 508.228 22.9496 508.228 22.9266C506.831 22.9266 505.435 22.9266 504.056 22.9295C503.932 22.9295 503.72 22.9496 503.702 22.9697C502.995 23.4033 501.051 23.1133 499.707 23.1822C500.432 23.1391 501.157 23.0989 501.899 23.0559C501.882 23.0271 501.846 22.9956 501.829 22.9668C500.927 22.9668 500.008 22.964 499.106 22.9668C492.495 22.9898 485.901 23.0157 479.29 23.0329C476.355 23.0415 473.421 23.0128 470.486 23.03C469.108 23.0386 467.729 23.1075 466.35 23.1506C466.385 23.1736 466.403 23.1937 466.438 23.2167C466.155 23.1736 465.872 23.0903 465.607 23.0903C462.072 23.1018 458.554 23.1248 455.019 23.1478C455.001 23.1793 455.001 23.208 454.983 23.2396C455.867 23.254 456.786 23.2913 457.652 23.277C460.304 23.2281 460.658 23.2396 463.009 23.6129C461.559 23.6445 460.269 23.6675 458.978 23.7048C458.607 23.7163 458.271 23.7709 457.617 23.834C454.612 23.8714 451.218 23.9144 447.824 23.9575C447.788 23.9805 447.753 24.0063 447.7 24.0293C448.054 24.0867 448.425 24.1441 448.778 24.1987C448.725 24.2188 448.69 24.236 448.637 24.2561C448.142 24.2102 447.682 24.1585 447.17 24.1241C446.692 24.0925 446.145 24.0609 445.65 24.0666C444.182 24.0867 442.803 24.1269 441.248 24.0465C439.869 23.9747 438.225 24.0666 436.475 24.0867C438.243 23.9575 439.887 23.8139 441.619 23.722C443.475 23.6244 445.402 23.567 447.329 23.5067C449.256 23.4464 451.218 23.4004 453.392 23.343C451.183 23.0846 439.639 23.231 437.429 23.3516C438.543 23.432 439.303 23.4866 440.081 23.5411C439.904 23.6847 439.374 23.7106 436.457 23.7077C436.846 23.6416 437.27 23.5727 437.96 23.4579C437.235 23.4435 436.864 23.4177 436.599 23.4378C434.601 23.6014 432.48 23.5383 430.411 23.5612C429.475 23.5699 428.379 23.6158 428.007 23.3689C427.954 23.3287 427.141 23.3114 426.699 23.3143C426.558 23.3143 426.434 23.4148 426.187 23.5153C424.931 23.4378 423.588 23.3545 422.121 23.2626C422.28 23.2023 422.439 23.1391 422.739 23.0243C421.325 23.0587 420.989 23.1908 420.901 23.3832C420.265 23.366 419.575 23.3488 418.886 23.3315C418.868 23.3143 418.868 23.2999 418.85 23.2827C419.275 23.2569 419.717 23.231 420.141 23.2023C419.098 23.165 417.949 22.9525 417.065 23.2569C416.977 23.2913 416.535 23.3114 416.27 23.3114C413.017 23.3143 409.764 23.3143 406.458 23.2626C408.491 23.2138 410.524 23.1678 412.557 23.1219C412.663 23.119 412.787 23.1162 412.858 23.1248C414.237 23.3172 415.244 23.2081 416.234 23.0128C416.411 22.9783 416.994 22.9927 417.383 23.0042C419.257 23.0645 421.06 23.0989 422.386 22.7802C422.474 22.7572 422.863 22.7716 423.128 22.7687C422.651 22.9697 423.093 22.9956 426.027 22.9353C425.762 22.9008 425.621 22.8778 425.179 22.8204C426.858 22.8204 428.29 22.806 429.704 22.8233C431.826 22.852 433.929 22.9209 436.033 22.9353C438.013 22.9467 439.993 22.9123 441.973 22.8893C442.22 22.8864 442.432 22.8319 442.644 22.7285C441 22.7084 439.356 22.6854 437.571 22.6625C437.571 22.6309 437.642 22.5792 437.553 22.539C437.465 22.4959 437.235 22.4442 437.023 22.4356C436.793 22.427 436.457 22.4529 436.245 22.4816C435.838 22.5333 435.503 22.651 435.114 22.6539C432.321 22.6682 429.528 22.6625 427 22.6625C427.725 22.5878 428.644 22.4959 429.563 22.404C429.475 22.3724 429.386 22.3437 429.298 22.3122C428.343 22.3437 427.053 22.1456 426.629 22.4098C425.692 22.3725 424.79 22.3322 423.888 22.3007C423.659 22.292 423.252 22.3064 423.199 22.3294C422.51 22.6309 421.025 22.4758 419.787 22.4959C420.088 22.4528 420.406 22.4098 420.795 22.3523C420.441 22.3322 420.176 22.3007 419.911 22.3007C418.073 22.2949 416.216 22.2978 414.378 22.2978C413.406 22.2978 412.398 22.2461 411.709 22.4442C411.585 22.4787 410.825 22.45 410.365 22.4442C409.358 22.4299 408.332 22.4012 407.325 22.4012C405.186 22.4012 403.029 22.4155 400.89 22.4213C399.334 22.427 397.779 22.427 396.223 22.4385C395.852 22.4414 395.498 22.4816 395.145 22.5045C394.827 22.5246 394.473 22.5706 394.226 22.5562C390.284 22.3724 386.342 22.5534 382.399 22.5304C381.48 22.5246 380.543 22.5447 379.748 22.5017C379.447 22.4787 379.147 22.4328 378.846 22.4328C376.672 22.427 374.48 22.427 372.306 22.4328C370.891 22.4356 369.46 22.4586 368.045 22.4643C366.914 22.4672 365.783 22.4672 364.651 22.4442C364.192 22.4356 363.785 22.3667 363.414 22.3696C360.585 22.3811 357.775 22.3868 354.946 22.404C352.118 22.4241 349.289 22.4586 346.461 22.4844C346.426 22.4557 346.39 22.4241 346.355 22.3954C347.08 22.361 347.787 22.3294 348.512 22.2949C348.512 22.2662 348.512 22.2375 348.512 22.2088C347.345 22.2002 346.161 22.1801 344.994 22.1829C343.792 22.1858 342.572 22.1915 341.405 22.2375C340.239 22.2863 339.143 22.3897 338.011 22.4701C338.064 22.4414 338.135 22.4127 338.188 22.3839C337.852 22.3409 337.499 22.2605 337.18 22.2633C336.014 22.2748 334.847 22.3179 333.68 22.3409C331.471 22.3811 329.261 22.4155 327.051 22.4471C326.768 22.45 326.468 22.4328 326.167 22.4241C326.15 22.4012 326.132 22.3753 326.114 22.3524C327.122 22.3323 328.112 22.2921 329.119 22.2949C330.127 22.2978 330.993 22.2863 331.577 22.114C331.7 22.0738 332.354 22.0365 332.407 22.048C333.415 22.2576 334.653 22.1255 335.784 22.1255C337.446 22.1255 339.196 22.1025 340.751 22.0595C342.183 22.0193 343.456 22.1054 344.764 22.0681C345.736 22.0394 346.709 21.9934 347.681 21.9762C349.749 21.9417 351.835 21.9216 353.921 21.8987C354.451 21.8929 354.982 21.8987 355.512 21.8987C355.512 21.8728 355.512 21.8441 355.512 21.8183C353.939 21.8183 352.348 21.8154 350.774 21.8183C348.724 21.824 346.549 21.913 344.623 21.8269C340.539 21.6402 336.685 21.9331 332.708 21.913C330.074 21.8987 327.44 21.9274 324.806 21.9216C324.364 21.9216 323.905 21.8498 323.463 21.8125C323.498 21.7809 323.533 21.7493 323.569 21.7178C325.177 21.6948 326.768 21.6718 328.483 21.646C328.342 21.6 328.165 21.5483 327.935 21.4737C328.89 21.4421 329.667 21.3875 330.003 21.6115C330.074 21.6546 330.923 21.6804 331.418 21.6776C335.961 21.6603 340.486 21.6402 345.029 21.6144C347.699 21.6 350.368 21.5713 353.09 21.5914C352.631 21.6115 352.171 21.6316 351.711 21.6517C351.729 21.6718 351.729 21.6919 351.747 21.7091C353.479 21.689 355.194 21.6661 356.926 21.646C356.909 21.6144 356.908 21.5857 356.891 21.5541C356.237 21.5627 355.583 21.5684 354.911 21.5771C354.911 21.557 354.911 21.534 354.893 21.5139C358.411 21.4737 361.947 21.4306 365.464 21.3904C365.482 21.3732 365.5 21.3588 365.517 21.3416C365.111 21.3014 364.722 21.2583 364.227 21.2066C364.563 21.1865 364.863 21.1693 365.164 21.1521C365.164 21.1291 365.146 21.1061 365.146 21.0803C363.096 21.0803 361.045 21.0803 358.818 21.0803C359.224 21.1205 359.542 21.1492 360.002 21.1951C357.898 21.2641 355.989 21.3358 354.045 21.3933C352.083 21.4507 350.12 21.4966 348.3 21.2755C348.529 21.2497 348.706 21.2296 348.883 21.2095C348.865 21.1951 348.83 21.1808 348.812 21.1664C346.974 21.1808 345.135 21.198 343.297 21.2124C340.451 21.2353 337.587 21.2497 334.741 21.2784C333.645 21.2899 332.549 21.3358 331.329 21.31C332.354 21.2468 333.38 21.1837 334.299 21.1291C332.938 20.9827 331.205 21.043 329.862 21.2411C329.367 21.3129 328.412 21.2899 327.652 21.3071C327.635 21.2784 327.617 21.2468 327.599 21.2181C328.077 21.2009 328.554 21.1808 329.279 21.1549C328.837 21.0573 328.554 20.9941 328.324 20.9453C330.339 20.9453 332.425 20.9453 334.688 20.9453C333.998 20.8649 333.415 20.7989 332.832 20.7357C332.708 20.7213 332.425 20.7127 332.425 20.7185C331.665 21.02 330.445 20.7673 329.473 20.7845C327.157 20.8247 324.788 20.7759 322.508 20.8305C319.167 20.9109 315.844 20.8132 312.503 20.8678C309.533 20.9166 306.528 20.8735 303.522 20.8735C303.346 20.8735 303.169 20.8965 302.568 20.9367C308.914 21.1348 314.977 20.7845 321.253 21.0946C320.564 21.1521 320.192 21.1808 319.697 21.221C320.67 21.221 321.553 21.221 322.437 21.221C322.49 21.2526 322.561 21.2842 322.614 21.3158C322.119 21.3502 321.465 21.4363 321.147 21.4076C318.566 21.175 316.268 21.3473 313.935 21.5225C313.139 21.5828 312.344 21.6345 311.371 21.7005C311.636 21.3761 314.748 21.6374 313.881 21.2038C314.924 21.1865 315.755 21.175 316.586 21.1607C316.586 21.1348 316.568 21.1119 316.568 21.086C306.121 21.132 295.674 21.1779 284.767 21.2267C285.491 21.2985 285.827 21.3301 286.181 21.3674C286.057 21.3875 285.969 21.4134 285.845 21.4162C284.661 21.445 283.529 21.4536 282.928 21.7063C282.769 21.7723 281.443 21.7522 280.648 21.7694C280.612 21.7407 280.577 21.7149 280.524 21.6862C281.054 21.6546 281.585 21.6201 282.115 21.5885C282.115 21.5713 282.097 21.5541 282.097 21.5369C277.324 21.5369 272.552 21.5369 267.779 21.5369C267.761 21.5311 267.743 21.5282 267.708 21.5225C268.327 21.5053 268.928 21.4852 269.546 21.4679C269.387 21.1492 269.193 21.1262 265.604 20.9798C266.311 20.9712 267.036 20.9626 267.743 20.9539C267.743 20.9252 267.743 20.8994 267.726 20.8707C265.215 20.8707 262.723 20.8707 260.213 20.8707C257.72 20.8707 255.245 20.8707 252.753 20.8707C252.753 20.9023 252.753 20.9367 252.753 20.9683C256.518 20.9683 260.283 20.9683 264.066 20.9683C263.837 21.0975 263.854 21.1061 260.69 21.1779C259.382 21.2066 258.021 21.1837 256.677 21.2066C259.7 21.4622 263.165 21.1923 266.435 21.4995C265.816 21.534 265.304 21.5885 264.773 21.5885C261.821 21.6 258.887 21.6115 255.935 21.6058C250.083 21.5914 244.232 21.5541 238.381 21.5483C234.739 21.5455 231.098 21.5885 227.456 21.5857C226.449 21.5857 225.441 21.4995 224.098 21.4364C224.805 21.4105 225.264 21.3761 225.688 21.3789C227.315 21.3875 228.923 21.4134 230.55 21.4191C231.345 21.422 232.247 21.4679 232.689 21.2669C232.795 21.2152 233.643 21.2095 234.156 21.1348C231.77 21.109 229.383 21.0832 226.979 21.0573C226.961 21.086 226.944 21.1147 226.926 21.1435C227.668 21.1607 228.411 21.1779 229.171 21.1951C228.04 21.3186 227.032 21.3014 226.024 21.1865C225.459 21.1234 224.699 21.0918 224.009 21.086C221.782 21.0631 219.537 21.0516 217.292 21.0458C215.153 21.0401 213.014 21.0458 210.521 21.0458C211.069 21.0717 211.334 21.0832 211.6 21.0975C212.855 21.1636 214.11 21.2612 215.4 21.2928C216.549 21.3215 217.769 21.2756 218.936 21.2612C218.83 21.3818 218.246 21.4191 217.292 21.399C215.824 21.3674 214.34 21.333 212.872 21.3416C210.769 21.356 208.665 21.4163 206.561 21.4421C203.574 21.4766 200.516 21.4306 197.634 21.5455C195.46 21.6316 193.692 21.3732 191.677 21.4967C191.677 21.4679 191.677 21.4392 191.677 21.4105C193.993 21.4019 196.326 21.4048 198.642 21.3818C199.756 21.3703 200.869 21.3158 201.983 21.2813C202.089 21.31 202.213 21.3617 202.319 21.3617C203.892 21.3674 205.483 21.3761 207.056 21.3531C207.339 21.3502 207.551 21.2038 207.799 21.1262C207.693 21.1148 207.569 21.1033 207.463 21.0918C207.958 21.0746 208.471 21.0545 208.966 21.0372C208.948 21.0229 208.93 21.0085 208.913 20.9942C207.569 21.0085 206.243 21.0229 204.723 21.0401C205.13 21.1435 205.342 21.198 205.43 21.221C204.476 21.2382 203.326 21.2612 202.177 21.2842ZM91.3749 23.5498C92.0644 23.6216 92.7184 23.7134 93.4786 23.7594C93.7791 23.7766 94.2917 23.6905 94.6983 23.6531C94.8574 23.7106 94.9458 23.7967 95.2109 23.8168C96.307 23.9058 97.4737 23.9977 98.7818 23.8513C97.7919 23.7278 96.6605 23.7106 95.6882 23.6043C94.5922 23.4866 92.8245 23.5641 91.3396 23.5584C89.1829 23.2942 86.8141 23.4493 84.5161 23.4521C85.5591 23.5383 86.6727 23.5699 87.7334 23.633C88.7056 23.6905 89.6602 23.8599 90.385 23.5727C90.4557 23.544 91.0391 23.5555 91.3749 23.5498ZM194.276 22.6108C194.293 22.6194 194.311 22.628 194.346 22.6395C192.437 22.5993 190.528 22.5505 188.619 22.5189C186.533 22.4845 184.447 22.4586 182.361 22.4442C180.222 22.4328 178.083 22.4414 175.962 22.4385C173.858 22.4356 171.754 22.4299 169.669 22.427C167.653 22.4241 165.638 22.427 163.641 22.427C163.623 22.4586 163.623 22.4931 163.605 22.5246C164.878 22.5821 166.151 22.674 167.459 22.6826C168.82 22.6941 170.199 22.628 171.684 22.5907C171.648 22.6768 171.613 22.7486 171.578 22.8175C175.29 23.1076 187.735 23.2138 191.147 22.9755C188.866 22.9468 186.586 22.9209 184.341 22.8922C185.066 22.6969 183.227 22.7888 182.909 22.628C183.687 22.651 184.323 22.6682 184.942 22.6883C185.861 22.717 186.78 22.7601 187.717 22.7745C189.043 22.7946 190.387 22.7888 191.712 22.8089C193.056 22.8319 194.382 22.8836 195.725 22.9066C196.556 22.9209 197.069 22.875 196.326 22.717C196.768 22.6855 197.192 22.651 197.617 22.6194C197.581 22.5907 197.564 22.5649 197.528 22.5361C196.415 22.5649 195.354 22.5878 194.276 22.6108ZM61.9419 22.4787C64.5228 22.1255 67.6694 22.4356 70.3211 22.203C69.667 22.1657 69.0129 22.16 68.3412 22.1542C63.0733 22.0911 57.8054 22.0279 52.5375 21.9647C52.3077 21.9618 51.9365 21.959 51.8657 21.9331C51.3885 21.7752 50.9288 21.7838 50.2571 21.9044C50.0626 21.9389 49.5146 21.913 49.1434 21.9102C46.8807 21.8814 44.618 21.87 42.3729 21.8154C41.0471 21.7838 39.7213 21.7063 38.5016 21.6087C36.8576 21.4766 35.2666 21.3301 33.3751 21.4335C33.9408 21.4737 34.5418 21.4708 35.1252 21.4938C35.6201 21.511 36.1151 21.5483 36.5394 21.5972C36.9459 21.6431 37.2111 21.7379 37.6354 21.7695C38.6076 21.8355 39.6329 21.8814 40.6405 21.9274C42.6558 22.0221 44.671 22.1198 46.7216 22.1973C48.8075 22.2777 51.0879 22.2662 52.9618 22.4184C55.9492 22.6654 58.9191 22.7027 62.0657 22.6453C62.2071 22.6424 62.3131 22.6223 62.5253 22.6022C62.3485 22.5534 62.1717 22.5189 61.9419 22.4787ZM405.115 4.62382C405.115 4.60372 405.097 4.58362 405.097 4.56352C403.418 4.55204 401.739 4.52619 400.059 4.52619C393.165 4.52619 386.288 4.5348 379.394 4.53767C376.195 4.53767 372.924 4.48312 370.167 4.83918C370.167 4.83918 370.255 4.85354 370.343 4.85354C371.492 4.8679 372.429 4.74443 373.402 4.69849C375.116 4.61521 377.185 4.65541 378.935 4.7473C379.518 4.77888 380.243 4.85067 380.95 4.85641C382.541 4.8679 384.132 4.86216 385.74 4.85641C386.006 4.85641 386.253 4.82482 386.713 4.79898C386.253 4.73868 385.953 4.69848 385.352 4.61807C387.72 4.64105 389.736 4.66115 391.733 4.68125C391.733 4.70422 391.733 4.7272 391.733 4.75017C390.69 4.76166 389.647 4.77314 388.604 4.7875C393.607 4.84493 398.592 5.07752 403.648 4.78463C402.976 4.76165 402.287 4.73869 401.615 4.71571C401.615 4.70136 401.615 4.68413 401.633 4.66977C402.782 4.65254 403.948 4.63818 405.115 4.62382ZM214.145 23.0386C213.456 23.0042 212.943 22.9783 212.413 22.9554C211.034 22.8951 209.69 22.8434 208.683 22.6223C208.17 22.5074 207.251 22.338 206.279 22.4701C205.625 22.5591 205.377 22.7343 204.953 22.8778C204.582 22.8233 204.051 22.7429 203.238 22.6194C201.842 22.605 199.968 22.5878 198.094 22.5706C198.059 22.5964 198.023 22.6223 197.988 22.6481C198.447 22.6998 198.889 22.7486 199.685 22.8348C198.73 22.8462 198.129 22.852 196.98 22.8664C197.988 23.0415 198.677 23.1679 199.49 23.3114C200.233 23.1564 201.117 23.1679 202.16 23.3114C202.566 23.3689 203.309 23.3804 203.874 23.3717C205.483 23.3488 207.092 23.3028 208.683 23.2655C208.753 23.2626 208.824 23.2425 208.948 23.2253C208.789 23.188 208.63 23.1478 208.453 23.1104C210.168 22.8606 212.059 23.1104 214.145 23.0386ZM414.042 4.93394C414.06 4.96265 414.077 4.99137 414.095 5.02009C415.173 5.0287 416.252 5.04305 417.33 5.0488C419.876 5.05741 422.474 5.12346 424.931 5.0488C426.469 5.00285 427.813 5.04593 429.262 5.06028C430.783 5.07464 432.533 5.10049 433.77 4.98563C434.76 4.89374 435.52 4.83918 436.581 4.85641C437.306 4.8679 438.066 4.85928 438.844 4.85928C438.773 4.82483 438.755 4.81334 438.72 4.81046C438.543 4.79611 438.366 4.78175 438.172 4.77601C435.874 4.70135 433.664 4.75878 431.472 4.90236C430.853 4.94256 429.952 4.85354 429.209 4.80473C429.121 4.79898 429.245 4.68412 429.315 4.55203C428.396 4.59798 427.424 4.59797 426.841 4.68125C425.851 4.82195 424.277 4.89087 422.775 4.76452C423.995 4.74155 425.002 4.72145 426.01 4.70422C425.992 4.68125 425.974 4.65541 425.974 4.63244C424.012 4.63244 422.05 4.62956 420.088 4.63244C419.54 4.63244 418.992 4.66976 418.462 4.65828C417.525 4.63818 416.446 4.51471 416.163 4.81334C416.128 4.8478 415.474 4.86502 415.103 4.88799C414.749 4.90522 414.396 4.91671 414.042 4.93394ZM357.863 6.24047C357.863 6.26057 357.845 6.28354 357.845 6.30364C358.659 6.31513 359.472 6.32661 360.285 6.3381C360.285 6.36682 360.285 6.39266 360.285 6.42137C359.101 6.42137 357.898 6.4386 356.714 6.4185C354.045 6.36969 354.062 6.36107 353.532 6.50752C359.348 6.50752 365.305 6.50752 371.245 6.50752C371.245 6.47593 371.245 6.44434 371.245 6.40989C370.962 6.41276 370.679 6.42424 370.414 6.4185C368.894 6.39553 367.161 6.44147 365.924 6.32661C364.669 6.20888 363.838 6.22898 362.777 6.32661C362.353 6.36394 361.894 6.38979 361.452 6.42137C361.31 6.38692 361.169 6.35246 361.027 6.32087C361.416 6.30651 361.823 6.29216 362.212 6.2778C362.106 6.25196 362 6.22611 361.894 6.20027C360.55 6.21462 359.207 6.22611 357.863 6.24047ZM606.886 0.460165C606.904 0.425709 606.904 0.391245 606.921 0.356787C605.772 0.319458 604.623 0.239062 603.492 0.253418C600.434 0.29362 597.375 0.371146 594.317 0.43719C593.857 0.448676 593.433 0.49175 592.991 0.520465C593.009 0.537694 593.027 0.554919 593.062 0.572148C597.658 0.537692 602.272 0.500367 606.886 0.460165ZM591.029 1.19239C589.438 1.07753 588.148 0.8593 586.15 0.905242C584.435 0.942573 582.632 0.804742 580.652 0.933959C581.996 0.979904 583.304 0.962672 584.117 1.06605C586.327 1.34745 588.625 1.27279 591.029 1.19239ZM421.75 20.5778C421.732 20.6065 421.714 20.6323 421.679 20.661C422.28 20.6984 422.881 20.73 423.464 20.7759C423.889 20.8075 424.277 20.8908 424.684 20.8908C426.31 20.8908 427.954 20.8649 429.581 20.8477C430.005 20.842 430.447 20.8333 430.871 20.8276C430.871 20.7903 430.871 20.7529 430.871 20.7156C427.919 20.5577 424.843 20.5692 421.75 20.5778ZM376.849 21.4967C376.866 21.5455 376.884 21.5914 376.902 21.6402C382.276 21.6115 387.667 21.5799 393.041 21.5512C393.041 21.534 393.041 21.5167 393.024 21.4995C387.632 21.4966 382.24 21.4967 376.849 21.4967ZM83.5261 2.57647C83.5085 2.54201 83.4908 2.50755 83.4554 2.47597C79.6371 2.47884 75.8011 2.32665 72.0004 2.49894C72.0004 2.52191 72.0004 2.54776 72.0004 2.57073C74.4399 2.57073 76.8794 2.57073 79.3189 2.57073C79.3189 2.58509 79.3189 2.59657 79.3189 2.61092C78.8593 2.61954 78.3997 2.62529 77.94 2.6339C77.9577 2.65975 77.9754 2.68846 78.0108 2.7143C79.8492 2.67123 81.6877 2.62241 83.5261 2.57647ZM84.0211 2.58508C84.0741 2.63677 84.1448 2.68559 84.1979 2.73727C86.0894 2.70568 87.9632 2.67122 89.8547 2.64538C90.1906 2.63964 90.5441 2.66549 90.8977 2.66836C92.3295 2.67123 93.7614 2.66836 95.1933 2.66836C92.029 2.57073 88.8471 2.52191 85.6651 2.49033C85.1171 2.48458 84.5691 2.55062 84.0211 2.58508ZM34.7539 20.3452C37.4232 20.44 40.0042 20.4744 42.9916 20.328C41.0648 20.2476 39.5799 20.1844 38.095 20.1241C37.8121 20.1126 37.4763 20.1126 37.2111 20.1298C36.451 20.1901 35.7085 20.2619 34.7539 20.3452ZM592.072 0.945447C592.054 0.979905 592.037 1.01436 592.019 1.04882C593.398 1.07466 594.777 1.09763 596.527 1.12922C596.297 0.942572 596.368 0.744445 595.89 0.687016C595.236 0.606614 594.087 0.557793 593.38 0.753054C593.645 0.807612 593.893 0.862176 594.37 0.96555C593.363 0.956935 592.726 0.95119 592.072 0.945447ZM215.347 22.5361C215.383 22.4988 215.4 22.4615 215.436 22.4213C214.163 22.3667 212.89 22.3122 211.617 22.2576C211.582 22.2777 211.564 22.2978 211.529 22.3179C212.041 22.3409 212.572 22.3638 213.102 22.3839C213.084 22.4069 213.084 22.4328 213.067 22.4557C212.448 22.4615 211.829 22.45 211.246 22.4758C210.61 22.5017 210.009 22.5591 209.39 22.6022C209.991 22.6309 210.627 22.6969 211.211 22.6854C212.589 22.6567 213.968 22.5878 215.347 22.5361ZM270.996 6.02798C270.872 5.90163 270.819 5.83272 270.748 5.76381C270.236 5.78104 269.599 5.77242 269.263 5.82411C268.751 5.90164 269.423 6.16869 270.13 6.16007C272.216 6.13997 274.302 6.0969 276.388 6.05957C276.37 6.01937 276.352 5.98204 276.317 5.94184C274.478 5.97342 272.658 6.00214 270.996 6.02798ZM187.54 3.41207C183.864 3.32018 180.187 3.19671 176.527 3.41207C180.204 3.41207 183.864 3.41207 187.54 3.41207ZM348.883 6.4587C350.191 6.60514 352.401 6.58792 352.772 6.41563C352.577 6.36681 352.383 6.31513 352.03 6.22898C353.108 6.22898 353.956 6.22898 354.805 6.22898C352.577 6.08254 349.997 6.18303 348.883 6.4587ZM299.227 6.69416C299.227 6.65683 299.209 6.61951 299.209 6.58218C296.398 6.63674 293.535 6.42999 290.777 6.69416C293.605 6.69416 296.416 6.69416 299.227 6.69416ZM175.308 21.3186C175.325 21.2928 175.343 21.2669 175.361 21.2411C174.159 21.198 172.762 21.2095 171.772 21.1004C170.305 20.9396 169.35 20.9884 168.095 21.2411C170.623 21.3531 172.992 21.2497 175.308 21.3186ZM152.239 21.5828C155.261 21.6603 158.373 21.8929 161.254 21.4737C159.928 21.3416 159.698 21.3531 159.15 21.4593C158.832 21.5196 158.284 21.5742 157.825 21.5771C155.968 21.5885 154.095 21.5828 152.239 21.5828ZM625.465 6.50177C625.483 6.53048 625.483 6.55632 625.5 6.58503C625.836 6.59078 626.19 6.59939 626.526 6.59652C628.081 6.59078 629.637 6.58504 631.175 6.57355C631.599 6.57068 632.023 6.53909 632.448 6.52186C632.059 6.47304 631.67 6.37541 631.316 6.38116C629.354 6.407 627.409 6.45869 625.465 6.50177ZM354.504 4.70423C354.451 4.67551 354.398 4.64679 354.363 4.61808C351.835 4.61808 349.307 4.61808 346.779 4.61808C348.282 4.71571 349.784 4.77027 351.287 4.80473C352.065 4.82196 352.86 4.81334 353.638 4.79898C353.939 4.79324 354.204 4.73581 354.504 4.70423ZM458.395 22.3179C460.87 22.4126 462.867 22.1054 465.059 22.2518C465.307 22.2691 465.731 22.2002 466.067 22.1714C463.504 22.1341 460.923 21.9647 458.395 22.3179ZM390.849 21.2497C390.849 21.2698 390.849 21.2899 390.849 21.31C394.367 21.31 397.867 21.31 401.385 21.31C401.385 21.2899 401.367 21.2698 401.367 21.2497C397.85 21.2497 394.349 21.2497 390.849 21.2497ZM384.432 5.18951C381.904 5.20099 379.642 4.87077 377.025 5.03732C379.377 5.23258 381.94 5.17802 384.432 5.18951ZM214.34 23.2368C214.322 23.1966 214.322 23.1564 214.304 23.1162C213.244 23.1162 212.165 23.1047 211.105 23.1219C210.769 23.1277 210.203 23.2138 210.221 23.2569C210.256 23.3401 210.521 23.4435 210.892 23.4895C211.264 23.5354 211.865 23.5211 212.377 23.5325C212.413 23.5153 212.43 23.4981 212.466 23.4808C212.148 23.4435 211.847 23.4091 211.423 23.3574C212.501 23.3114 213.42 23.2741 214.34 23.2368ZM283.9 6.58505C285.88 6.77456 287.577 6.78893 289.822 6.66258C289.027 6.57931 288.567 6.49029 288.125 6.49316C286.835 6.50178 285.562 6.54772 283.9 6.58505ZM219.413 21.9417C217.91 21.7809 211.299 21.7379 208.824 21.8556C212.395 21.8843 215.754 21.913 219.413 21.9417ZM466.809 20.7012C465.784 20.6524 464.67 20.5835 463.521 20.5519C462.302 20.5175 461.047 20.5203 459.792 20.5089C459.774 20.5376 459.774 20.5692 459.756 20.5979C461.064 20.6094 462.372 20.6208 463.681 20.6323C463.681 20.6582 463.681 20.6811 463.681 20.707C463.521 20.7328 463.362 20.7558 463.186 20.7845C465.979 20.8592 465.979 20.8592 466.809 20.7012ZM462.85 22.7515C462.867 22.7285 462.885 22.7027 462.92 22.6797C461.559 22.5591 457.794 22.6022 456.804 22.8089C459.031 22.7859 460.94 22.7687 462.85 22.7515ZM458.819 22.1198C457.741 22.1198 456.945 22.1198 456.044 22.1198C456.256 22.1743 456.539 22.2174 456.486 22.2346C455.637 22.5591 453.657 22.3294 452.332 22.4672C453.87 22.7457 455.213 22.3839 456.185 22.4528C457.14 22.3351 457.829 22.2461 458.819 22.1198ZM248.775 20.9224C248.793 20.8908 248.811 20.8563 248.828 20.8247C248.086 20.8247 247.361 20.8247 246.619 20.8247C244.975 20.8219 243.331 20.8104 241.669 20.8161C241.404 20.8161 241.139 20.8908 240.891 20.931C241.227 20.9482 241.563 20.9855 241.881 20.9798C242.588 20.9712 243.295 20.9281 244.002 20.9224C245.593 20.9166 247.184 20.9224 248.775 20.9224ZM233.484 20.8965C233.449 20.9166 233.431 20.9367 233.396 20.9568C235.411 20.9798 237.426 21.0028 239.459 21.0257C239.53 21.0056 239.583 20.9827 239.654 20.9626C239.406 20.9166 239.159 20.8305 238.911 20.8305C237.09 20.8448 235.287 20.8735 233.484 20.8965ZM221.534 3.99785C221.552 4.02082 221.552 4.04092 221.57 4.06389C223.62 3.98349 225.883 4.25627 227.774 3.8916C225.688 3.92606 223.62 3.96052 221.534 3.99785ZM413.759 4.82482C412.151 4.82482 410.63 4.82482 409.128 4.82482C410.789 5.04592 412.681 5.02582 413.759 4.82482ZM371.333 4.64393C371.316 4.62096 371.316 4.60085 371.298 4.57788C369.53 4.57788 367.745 4.57788 365.977 4.57788C365.977 4.60085 365.995 4.62096 365.995 4.64393C367.78 4.64393 369.566 4.64393 371.333 4.64393ZM99.8955 23.7737C104.721 24.1269 104.721 24.1269 105.075 23.8972C103.325 23.8541 101.61 23.8139 99.8955 23.7737ZM189.096 3.35463C189.096 3.36038 189.114 3.36325 189.114 3.369C191.447 3.36899 193.781 3.36899 196.132 3.36899C196.114 3.33454 196.114 3.30008 196.096 3.26562C193.763 3.2972 191.43 3.32592 189.096 3.35463ZM146.935 21.4593C148.668 21.6747 151.655 21.6 151.885 21.3933C150.223 21.4163 148.579 21.4364 146.935 21.4593ZM488.959 20.5663C488.959 20.5921 488.959 20.618 488.959 20.6438C490.904 20.6036 492.954 20.7012 494.828 20.5491C494.811 20.5261 494.793 20.5002 494.793 20.4773C492.848 20.506 490.904 20.5347 488.959 20.5663ZM31.6604 19.1248C31.572 19.1679 31.4836 19.211 31.3952 19.254C33.3928 19.1909 34.4534 19.6359 36.6278 19.4694C34.9661 19.3545 33.3221 19.2397 31.6604 19.1248ZM343.491 6.40414C341.883 6.4386 340.557 6.46731 339.196 6.49603C340.327 6.70565 342.537 6.68267 343.491 6.40414ZM379.589 6.05095C378.157 5.99639 376.743 5.9447 375.152 5.8844C375.753 6.10837 377.768 6.18878 379.589 6.05095ZM377.697 6.50752C376.301 6.29503 374.851 6.31513 373.879 6.50752C375.187 6.50752 376.442 6.50752 377.697 6.50752ZM266.612 5.916C264.349 5.67479 263.943 5.70351 263.571 6.07967C264.508 6.03086 265.41 5.98204 266.612 5.916ZM26.0213 11.3747C26.0389 11.3575 26.0566 11.3402 26.0743 11.323C24.9606 11.2914 23.8469 11.2627 22.4504 11.2225C22.7509 11.346 22.91 11.412 23.0161 11.4608C24.0944 11.4292 25.049 11.4005 26.0213 11.3747ZM337.994 6.54197C336.403 6.42711 334.812 6.32661 332.902 6.54197C334.829 6.54197 336.403 6.54197 337.994 6.54197ZM166.54 21.5972C164.719 21.5828 163.287 21.5713 161.855 21.5598C163.269 21.7781 164.719 21.7206 166.54 21.5972ZM448.248 20.595C448.248 20.5634 448.248 20.5318 448.248 20.5031C446.905 20.5318 445.579 20.5605 444.235 20.5893C444.253 20.6237 444.288 20.6553 444.306 20.6898C445.614 20.6582 446.94 20.6266 448.248 20.595ZM438.791 20.6754C438.773 20.7099 438.738 20.7443 438.72 20.7759C440.081 20.7644 441.442 20.7529 442.803 20.7386C442.786 20.7012 442.786 20.661 442.768 20.6237C441.46 20.6409 440.134 20.6582 438.791 20.6754ZM390.301 5.35892C389.435 5.16079 387.437 5.14069 386.182 5.30724C387.667 5.32734 388.799 5.34169 390.301 5.35892ZM52.9087 5.47092C51.7597 5.48528 50.8051 5.49964 49.497 5.51687C51.2647 5.74084 51.5829 5.7351 52.9087 5.47092ZM196.803 23.1908C196.821 23.1621 196.821 23.1334 196.839 23.1018C195.407 23.0875 193.957 23.0731 192.526 23.0587C192.508 23.0846 192.508 23.1133 192.49 23.1391C193.922 23.1564 195.354 23.1736 196.803 23.1908ZM455.266 20.4945C455.248 20.5261 455.248 20.5548 455.231 20.5864C456.309 20.5864 457.387 20.5864 458.466 20.5864C458.466 20.5548 458.466 20.5261 458.466 20.4945C457.405 20.4945 456.344 20.4945 455.266 20.4945ZM112.765 24.3509C112.782 24.3165 112.8 24.282 112.8 24.2475C111.757 24.2533 110.767 24.0867 109.706 24.2217C109.689 24.2562 109.689 24.2906 109.671 24.3251C110.696 24.3337 111.739 24.3423 112.765 24.3509ZM83.5615 23.4694C82.7837 23.2397 81.8998 23.2741 80.9983 23.3315C80.9806 23.366 80.9629 23.4033 80.9452 23.4378C81.8114 23.4493 82.6953 23.4579 83.5615 23.4694ZM611.464 23.745C610.457 23.7364 609.431 23.7249 608.424 23.7163C608.424 23.7479 608.406 23.7766 608.406 23.8082C609.361 23.9546 610.386 23.8943 611.464 23.745ZM434.53 23.3286C434.53 23.3085 434.548 23.2913 434.548 23.2712C432.798 23.2856 431.048 23.2999 429.315 23.3172C429.333 23.343 429.333 23.3689 429.351 23.3947C431.066 23.3717 432.798 23.3487 434.53 23.3286ZM356.838 22.0422C357.616 21.9762 358.393 21.9073 359.171 21.8412C358.164 21.8269 356.944 21.7063 356.838 22.0422ZM111.775 24.1183C111.81 24.0752 111.828 24.0322 111.863 23.992C110.856 23.9661 109.848 23.9403 108.84 23.9173C108.823 23.9432 108.805 23.9661 108.787 23.992C109.777 24.0322 110.767 24.0752 111.775 24.1183ZM408.969 21.2669C408.986 21.3014 409.022 21.3358 409.039 21.3703C410.489 21.3358 411.939 21.2985 413.406 21.2641C413.388 21.244 413.388 21.221 413.37 21.2009C411.903 21.221 410.436 21.244 408.969 21.2669ZM393.66 4.26201C393.66 4.31083 393.66 4.36252 393.678 4.41134C394.509 4.39985 395.339 4.38549 396.17 4.374C396.153 4.34529 396.152 4.31944 396.135 4.29073C395.304 4.27924 394.491 4.27063 393.66 4.26201ZM445.756 22.8003C445.773 22.8348 445.773 22.8692 445.791 22.9037C446.975 22.8922 448.16 22.8778 449.362 22.8663C449.344 22.8348 449.344 22.8032 449.326 22.7716C448.142 22.7831 446.94 22.7917 445.756 22.8003ZM421.891 20.9023C421.838 20.8649 421.785 20.8305 421.714 20.7931C420.654 20.8477 419.575 20.9023 418.515 20.9568C418.568 20.9913 418.621 21.0228 418.674 21.0573C419.752 21.0056 420.83 20.9539 421.891 20.9023ZM520.779 23.2454C520.779 23.2569 520.779 23.2683 520.779 23.2798C522.246 23.2798 523.696 23.2798 525.163 23.2798C525.163 23.254 525.145 23.2281 525.145 23.2023C523.696 23.2167 522.246 23.231 520.779 23.2454ZM361.558 4.04953C361.54 4.01507 361.522 3.97774 361.522 3.94328C360.479 3.9519 359.436 3.96051 358.411 3.96913C358.411 3.99497 358.429 4.02369 358.429 4.04953C359.472 4.04953 360.515 4.04953 361.558 4.04953ZM453.763 22.3007C453.781 22.2691 453.781 22.2375 453.799 22.2059C452.667 22.1858 451.536 22.1686 450.422 22.1485C450.405 22.1887 450.387 22.2317 450.369 22.2719C451.483 22.2834 452.632 22.292 453.763 22.3007ZM42.1431 5.4135C43.0977 5.33022 43.7518 5.27567 44.6357 5.20101C42.9386 5.08328 42.7972 5.09476 42.1431 5.4135Z" fill="url(#paint0_linear_6288_9232)"/>
<defs>
<linearGradient id="paint0_linear_6288_9232" x1="12.5861" y1="25.0033" x2="231.273" y2="-285.79" gradientUnits="userSpaceOnUse">
<stop stop-color="#533CA3"/>
<stop offset="0.294518" stop-color="#BF5AB8"/>
<stop offset="0.682384" stop-color="#ED641F"/>
<stop offset="1" stop-color="#FFE322"/>
</linearGradient>
</defs>
</svg>
