<svg width="150" height="72" viewBox="0 0 150 72" fill="none" xmlns="http://www.w3.org/2000/svg">
<path d="M26.2025 33.7565V23.2735L20.2058 33.7565H13.791L7.89745 23.2735V33.7565H0.570801V13.3933H10.3497L17.047 25.5712L24.0121 13.3933H33.5291V33.7565H26.2025Z" fill="white"/>
<path d="M43.9636 33.7565H35.7766L49.5429 13.3933H58.2794L71.3692 33.7565H62.9718L60.8871 30.5486H46.1282L43.9636 33.7565ZM54.681 20.7182L53.6377 18.9744L52.5164 20.7217L49.1797 25.7017H57.9137C57.9403 25.6991 54.681 20.7182 54.681 20.7182Z" fill="white"/>
<path d="M95.5185 33.7555L95.3872 31.5394C93.3806 32.921 90.1204 34.0681 85.2975 34.0681C80.3423 34.0681 75.9101 32.7638 73.4064 29.9467C71.8908 28.1806 71.091 25.9112 71.1645 23.5851C71.1328 21.3582 71.9536 19.2034 73.4587 17.5619C76.0664 14.7207 80.7081 13.0515 86.9666 13.0515C94.3972 13.0515 99.117 15.2942 101.048 18.97C101.327 19.5291 101.521 20.1271 101.622 20.7439H94.2692C94.2169 20.4863 93.6433 20.0914 93.1745 19.8055C92.2867 19.2044 90.2019 18.5544 86.8902 18.5544C83.5785 18.5544 81.2319 19.2319 79.9542 20.5885C79.2472 21.4226 78.8591 22.4805 78.8591 23.574C78.8591 24.6674 79.2472 25.7253 79.9542 26.5594C81.2053 27.8637 83.5519 28.5669 86.8902 28.5669C89.9667 28.5669 92.3657 28.0457 93.7223 27.212C94.2273 26.9597 94.6517 26.5713 94.9475 26.0906H85.5885V21.7116H101.808V33.7581L95.5185 33.7555Z" fill="white"/>
<path d="M106.134 33.7565V13.3933H113.984V33.7565H106.134Z" fill="white"/>
<path d="M148.978 27.807C147.1 31.8228 142.46 34.0655 133.672 34.0655C126.03 34.0655 121.394 32.0581 119.174 28.9816C118.071 27.3814 117.496 25.4755 117.532 23.5319C117.489 21.68 118.037 19.8625 119.095 18.3424C121.442 15.1346 126.109 12.9966 133.778 12.9966C143.53 12.9966 147.44 16.4131 149.005 19.5934C149.343 20.3631 149.554 21.1821 149.631 22.019H141.569C141.463 21.6832 141.287 21.3734 141.054 21.1097C140.168 19.9884 137.769 18.867 133.727 18.867C129.921 18.867 127 19.8321 125.905 21.7099C125.588 22.2831 125.434 22.9324 125.461 23.5869C125.446 24.2271 125.608 24.859 125.931 25.4123C127.182 27.4215 130.443 28.2286 133.726 28.2286C137.326 28.2286 140.193 27.7074 141.341 25.9592C141.504 25.719 141.602 25.4407 141.626 25.1513H149.684C149.558 26.0621 149.321 26.9541 148.978 27.807Z" fill="white"/>
<path d="M8.77944 60.0268H0V38.5217H25.8334V45.0859H8.77944V46.6057H25.1036V53.0394H8.77944V60.0268ZM1.13768 58.8857H7.63661V51.8982H23.9625V47.7459H7.63919V43.9448H24.6923V39.6628H1.13768V58.8857Z" fill="white"/>
<path d="M43.3625 60.3145C33.7459 60.3145 28.4507 56.5091 28.4507 49.6006V38.5243H37.31V49.8607C37.31 52.2331 39.6781 53.5932 43.8055 53.5932C47.7913 53.5932 50.1705 52.1979 50.1705 49.8607V38.5217H58.9285V50.4867C58.9259 56.8242 53.3981 60.3145 43.3625 60.3145ZM29.5919 39.6628V49.6006C29.5919 57.9292 38.2193 59.1734 43.3633 59.1734C48.7486 59.1734 57.7882 58.0443 57.7882 50.4867V39.6628H51.3142V49.8607C51.3142 52.8659 48.4387 54.7343 43.8081 54.7343C39.0264 54.7343 36.1715 52.9123 36.1715 49.8607V39.6628H29.5919Z" fill="white"/>
<path d="M92.3594 60.0268H84.0634L71.5506 48.9866V60.0268H63.0305V38.5217H71.7172L83.9165 49.276V38.5217H92.3594V60.0268ZM84.4953 58.8857H91.2191V39.6628H85.0576V51.8064L71.2862 39.6628H64.1716V58.8866H70.4104V46.4589L84.4953 58.8857Z" fill="white"/>
<path d="M114.243 60.0268H96.3831V38.5217H114.243C120.156 38.5217 124.063 40.2476 125.855 43.6503C126.686 45.2806 127.094 47.0938 127.042 48.9231C127.086 50.8478 126.701 52.7582 125.916 54.5162C124.146 58.1731 120.219 60.0268 114.243 60.0268ZM97.5286 58.8866H114.246C119.748 58.8866 123.329 57.2492 124.893 54.019C125.602 52.4159 125.948 50.6756 125.904 48.9231C125.955 47.2818 125.594 45.654 124.853 44.1887C123.27 41.1835 119.701 39.662 114.246 39.662H97.5286V58.8866ZM112.965 54.8116H104.023V43.7113H113.07C116.083 43.7113 117.902 44.5132 118.792 46.2356C119.18 47.1563 119.379 48.1455 119.377 49.1446C119.446 50.2525 119.236 51.36 118.766 52.3653C117.838 54.0388 115.997 54.8116 112.965 54.8116ZM105.164 53.6704H112.965C115.541 53.6704 117.062 53.084 117.759 51.8261C118.135 50.992 118.299 50.0774 118.235 49.1644C118.24 48.3278 118.08 47.4985 117.763 46.7242C117.096 45.4362 115.644 44.8464 113.069 44.8464H105.164V53.6704Z" fill="white"/>
</svg>
