<svg width="199" height="72" viewBox="0 0 199 72" fill="none" xmlns="http://www.w3.org/2000/svg">
<g clip-path="url(#clip0_6249_14351)">
<path d="M161.022 25.2923C157.849 25.2923 155.016 26.5954 152.977 28.7484L138.245 42.6297C136.886 43.8762 135.186 44.5561 133.429 44.4994C133.316 44.4994 133.203 44.4994 133.09 44.4994C129.18 44.2161 126.007 40.9866 125.724 37.0772C125.554 34.8109 126.347 32.6578 127.877 31.0147C129.407 29.3717 131.503 28.4651 133.769 28.4651C135.639 28.4651 137.509 29.145 138.925 30.3348C139.605 30.9014 140.625 30.8448 141.192 30.1649C141.758 29.485 141.702 28.4651 141.022 27.8985C138.982 26.1988 136.432 25.2356 133.769 25.2356C130.653 25.2356 127.707 26.5387 125.554 28.8051C123.401 31.1281 122.324 34.0743 122.551 37.2472C122.948 42.743 127.367 47.219 132.863 47.6156C133.033 47.6156 133.203 47.6156 133.316 47.6156C133.429 47.6156 133.543 47.6156 133.656 47.6156C136.092 47.6156 138.585 46.5958 140.455 44.8394L149.917 35.944C149.917 36.114 149.917 36.2273 149.917 36.3973C149.917 42.573 154.96 47.6156 161.135 47.6156C163.118 47.6156 165.101 47.1057 166.801 46.0859C167.538 45.6326 167.821 44.6694 167.368 43.8762C166.915 43.1396 165.951 42.8563 165.158 43.3096C163.912 44.0462 162.552 44.3861 161.079 44.3861C156.659 44.3861 153.033 40.8166 153.033 36.3406C153.033 34.2443 153.883 32.3179 155.186 30.8448L155.413 30.6181C155.47 30.5615 155.47 30.5615 155.526 30.5048C156.943 29.145 158.926 28.2951 161.022 28.2951C165.441 28.2951 169.068 31.8646 169.068 36.3406V45.9725C169.068 46.8791 169.804 47.559 170.654 47.559C171.561 47.559 172.24 46.8224 172.24 45.9725V36.3406C172.24 30.3348 167.198 25.2923 161.022 25.2923Z" fill="white"/>
<path d="M187.086 25.2922C184.423 25.2922 181.987 26.1988 180.004 27.8419V27.0486C180.004 26.1421 179.267 25.4622 178.417 25.4622C177.511 25.4622 176.831 26.1988 176.831 27.0486V54.2446C176.831 55.1512 177.567 55.8311 178.417 55.8311C179.324 55.8311 180.004 55.0945 180.004 54.2446V45.1793C181.987 46.8224 184.48 47.7289 187.086 47.7289C193.262 47.7289 198.304 42.6863 198.304 36.5106C198.248 30.3348 193.262 25.2922 187.086 25.2922ZM187.086 44.4994C184.99 44.4994 183.007 43.7062 181.533 42.2897C180.91 41.6665 180.4 40.9866 180.004 40.25V32.6578C180.117 32.4312 180.4 32.0346 180.684 31.638C182.213 29.5983 184.536 28.4084 187.086 28.4084C191.505 28.4084 195.131 31.9779 195.131 36.4539C195.075 40.9299 191.505 44.4994 187.086 44.4994Z" fill="white"/>
<path d="M16.8838 47.6161H10.5381C4.70229 47.6161 -0.0570068 42.8568 -0.0570068 37.021V17.6438C-0.0570068 16.7373 0.679551 16.0574 1.52943 16.0574C2.3793 16.0574 3.11586 16.7939 3.11586 17.6438V37.021C3.11586 41.1004 6.4587 44.4432 10.5381 44.4432H16.8272C17.7337 44.4432 18.4136 45.1798 18.4136 46.0296C18.4703 46.8795 17.7337 47.6161 16.8838 47.6161Z" fill="white"/>
<path d="M29.802 47.6157C23.6262 47.6157 18.527 42.5731 18.527 36.3407C18.527 30.1083 23.5696 25.0657 29.802 25.0657C32.8049 25.0657 35.6378 26.2555 37.7341 28.3519C38.3574 28.9751 38.3574 29.9949 37.7341 30.6182L25.6093 42.7431C25.496 42.8564 25.3826 42.913 25.2693 43.0264C26.5725 43.8762 28.1022 44.3862 29.802 44.3862C31.5584 44.3862 33.2015 43.8196 34.5613 42.7997C35.2978 42.2898 36.261 42.4031 36.771 43.1397C37.2809 43.8762 37.1676 44.8394 36.431 45.3494C34.5046 46.8225 32.1816 47.6157 29.802 47.6157ZM29.802 28.2952C25.3826 28.2952 21.7565 31.9213 21.7565 36.3407C21.7565 37.9838 22.2664 39.5702 23.1163 40.8733C23.173 40.76 23.2863 40.6467 23.3996 40.5334L34.278 29.655C32.9182 28.7485 31.3884 28.2952 29.802 28.2952Z" fill="white"/>
<path d="M60.3412 25.4055C58.0748 25.4055 55.9785 26.482 54.6753 28.1251C53.3155 26.4254 51.2758 25.3489 48.9528 25.3489C47.1964 25.3489 45.5533 25.9721 44.3068 27.0486C44.0236 26.822 43.6836 26.652 43.287 26.652C42.3805 26.652 41.7006 27.3886 41.7006 28.2385V46.0292C41.7006 46.9357 42.4371 47.6156 43.287 47.6156C44.1369 47.6156 44.8734 46.879 44.8734 46.0292V32.6578C44.8734 30.3915 46.7432 28.5784 48.9528 28.5784C51.2192 28.5784 53.0322 30.4481 53.0322 32.6578V45.9725C53.0322 46.879 53.7688 47.5589 54.6187 47.5589C55.5252 47.5589 56.2051 46.8224 56.2051 45.9725V32.7145C56.2051 30.4481 58.0748 28.6351 60.2845 28.6351C62.5508 28.6351 64.3639 30.5048 64.3639 32.7145V46.0292C64.3639 46.9357 65.1005 47.6156 65.9503 47.6156C66.8569 47.6156 67.5368 46.879 67.5368 46.0292V32.7145C67.6501 28.6917 64.3639 25.4055 60.3412 25.4055Z" fill="white"/>
<path d="M81.1906 25.4055C78.9242 25.4055 76.8279 26.2554 75.2414 27.6719C75.0148 27.1053 74.4482 26.652 73.7683 26.652C72.8618 26.652 72.1819 27.3886 72.1819 28.2384V46.0292C72.1819 46.9357 72.9184 47.6156 73.7683 47.6156C74.6748 47.6156 75.3548 46.879 75.3548 46.0292V34.4142C75.3548 34.4142 75.3548 34.4142 75.3548 34.3575C75.3548 31.128 77.961 28.5217 81.1906 28.5217C84.4201 28.5217 87.0264 31.128 87.0264 34.3575V46.0292C87.0264 46.9357 87.7629 47.6156 88.6128 47.6156C89.5193 47.6156 90.1992 46.879 90.1992 46.0292V34.4142C90.1992 29.4283 86.1765 25.4055 81.1906 25.4055Z" fill="white"/>
<path d="M113.316 47.6156C113.259 47.6156 113.259 47.6156 113.259 47.6156H105.213C104.307 47.6156 103.627 46.879 103.627 46.0292C103.627 45.1226 104.364 44.4427 105.213 44.4427H113.316C113.372 44.4427 114.845 44.4427 115.752 43.5362C116.262 43.0263 116.545 42.2331 116.545 41.2132C116.545 40.1934 116.262 39.4001 115.752 38.8902C114.845 37.9837 113.372 37.9837 113.372 37.9837H108.896C108.556 37.9837 106.007 37.927 104.194 36.114C103.117 35.0374 102.551 33.5643 102.551 31.8079C102.551 27.1053 106.687 25.5189 108.84 25.3489C108.896 25.3489 108.896 25.3489 108.953 25.3489H116.772C117.678 25.3489 118.358 26.0854 118.358 26.9353C118.358 27.7852 117.622 28.5217 116.772 28.5217H109.066C108.443 28.5784 105.78 29.0317 105.78 31.8079C105.78 32.7145 106.007 33.3944 106.517 33.8476C107.423 34.7542 108.953 34.8108 109.01 34.8108H113.486C113.712 34.8108 116.262 34.8108 118.132 36.6239C119.321 37.7571 119.888 39.2868 119.888 41.2132C119.888 43.1396 119.321 44.6694 118.132 45.8025C116.205 47.5023 113.826 47.6156 113.316 47.6156Z" fill="white"/>
<path d="M96.3182 47.6157C95.4117 47.6157 94.7318 46.8792 94.7318 46.0293V27.332C94.7318 26.4255 95.4683 25.7456 96.3182 25.7456C97.1681 25.7456 97.9046 26.4822 97.9046 27.332V46.0293C97.9046 46.8792 97.2247 47.6157 96.3182 47.6157Z" fill="white"/>
<path d="M94.2222 21.7794C93.9955 21.7794 93.7122 21.666 93.5423 21.4961C93.1457 21.0995 93.1457 20.5329 93.5423 20.1363L95.6953 17.9832C96.0919 17.5866 96.6585 17.5866 97.0551 17.9832L99.1514 20.0796C99.548 20.4762 99.548 21.0428 99.1514 21.4394C98.7548 21.836 98.1883 21.836 97.7916 21.4394L96.3752 20.0229L94.9021 21.4961C94.7321 21.7227 94.4488 21.7794 94.2222 21.7794Z" fill="white"/>
</g>
<defs>
<clipPath id="clip0_6249_14351">
<rect width="199" height="72" fill="white"/>
</clipPath>
</defs>
</svg>
