<svg width="255" height="72" viewBox="0 0 255 72" fill="none" xmlns="http://www.w3.org/2000/svg">
<path d="M136.307 41.6965C135.975 42.8065 135.531 43.8609 135.033 44.8045C134.867 45.1374 134.701 45.4149 134.534 45.7479C133.648 47.0243 132.097 47.9123 130.435 47.9123C128.94 47.9123 127.555 47.2463 126.67 46.1918C126.613 46.1363 126.558 46.0808 126.504 46.0254C125.562 44.9709 124.233 44.3049 122.737 44.3049C122.349 44.3049 122.017 44.3604 121.685 44.4159V54.7941C120.577 55.016 119.358 55.127 118.195 55.127C107.672 55.127 99.1979 46.5804 99.1979 36.0912C99.1979 25.6022 107.617 17 118.14 17C120.134 17 122.072 17.333 123.9 17.888L118.25 23.5487L121.685 26.9896L133.759 39.0881L134.257 39.5877L136.307 41.6965Z" fill="url(#paint0_linear_6249_14336)"/>
<path d="M0.388428 41.4193L2.16077 40.5313C3.10234 42.6957 5.26239 43.8612 8.03169 43.8612C11.0225 43.8612 13.2933 42.3073 13.2933 39.6433C13.2933 36.7574 10.6902 36.2025 7.86553 35.592C4.59776 34.8706 0.886901 33.9271 0.886901 29.5983C0.886901 26.2129 4.0439 23.6045 7.81014 23.6045C10.9118 23.6045 13.7365 25.1029 14.8996 27.9333L13.1826 28.8213C12.1856 26.7124 10.3025 25.5469 7.75476 25.5469C5.20701 25.5469 2.99157 27.2119 2.99157 29.4873C2.99157 32.3732 5.65009 32.9282 8.53016 33.5386C11.7979 34.2601 15.4534 35.2035 15.4534 39.5879C15.3426 43.4172 12.1302 45.8591 8.03169 45.8591C4.59776 45.8591 1.60692 44.3051 0.388428 41.4193Z" fill="white"/>
<path d="M19.053 45.6369V23.9373H21.1022V33.8714H33.9518V23.9373H36.0011V45.6369H33.9518V35.7583H21.1022V45.5814H19.053V45.6369Z" fill="white"/>
<path d="M43.3679 23.9373V45.6369H41.3187V23.9373H43.3679Z" fill="white"/>
<path d="M47.0791 45.637L50.1807 25.9352C50.4576 24.3813 51.5653 23.5488 52.95 23.5488C54.1685 23.5488 55.2762 24.1593 55.6638 25.5468L60.3163 42.0296C60.427 42.529 60.5378 42.6956 60.8148 42.6956C61.0917 42.6956 61.2025 42.4735 61.3133 42.0296L65.9657 25.6022C66.3534 24.2148 67.4611 23.5488 68.6796 23.5488C70.0089 23.5488 71.1166 24.3813 71.3935 25.9907L74.2182 45.5259H72.1689L69.5103 26.5457C69.3997 25.8242 69.2335 25.3803 68.6242 25.3803C68.1812 25.3803 67.8488 25.7688 67.6826 26.4347L62.864 42.9731C62.5871 43.972 61.7563 44.527 60.8148 44.527C59.9286 44.527 59.0425 44.0275 58.7655 43.0286L53.9469 26.3792C53.7254 25.7133 53.5038 25.3803 53.0608 25.3803C52.6176 25.3803 52.2299 25.7688 52.1192 26.5457L49.1837 45.5814H47.0791V45.637Z" fill="white"/>
<path d="M81.9173 26.2129C82.4713 24.437 83.7451 23.6045 85.4067 23.6045C87.0129 23.6045 88.3422 24.437 88.896 26.2129L94.9885 45.6371H92.8838L91.056 39.5879L79.8681 39.6433L77.9296 45.6371H75.825L81.9173 26.2129ZM80.3665 37.6455H90.3914L87.0683 26.8234C86.7913 25.9354 86.2374 25.4914 85.4067 25.4914C84.5205 25.4914 84.022 25.9354 83.7451 26.8234L80.3665 37.6455Z" fill="white"/>
<path d="M140.516 34.7596C140.516 28.5438 145.389 23.6045 151.316 23.6045C154.971 23.6045 158.183 25.4359 159.9 28.4329L158.239 29.4318C156.799 27.0454 154.195 25.5469 151.316 25.5469C146.608 25.5469 142.675 29.5983 142.675 34.7596C142.675 39.9764 146.552 44.0277 151.316 44.0277C154.195 44.0277 156.799 42.5847 158.239 40.1983L159.9 41.1973C158.183 44.1942 154.971 46.0257 151.316 46.0257C145.389 45.9702 140.516 41.0308 140.516 34.7596Z" fill="white"/>
<path d="M166.102 26.2129C166.656 24.437 167.93 23.6045 169.592 23.6045C171.254 23.6045 172.528 24.437 173.08 26.2129L179.173 45.6371H177.069L175.241 39.5879L164.053 39.6433L162.114 45.6371H160.01L166.102 26.2129ZM164.551 37.6455H174.576L171.254 26.8234C170.977 25.9354 170.423 25.4914 169.592 25.4914C168.706 25.4914 168.207 25.9354 167.93 26.8234L164.551 37.6455Z" fill="white"/>
<path d="M182.276 45.6369V23.9373H188.535C194.074 23.9373 197.839 26.3792 197.839 31.4294C197.839 36.6462 193.906 38.9771 188.59 38.9771H184.325V45.6924H182.276V45.6369ZM184.325 25.8797V36.9793H188.535C192.523 36.9793 195.679 35.3699 195.679 31.3739C195.679 27.5446 192.744 25.8242 188.535 25.8242H184.325V25.8797Z" fill="white"/>
<path d="M202.769 23.9373V45.6369H200.719V23.9373H202.769Z" fill="white"/>
<path d="M220.712 25.8797H213.79V45.6369H211.74V25.8797H204.873V23.9373H220.712V25.8797Z" fill="white"/>
<path d="M225.422 26.2129C225.976 24.437 227.25 23.6045 228.911 23.6045C230.573 23.6045 231.847 24.437 232.401 26.2129L238.493 45.6371H236.333L234.506 39.5878L223.318 39.6433L221.435 45.6926H219.33L225.422 26.2129ZM223.872 37.6455H233.896L230.573 26.8234C230.296 25.9354 229.742 25.4914 228.911 25.4914C228.025 25.4914 227.527 25.9354 227.25 26.8234L223.872 37.6455Z" fill="white"/>
<path d="M243.643 43.6944H254.942V45.6369H243.643C242.092 45.6369 241.594 44.8599 241.594 43.5835V23.9373H243.643V43.6944Z" fill="white"/>
<defs>
<linearGradient id="paint0_linear_6249_14336" x1="130.47" y1="17" x2="108.042" y2="57.9305" gradientUnits="userSpaceOnUse">
<stop stop-color="white" stop-opacity="0.3"/>
<stop offset="1" stop-color="white"/>
</linearGradient>
</defs>
</svg>
