<svg width="337" height="29" viewBox="0 0 337 29" fill="none" xmlns="http://www.w3.org/2000/svg">
<path d="M307.45 13.1325C306.829 13.0402 306.199 12.9553 305.578 12.8594C304.694 12.7191 303.556 12.8225 303.067 12.291C303.011 12.3279 302.954 12.3611 302.898 12.398C302.982 12.4681 303.067 12.5419 303.171 12.6231C302.08 12.553 301.026 12.4866 299.973 12.4165C299.945 12.4423 299.926 12.4644 299.898 12.4903C300.349 12.5825 300.8 12.6785 301.158 12.7523C300.913 12.7523 300.377 12.8188 300.208 12.7413C299.098 12.2208 297.386 12.3316 296.051 12.0621C296.079 12.0178 296.107 11.9772 296.126 11.9329C296.991 11.9772 297.847 12.0178 298.713 12.0621C298.722 12.051 298.731 12.04 298.741 12.0289C298.44 11.9772 298.148 11.9256 297.847 11.8739C297.857 11.848 297.866 11.8222 297.866 11.7964C298.618 11.837 299.371 11.8776 300.123 11.9182C300.142 11.9034 300.161 11.8886 300.18 11.8776C300.01 11.837 299.851 11.7927 299.681 11.7521C299.672 11.7225 299.672 11.6967 299.662 11.6672C300.321 11.634 300.97 11.6007 301.628 11.5675C301.619 11.538 301.619 11.5085 301.609 11.4789C300.866 11.5749 300.189 11.3534 299.361 11.5195C298.901 11.6118 298.167 11.4642 297.584 11.3571C298.007 11.3313 298.43 11.3055 298.854 11.2796C298.854 11.2612 298.844 11.2427 298.835 11.2243C298.195 11.2243 297.556 11.2243 296.785 11.2243C297.01 11.3387 297.17 11.4162 297.471 11.5675C296.39 11.5048 295.505 11.4383 294.612 11.4088C293.436 11.3719 292.251 11.3756 291.076 11.3387C290.803 11.3313 290.54 11.2427 290.286 11.1172C293.305 11.0914 296.333 11.0656 299.352 11.0434C299.352 11.0102 299.361 10.9733 299.361 10.9401C298.609 10.8736 297.847 10.8035 297.095 10.7371C297.095 10.7186 297.095 10.7038 297.104 10.6854C298.148 10.6854 299.202 10.6854 300.246 10.6854C300.255 10.6411 300.264 10.5968 300.283 10.5525C300.057 10.5525 299.822 10.5488 299.597 10.5525C299.23 10.5562 298.863 10.5783 298.496 10.571C298.167 10.5636 297.828 10.5267 297.433 10.5008C297.537 10.4123 297.603 10.3495 297.659 10.3015C296.982 10.2425 296.324 10.1834 295.656 10.1244C295.665 10.1022 295.665 10.0764 295.675 10.0542C296.38 10.0874 297.095 10.1207 297.8 10.1539C297.8 10.1207 297.8 10.0911 297.8 10.0579C298.054 10.0653 298.308 10.069 298.553 10.0764C298.553 10.0579 298.562 10.0358 298.562 10.0173C296.86 9.91028 295.157 9.80324 293.192 9.67775C294.029 9.62238 294.668 9.58178 295.299 9.54118C295.299 9.50796 295.308 9.47474 295.308 9.44152C294.941 9.44891 294.584 9.46367 294.217 9.46367C293.747 9.46367 293.258 9.47474 292.797 9.43414C292.383 9.39723 292.007 9.2902 291.64 9.13517C292.58 9.13517 293.512 9.13517 294.452 9.13517C293.305 8.74762 291.997 9.05766 290.803 8.93586C290.803 8.90264 290.803 8.86942 290.803 8.83251C291.405 8.83251 292.016 8.85097 292.618 8.82882C293.728 8.79191 294.838 8.85835 295.957 8.6738C296.747 8.54462 297.753 8.62582 298.656 8.64058C299.352 8.65166 300.048 8.70333 300.772 8.73655C300.471 8.755 300.18 8.77346 299.898 8.79191C299.916 8.83251 299.926 8.87312 299.945 8.91372C300.584 8.85466 301.242 8.82144 301.844 8.72548C302.333 8.64427 302.728 8.44496 303.218 8.37483C303.697 8.3084 304.261 8.35269 304.779 8.33054C305.164 8.31209 305.55 8.23827 305.936 8.23458C306.49 8.22719 307.045 8.26411 307.61 8.27887C308.005 8.28994 308.4 8.29363 308.804 8.30101C308.814 8.26779 308.823 8.23458 308.823 8.20136C308.4 8.19029 307.976 8.17921 307.553 8.16814C307.553 8.14969 307.553 8.13492 307.563 8.11647C308.334 8.09063 309.105 8.06479 309.876 8.04265C309.876 8.02419 309.876 8.00943 309.876 7.99097C306.227 7.99097 302.569 7.99097 298.919 7.99097C298.919 7.96883 298.919 7.94668 298.919 7.92084C300.246 7.8581 301.581 7.76213 302.907 7.74737C304.252 7.7326 305.606 7.81381 306.961 7.8175C308.795 7.82119 310.638 7.84703 312.453 7.75844C314.127 7.67724 315.764 7.46316 317.429 7.26016C315.754 7.24539 314.08 7.23432 312.416 7.21218C310.986 7.19372 309.509 7.23801 308.136 7.10883C306.142 6.92059 304.158 6.96488 302.155 6.92797C300.33 6.89475 298.515 6.79879 296.7 6.78771C295.891 6.78402 295.082 6.92797 294.264 6.98703C294.066 7.00179 293.841 6.95012 293.408 6.90582C293.944 6.85046 294.273 6.81724 294.744 6.77295C293.822 6.4666 292.844 6.53304 291.922 6.44445C292.543 6.44445 293.154 6.44445 293.813 6.44445C293.474 6.38909 293.182 6.34111 292.881 6.29312C292.9 6.2636 292.91 6.23038 292.928 6.20085C293.596 6.23407 294.264 6.26729 294.932 6.29682C294.941 6.27467 294.951 6.25621 294.96 6.23407C294.847 6.20454 294.734 6.17501 294.621 6.14179C294.838 6.0163 295.233 6.07536 296.615 6.44445C296.371 6.47767 296.164 6.5072 295.966 6.53304C296.013 6.54411 296.06 6.55887 296.098 6.56995C297.584 6.56995 299.07 6.56995 300.556 6.56995C300.565 6.53673 300.565 6.50351 300.575 6.47398C299.089 6.35956 297.593 6.24514 296.107 6.13072C296.098 6.11227 296.089 6.09012 296.079 6.07166C298.459 6.02737 300.847 5.98308 303.227 5.9351C303.236 5.89819 303.236 5.86497 303.246 5.82806C303.011 5.78377 302.776 5.73579 302.362 5.65828C302.907 5.67673 303.255 5.6878 303.603 5.69888C303.613 5.68411 303.622 5.67304 303.631 5.65828C303.368 5.61029 303.095 5.55862 302.738 5.49218C302.926 5.42575 303.048 5.38514 303.001 5.4036C301.167 5.34085 299.22 5.27442 297.274 5.21167C296.578 5.18952 295.872 5.18583 295.167 5.16C294.151 5.12309 293.145 5.07141 292.138 5.02712C292.138 4.99759 292.148 4.96437 292.148 4.93485C296.013 4.93485 299.869 4.93485 303.735 4.93485C303.744 4.90901 303.744 4.87948 303.754 4.85364C302.804 4.82412 301.844 4.76875 300.895 4.76506C298.308 4.75768 295.722 4.79459 293.126 4.77613C291.8 4.76875 290.483 4.67278 289.157 4.63957C288.837 4.63218 288.499 4.72446 288.17 4.76875C288 4.7909 287.822 4.8315 287.652 4.82412C286.872 4.78721 286.091 4.72077 285.31 4.69862C284.088 4.66171 282.865 4.64326 281.642 4.62849C280.768 4.61742 279.884 4.6248 279 4.6248C279.028 4.60266 279.113 4.5436 279.235 4.45871C278.341 4.42918 277.485 4.41441 276.63 4.37012C275.266 4.30369 273.912 4.22249 272.557 4.1339C270.949 4.02686 269.35 3.87922 267.732 3.80541C267.074 3.77588 266.388 3.91613 265.701 3.94935C265.259 3.9715 264.798 3.96043 264.365 3.92352C263.162 3.81648 261.977 3.6836 260.782 3.5618C260.105 3.85708 258.929 3.53965 258.28 3.92352C258.186 3.97888 257.744 3.9309 257.462 3.9309C257.509 3.81279 257.547 3.69099 257.594 3.58395C256.729 3.76111 256.362 3.34403 255.703 3.25545C255.214 3.18901 254.716 3.13734 254.217 3.08936C253.86 3.05614 253.493 3.04875 253.136 3.02661C253.061 3.02292 252.985 3.00446 252.91 3.00446C252.148 2.9897 251.387 2.97863 250.568 2.96386C250.437 2.99708 250.183 3.12627 249.929 3.12627C248.951 3.12258 247.973 3.08197 246.994 3.04506C246.092 3.01184 245.189 2.96755 244.286 2.93064C243.129 2.88635 241.972 2.84944 240.75 2.87528C241.295 2.94541 241.85 3.01923 242.395 3.08936C242.367 3.12627 242.339 3.15948 242.311 3.19639C241.248 3.04875 240.185 2.90112 239.122 2.75348C239.141 2.70918 239.151 2.66489 239.169 2.61691C240.674 2.61691 242.179 2.61691 243.74 2.61691C243.665 2.48034 242.819 2.49142 243.599 2.24412C241.577 2.14447 239.753 2.05588 237.759 1.95992C238.022 2.05219 238.173 2.10756 238.342 2.16661C236.865 2.24412 235.417 2.32163 233.903 2.40284C235.784 2.61691 237.618 2.8273 239.461 3.03768C239.442 3.09305 239.423 3.14841 239.405 3.20008C237.025 3.14841 234.646 3.09305 232.276 3.04137C232.276 2.9897 232.276 2.94172 232.276 2.89004C232.896 2.89004 233.517 2.89004 234.326 2.89004C233.357 2.6206 232.558 2.76086 231.749 2.80146C231.015 2.83837 230.272 2.84944 229.529 2.85313C229.36 2.85313 229.2 2.74609 229.012 2.73133C228.683 2.70549 228.344 2.71287 228.015 2.70918C227.686 2.70549 227.347 2.70918 226.934 2.70918C227.15 2.77562 227.329 2.8273 227.526 2.88635C226.952 2.91219 226.416 2.95648 225.88 2.95279C225.664 2.95279 225.448 2.85313 225.278 2.73133C224.893 2.75348 224.507 2.77562 224.112 2.79777C224.103 2.76086 224.084 2.72395 224.074 2.69073C225.683 2.46927 227.432 2.65382 229.059 2.43236C228.918 2.39176 228.739 2.34378 228.57 2.2921C228.589 2.26996 228.608 2.24781 228.626 2.22567C229.2 2.30318 229.783 2.38069 230.404 2.46189C230.291 2.52094 230.188 2.57262 229.906 2.72026C230.733 2.7018 231.363 2.68704 232.031 2.67597C231.975 2.56155 231.937 2.4988 231.881 2.39176C232.492 2.44713 233.037 2.49511 233.592 2.54309C233.602 2.50618 233.621 2.47296 233.63 2.43605C231.655 2.03005 229.369 2.31056 227.319 2.02266C227.62 2.0891 227.912 2.15923 228.213 2.22567C228.203 2.24781 228.194 2.26627 228.175 2.28841C226.934 2.15185 225.692 2.01159 224.451 1.87503C224.422 1.90455 224.404 1.93039 224.375 1.95992C224.968 2.07065 225.57 2.18138 226.266 2.31056C226.087 2.35485 225.946 2.4176 225.814 2.41391C224.009 2.38438 222.203 2.35116 220.388 2.31056C220.2 2.30687 220.03 2.23305 219.852 2.19245C219.814 2.21829 219.786 2.24781 219.748 2.27365C219.946 2.32532 220.124 2.38807 220.331 2.42498C220.566 2.46927 220.82 2.48772 221.309 2.55047C220.905 2.64274 220.736 2.67966 220.529 2.72395C220.754 2.79038 220.933 2.84575 221.159 2.91588C220.369 3.21485 219.419 3.06352 218.582 3.14103C217.265 3.25914 215.949 3.18532 214.632 3.20008C214.021 3.20746 213.343 3.37356 212.835 3.30343C211.359 3.09304 209.845 3.25545 208.425 3.14103C207.475 3.06352 206.487 3.14472 205.565 2.96755C205.754 2.96755 205.951 2.96755 206.139 2.96755C206.149 2.9491 206.149 2.93064 206.158 2.91219C205.866 2.89373 205.575 2.87528 205.283 2.85682C205.133 2.92695 204.973 3.05244 204.822 3.05244C204.437 3.04875 204.061 2.97863 203.675 2.95648C202.622 2.89373 201.568 2.84575 200.524 2.7867C200.327 2.77562 200.139 2.73502 199.941 2.70918C200.712 2.63167 201.474 2.61691 202.227 2.63536C202.706 2.64644 203.177 2.69811 203.637 2.74609C203.873 2.77193 204.079 2.83099 204.296 2.87528C204.286 2.91219 204.277 2.95279 204.268 2.9897C204.606 2.94541 204.945 2.90112 205.283 2.85313C205.594 2.7867 205.932 2.64644 206.205 2.66858C206.957 2.72764 207.625 2.73133 208.349 2.58738C208.782 2.50249 209.346 2.53202 209.854 2.51356C209.873 2.48403 209.882 2.45451 209.901 2.42498C209.337 2.35116 208.773 2.27734 208.208 2.20352C208.415 2.16292 208.65 2.11863 208.876 2.07434C208.867 2.04481 208.857 2.01528 208.848 1.98575C207.174 2.23674 205.5 2.19245 203.826 2.01159C203.816 2.04481 203.797 2.07433 203.788 2.10756C204.032 2.14077 204.286 2.1703 204.531 2.20352C204.531 2.22198 204.531 2.24043 204.531 2.25889C204.089 2.24781 203.637 2.24043 203.195 2.21459C203.111 2.2109 202.979 2.13708 202.979 2.09648C202.979 2.05588 203.101 1.98944 203.195 1.97837C203.421 1.95622 203.656 1.95992 203.891 1.93408C202.819 1.93408 201.756 1.93408 200.543 1.93408C201.22 2.06326 201.813 2.17768 202.622 2.3327C200.364 2.48772 198.305 2.2958 196.038 2.31056C196.659 2.39914 197.054 2.45451 197.449 2.50987C197.44 2.55047 197.43 2.58738 197.421 2.62798C196.997 2.60953 196.565 2.60953 196.17 2.55785C195.972 2.53202 195.85 2.41021 195.69 2.3327C195.737 2.29579 195.775 2.26257 195.822 2.22567C194.449 2.16292 193.066 2.10017 191.693 2.03743C191.693 1.98944 191.702 1.94146 191.702 1.88979C193.123 1.81966 194.552 1.74953 195.972 1.68309C195.972 1.67202 195.972 1.66095 195.963 1.64987C194.439 1.64987 192.925 1.64987 191.383 1.64987C191.844 1.5982 192.314 1.54653 192.784 1.49485C192.775 1.47271 192.765 1.45425 192.746 1.43211C191.166 1.51331 189.586 1.5982 188.025 1.6794C189.003 1.82704 189.972 1.97468 191.091 2.14077C189.502 2.23305 188.11 2.31056 186.718 2.39176C186.718 2.4176 186.718 2.44343 186.718 2.46927C187.141 2.48034 187.564 2.49141 188.082 2.50249C187.687 2.7424 187.865 2.81622 188.458 2.85313C189.568 2.92695 190.668 3.04506 191.768 3.14841C191.787 3.10781 191.806 3.0709 191.825 3.0303C190.865 2.94541 189.906 2.8642 188.768 2.76455C189.107 2.71287 189.276 2.68704 189.671 2.62429C189.078 2.58738 188.693 2.56523 188.307 2.5394C188.317 2.52094 188.317 2.4988 188.326 2.48034C189.276 2.48034 190.226 2.48034 191.185 2.48034C191.185 2.50618 191.195 2.52833 191.195 2.55416C190.988 2.58 190.79 2.60584 190.583 2.62798C191.176 2.7018 191.749 2.91957 192.323 2.60583C192.436 2.54309 192.991 2.60953 193.33 2.64644C193.819 2.69811 194.279 2.82729 194.768 2.83837C196.358 2.8679 197.957 2.84944 199.546 2.86789C199.838 2.87159 200.129 2.95279 200.421 3.00077C200.402 3.03399 200.383 3.06721 200.364 3.10043C199.443 3.10043 198.512 3.10043 197.59 3.10043C197.186 3.10043 196.791 3.10043 196.386 3.10043C196.01 3.10412 195.643 3.1115 195.267 3.1115C194.863 3.1115 194.543 3.06352 194.101 3.21854C193.743 3.34403 192.906 3.22223 192.286 3.22223C191.637 3.22223 190.978 3.22961 190.329 3.25545C189.643 3.28128 188.947 3.44738 188.345 3.15579C188.288 3.12995 188.138 3.11888 188.044 3.12995C186.981 3.24068 185.965 3.21854 184.978 2.96017C185.034 3.00815 185.091 3.05613 185.138 3.10043C184.837 3.12995 184.536 3.15579 184.263 3.18163C184.367 2.99708 184.432 2.87528 184.517 2.70918C185.11 2.77193 185.759 2.83468 186.398 2.90111C185.589 2.55047 184.545 2.55047 183.539 2.4988C182.899 2.46558 182.269 2.42128 181.63 2.40652C181.065 2.39176 180.501 2.42498 179.937 2.4139C179.316 2.39914 178.695 2.36592 178.084 2.31794C177.078 2.24043 176.071 2.14446 175.046 2.09279C176.128 2.42498 177.661 2.26257 178.855 2.69811C176.41 2.70549 174.172 2.69073 171.83 2.52832C172.093 2.35854 172.234 2.26996 172.394 2.16292C172.676 2.20721 172.987 2.25519 173.363 2.31425C173.043 2.10386 173.052 2.0891 171.538 1.94884C170.88 1.88609 170.184 1.89348 169.507 1.79013C170.363 1.75691 171.218 1.72369 172.065 1.68678C169.45 1.48378 166.789 1.87502 164.183 1.55391C165.745 1.38412 167.372 1.77906 168.914 1.42842C168.284 1.45425 167.644 1.48378 166.996 1.50961C167.137 1.41365 167.259 1.33245 167.381 1.24755L167.4 1.25494C165.707 1.28447 164.014 1.33245 162.321 1.34352C161.099 1.3509 159.876 1.31399 158.663 1.27708C158.004 1.25494 157.346 1.19957 156.706 1.14052C156.537 1.12575 156.405 1.04086 156.17 0.955967C156.246 1.07777 156.293 1.16266 156.349 1.25863C155.822 1.33614 155.079 1.35828 154.91 1.69785C154.101 1.67202 153.274 1.65356 152.455 1.61296C151.948 1.58713 151.327 1.71631 150.96 1.43579C150.922 1.40627 150.659 1.41734 150.499 1.42472C149.314 1.46532 148.138 1.50223 146.953 1.5539C146.784 1.56129 146.624 1.6388 146.464 1.74584C148.675 1.31769 150.659 1.90824 152.775 1.93777C151.524 2.05588 150.264 2.16292 148.966 2.05588C148.364 2.0079 147.753 1.97837 147.142 1.94146C146.775 1.91931 146.37 1.93777 146.051 1.87502C145.74 1.81227 145.514 1.66833 145.214 1.54653C145.599 1.49116 145.881 1.45056 146.163 1.40996C145.43 1.3915 144.696 1.36936 143.972 1.3509C144.743 1.19957 145.505 1.08146 146.154 1.41734C146.728 1.39519 147.301 1.35459 147.875 1.3509C149.145 1.33983 150.424 1.34721 151.806 1.34721C151.628 1.39889 151.543 1.42103 151.458 1.44687C151.468 1.4727 151.487 1.49485 151.496 1.52069C152.145 1.45794 152.785 1.37674 153.443 1.33245C154.017 1.29554 154.609 1.30292 155.202 1.28816C155.192 1.24386 155.173 1.19957 155.164 1.15528C152.794 1.15528 150.433 1.15528 148.063 1.15528C148.054 1.12575 148.044 1.09623 148.035 1.063C148.421 1.01871 148.797 0.978114 149.182 0.933822C149.004 0.84893 148.844 0.771421 148.543 0.623781C148.571 0.778802 148.59 0.84893 148.609 0.948587C147.574 0.948587 146.54 0.948587 145.336 0.948587C145.514 0.919059 145.646 0.896911 145.844 0.863693C145.157 0.752963 144.574 0.66069 143.963 0.564725C144.518 0.524123 145.044 0.487214 145.58 0.446613C145.58 0.43185 145.571 0.420776 145.571 0.406013C144.866 0.406013 144.151 0.406013 143.37 0.406013C143.314 0.616397 143.267 0.826783 143.201 1.08146C142.185 1.03717 141.16 0.955966 140.144 0.955966C139.251 0.955966 138.367 1.05562 137.473 1.09992C137.125 1.11468 136.768 1.09253 136.41 1.08515L136.429 1.09622C135.564 0.782492 134.605 0.922749 133.852 1.11837C133.438 1.22541 133.241 1.22172 132.855 1.17743C132.545 1.14052 132.178 1.17743 131.849 1.15897C131.595 1.14421 131.351 1.09622 131.106 1.063C130.598 1.063 130.09 1.063 129.582 1.063C129.893 0.937512 130.203 0.852622 130.514 0.860003C130.711 0.863694 130.899 0.996569 131.087 1.07039C131.802 0.955968 132.507 0.823092 133.232 0.727128C133.533 0.686526 133.89 0.719744 134.36 0.719744C133.57 0.431847 132.78 0.50936 132.056 0.557343C131.04 0.627472 130.053 0.760346 129.028 0.867384C129.103 0.904294 129.225 0.974423 129.357 1.04455C129.338 1.07408 129.31 1.1073 129.291 1.13683C128.83 1.11468 128.369 1.09253 127.824 1.0667C127.203 1.23648 126.328 1.12206 125.519 1.12206C124.682 1.12206 123.845 1.0667 122.98 1.03717C122.952 0.985495 122.914 0.911675 122.895 0.882147C123.3 0.804636 123.704 0.727127 124.156 0.638544C123.714 0.391249 122.801 0.66807 122.754 0.310045C123.685 0.232535 124.523 0.162407 125.35 0.0922797C125.35 0.0627521 125.35 0.0295318 125.35 4.09992e-06C124.457 4.06086e-06 123.563 4.02181e-06 122.557 3.97782e-06C122.303 0.228846 118.654 0.767727 117.074 0.719744C117.196 0.789871 117.281 0.837854 117.394 0.893219C116.5 0.893219 115.625 0.893219 114.751 0.893219C114.619 0.893219 114.45 0.85631 114.365 0.878456C113.378 1.15897 112.456 0.771417 111.544 0.904293C111.6 0.734506 111.638 0.623779 111.675 0.51674L111.704 0.527815C110.876 0.730817 109.663 0.826782 109.644 0.679142C109.813 0.664379 109.982 0.649618 110.152 0.638544C110.048 0.579488 109.954 0.524122 109.86 0.468757C108.017 0.741889 105.111 0.830474 103.822 0.712362C103.963 0.800945 104.038 0.896909 104.142 0.904292C104.706 0.930127 105.28 0.948585 105.854 0.941204C107.434 0.919057 109.014 0.874765 110.603 0.860002C110.791 0.856311 110.979 0.967039 111.167 1.02609C110.979 1.08515 110.819 1.18112 110.613 1.19957C109.183 1.34352 107.8 1.12575 106.39 1.08515C105.91 1.07039 105.421 1.17374 104.923 1.19219C104.565 1.20326 104.189 1.16266 103.822 1.1479C103.531 1.13682 103.239 1.12575 102.947 1.11468C102.929 1.1442 102.919 1.17373 102.9 1.20326C103.164 1.24017 103.437 1.27339 103.935 1.33983C102.806 1.57974 101.781 1.38412 100.85 1.48747C100.888 1.40257 100.907 1.35459 100.925 1.30292C101.367 1.28446 101.875 1.26232 102.374 1.24386C102.374 1.21434 102.364 1.1885 102.364 1.15897C101.753 1.15897 101.151 1.15897 100.54 1.15897C100.53 1.13682 100.53 1.11468 100.521 1.09622C100.765 1.07408 101.019 1.04824 101.414 1.01133C100.135 0.826781 98.9315 1.3509 97.7841 0.981801C96.9847 1.01502 96.11 1.05562 95.2259 1.07777C95.1037 1.08146 94.9626 0.970731 94.7369 0.871074C93.9281 0.871074 92.9499 0.871074 91.7931 0.871073C92.1035 0.808327 92.2728 0.778798 92.4327 0.74558C92.4139 0.712361 92.395 0.679143 92.3762 0.645924C90.6175 0.919057 88.7365 0.745579 86.959 1.04824C87.8524 1.04824 88.7365 1.04824 89.63 1.04824C85.7457 1.24386 81.8803 1.56129 77.9396 1.41365C78.0901 1.40257 78.2311 1.39519 78.3816 1.38412C78.9553 1.33614 79.5384 1.34721 80.1215 1.30292C81.6545 1.18111 83.2534 1.21802 84.824 1.17004C85.3789 1.15528 85.9244 1.08515 86.4793 1.04086C86.4699 1.01133 86.4511 0.985491 86.4417 0.955964C85.2755 0.985491 84.1092 1.02609 82.943 1.04086C80.8081 1.06669 78.6732 1.08146 76.5382 1.08146C75.4754 1.08146 74.4033 0.996565 73.3499 1.02609C72.4847 1.05193 71.6476 1.20326 70.7918 1.28446C70.3215 1.32875 69.8231 1.37674 69.3434 1.36197C67.8198 1.32506 66.3056 1.25862 64.782 1.20695C64.7726 1.24017 64.7538 1.27339 64.7444 1.30661C65.0265 1.32875 65.2993 1.34721 65.5814 1.36935C65.5908 1.39519 65.5908 1.42103 65.6002 1.44686C64.4246 1.50592 63.2489 1.56866 62.0733 1.62772C62.0639 1.61296 62.0545 1.5945 62.0451 1.57974C62.3837 1.53545 62.7223 1.48746 63.0609 1.44317C61.6877 1.55021 60.4369 1.19219 59.0543 1.29184C57.6342 1.39519 56.167 1.40626 54.7186 1.45425C54.6998 1.49116 54.6716 1.52438 54.6528 1.56129C54.9443 1.63879 55.2359 1.7163 55.6967 1.8418C55.1136 1.85287 54.6528 1.86394 54.1825 1.87502C54.1731 1.85287 54.1637 1.83073 54.1543 1.80858C54.2578 1.78274 54.3612 1.75321 54.4741 1.72738C54.4365 1.71261 54.4083 1.68678 54.3706 1.68309C53.844 1.6351 53.3079 1.5945 52.7812 1.55021C52.6495 1.53914 52.4614 1.50592 52.405 1.52807C51.5867 1.82703 50.8062 1.48008 49.9879 1.50961C49.1603 1.53914 48.3138 1.46532 47.4768 1.43948C47.4673 1.39888 47.4485 1.35828 47.4391 1.32137C48.1351 1.25862 48.8311 1.14789 49.5365 1.13682C52.0946 1.09622 54.6622 1.09622 57.2204 1.063C58.4054 1.04824 59.581 0.978111 60.766 0.952274C61.1234 0.944892 61.4808 1.00764 61.8476 1.00764C62.9856 1.00764 64.1236 0.996564 65.2616 0.985492C65.3181 0.985492 65.3745 0.948583 65.4215 0.896909C64.5657 0.985492 63.8133 0.734506 62.8822 0.86C62.1486 0.955964 61.2645 0.815706 60.4369 0.812015C59.2518 0.800943 58.0574 0.826781 56.8723 0.819398C56.4491 0.815707 56.0165 0.719743 55.6027 0.727124C54.9349 0.738196 54.2766 0.812017 53.6182 0.845235C51.3987 0.948583 49.1791 1.09253 46.9501 1.12575C44.881 1.15897 42.7555 1.17004 40.7428 1.00025C39.2286 0.871071 37.9871 1.0224 36.6704 1.21064C36.4729 1.24017 36.3412 1.35459 36.1249 1.45425C35.081 1.41364 33.896 1.36566 32.7674 1.32137C33.6232 0.848925 34.9963 1.19218 36.0591 0.944889C34.7424 0.944889 33.4257 0.944889 31.9021 0.944889C32.2971 1.00394 32.5322 1.04086 32.9743 1.10729C32.5322 1.16635 32.2783 1.2254 32.0244 1.2291C30.2186 1.25862 28.4222 1.26231 26.6165 1.30661C23.6069 1.37673 20.5973 1.46532 17.5877 1.55759C15.1894 1.6351 12.7911 1.73845 10.3835 1.81596C9.98844 1.82703 9.58402 1.76059 9.1796 1.72738C9.1796 1.69785 9.18903 1.66463 9.18903 1.6351C11.0042 1.4727 12.8005 1.27708 14.6345 1.16266C16.572 1.04085 18.5376 0.996562 20.4938 0.919052C20.4844 0.882143 20.4844 0.845232 20.475 0.812013C19.1019 0.859996 17.7382 0.896905 16.365 0.955961C15.0107 1.01502 13.647 1.08145 12.2927 1.15897C10.9007 1.24017 9.51819 1.33613 8.12625 1.42841C6.74371 1.51699 5.36118 1.60557 3.87518 1.70523C3.85639 1.57605 3.87518 1.46532 3.80936 1.36566C3.74353 1.266 3.62125 1.12575 3.44254 1.09991C3.24503 1.07038 2.79361 1.12206 2.73718 1.1848C2.21048 1.72738 0.987825 2.01158 0.000306335 2.48772C0.470552 2.52093 0.771547 2.52832 1.05368 2.56523C1.36405 2.60583 1.66501 2.67596 1.95657 2.7387C2.09763 2.76823 2.21988 2.81252 2.35156 2.85312C2.39859 2.78669 2.40802 2.71286 2.49265 2.66119C2.70899 2.52463 2.90646 2.3733 3.20743 2.28102C3.34848 2.23673 3.7059 2.31793 4.01627 2.34377C3.42374 2.5763 2.96289 2.76085 2.33276 3.00815C2.89707 3.05613 3.20743 3.0672 3.48959 3.1078C3.81876 3.15947 4.12912 3.23698 4.44888 3.29973C4.58997 3.32926 4.74045 3.37355 4.87213 3.36986C4.94736 3.36617 5.06964 3.26651 5.05081 3.21853C4.92856 2.8642 5.56809 2.86789 6.18881 2.70917C6.01953 2.87896 5.92545 2.95278 5.87845 3.03398C5.62451 3.48428 5.66214 3.50273 6.77191 3.52119C7.03525 3.52488 7.28919 3.55072 7.55252 3.56917C7.78766 3.58394 8.0134 3.60239 8.24851 3.61716C8.0416 4.03424 8.06983 4.04162 9.09497 4.07115C9.64044 4.08591 10.1765 4.13389 10.7126 4.22616C10.4305 4.22616 10.1295 4.24462 9.85675 4.22248C8.94449 4.15235 8.22028 4.09698 7.43967 4.49561C6.95062 4.74659 5.69037 4.73183 4.75928 4.82041C4.48651 4.84625 4.18555 4.8241 3.68707 4.8241C4.33603 5.08616 4.8627 5.30393 5.29532 5.47741C5.08841 5.89449 4.95676 6.24513 4.71222 6.58101C4.59937 6.73603 4.25137 6.85783 4.00684 6.9944C3.86578 7.07191 3.62125 7.14573 3.59302 7.22693C3.42374 7.86178 3.54602 8.48555 4.04446 9.09087C4.07269 9.12778 4.19495 9.15362 4.35483 9.21267C4.00684 9.33816 3.68707 9.45628 3.35791 9.57808C3.84696 9.88443 3.24503 10.0948 2.76538 10.3163C3.99744 10.6116 4.77805 10.977 4.50531 11.6192C4.45828 11.7188 4.95676 11.8591 5.17307 11.9624C4.63696 12.0879 4.11969 12.2061 3.44254 12.3648C3.86575 12.4386 4.07269 12.4755 4.32663 12.5198C4.10089 12.601 3.88458 12.6748 3.59302 12.7782C3.95041 12.8741 4.24197 12.9553 4.62759 13.0624C4.39246 13.1768 4.17615 13.2801 3.98804 13.3724C4.15735 13.5348 4.6182 13.7895 4.48651 13.8744C4.16675 14.0737 3.56482 14.1955 2.99112 14.3727C3.151 14.7565 4.2984 14.7012 4.98499 14.9484C4.57117 15.0592 4.18555 15.1588 3.80936 15.2585C3.89398 15.2659 3.97864 15.2733 4.06326 15.2806C4.12912 15.4172 4.33603 15.5759 4.23258 15.6829C3.93161 15.9893 3.52722 16.2809 3.1134 16.5651C2.90649 16.709 2.85004 16.7866 3.1604 16.9379C3.64005 17.1704 4.15732 17.4399 3.50839 17.7831C3.37671 17.8532 3.29208 17.9935 3.36731 18.071C3.83756 18.5582 2.88763 18.9089 2.76538 19.3481C2.89706 19.4145 3.06635 19.4957 3.29205 19.6065C2.92526 19.6286 2.67133 19.6434 2.6243 19.6434C2.81241 19.7873 3.07578 19.9497 3.22626 20.1269C3.44257 20.3742 3.37671 20.6658 4.10089 20.8134C4.2702 20.8466 4.35483 21.0349 4.32663 21.1493C4.2796 21.404 4.43948 21.5811 5.05081 21.6586C5.22012 21.6808 5.38001 21.7251 5.54929 21.762C5.51166 21.7989 5.46463 21.8395 5.427 21.8764C4.94736 21.9502 4.46771 22.0277 3.98804 22.1016C3.98804 22.1237 3.97864 22.1422 3.97864 22.1643C4.43008 22.1754 4.90033 22.1643 5.33295 22.2049C5.62451 22.2307 5.94428 22.3119 6.13239 22.4079C6.39572 22.5482 6.5462 22.7253 6.75311 22.884C7.19516 23.2199 7.08228 23.3454 6.21704 23.4931C6.01013 23.53 5.81259 23.5743 5.61508 23.6185C5.63391 23.6481 5.64334 23.6739 5.66214 23.7034C6.29227 23.7034 6.91299 23.7034 7.57135 23.7034C7.86292 23.9581 8.22028 24.2276 8.47421 24.5155C8.65292 24.7258 8.54947 24.9215 8.2485 25.1503C7.6748 25.5858 8.11682 25.8331 9.43353 25.8885C9.1796 25.9771 8.95389 26.0546 8.73755 26.1284C8.76578 26.1542 8.79398 26.1801 8.8222 26.2022C9.25482 26.1506 9.68747 26.0989 10.2047 26.0361C10.4211 26.1875 10.4963 26.4643 11.2393 26.4717C11.3333 26.4717 11.4086 26.623 11.5214 26.6968C11.6531 26.7817 11.7754 26.9035 11.9635 26.9367C12.6312 27.0438 12.7629 27.2763 12.8475 27.5273L12.8287 27.5199C13.4871 27.3538 13.4871 27.3538 14.7944 27.5568C14.2959 27.8336 14.2207 27.841 13.6658 27.6454C13.7128 27.7229 13.7222 27.8152 13.8257 27.8853C13.9009 27.9407 14.1925 28.0145 14.2113 28.0071C14.8979 27.7081 15.6408 27.9481 16.365 27.9517C16.7506 27.9554 17.1362 27.9185 17.5313 27.9038C17.6065 27.9407 17.6817 27.9776 17.757 28.0182C17.3055 28.1252 16.8541 28.2286 16.412 28.3356C16.5061 28.391 16.6001 28.4463 16.6942 28.5054C17.6629 28.3984 18.6222 28.2618 19.6097 28.1917C20.4562 28.1289 21.3403 28.1326 22.2055 28.1252C23.3812 28.1142 24.5662 28.1326 25.7418 28.1215C26.814 28.1105 27.8861 28.0809 28.9583 28.044C29.7201 28.0182 30.4819 27.9481 31.2437 27.9444C31.8833 27.9407 32.5228 28.0108 33.1624 28.0477L33.1341 28.0366C33.9712 27.996 34.8176 27.9518 35.6547 27.9111C35.7863 27.9038 35.9933 27.8964 36.0403 27.9259C36.7457 28.3393 37.799 28.1178 38.843 28.199C38.495 28.3688 38.2035 28.5128 37.9119 28.653C37.9307 28.6752 37.9495 28.701 37.9683 28.7232C38.9276 28.6124 39.8775 28.4722 40.8556 28.402C41.6551 28.3467 42.4921 28.3688 43.3104 28.3651C44.9844 28.3614 46.6585 28.3799 48.3232 28.3541C50.3641 28.3208 52.3956 28.2544 54.4365 28.2027C54.6716 28.1954 54.9067 28.2138 55.2359 28.2212C55.0666 28.3061 54.9631 28.3578 54.7092 28.4869C55.9319 28.4463 56.9758 28.6383 58.0198 28.3393C58.396 28.2323 58.9603 28.2544 59.4493 28.1695C60.3804 28.0108 61.462 28.0108 62.4872 27.9481C62.5154 27.9776 62.553 28.0071 62.5812 28.033C62.2802 28.1732 61.9887 28.3135 61.6877 28.4574C61.7159 28.4833 61.7535 28.5091 61.7818 28.5349C62.7787 28.4131 63.7662 28.2581 64.7914 28.1806C65.5156 28.1252 66.2774 28.1695 67.0204 28.1658C68.7415 28.1621 70.472 28.1843 72.1931 28.1511C73.5662 28.1252 74.93 28.0034 76.3031 27.985C77.0931 27.9739 77.8925 28.092 78.692 28.1252C79.6701 28.1658 80.62 28.2581 81.6169 28.0256C82.1812 27.8964 82.9994 27.9591 83.7048 27.9444C84.0434 27.937 84.382 27.9591 84.7958 27.9665C84.7018 27.8853 84.6547 27.8336 84.5889 27.782C85.0121 27.782 85.4071 27.782 85.915 27.782C85.6893 27.9222 85.52 28.033 85.2002 28.2286C86.3571 28.092 87.2975 27.9407 88.2757 27.8742C89.0751 27.8189 89.9215 27.8263 90.7398 27.8521C93.1757 27.9296 95.6022 28.0366 98.0381 27.8484C98.5271 27.8115 99.0444 27.8521 99.5522 27.8632C100.182 27.8742 100.822 27.8853 101.452 27.9038C101.809 27.9148 102.346 27.782 102.355 28.0994C102.355 28.1215 102.534 28.1584 102.628 28.1584C103.474 28.1584 104.377 28.2286 105.139 28.1252C106.427 27.9444 107.678 28.0699 108.938 28.0772C109.38 28.0809 109.832 28.092 110.274 28.1031C112.051 28.1363 113.829 28.1732 115.607 28.2027C116.227 28.2138 116.857 28.2027 117.299 28.2027C116.726 28.391 116.049 28.6161 115.221 28.8893C117.017 29.0554 118.485 28.8745 120.102 28.6973C119.162 28.5718 118.4 28.4685 117.582 28.3578C118.39 28.0846 119.293 28.0883 120.187 28.092C120.29 28.092 120.45 28.0994 120.478 28.1289C121.024 28.5903 122.002 28.4279 122.867 28.4353C122.942 28.4353 123.027 28.4427 123.253 28.4574C122.886 28.6309 122.566 28.7822 122.256 28.9299C122.275 28.952 122.294 28.9778 122.312 29C123.3 28.893 124.269 28.7601 125.275 28.6863C126.074 28.6272 126.902 28.6346 127.72 28.6309C129.338 28.6235 130.946 28.6567 132.564 28.6235C134.125 28.594 135.677 28.4796 137.247 28.4463C138.922 28.4094 140.596 28.4205 142.27 28.4131C143.267 28.4094 144.264 28.4131 145.402 28.4131C145.402 28.2507 145.402 28.0846 145.402 27.8853C148.016 27.8447 150.715 27.8189 153.415 27.7598C155.164 27.7229 156.904 27.6122 158.644 27.5827C159.914 27.5605 161.193 27.6159 162.472 27.6417C163.083 27.6528 163.694 27.6823 164.306 27.7008C166.996 27.782 169.685 27.8669 172.385 27.9407C173.805 27.9776 175.225 27.9997 176.654 28.0219C178.893 28.0551 181.131 28.0736 183.37 28.1179C186.012 28.1695 188.665 28.247 191.307 28.3024C193.781 28.3541 196.254 28.3541 198.719 28.4427C201.079 28.5275 203.383 28.3799 205.716 28.3209C206.797 28.295 207.879 28.3172 208.961 28.3061C211.039 28.2876 213.118 28.2803 215.196 28.2286C216.889 28.188 218.573 28.0846 220.265 28.0293C221.902 27.9739 223.538 27.9591 225.165 27.8964C226.896 27.83 228.626 27.7192 230.357 27.6491C231.081 27.6196 231.824 27.6639 232.548 27.6565C234.157 27.6454 235.774 27.6454 237.373 27.5974C239 27.5458 240.627 27.4387 242.245 27.3612C243.844 27.2837 245.452 27.1803 247.051 27.1471C249.045 27.1028 251.048 27.125 253.051 27.1102C253.757 27.1028 254.453 27.0622 255.158 27.0438C256.719 27.0032 258.29 26.97 259.851 26.9294C260.745 26.9035 261.638 26.8592 262.541 26.8334C263.011 26.8223 263.491 26.8445 263.961 26.8408C265.4 26.8297 266.848 26.8112 268.287 26.8002C268.936 26.7965 269.595 26.7928 270.244 26.8076C271.146 26.8297 271.984 26.8666 272.915 26.6968C273.695 26.5566 274.72 26.6747 275.642 26.6673C276.046 26.6636 276.442 26.623 276.846 26.6009C276.846 26.5713 276.846 26.5418 276.846 26.5123C275.811 26.4643 274.777 26.4126 273.742 26.3646C273.752 26.3388 273.761 26.313 273.761 26.2908C275.003 26.2908 276.235 26.2908 277.627 26.2908C277.457 26.2059 277.382 26.169 277.269 26.11C279.15 25.8516 281.05 26.11 282.987 26.0398C282.875 25.9586 282.799 25.8996 282.677 25.8147C284.229 25.8147 285.734 25.8147 287.248 25.8147C287.248 25.7999 287.248 25.7815 287.248 25.7667C286.749 25.7187 286.242 25.667 285.743 25.6191C285.752 25.5748 285.762 25.5342 285.771 25.4899C288.057 25.453 290.342 25.4161 292.637 25.3828C292.646 25.3681 292.656 25.357 292.665 25.3422C291.518 25.25 290.361 25.1577 289.213 25.0654C289.223 25.0174 289.232 24.9731 289.251 24.9252C289.514 24.9178 289.825 24.8698 290.032 24.9141C290.737 25.0617 291.405 25.0211 292.157 24.9805C293.465 24.9104 294.791 24.9178 296.173 24.8919C296.032 24.5339 296.38 24.5044 297.142 24.5376C299.089 24.6188 301.054 24.6299 303.011 24.6668C303.02 24.6299 303.039 24.593 303.048 24.5561C302.851 24.5376 302.663 24.5118 302.465 24.5007C302.239 24.4896 302.004 24.4896 301.619 24.4822C301.929 24.3826 302.127 24.3235 302.324 24.2608C302.127 24.2239 301.891 24.1833 301.459 24.1021C301.816 24.0762 302.014 24.0615 302.202 24.0467L302.183 24.0541C301.619 24.0283 301.054 23.9877 300.49 23.9803C299.333 23.9618 298.176 23.9581 297.02 23.9544C295.891 23.9544 294.762 23.9729 293.634 23.9655C293.182 23.9618 292.731 23.9065 292.28 23.8732C292.289 23.8437 292.298 23.8105 292.298 23.781C293.916 23.7588 295.543 23.7477 297.161 23.7034C298.722 23.6628 300.368 24.0135 302.07 23.4968C301.581 23.4414 301.28 23.3786 300.97 23.375C298.656 23.3417 296.342 23.3011 294.029 23.3085C292.524 23.3122 291.029 23.3897 289.524 23.434C289.42 23.4377 289.317 23.4266 289.204 23.3676C289.815 23.3454 290.436 23.327 291.047 23.3048C291.057 23.2864 291.066 23.2642 291.076 23.2458C290.709 23.2199 290.333 23.1646 289.966 23.1719C288.668 23.1941 287.314 23.3528 286.091 23.2384C284.652 23.1018 283.354 23.4119 281.99 23.3011C281.765 23.2827 281.567 23.2162 281.247 23.1498C282.085 23.1166 282.724 23.0944 283.373 23.0686C283.364 23.0354 283.364 23.0022 283.354 22.9689C282.527 22.9689 281.699 22.9689 280.871 22.9689C280.871 22.9505 280.871 22.932 280.871 22.9136C282.432 22.8804 283.994 22.8435 285.555 22.8102C285.555 22.7844 285.555 22.7549 285.555 22.729C282.301 22.729 279.056 22.729 275.802 22.729C275.793 22.718 275.793 22.7069 275.783 22.6958C276.63 22.6257 277.476 22.5334 278.332 22.4928C280.439 22.3895 282.536 22.2824 284.652 22.2308C286.712 22.1791 288.771 22.2086 290.831 22.1828C291.941 22.168 293.051 22.1126 294.161 22.072C294.762 22.0499 295.355 22.0167 295.957 21.9355C294.678 21.9355 293.399 21.9355 292.12 21.9355C292.11 21.9244 292.11 21.9133 292.11 21.9059C292.355 21.8801 292.599 21.8506 292.844 21.8247C292.044 21.7029 291.104 21.9908 290.257 21.5774C293.182 21.4077 295.985 21.2453 298.797 21.0865C298.816 21.1087 298.825 21.1271 298.844 21.1493C298.713 21.1235 298.581 21.1013 298.421 21.0718C298.515 21.0386 298.553 21.0127 298.59 21.0127C298.825 21.009 299.061 21.009 299.305 21.009C299.456 21.26 300.951 21.2711 303.227 21.0053C302.625 21.0275 302.023 21.0459 301.421 21.0681C301.421 21.0459 301.412 21.0238 301.412 20.998C305.249 20.8097 309.077 20.6178 312.914 20.4296C312.914 20.3963 312.905 20.3594 312.905 20.3262C312.754 20.3188 312.594 20.3114 312.444 20.3114C311.673 20.3114 310.732 20.197 310.168 20.3447C309.538 20.5108 308.917 20.4554 308.324 20.5144C307.29 20.6215 306.199 20.6178 305.127 20.6547C304.064 20.6916 303.001 20.7322 301.938 20.7396C300.208 20.7507 298.477 20.7285 296.747 20.7359C295.289 20.7396 293.841 20.7617 292.383 20.7765C292.167 20.7802 291.96 20.7876 291.706 20.795C292.449 20.592 292.449 20.6141 293.371 20.6473C293.756 20.6621 294.151 20.5477 294.556 20.5329C295.327 20.4997 296.098 20.4997 296.869 20.4702C297.18 20.4591 297.509 20.4886 297.744 20.2967C297.876 20.186 298.487 20.1786 298.882 20.1269C298.901 20.1564 298.929 20.1896 298.948 20.2192C298.656 20.2745 298.365 20.3262 298.073 20.3816C298.082 20.4037 298.082 20.4222 298.092 20.4443C298.835 20.4443 299.568 20.4517 300.311 20.4443C301.402 20.4332 302.493 20.4185 303.584 20.3963C304.243 20.3853 304.995 20.4332 305.55 20.3188C306.857 20.0568 308.155 20.2856 309.444 20.2376C310.92 20.186 312.406 20.149 313.892 20.1158C314.739 20.0974 315.576 20.0937 316.422 20.0826C316.939 20.0752 317.457 20.0826 317.965 20.0605C318.378 20.042 318.783 20.0642 319.178 19.887C319.46 19.7578 320.184 19.8058 320.72 19.7763C321.435 19.7393 322.15 19.7061 322.855 19.6028C315.886 19.9977 308.879 19.9682 301.882 19.9793C301.873 19.946 301.873 19.9091 301.863 19.8759C302.982 19.8279 304.111 19.7799 305.23 19.732C305.249 19.7135 305.268 19.6951 305.287 19.6729C304.694 19.5659 304.111 19.4625 303.519 19.3555C303.528 19.3296 303.528 19.3075 303.537 19.2817C304.675 19.2817 305.813 19.2817 307.13 19.2817C306.613 19.1636 306.246 19.0787 305.87 18.9938C304.374 19.1709 302.917 19.2226 301.6 18.8166C301.609 18.776 301.628 18.7354 301.638 18.6948C303.048 18.7945 304.45 18.8978 305.86 18.9975C305.983 18.9975 306.114 18.9975 306.434 18.9975C306.161 18.9089 306.03 18.8646 305.898 18.824C305.917 18.7981 305.936 18.7686 305.954 18.7428C306.594 18.8092 307.233 18.8793 307.873 18.9458C307.882 18.9052 307.901 18.8609 307.911 18.8203C306.744 18.7612 305.569 18.7059 304.346 18.6431C304.572 18.6062 304.779 18.5767 304.986 18.5435C304.901 18.4955 304.835 18.4586 304.845 18.4623C305.992 18.3848 307.13 18.3036 308.268 18.226C308.277 18.2445 308.287 18.263 308.296 18.2851C308.061 18.3146 307.826 18.3478 307.6 18.3774C309.839 18.4733 312.049 18.5509 314.391 18.3109C313.497 18.2224 312.811 18.1522 312.115 18.0821C312.143 18.0341 312.171 17.9861 312.19 17.9381C313.036 17.9123 313.864 17.9234 314.569 18.1781C314.974 18.322 315.152 18.3183 315.745 18.1707C315.867 18.1375 316.093 18.1744 316.272 18.1781C316.526 18.1854 316.78 18.1965 317.033 18.2039C317.043 18.1633 317.062 18.1227 317.071 18.0784C315.745 17.9787 314.409 17.8828 313.083 17.7831C313.083 17.761 313.093 17.7388 313.093 17.7167C313.808 17.7425 314.532 17.8163 315.228 17.7794C315.952 17.7425 316.648 17.6023 317.325 17.4325C315.228 17.3956 313.159 17.6909 311.09 17.3845C312.989 17.2959 314.899 17.2036 316.704 17.1188C317.316 17.056 317.852 17.0043 318.388 16.949C318.388 16.9342 318.388 16.9194 318.388 16.9047C316.375 16.949 314.372 16.9933 312.359 17.0339C312.35 16.9785 312.34 16.9231 312.331 16.8641C317.41 16.6943 322.498 16.5208 327.595 16.3473C326.777 16.1812 325.959 16.148 325.018 16.2182C324.275 16.2735 323.467 16.196 322.564 16.1739C322.808 16.1222 322.949 16.0927 323.147 16.0521C322.912 16.0041 322.714 15.9672 322.451 15.9155C323.495 15.8601 324.463 15.8085 325.442 15.7605C325.442 15.742 325.442 15.7236 325.432 15.7051C324.802 15.7051 324.172 15.7051 323.542 15.7051C323.542 15.6682 323.542 15.6313 323.542 15.5981C324.943 15.5981 326.354 15.6018 327.755 15.5981C328.536 15.5944 329.326 15.5649 330.106 15.5722C330.596 15.5759 331.094 15.6608 331.583 15.6534C332.646 15.635 333.699 15.5759 334.762 15.5353L334.743 15.5427C334.329 15.5095 333.925 15.48 333.511 15.4467C333.37 15.4357 333.219 15.4246 333.097 15.336C334.395 15.2991 335.693 15.2585 336.991 15.2216C336.991 15.1847 337 15.1478 337 15.1109C333.37 14.8894 329.702 14.8709 326.015 14.8857C326.288 14.9079 326.561 14.9337 326.843 14.9558C326.852 14.9743 326.852 14.9928 326.862 15.0075C326.655 15.0149 326.457 15.0223 326.25 15.026C324.868 15.0481 323.485 15.0629 322.103 15.0961C321.567 15.1109 321.04 15.181 320.504 15.1921C319.94 15.2068 319.799 15.0629 320.015 14.7824C319.31 14.8599 318.689 14.9263 318.209 14.978C318.614 15.0149 319.14 15.0592 319.667 15.1072C319.657 15.1441 319.648 15.181 319.639 15.2179C316.977 15.2659 314.315 15.3139 311.663 15.3618C311.654 15.3397 311.654 15.3176 311.644 15.2954C312.971 15.24 314.297 15.181 315.623 15.1256C315.623 15.0887 315.623 15.0518 315.623 15.0149C313.535 14.9891 311.447 14.9632 309.368 14.9374C309.378 14.9226 309.378 14.9042 309.387 14.8894C310.779 14.8156 312.171 14.7196 313.563 14.6716C314.278 14.6458 315.011 14.7196 315.726 14.7012C317.024 14.6643 318.322 14.5683 319.629 14.5425C320.965 14.5166 322.31 14.5461 323.655 14.5535C324.115 14.5535 324.576 14.5535 325.291 14.5535C324.953 14.4576 324.83 14.4243 324.699 14.3874C324.699 14.3616 324.699 14.3358 324.699 14.3099C326.457 14.3099 328.207 14.3099 329.965 14.3099C329.965 14.2619 329.965 14.214 329.975 14.1697C327.727 14.0922 325.479 14.0146 323.072 13.9297C323.711 13.8596 324.172 13.7821 324.652 13.76C325.216 13.7341 325.752 13.7526 326.354 13.8264C327.144 13.9224 328.094 13.8079 328.968 13.7637C329.533 13.7378 330.097 13.6492 330.661 13.6419C331.658 13.6308 332.655 13.6492 333.652 13.6751C334.216 13.6898 334.771 13.7341 335.354 13.6972C335.195 13.6751 335.025 13.6492 334.865 13.6271C334.865 13.6049 334.865 13.5865 334.856 13.5643C335.448 13.5274 336.05 13.4905 336.643 13.4536C336.652 13.4241 336.652 13.3946 336.662 13.365C334.978 13.2912 333.304 13.1989 331.621 13.1546C330.793 13.1325 329.947 13.2358 329.11 13.2395C327.482 13.2432 325.855 13.2137 324.228 13.2026C324.021 13.2026 323.814 13.258 323.617 13.2543C323.363 13.2543 323.119 13.2211 322.996 13.21C322.329 13.2543 321.708 13.354 321.153 13.3134C319.987 13.2285 318.952 13.4536 317.842 13.4868C317.476 13.4979 317.024 13.5717 316.751 13.509C315.406 13.1989 313.93 13.3023 312.51 13.2395C311.4 13.1916 310.262 13.2248 309.143 13.21C308.56 13.2026 307.986 13.1657 307.403 13.1436C307.045 13.1694 306.697 13.2137 306.34 13.2174C305.635 13.2248 304.929 13.2026 304.233 13.21C302.136 13.2285 300.048 13.2617 297.951 13.2654C297.142 13.2654 296.305 13.2469 295.571 12.9406C296.22 12.9553 296.766 12.9627 297.415 12.9775C297.236 12.8778 297.161 12.8298 296.926 12.6933C298.412 12.8225 299.662 12.9295 301.017 13.0476C300.998 13.055 301.13 12.9701 301.28 12.9664C301.91 12.9406 302.55 12.911 303.18 12.9369C304.619 12.9701 306.03 13.0587 307.45 13.1325ZM179.09 3.14841C179.26 3.24068 179.42 3.33665 179.645 3.46214C178.865 3.41785 178.178 3.37725 177.397 3.33296C178.056 3.26283 178.573 3.20746 179.09 3.14841C179.184 3.14103 179.269 3.12995 179.532 3.10043C178.94 3.04506 178.517 3.00446 178.093 2.96386C178.554 2.91588 179.034 2.9491 179.429 2.88266C180.125 2.76086 180.52 2.96386 181.018 3.07459C181.206 3.11888 181.413 3.15579 181.601 3.19639C181.451 3.10412 181.31 3.01184 181.15 2.91588C181.206 2.89373 181.272 2.87528 181.329 2.85313C181.996 2.61322 182.448 2.65382 183.003 2.9491C183.2 3.05613 183.558 3.1115 183.821 3.18901C183.116 3.18901 182.354 3.18901 181.583 3.18901C181.451 3.40678 180.849 3.5212 180.51 3.34034C180.068 3.10412 179.551 3.20377 179.09 3.14841ZM291.094 10.6189C290.521 10.9438 289.881 10.6706 289.242 10.6337C289.298 10.7038 289.326 10.7481 289.364 10.7924C289.242 10.7887 289.11 10.7924 289.007 10.774C288.743 10.726 288.489 10.6263 288.226 10.6263C287.21 10.6189 286.194 10.6448 285.179 10.6485C285.038 10.6485 284.897 10.6079 284.756 10.5857C285.602 10.5156 286.477 10.5747 287.21 10.4676C288.273 10.3126 289.232 10.5082 290.248 10.4935C290.558 10.4898 290.878 10.5673 291.189 10.6079C291.997 10.6263 292.806 10.6448 293.615 10.6595C293.615 10.6891 293.606 10.7186 293.606 10.7481C292.891 10.7481 292.185 10.7555 291.471 10.7407C291.348 10.7371 291.217 10.6595 291.094 10.6189ZM118.541 1.60189C118.24 1.63141 117.93 1.65356 117.647 1.70154C117.516 1.72369 117.441 1.8012 117.234 1.90086C116.453 1.86395 115.494 1.81597 114.525 1.77167C114.534 1.74953 114.534 1.72369 114.544 1.70154C115.202 1.70154 115.861 1.70154 116.726 1.70154C116.406 1.65356 116.284 1.63511 116.114 1.60558C116.97 1.3915 117.751 1.53914 118.541 1.60189C118.992 1.52807 119.434 1.45056 119.989 1.35459C117.469 1.35459 115.099 1.35459 112.729 1.35459C112.729 1.32137 112.729 1.28815 112.729 1.25125C115.776 1.25125 118.823 1.25125 121.87 1.25125C121.87 1.27339 121.88 1.29554 121.88 1.31768C121.306 1.33614 120.723 1.35828 120.149 1.37674C120.149 1.40258 120.149 1.42841 120.149 1.45794C120.46 1.48008 120.77 1.50223 121.09 1.52438C121.08 1.55021 121.08 1.57605 121.071 1.60189C120.224 1.60189 119.378 1.60189 118.541 1.60189ZM84.8052 1.62772C84.7864 1.59081 84.777 1.5539 84.7582 1.51699C85.0027 1.49116 85.2472 1.44687 85.5012 1.43579C87.0718 1.36197 88.6519 1.28815 90.2225 1.2291C91.0125 1.19957 91.8025 1.1885 92.5926 1.19957C94.1444 1.22172 95.6962 1.2697 97.2386 1.30292C97.7183 1.31399 98.1885 1.30292 98.6682 1.30292C97.8311 1.35828 97.0035 1.3915 96.1759 1.43948C95.6304 1.46901 94.9344 1.44687 94.577 1.57974C94.1444 1.74214 93.787 1.69785 93.3638 1.69785C93.0252 1.69785 92.6866 1.69047 92.3386 1.69047C91.3511 1.69047 90.3636 1.70893 89.3855 1.69047C89.1785 1.68678 88.9904 1.56129 88.7459 1.46901C87.5891 1.83442 86.1689 1.54652 84.8052 1.62772ZM254.001 3.7242C253.964 3.73897 254.123 3.63193 254.227 3.643C254.932 3.70206 255.76 3.71313 256.296 3.88291C257.152 4.15236 257.923 4.2151 258.704 4.03055C259.052 4.1339 259.324 4.2151 259.672 4.31845C259.757 4.18557 259.804 4.10437 259.823 4.08223C261.798 4.08223 263.707 4.08223 265.682 4.08223C266.359 4.32214 267.309 4.31845 268.231 4.34429C268.485 4.35167 268.739 4.34429 268.993 4.34429C268.993 4.37381 268.993 4.39965 268.993 4.42918C268.654 4.44763 268.325 4.48824 267.986 4.48085C266.689 4.45502 265.4 4.40703 264.112 4.38858C262.607 4.36643 261.102 4.38858 259.607 4.35536C258.102 4.31845 256.606 4.23725 255.102 4.16712C254.96 4.15974 254.791 4.1339 254.697 4.0933C254.49 3.99733 254.312 3.8903 254.001 3.7242ZM73.3311 1.85287C69.6725 1.85287 66.0893 1.85287 62.506 1.85287C62.506 1.8012 62.4966 1.74952 62.4966 1.69785C64.1707 1.65725 65.8353 1.59819 67.5094 1.57974C68.6944 1.56498 69.8795 1.63879 71.0551 1.60558C71.864 1.58712 72.6257 1.53176 73.3311 1.85287ZM18.1802 1.79381C18.1708 1.76059 18.1614 1.72369 18.1614 1.69047C19.3088 1.62772 20.4468 1.53914 21.6036 1.5133C22.5629 1.49115 23.541 1.5539 24.5098 1.55759C25.2716 1.55759 26.024 1.52437 26.5694 1.50961C26.8704 1.64986 27.0491 1.73107 27.1902 1.79381C25.9863 1.99682 24.7261 1.6757 23.4094 1.923C22.5723 2.07802 21.4155 1.91931 20.3998 1.90454C20.3998 1.86394 20.3904 1.82334 20.3904 1.77905C20.9735 1.74583 21.5566 1.70892 22.1961 1.67201C20.7666 1.47639 19.5251 1.96729 18.1802 1.79381ZM295.073 12.8077C295.035 12.8446 294.998 12.8815 294.96 12.9184C294.603 12.8298 294.255 12.6933 293.869 12.6674C293.436 12.6379 292.975 12.7154 292.496 12.7449C292.374 12.6748 292.223 12.5825 292.063 12.4903C292.054 12.5235 292.044 12.5604 292.035 12.5936C291.527 12.6416 291.019 12.708 290.502 12.7302C290.135 12.7486 289.609 12.6379 289.392 12.7117C288.706 12.9406 288.207 12.7339 287.633 12.6342C287.991 12.6158 288.358 12.5973 288.894 12.5715C288.602 12.5124 288.489 12.4903 288.16 12.4238C289.891 12.4238 291.377 12.4238 292.872 12.4238C293.107 12.4238 293.361 12.4275 293.587 12.4017C294.179 12.3352 294.659 12.3795 295.026 12.6342C294.894 12.6637 294.762 12.6896 294.603 12.7228C294.772 12.7523 294.922 12.7782 295.073 12.8077ZM87.9371 3.1078C88.3885 3.05982 88.7553 2.99338 89.1315 2.986C90.4106 2.96755 91.6803 2.66119 92.9876 2.94909C93.0816 2.97124 93.345 2.95647 93.3544 2.93802C93.5048 2.7018 93.9563 2.81253 94.2572 2.80514C94.8403 2.79038 95.4329 2.79407 96.0066 2.82729C96.3169 2.84574 96.6085 2.94171 96.9094 3.00076C96.8718 3.03767 96.8342 3.07089 96.806 3.1078C93.881 3.1078 90.9561 3.1078 87.9371 3.1078ZM27.3219 1.57605C29.579 1.57605 31.8739 1.57605 34.1593 1.57605C34.1593 1.62403 34.1687 1.6757 34.1687 1.72368C33.8677 1.73845 33.5762 1.7569 33.2752 1.76429C32.8896 1.77536 32.504 1.77167 32.1184 1.78274C31.6952 1.79751 31.2719 1.83072 30.8393 1.8418C30.2092 1.86025 29.5696 1.87132 28.9395 1.87502C28.2812 1.87871 27.6604 1.81227 27.3219 1.57605ZM163.647 2.58369C163.647 2.60584 163.647 2.63167 163.647 2.65382C163.412 2.69073 163.13 2.70549 162.961 2.77193C162.669 2.89004 162.707 2.90111 162.481 2.77562C162.406 2.73502 162.208 2.68704 162.143 2.7018C160.986 2.97493 159.838 2.68704 158.719 2.65382C158.023 2.63167 157.261 2.53571 156.509 2.50987C156.227 2.4988 155.954 2.46927 155.672 2.44712C155.681 2.42498 155.691 2.40283 155.7 2.38438C157.224 2.38438 158.738 2.38438 160.271 2.38438C160.252 2.42129 160.224 2.49879 160.196 2.58C161.39 2.58369 162.519 2.58369 163.647 2.58369ZM75.0334 3.15948C75.0522 3.20008 75.071 3.23699 75.0804 3.27759C72.9737 3.45475 70.8294 3.4769 68.6474 3.40677C69.2211 3.28866 69.8137 3.20746 70.4156 3.14471C70.5755 3.12995 70.8388 3.14471 70.9328 3.189C71.3279 3.38463 71.657 3.32926 72.0238 3.18531C72.1273 3.14471 72.2871 3.10411 72.4188 3.1078C73.2935 3.11888 74.1588 3.14102 75.0334 3.15948ZM23.3717 3.51012C23.3811 3.5175 23.3812 3.52488 23.3906 3.53596C20.9077 3.66883 18.4341 3.79801 15.9512 3.93089C16.1205 3.79432 16.365 3.69467 16.6284 3.6799C17.804 3.60977 18.989 3.54703 20.174 3.5175C21.2274 3.49166 22.2996 3.51012 23.3717 3.51012ZM289.345 11.8443C289.355 11.8148 289.364 11.789 289.373 11.7595C289.815 11.741 290.286 11.6783 290.709 11.7115C291.245 11.7521 291.819 11.7152 292.308 11.9219C292.59 12.04 293.248 12.0437 293.728 12.0289C294.32 12.0141 294.443 12.0104 294.772 12.3057C293.098 12.1987 291.508 12.099 289.928 11.9994C289.928 11.9846 289.928 11.9735 289.938 11.9588C290.464 11.9588 290.991 11.9588 291.518 11.9588C291.518 11.944 291.518 11.9256 291.527 11.9108C290.794 11.8886 290.069 11.8665 289.345 11.8443ZM19.4781 3.3957C19.4687 3.36617 19.4499 3.33664 19.4405 3.30711C20.9171 3.2296 22.3842 3.15209 23.8984 3.07089C23.8138 3.48428 24.6226 3.2702 25.0835 3.3957C23.146 3.3957 21.3121 3.3957 19.4781 3.3957ZM123.958 1.68309C123.986 1.70893 124.015 1.73845 124.052 1.76429C123.582 1.79013 123.112 1.81597 122.689 1.83811C123.121 1.27708 124.297 1.41365 125.181 1.38412C126.15 1.3509 127.259 1.17004 128.134 1.56867C127.88 1.59451 127.607 1.60558 127.382 1.56867C126.357 1.38412 125.322 1.517 124.287 1.53176C124.165 1.53545 124.062 1.63141 123.958 1.68309ZM34.1123 2.03742C32.4288 2.18137 30.7358 2.41021 29.1558 2.05956C30.7358 2.06695 32.4194 1.8381 34.1123 2.03742ZM289.261 11.8665C289.289 11.8923 289.317 11.9182 289.336 11.9477C289.232 11.9846 289.138 12.0178 289.016 12.0621C289.166 12.0806 289.308 12.099 289.336 12.1027C289.251 12.1728 289.157 12.2467 289.044 12.3389C288.104 12.2282 287.041 12.1064 285.941 11.9772C287.032 11.6746 288.188 12.0658 289.261 11.8665ZM104.292 2.02266C104.292 1.99313 104.283 1.95991 104.283 1.93038C104.697 1.93038 105.12 1.93777 105.534 1.93039C106.408 1.90824 107.311 1.91193 108.158 1.83811C108.76 1.78644 108.854 1.7606 109.032 2.0485C107.452 2.07433 105.863 2.1703 104.292 2.02266ZM141.499 1.90824C140.53 1.87502 139.749 1.84918 138.987 1.82335C138.987 1.7606 138.987 1.69785 138.987 1.6388C139.486 1.66833 139.928 1.69047 140.605 1.73107C140.295 1.64987 140.191 1.62034 140.031 1.57974C141.414 1.54652 142.712 1.517 144.01 1.48378C144.01 1.50592 144.019 1.53176 144.019 1.5539C143.032 1.62403 142.044 1.69047 140.962 1.76798C141.151 1.81966 141.245 1.8418 141.499 1.90824ZM56.8347 1.77167C56.8253 1.73476 56.8159 1.69785 56.8066 1.65725C58.2643 1.61296 59.7315 1.56498 61.1893 1.52068C61.1987 1.55759 61.2081 1.59081 61.2175 1.62772C59.8067 1.88609 58.2925 1.70154 56.8347 1.77167ZM167.174 2.28103C168.19 2.13708 169.149 1.923 170.174 2.22566C169.986 2.45081 169.478 2.46558 169.018 2.44343C168.416 2.4176 167.823 2.34378 167.174 2.28103ZM291.762 6.79879C291.555 7.06823 288.903 7.05715 287.521 6.79879C288.95 6.79879 290.323 6.79879 291.762 6.79879ZM163.563 2.38438C164.644 2.31794 165.763 2.24043 166.836 2.46558C165.716 2.53201 164.578 2.79407 163.563 2.38438ZM296.361 7.6514C295.411 7.85071 294.715 7.62557 294.001 7.39672C294.358 7.38196 294.706 7.42994 295.054 7.44471C295.204 7.4484 295.355 7.37458 295.524 7.35243C295.759 7.31921 296.013 7.29707 296.258 7.27861C296.305 7.27492 296.371 7.31552 296.474 7.34874C296.314 7.41149 296.173 7.46685 296.023 7.52222C296.164 7.57389 296.267 7.61449 296.361 7.6514ZM96.2229 2.11862C96.1853 2.08171 96.157 2.04111 96.1194 2.0042C95.2166 1.91193 94.2478 2.02635 93.3449 1.91931C94.5676 1.87133 95.7809 1.82334 97.0035 1.77536C97.0411 1.81227 97.0787 1.85287 97.1164 1.88978C96.8248 1.96729 96.5239 2.0448 96.2229 2.11862ZM80.6576 1.94146C80.6576 1.92669 80.6576 1.90824 80.6482 1.89347C81.1937 1.87502 81.7392 1.84549 82.2847 1.83442C82.8302 1.82335 83.3851 1.83073 83.9306 1.83073C83.8929 1.83811 83.7613 1.85656 83.5544 1.88978C83.8741 1.96729 84.0528 2.01158 84.3726 2.08909C83.0089 2.03742 81.8332 1.98944 80.6576 1.94146ZM99.6181 2.85682C98.6306 3.08566 97.6806 3.05613 97.3797 2.85682C98.1321 2.85682 98.8751 2.85682 99.6181 2.85682ZM319.375 15.8749C320.993 15.683 321.952 15.7088 322.216 15.9819C321.256 15.9487 320.325 15.9118 319.375 15.8749ZM283.777 12.8483C283.768 12.9 283.759 12.9516 283.749 12.9996C282.658 12.9369 281.567 12.8741 280.476 12.8114C280.881 12.7523 281.285 12.7413 281.68 12.756C282.075 12.7708 282.461 12.8114 282.846 12.8298C283.157 12.8483 283.467 12.8446 283.777 12.8483ZM41.1566 2.2921C41.1472 2.32901 41.1472 2.36222 41.1378 2.39913C40.2914 2.56154 39.5954 2.3327 38.8242 2.26995C38.843 2.22935 38.8524 2.18875 38.8712 2.14446C39.6424 2.19244 40.3948 2.24042 41.1566 2.2921ZM221.526 2.90112C222.325 2.90112 223.125 2.90112 224.15 2.90112C223.219 3.1115 223.219 3.1115 221.526 2.90112ZM68.6662 2.17029C69.6631 1.93407 70.124 1.95622 70.773 2.27364C70.0582 2.23673 69.4092 2.2072 68.6662 2.17029ZM291.715 10.1576C292.421 10.1576 293.06 10.1576 293.728 10.1576C293.502 10.4344 292.712 10.4344 291.715 10.1576ZM34.338 1.70892C35.2597 1.67939 35.9557 1.65725 36.7551 1.63141C36.0121 2.01896 35.2879 1.84918 34.338 1.70892ZM289.985 21.8875C289.985 21.9096 289.985 21.9318 289.985 21.9502C289.308 21.9502 288.621 21.9502 287.934 21.9502C287.963 21.9244 288.01 21.8653 288.047 21.8211C288.706 21.8432 289.345 21.8653 289.985 21.8875ZM102.317 1.66463C102.336 1.69416 102.355 1.72369 102.374 1.75322C101.396 1.80858 100.427 1.86395 99.4488 1.923C99.4394 1.90086 99.4394 1.87871 99.43 1.85656C100.389 1.79382 101.349 1.73107 102.317 1.66463ZM294.151 7.66986C293.211 7.66986 292.355 7.66986 291.32 7.66986C292.355 7.55913 293.211 7.47424 294.151 7.66986ZM99.2231 3.2739C98.5459 3.37725 98.0475 3.45845 97.5302 3.52119C97.4643 3.52857 97.3233 3.43261 97.2104 3.38463C97.3233 3.34772 97.4267 3.28128 97.549 3.27759C98.0192 3.26651 98.4895 3.2739 99.2231 3.2739ZM252.844 3.46584C252.816 3.48798 252.797 3.51382 252.769 3.53597C252.205 3.48429 251.641 3.43262 251.17 3.39202C251.264 3.30713 251.34 3.237 251.452 3.14103C251.876 3.237 252.365 3.35142 252.844 3.46584Z" fill="url(#paint0_linear_6249_14333)"/>
<defs>
<linearGradient id="paint0_linear_6249_14333" x1="330.416" y1="29.0038" x2="85.535" y2="-127.952" gradientUnits="userSpaceOnUse">
<stop stop-color="#533CA3"/>
<stop offset="0.294518" stop-color="#BF5AB8"/>
<stop offset="0.682384" stop-color="#ED641F"/>
<stop offset="1" stop-color="#FFE322"/>
</linearGradient>
</defs>
</svg>
