<svg width="32" height="32" viewBox="0 0 32 32" fill="none" xmlns="http://www.w3.org/2000/svg">
<g opacity="0.7">
<path d="M29.8666 7.39942C28.8458 7.85276 27.7493 8.15782 26.5984 8.29542C27.7738 7.59142 28.6752 6.47676 29.0997 5.14769C28.001 5.79942 26.7829 6.27302 25.4858 6.52902C24.448 5.42289 22.9696 4.73169 21.3333 4.73169C18.1909 4.73169 15.6437 7.27996 15.6437 10.4213C15.6437 10.8672 15.6949 11.3024 15.7909 11.7173C11.0624 11.4805 6.87037 9.21489 4.0629 5.77169C3.57437 6.61222 3.29383 7.58929 3.29383 8.63356C3.29383 10.6069 4.29757 12.3488 5.82397 13.3685C4.8917 13.3386 4.01383 13.0826 3.2469 12.657C3.2469 12.6816 3.2469 12.704 3.2469 12.7285C3.2469 15.4858 5.20743 17.7856 7.81117 18.3072C7.33437 18.4373 6.8309 18.5066 6.31143 18.5066C5.94557 18.5066 5.58823 18.4704 5.24157 18.4053C5.96583 20.6656 8.06717 22.3114 10.5568 22.3573C8.6101 23.8837 6.15677 24.7936 3.4901 24.7936C3.03143 24.7936 2.5781 24.7669 2.13223 24.7136C4.65063 26.3274 7.6405 27.2693 10.8544 27.2693C21.3205 27.2693 27.0421 18.5994 27.0421 11.0805C27.0421 10.8341 27.0368 10.5888 27.0261 10.3445C28.1386 9.54129 29.104 8.53969 29.8666 7.39942Z" fill="black"/>
</g>
</svg>
