<svg width="32" height="32" viewBox="0 0 32 32" fill="none" xmlns="http://www.w3.org/2000/svg">
<g opacity="0.7" clip-path="url(#clip0_6249_14163)">
<path d="M16 4C9.37601 4 4 9.37601 4 16C4 22.624 9.37601 28 16 28H20.8C21.4628 28 22 27.4628 22 26.8C22 26.1373 21.4628 25.6 20.8 25.6H16C10.792 25.6 6.4 21.208 6.4 16C6.4 10.792 10.792 6.4 16 6.4C21.208 6.4 25.6 10.792 25.6 16V17.716C25.6 18.664 24.748 19.6 23.8 19.6C22.852 19.6 22 18.664 22 17.716V16C22 12.688 19.312 10 16 10C12.688 10 10 12.688 10 16C10 19.312 12.688 22 16 22C17.656 22 19.168 21.328 20.248 20.236C21.028 21.304 22.372 22 23.8 22C26.164 22 28 20.08 28 17.716V16C28 9.37601 22.624 4 16 4ZM16 19.6C14.008 19.6 12.4 17.992 12.4 16C12.4 14.008 14.008 12.4 16 12.4C17.992 12.4 19.6 14.008 19.6 16C19.6 17.992 17.992 19.6 16 19.6Z" fill="black" stroke="black" stroke-width="0.900002"/>
</g>
<defs>
<clipPath id="clip0_6249_14163">
<rect width="32" height="32" fill="white"/>
</clipPath>
</defs>
</svg>
