<svg width="57" height="56" viewBox="0 0 57 56" fill="none" xmlns="http://www.w3.org/2000/svg">
<path opacity="0.6" d="M41.036 19.1944L44.2151 32.4665C44.5636 33.9212 43.4609 35.3193 41.965 35.3193H13.2929C10.5616 35.3193 8.12093 33.6137 7.18202 31.0489L6.9216 30.3375C6.78343 29.96 7.06284 29.5602 7.46478 29.5602H26.1899C26.4116 29.5602 26.5914 29.3804 26.5914 29.1587C26.5914 27.4956 25.2432 26.1474 23.5801 26.1474H9.9353C7.20401 26.1474 4.76336 24.4418 3.82445 21.877L3.59006 21.2367C3.45188 20.8592 3.7313 20.4594 4.13324 20.4594H21.9239C22.1456 20.4594 22.3254 20.2796 22.3254 20.0579C22.3254 18.3948 20.9772 17.0466 19.3141 17.0466H6.60376C3.87246 17.0466 1.43182 15.341 0.492904 12.7762L0.284542 12.207C0.146369 11.8295 0.425783 11.4297 0.827726 11.4297H31.1918C35.874 11.4297 39.9453 14.6409 41.036 19.1944Z" fill="black"/>
<path d="M52.2925 23.1447L56.7511 42.2926C57.0889 43.7436 55.9874 45.131 54.4976 45.131H24.5923C21.7599 45.131 19.2527 43.2989 18.3923 40.6004L18.0893 39.65C17.9109 39.0903 18.3285 38.5187 18.916 38.5187H46.2237C47.7218 38.5187 48.825 37.1166 48.4725 35.6605L44.4837 19.1849C44.3515 18.6388 44.7652 18.113 45.327 18.113H45.9546C48.98 18.113 51.6064 20.1981 52.2925 23.1447Z" fill="black"/>
</svg>
