<svg width="52" height="52" viewBox="0 0 52 52" fill="none" xmlns="http://www.w3.org/2000/svg">
<path fill-rule="evenodd" clip-rule="evenodd" d="M12 6C12 9.31371 9.31371 12 6 12C2.68629 12 0 9.31371 0 6C0 2.68629 2.68629 0 6 0C9.31371 0 12 2.68629 12 6ZM6 32C9.31371 32 12 29.3137 12 26C12 22.6863 9.31371 20 6 20C2.68629 20 0 22.6863 0 26C0 29.3137 2.68629 32 6 32ZM6 52C9.31371 52 12 49.3137 12 46C12 42.6863 9.31371 40 6 40C2.68629 40 0 42.6863 0 46C0 49.3137 2.68629 52 6 52ZM26 52C29.3137 52 32 49.3137 32 46C32 42.6863 29.3137 40 26 40C22.6863 40 20 42.6863 20 46C20 49.3137 22.6863 52 26 52ZM32 26C32 29.3137 29.3137 32 26 32C22.6863 32 20 29.3137 20 26C20 22.6863 22.6863 20 26 20C29.3137 20 32 22.6863 32 26ZM46 52C49.3137 52 52 49.3137 52 46C52 42.6863 49.3137 40 46 40C42.6863 40 40 42.6863 40 46C40 49.3137 42.6863 52 46 52ZM52 6C52 9.31371 49.3137 12 46 12C42.6863 12 40 9.31371 40 6C40 2.68629 42.6863 0 46 0C49.3137 0 52 2.68629 52 6ZM46 32C49.3137 32 52 29.3137 52 26C52 22.6863 49.3137 20 46 20C42.6863 20 40 22.6863 40 26C40 29.3137 42.6863 32 46 32Z" fill="url(#paint0_linear_6285_12016)"/>
<defs>
<linearGradient id="paint0_linear_6285_12016" x1="18" y1="-8.5" x2="46.5" y2="52" gradientUnits="userSpaceOnUse">
<stop stop-color="#BA85FF"/>
<stop offset="1" stop-color="#6533E4"/>
</linearGradient>
</defs>
</svg>
