<svg width="44" height="44" viewBox="0 0 44 44" fill="none" xmlns="http://www.w3.org/2000/svg">
<circle cx="22" cy="22" r="22" fill="black"/>
<path d="M13.6383 27.2121C13.7907 27.0596 14.0004 26.9707 14.2227 26.9707H34.3848C34.7532 26.9707 34.9374 27.4153 34.677 27.6758L30.6941 31.6586C30.5417 31.8111 30.332 31.9 30.1097 31.9H9.94762C9.57919 31.9 9.39498 31.4554 9.65542 31.1949L13.6383 27.2121Z" fill="url(#paint0_linear_6249_14229)"/>
<path d="M13.6382 12.3414C13.797 12.1889 14.0066 12.1 14.2226 12.1H34.3847C34.7531 12.1 34.9373 12.5447 34.6769 12.8051L30.694 16.788C30.5415 16.9404 30.3319 17.0294 30.1096 17.0294H9.9475C9.57907 17.0294 9.39486 16.5847 9.6553 16.3243L13.6382 12.3414Z" fill="url(#paint1_linear_6249_14229)"/>
<path d="M30.6941 19.7291C30.5417 19.5766 30.332 19.4877 30.1097 19.4877H9.94762C9.57919 19.4877 9.39498 19.9324 9.65542 20.1928L13.6383 24.1757C13.7907 24.3281 14.0004 24.4171 14.2227 24.4171H34.3848C34.7532 24.4171 34.9374 23.9724 34.677 23.712L30.6941 19.7291Z" fill="url(#paint2_linear_6249_14229)"/>
<defs>
<linearGradient id="paint0_linear_6249_14229" x1="-36.0364" y1="8.35956" x2="-36.5728" y2="35.3533" gradientUnits="userSpaceOnUse">
<stop stop-color="#00FFA3"/>
<stop offset="1" stop-color="#DC1FFF"/>
</linearGradient>
<linearGradient id="paint1_linear_6249_14229" x1="-42.1378" y1="5.17413" x2="-42.6743" y2="32.1678" gradientUnits="userSpaceOnUse">
<stop stop-color="#00FFA3"/>
<stop offset="1" stop-color="#DC1FFF"/>
</linearGradient>
<linearGradient id="paint2_linear_6249_14229" x1="-39.1065" y1="6.75671" x2="-39.6429" y2="33.7504" gradientUnits="userSpaceOnUse">
<stop stop-color="#00FFA3"/>
<stop offset="1" stop-color="#DC1FFF"/>
</linearGradient>
</defs>
</svg>
