<svg width="52" height="52" viewBox="0 0 52 52" fill="none" xmlns="http://www.w3.org/2000/svg">
<path fill-rule="evenodd" clip-rule="evenodd" d="M32.24 7.24C32.24 10.6863 29.4463 13.48 26 13.48C22.5537 13.48 19.76 10.6863 19.76 7.24C19.76 3.79374 22.5537 1 26 1C29.4463 1 32.24 3.79374 32.24 7.24ZM15.6 31.16C19.0463 31.16 21.84 28.3663 21.84 24.92C21.84 21.4737 19.0463 18.68 15.6 18.68C12.1537 18.68 9.36 21.4737 9.36 24.92C9.36 28.3663 12.1537 31.16 15.6 31.16ZM6.24 48.84C9.68626 48.84 12.48 46.0463 12.48 42.6C12.48 39.1537 9.68626 36.36 6.24 36.36C2.79374 36.36 0 39.1537 0 42.6C0 46.0463 2.79374 48.84 6.24 48.84ZM26 48.84C29.4463 48.84 32.24 46.0463 32.24 42.6C32.24 39.1537 29.4463 36.36 26 36.36C22.5537 36.36 19.76 39.1537 19.76 42.6C19.76 46.0463 22.5537 48.84 26 48.84ZM42.64 24.92C42.64 28.3663 39.8463 31.16 36.4 31.16C32.9537 31.16 30.16 28.3663 30.16 24.92C30.16 21.4737 32.9537 18.68 36.4 18.68C39.8463 18.68 42.64 21.4737 42.64 24.92ZM45.76 48.84C49.2063 48.84 52 46.0463 52 42.6C52 39.1537 49.2063 36.36 45.76 36.36C42.3137 36.36 39.52 39.1537 39.52 42.6C39.52 46.0463 42.3137 48.84 45.76 48.84Z" fill="url(#paint0_linear_6285_12017)"/>
<defs>
<linearGradient id="paint0_linear_6285_12017" x1="13.5417" y1="1" x2="33.2845" y2="50.0504" gradientUnits="userSpaceOnUse">
<stop stop-color="#BA85FF"/>
<stop offset="1" stop-color="#6533E4"/>
</linearGradient>
</defs>
</svg>
