<svg width="44" height="44" viewBox="0 0 44 44" fill="none" xmlns="http://www.w3.org/2000/svg">
<circle cx="22" cy="22" r="22" fill="black"/>
<path d="M28.6522 12.1247L24.0557 18.9459C23.7379 19.4104 24.3491 19.9728 24.7892 19.5816L29.3123 15.6453C29.4345 15.5475 29.6057 15.6209 29.6057 15.792V28.0898C29.6057 28.261 29.3856 28.3343 29.2878 28.2121L15.5964 11.8313C15.1563 11.2934 14.5207 11 13.8116 11H13.3227C12.0513 11 11 12.0513 11 13.3471V30.657C11 31.9528 12.0513 33.0041 13.3471 33.0041C14.1539 33.0041 14.9118 32.5884 15.3519 31.8794L19.9483 25.0582C20.2662 24.5936 19.6549 24.0313 19.2149 24.4225L14.6918 28.3343C14.5695 28.4321 14.3984 28.3588 14.3984 28.1876V15.9142C14.3984 15.7431 14.6184 15.6698 14.7162 15.792L28.4077 32.1728C28.8477 32.7107 29.5079 33.0041 30.1924 33.0041H30.6814C31.9772 33.0041 33.0285 31.9528 33.0285 30.657V13.3471C33.0285 12.0513 31.9772 11 30.6814 11C29.8502 11 29.0922 11.4156 28.6522 12.1247Z" fill="white"/>
</svg>
