<svg width="44" height="44" viewBox="0 0 44 44" fill="none" xmlns="http://www.w3.org/2000/svg">
<circle cx="22" cy="22" r="22" fill="#EDF0F4"/>
<path d="M28.601 17.5815C28.1319 17.3117 27.5287 17.3117 26.9926 17.5815L23.2398 19.8076L20.6932 21.2243L17.0074 23.4504C16.5383 23.7202 15.9352 23.7202 15.3991 23.4504L12.5174 21.6965C12.0483 21.4266 11.7132 20.887 11.7132 20.2799V16.907C11.7132 16.3673 11.9813 15.8276 12.5174 15.4903L15.3991 13.8039C15.8682 13.5341 16.4713 13.5341 17.0074 13.8039L19.8891 15.5578C20.3582 15.8276 20.6932 16.3673 20.6932 16.9744V19.2005L23.2398 17.7164V15.4229C23.2398 14.8832 22.9717 14.3435 22.4356 14.0063L17.0744 10.8357C16.6053 10.5659 16.0022 10.5659 15.4661 10.8357L9.97086 14.0737C9.43475 14.3435 9.16669 14.8832 9.16669 15.4229V21.7639C9.16669 22.3036 9.43475 22.8433 9.97086 23.1805L15.3991 26.3511C15.8682 26.6209 16.4713 26.6209 17.0074 26.3511L20.6932 24.1924L23.2398 22.7083L26.9256 20.5497C27.3947 20.2799 27.9978 20.2799 28.534 20.5497L31.4156 22.2361C31.8847 22.506 32.2198 23.0456 32.2198 23.6527V27.0256C32.2198 27.5653 31.9517 28.105 31.4156 28.4423L28.601 30.1287C28.1319 30.3985 27.5287 30.3985 26.9926 30.1287L24.111 28.4423C23.6419 28.1724 23.3068 27.6328 23.3068 27.0256V24.867L20.7602 26.3511V28.5772C20.7602 29.1168 21.0283 29.6565 21.5644 29.9938L26.9926 33.1643C27.4617 33.4342 28.0649 33.4342 28.601 33.1643L34.0292 29.9938C34.4983 29.724 34.8334 29.1843 34.8334 28.5772V22.1687C34.8334 21.629 34.5653 21.0893 34.0292 20.7521L28.601 17.5815Z" fill="#8247E5"/>
</svg>
