<svg width="45" height="44" viewBox="0 0 45 44" fill="none" xmlns="http://www.w3.org/2000/svg">
<path d="M43.4416 27.3219C40.5034 39.1077 28.5663 46.2804 16.779 43.3414C4.99674 40.4031 -2.17588 28.4652 0.763665 16.6803C3.70063 4.89322 15.6378 -2.27994 27.4213 0.658315C39.2077 3.59657 46.3799 15.5358 43.4413 27.3221L43.4415 27.3219H43.4416Z" fill="#F3BA2F"/>
<path fill-rule="evenodd" clip-rule="evenodd" d="M22.1058 13.9627L16.409 19.6595L16.4091 19.6592L13.0946 16.3446L22.1058 7.33337L31.1199 16.3473L27.8052 19.6619L22.1058 13.9627ZM10.7532 18.6848L7.43842 22L10.753 25.3141L14.0677 21.9993L10.7532 18.6848ZM16.4074 24.341L22.1042 30.0374L27.8035 24.3383L31.12 27.6512L31.1183 27.6529L22.1042 36.6667L13.093 27.6555L13.0883 27.6508L16.4074 24.341ZM33.4564 18.6866L30.1416 22.0014L33.4563 25.316L36.771 22.0012L33.4564 18.6866Z" fill="white"/>
<path d="M25.467 21.9982H25.4684L22.1052 18.6347L19.6192 21.1199L19.3336 21.4056L18.7446 21.9947L18.7399 21.9993L18.7446 22.0041L22.1052 25.3651L25.4686 22.0017L25.4703 21.9998L25.4672 21.9982" fill="white"/>
</svg>
