<svg width="44" height="44" viewBox="0 0 44 44" fill="none" xmlns="http://www.w3.org/2000/svg">
<circle cx="22" cy="22" r="22" fill="#E84142"/>
<path fill-rule="evenodd" clip-rule="evenodd" d="M23.3171 6.53074C22.5549 5.2142 21.3423 5.2142 20.5801 6.53074L6.73912 30.904C5.97692 32.2378 6.60054 33.2945 8.12495 33.2945H15.0714C16.4746 33.2079 17.7391 32.463 18.5013 31.2851L26.8683 16.7859C27.4746 15.5386 27.4746 14.0662 26.8683 12.8189L24.3738 8.43625L23.3171 6.53074ZM32.5157 22.5717C31.7535 21.2551 30.5236 21.2551 29.7614 22.5717L24.9283 30.904C24.1834 32.2205 24.8071 33.2945 26.3142 33.2945H35.8764C37.4008 33.2945 38.0244 32.2205 37.2622 30.904L32.5157 22.5717Z" fill="white"/>
</svg>
