<svg width="44" height="44" viewBox="0 0 44 44" fill="none" xmlns="http://www.w3.org/2000/svg">
<circle cx="22" cy="22" r="22" fill="#EDF0F4"/>
<path d="M22 9.16669C20.9875 9.16669 20.1666 9.9875 20.1666 11V18.3334C20.1666 18.8196 20.3598 19.2859 20.7036 19.6297C21.0474 19.9735 21.5137 20.1667 22 20.1667C22.4862 20.1667 22.9525 19.9735 23.2963 19.6297C23.6402 19.2859 23.8333 18.8196 23.8333 18.3334V11C23.8333 9.9875 23.0125 9.16669 22 9.16669ZM18.3333 13.0751C15.1754 13.8927 12.8333 16.7576 12.8333 20.1667V23.8334C12.8333 27.2424 15.1754 30.1073 18.3333 30.925V26.9898C17.2425 26.3536 16.5 25.1845 16.5 23.8334V20.1667C16.5 18.8155 17.2425 17.6464 18.3333 17.0103V13.0751ZM25.6666 13.0751V17.0103C26.7575 17.6464 27.5 18.8155 27.5 20.1667V23.8334C27.5 25.1845 26.7575 26.3536 25.6666 26.9898V30.925C28.8246 30.1073 31.1666 27.2434 31.1666 23.8334V20.1667C31.1666 16.7576 28.8246 13.8927 25.6666 13.0751ZM22 23.8334C21.5137 23.8334 21.0474 24.0265 20.7036 24.3703C20.3598 24.7141 20.1666 25.1805 20.1666 25.6667V33C20.1666 34.0125 20.9875 34.8334 22 34.8334C23.0125 34.8334 23.8333 34.0125 23.8333 33V25.6667C23.8333 25.1805 23.6402 24.7141 23.2963 24.3703C22.9525 24.0265 22.4862 23.8334 22 23.8334Z" fill="#998728"/>
</svg>
