<svg width="24" height="24" viewBox="0 0 24 24" fill="none" xmlns="http://www.w3.org/2000/svg">
<path d="M0 4.64444C0 3.18396 1.18396 2 2.64444 2L14 2C19.5228 2 24 6.51606 24 12.0389C24 17.5189 19.5576 22 14.0775 22H8.44686C7.17256 22 6.13953 20.967 6.13953 19.6927C6.13953 18.4237 7.16425 17.3929 8.43319 17.3854L14.5036 17.3494C15.2491 17.345 15.8512 16.7394 15.8512 15.9939C15.8512 15.2453 15.2443 14.6384 14.4956 14.6384H4.52651C3.25243 14.6384 2.21957 13.6055 2.21957 12.3314C2.21957 11.0624 3.24458 10.0316 4.51361 10.0245L11.1802 9.98723C11.9116 9.98314 12.5023 9.38909 12.5023 8.6577C12.5023 7.9258 11.9108 7.33153 11.1789 7.32817L2.63227 7.28885C1.17655 7.28215 0 6.10017 0 4.64444Z" fill="url(#paint0_linear_6285_12028)"/>
<defs>
<linearGradient id="paint0_linear_6285_12028" x1="12" y1="2" x2="12" y2="22" gradientUnits="userSpaceOnUse">
<stop stop-color="#FFD601"/>
<stop offset="1" stop-color="#FFB901"/>
</linearGradient>
</defs>
</svg>
