<svg width="344" height="25" viewBox="0 0 344 25" fill="none" xmlns="http://www.w3.org/2000/svg">
<path d="M331.911 15.4697C332.453 15.5294 332.976 15.6017 333.528 15.6425C334.169 15.6896 334.829 15.7053 335.549 15.6833C335.086 15.6174 334.612 15.5514 334.041 15.4697C335.017 15.4697 335.914 15.4697 336.624 15.4697C336.801 15.3472 336.92 15.2656 337.068 15.1619C336.16 15.0928 335.273 15.0269 334.386 14.9609C334.415 14.9169 334.435 14.8698 334.465 14.8258C335.115 14.8604 335.756 14.8981 336.594 14.9421C336.289 14.8792 336.131 14.8447 335.934 14.807C337.432 14.5494 336.653 14.3264 335.687 14.0783C336.91 14.2416 337.955 14.3829 338.98 14.5243C338.98 14.3924 338.98 14.295 338.98 14.1442C338.616 14.0877 338.063 14.0029 337.501 13.9181C337.531 13.8898 337.561 13.8615 337.59 13.8333C338.596 13.9338 339.601 14.0343 340.607 14.1348C340.637 14.1128 340.656 14.0908 340.686 14.0688C339.72 13.9495 338.754 13.8301 337.787 13.7139C337.817 13.6825 337.837 13.6511 337.866 13.6197C338.783 13.7076 339.71 13.7956 340.627 13.8804C340.656 13.8521 340.676 13.8238 340.706 13.7956C339.868 13.7013 339.03 13.604 338.063 13.494C338.27 13.4186 338.507 13.3307 338.793 13.227C338.793 13.1862 338.793 13.1108 338.793 13.0323C339.296 13.0543 339.799 13.0763 340.361 13.1014C340.43 13.0731 340.568 13.0103 340.706 12.9475L340.696 12.9538C340.449 12.58 339.651 12.6082 338.625 12.6554C339.148 12.7402 339.493 12.7998 340.025 12.8878C339.168 12.8752 338.379 12.982 338.339 12.58C338.33 12.5172 337.866 12.4638 337.541 12.3884C337.521 12.3601 337.472 12.2753 337.442 12.2187C338.566 12.2407 339.878 12.2659 341.189 12.291C341.199 12.269 341.209 12.2502 341.219 12.2282C340.676 12.1905 340.144 12.1528 339.601 12.1151C339.601 12.09 339.592 12.0648 339.592 12.0366C340.016 12.0209 340.449 12.0083 340.972 11.9895C340.518 11.9298 340.144 11.8795 339.68 11.8198C339.907 11.7633 340.065 11.7193 340.213 11.6816C339.986 11.6188 339.73 11.5434 339.375 11.4398C340.104 11.4649 340.676 11.4837 341.406 11.5089C341.199 11.4146 341.12 11.3769 340.923 11.2827C341.642 11.2827 342.234 11.2827 342.826 11.2827C342.826 11.2544 342.826 11.2262 342.826 11.1979C342.274 11.1822 341.721 11.1665 341.159 11.1508C341.159 11.1288 341.149 11.1068 341.149 11.0848C341.997 11.0566 342.845 11.0314 343.792 11C343.555 10.9309 343.358 10.8712 343.072 10.7864C343.427 10.7958 343.654 10.8021 343.891 10.8053C343.25 10.6639 342.826 10.3215 341.603 10.5697C341.919 10.5948 342.165 10.6137 342.402 10.6325C342.333 10.6576 342.264 10.6796 342.195 10.7048C340.952 10.7079 340.065 10.4723 339.266 10.1802C339.306 10.1582 339.355 10.1362 339.394 10.1174C339.572 10.1614 339.73 10.2116 339.917 10.2493C340.134 10.2933 340.361 10.3278 340.578 10.3718C340.824 10.4158 341.061 10.466 341.357 10.5226C341.416 10.4064 341.485 10.2713 341.603 10.0357C341.889 10.1331 342.037 10.2305 342.244 10.243C342.697 10.2776 343.309 10.331 343.614 10.2587C343.91 10.1928 343.95 9.97289 343.999 9.81584C344.019 9.75616 343.752 9.68391 343.467 9.63679C343.496 9.69961 343.526 9.76244 343.565 9.83468C343.21 9.82212 342.895 9.8127 342.5 9.80013C342.5 9.63366 342.5 9.46404 342.5 9.29756C342.372 9.21275 342.224 9.10282 342.027 9.00545C341.84 8.91121 341.593 8.83268 341.376 8.74473C341.406 8.8264 341.426 8.90807 341.455 8.9866C341.288 9.06513 341.11 9.14365 340.952 9.21276C340.538 9.14994 340.203 9.09653 339.749 9.02743C339.621 9.09967 339.483 9.17192 339.335 9.25358C337.196 8.8264 334.869 8.773 332.601 8.61909C332.887 8.61909 333.183 8.61909 333.469 8.61909C333.488 8.59396 333.518 8.56569 333.538 8.54057C332.966 8.37095 331.96 8.62223 331.408 8.44005C331.438 8.41492 331.457 8.38979 331.487 8.36467C331.881 8.35838 332.276 8.34896 332.66 8.34268C332.69 8.2453 332.709 8.18248 332.719 8.11652C332.374 8.36152 331.773 8.15735 331.29 8.19505C330.609 8.25159 329.83 8.16363 329.091 8.14479C328.913 8.13851 328.568 8.15736 328.568 8.16678C328.549 8.37723 328.144 8.27986 327.868 8.27672C327.178 8.26729 326.478 8.25472 325.788 8.24216C325.748 8.24216 325.699 8.22332 325.66 8.21076C325.748 8.16364 325.837 8.11652 325.946 8.06313C325.758 8.038 325.63 8.02229 325.502 8.00345C325.788 7.92806 326.094 7.89351 326.35 7.91235C327.158 7.97203 327.77 7.83696 328.302 7.67363C328.687 7.55427 328.618 7.53228 329.042 7.60767C329.318 7.65793 329.584 7.70504 329.554 7.52914C329.14 7.46946 328.726 7.40979 328.302 7.34697C328.322 7.32184 328.332 7.29357 328.351 7.26844C328.894 7.26844 329.426 7.26844 330.057 7.26844C329.821 7.39094 329.673 7.46318 329.525 7.53857C329.88 7.60767 330.235 7.67677 330.639 7.7553C330.816 7.66421 330.994 7.56684 331.191 7.46633C330.905 7.43492 330.688 7.40979 330.471 7.3878C330.481 7.37209 330.491 7.35638 330.501 7.34068C330.856 7.34068 331.201 7.34068 331.566 7.34068C331.536 7.37837 331.497 7.41292 331.467 7.44747C332.355 7.50401 333.222 7.56055 334.1 7.61395C334.09 7.64536 334.08 7.67677 334.08 7.70818C333.814 7.70818 333.538 7.69248 333.301 7.71446C333.143 7.73017 333.035 7.80241 332.907 7.84953C333.538 7.95632 332.917 8.03172 332.848 8.12281C332.976 8.20762 333.104 8.28928 333.331 8.44005C333.419 8.31127 333.498 8.22646 333.528 8.13851C333.567 8.03485 333.577 7.9312 333.597 7.81812C334.06 7.83383 334.386 7.8464 334.701 7.85896C334.691 7.88095 334.691 7.90293 334.681 7.92492C334.396 7.94691 334.11 7.96889 333.784 7.99088C334.455 8.06626 335.046 8.13223 335.549 8.19191C335.658 8.12909 335.736 8.08197 335.825 8.03172C335.944 8.06941 336.141 8.09768 336.17 8.14165C336.259 8.27358 336.289 8.41179 336.348 8.5657C335.776 8.55313 335.273 8.54371 334.77 8.53429C334.898 8.67563 335.618 8.76986 336.298 8.67877C336.545 8.64736 336.673 8.50287 336.979 8.34268C337.275 8.39922 337.718 8.48717 338.162 8.57512C338.162 8.52487 338.162 8.48088 338.162 8.50915C338.783 8.54999 339.404 8.59083 340.045 8.63166C340.035 8.63794 339.986 8.68192 339.937 8.72275C340.134 8.67249 340.331 8.62223 340.597 8.55627C340.696 8.57197 340.893 8.60025 341.09 8.63166C340.893 8.54371 340.706 8.45576 340.41 8.31755C340.795 8.33012 341.071 8.33954 341.337 8.34582C341.475 8.01601 341.238 7.74588 340.183 7.62024C340.361 7.61395 340.528 7.60767 340.785 7.59825C340.558 7.52286 340.39 7.46632 340.213 7.41293C341.337 7.3501 342.451 7.29042 343.683 7.22132C343.437 7.10824 343.348 7.06426 343.181 6.98574C343.447 6.99202 343.614 6.99516 343.772 7.00145C343.812 6.97946 343.841 6.95748 343.881 6.93549C343.457 6.86324 343.052 6.74073 342.619 6.73131C341.662 6.70618 341.386 6.53657 341.435 6.24759C341.445 6.18163 341.435 6.11567 341.435 6.0717C340.548 5.84554 339.71 5.6288 338.872 5.41207C338.882 5.39951 338.882 5.3838 338.892 5.37123C339.187 5.40893 339.473 5.44348 339.769 5.48117C339.809 5.34297 339.838 5.21418 339.878 5.06655C339.592 5.08854 339.316 5.11053 338.931 5.1388C339.178 5.04143 339.335 4.9786 339.611 4.86866C339.247 4.88751 339.01 4.90322 338.763 4.91264C338.606 4.91892 338.31 4.92834 338.3 4.91578C338.044 4.58911 337.077 4.70219 336.397 4.5577C336.673 4.52629 336.851 4.50744 336.88 4.50744C336.535 4.3975 336.18 4.28757 335.825 4.17449C335.253 3.98917 334.514 3.98289 333.922 4.08968C333.045 4.24674 332.433 4.03 331.576 4.00801C331.931 3.94519 332.157 3.90436 332.601 3.82269C331.783 3.87295 331.231 3.9075 330.747 3.93577C330.491 3.80384 330.274 3.70019 330.037 3.57769C330.254 3.51173 330.511 3.43319 330.777 3.35467C330.185 3.35781 329.732 3.42692 329.653 3.60596C329.298 3.64365 329.012 3.67506 328.726 3.70648C328.746 3.7316 328.766 3.75987 328.775 3.785C328.066 3.68763 327.356 3.59026 326.656 3.48974C326.665 3.46461 326.665 3.43948 326.675 3.41749C327.513 3.41749 328.361 3.41749 329.199 3.41749C329.199 3.40493 329.19 3.38922 329.19 3.37666C328.164 3.34525 327.139 3.31383 326.113 3.28556C326.192 3.23217 326.281 3.20704 326.37 3.21018C327.336 3.22903 328.312 3.24473 329.278 3.27614C329.771 3.29185 330.254 3.33582 330.747 3.36723C330.885 3.41749 331.014 3.46775 331.152 3.51801C331.201 3.50544 331.25 3.48974 331.3 3.47717C331.191 3.42692 331.083 3.37352 330.974 3.32326C332.443 3.19134 333.804 3.36409 333.853 3.70019C334.139 3.66564 334.425 3.63109 334.889 3.57455C334.573 3.52743 334.376 3.49917 334.129 3.46147C334.326 3.40179 334.524 3.34839 334.75 3.28243C334.376 3.26044 334.06 3.24474 333.745 3.22589C333.686 3.2573 333.607 3.32326 333.557 3.32012C333.104 3.29185 332.66 3.24787 332.207 3.21646C331.674 3.17877 331.142 3.1505 330.609 3.11595C330.629 3.07826 330.649 3.04056 330.669 3.00287C331.625 3.05627 332.591 3.10967 333.548 3.15992C333.202 3.07826 332.877 2.9432 332.493 2.92121C331.319 2.85525 330.136 2.82697 328.953 2.79556C328.45 2.78299 327.967 2.9746 327.415 2.80185C327.198 2.73274 326.823 2.72332 326.399 2.67306C326.182 2.68877 325.758 2.72332 325.334 2.75787C325.226 2.6071 325.127 2.4846 325.039 2.35896C324.999 2.35896 324.96 2.3621 324.92 2.3621C324.891 2.45947 324.861 2.55998 324.831 2.69191C324.043 2.6228 323.353 2.58511 322.544 2.70133C321.913 2.79242 321.016 2.65736 320.257 2.55684C320.907 2.56941 321.558 2.57883 322.209 2.59139C322.219 2.56626 322.238 2.53799 322.248 2.51286C321.686 2.46261 321.124 2.38723 320.552 2.36838C318.156 2.29613 315.76 2.24902 313.365 2.17363C312.329 2.14222 311.314 2.05113 310.288 2.01658C309.726 1.99773 309.154 2.05428 308.583 2.05742C307.468 2.06056 306.354 2.0637 305.24 2.04485C304.037 2.02286 302.834 1.9726 301.621 1.93805C299.797 1.8878 297.973 1.84068 296.11 1.79042C296.169 1.74331 296.238 1.68991 296.297 1.64279C296.218 1.62081 296.169 1.60196 296.13 1.60196C295.311 1.66478 294.591 1.77472 293.635 1.66478C292.689 1.55485 291.574 1.62394 290.539 1.59881C289.366 1.57054 288.192 1.50459 287.019 1.48574C285.037 1.45747 283.055 1.45119 281.074 1.43862C280.374 1.43548 279.683 1.43234 278.983 1.43548C278.697 1.43548 278.412 1.44804 278.135 1.50144C279.703 1.53913 281.281 1.57996 282.848 1.61766C282.848 1.63965 282.848 1.66164 282.848 1.68048C281.922 1.68048 280.995 1.68048 280.058 1.68048C280.048 1.70561 280.029 1.73074 280.019 1.75587C280.768 1.79984 281.517 1.85952 282.277 1.8878C283.539 1.93491 284.801 1.97889 286.063 1.99773C286.99 2.0103 287.916 1.97574 288.843 1.96318C288.981 1.96004 289.139 1.94747 289.247 1.96318C290.47 2.15164 291.791 2.13279 293.083 2.17991C293.152 2.18305 293.211 2.20818 293.251 2.2176C293.014 2.26786 292.758 2.31812 292.511 2.37152C292.56 2.40293 292.61 2.43434 292.649 2.46575C288.153 2.41549 283.667 2.36523 279.171 2.31497C279.171 2.28985 279.171 2.26472 279.171 2.23959C281.084 2.23959 282.996 2.23959 284.899 2.23959C279.121 2.01344 273.334 2.01657 267.556 2.18619C267.556 2.21132 267.546 2.23645 267.546 2.25844C269.774 2.25844 272.003 2.25844 274.231 2.25844C274.231 2.29299 274.221 2.32755 274.221 2.3621C272.653 2.3621 271.076 2.37152 269.508 2.35895C268.246 2.34639 266.984 2.30556 265.722 2.28043C265.042 2.26786 264.361 2.25216 263.681 2.24901C261.847 2.23645 260.023 2.23331 258.189 2.21447C257.962 2.21133 257.745 2.13279 257.39 2.06055C258.583 2.11709 259.55 2.16107 260.506 2.20504C260.506 2.19248 260.516 2.17677 260.516 2.16421C260.092 2.12652 259.678 2.08568 259.254 2.04799C259.283 2.01658 259.313 1.98202 259.343 1.95061C259.658 1.96946 259.964 2.00401 260.279 2.00087C261.009 1.99459 261.739 1.96632 262.537 1.94748C262.537 1.81555 262.537 1.6742 262.537 1.49202C263.375 1.57368 264.194 1.65535 265.022 1.73702C265.022 1.75901 265.012 1.78099 265.012 1.80298C264.42 1.80298 263.819 1.80298 263.227 1.80298C263.218 1.83125 263.198 1.85638 263.188 1.88465C263.474 1.9192 263.76 1.98517 264.046 1.98517C265.712 1.98203 267.378 1.9726 269.035 1.94433C270.395 1.9192 271.746 1.8501 273.107 1.82811C273.955 1.81241 274.793 1.79042 275.641 1.9726C276.016 2.05113 276.844 1.87523 277.465 1.81555C277.455 1.78728 277.445 1.76215 277.435 1.73389C277.287 1.70876 277.14 1.68362 276.933 1.64593C277.149 1.58939 277.307 1.54542 277.573 1.47632C277.317 1.44805 277.149 1.43233 276.834 1.40092C277.209 1.30669 277.504 1.23131 277.761 1.16535C277.583 1.14022 277.287 1.09938 276.982 1.05855C277.002 1.03342 277.011 1.00515 277.031 0.980023C277.919 0.980023 278.796 0.980023 279.683 0.980023C279.683 1.00515 279.693 1.03029 279.693 1.05542C279.309 1.08683 278.914 1.12138 278.53 1.15279C280.354 1.31298 282.188 1.37266 284.032 1.16221C283.775 1.14965 283.529 1.14022 283.272 1.12765C283.509 0.989446 283.509 0.989454 285.826 1.05542C285.589 1.06484 285.343 1.07112 285.106 1.08054C284.88 1.08996 284.653 1.10253 284.426 1.11195C284.436 1.14022 284.436 1.16849 284.446 1.19676C285.629 1.19676 286.802 1.19676 288.094 1.19676C287.887 1.14964 287.749 1.12138 287.542 1.07426C287.739 1.02086 287.897 0.976888 288.045 0.936054C288.045 0.910924 288.054 0.885789 288.054 0.860662C287.118 0.838674 286.181 0.813554 285.294 0.791568C285.333 0.76958 285.442 0.716176 285.619 0.628227C285.136 0.665918 284.761 0.694194 284.495 0.713041C284.387 0.782144 284.308 0.882653 284.209 0.885795C283.539 0.895219 282.74 0.964326 282.198 0.870094C280.719 0.609386 279.348 0.914062 277.928 0.892074C276.361 0.863805 274.793 0.866946 273.225 0.854382C272.18 0.844958 271.066 0.753869 270.1 0.84496C269.36 0.914063 268.828 0.895218 268.078 0.807269C268.364 0.741305 268.562 0.700469 268.759 0.656493C268.749 0.634507 268.739 0.612525 268.739 0.593678C267.033 0.643935 265.328 0.691052 263.543 0.741309C263.819 0.788424 264.105 0.838681 264.381 0.888939C264.332 0.914067 264.292 0.945473 264.273 0.942332C263.149 0.866946 261.975 0.838679 260.92 0.700472C259.984 0.577971 259.057 0.540272 258.09 0.527708C258.002 0.527708 257.913 0.565401 257.745 0.606236C258.071 0.625082 258.307 0.640795 258.534 0.653359C258.534 0.675346 258.544 0.697327 258.544 0.716173C257.528 0.731878 256.473 0.816692 255.497 0.75073C253.338 0.606241 251.248 0.731882 249.128 0.807268C248.329 0.835537 247.353 0.986307 246.663 0.659637C246.574 0.618803 246.16 0.609384 246.032 0.643936C245.243 0.857528 244.523 0.574827 243.754 0.618801C243.399 0.637647 243.005 0.577974 242.63 0.555986C242.611 0.587396 242.601 0.618802 242.581 0.650215C243.301 0.716176 244.02 0.78214 244.74 0.848102C244.74 0.860666 244.74 0.873231 244.74 0.888938C244.415 0.888938 244.09 0.898357 243.764 0.885793C243.419 0.873229 243.084 0.844961 242.729 0.857524C244.77 1.25016 246.988 0.94861 249.128 1.06797C248.694 1.07739 248.26 1.08368 247.826 1.09938C247.412 1.11509 246.998 1.14336 246.584 1.16534C246.594 1.18733 246.594 1.21246 246.604 1.23445C248.457 1.26586 250.311 1.29413 252.165 1.32554C252.165 1.35381 252.165 1.38522 252.165 1.41349C251.997 1.4292 251.829 1.44491 251.662 1.45747C251.652 1.47946 251.642 1.50145 251.622 1.52657C251.938 1.53914 252.263 1.55484 252.579 1.56112C252.963 1.5674 253.348 1.56112 253.762 1.61766C252.983 1.64907 252.214 1.69304 251.435 1.70875C250.331 1.7276 249.217 1.74645 248.112 1.72132C247.777 1.71504 246.762 1.8501 247.176 1.4606C247.195 1.4449 246.909 1.36324 246.791 1.36638C246.466 1.3758 245.854 1.42291 245.854 1.44176C245.884 1.61766 245.588 1.54228 245.371 1.53599C244.77 1.52029 244.178 1.50145 243.577 1.4983C243.389 1.4983 243.192 1.54228 242.946 1.57369C244.277 1.6208 245.509 1.66478 246.742 1.70875C246.732 1.74016 246.722 1.76843 246.722 1.79984C244.937 1.74959 243.104 1.85952 241.378 1.52028C241.782 1.52028 242.187 1.52028 242.581 1.52028C241.812 1.40092 241.112 1.27529 240.215 1.3758C239.327 1.47317 238.361 1.51714 237.434 1.37265C237.257 1.34438 237.03 1.35067 236.635 1.33182C237.02 1.41977 237.247 1.47317 237.464 1.52343C237.434 1.53599 237.395 1.54855 237.365 1.56112C236.665 1.49516 235.916 1.34439 235.295 1.39464C234.772 1.43548 234.299 1.4292 233.825 1.41978C232.692 1.39779 231.568 1.33496 230.444 1.31297C229.221 1.28784 227.988 1.30041 226.766 1.27843C226.194 1.269 225.642 1.22817 225.119 1.34125C225.05 1.35696 224.892 1.3224 224.597 1.29099C224.991 1.25016 225.188 1.23131 225.395 1.20932C225.385 1.18419 225.385 1.1622 225.376 1.13707C221.599 1.38208 217.823 1.27215 214.037 1.29099C214.037 1.25644 214.027 1.22188 214.027 1.18733C214.569 1.18733 215.102 1.18733 215.743 1.18733C214.806 0.82925 213.889 1.2156 213.002 1.12137C213.14 1.15278 213.287 1.18419 213.425 1.2156C213.416 1.24387 213.416 1.269 213.406 1.29727C210.961 1.24073 208.505 1.18419 206.06 1.12765C206.07 1.11509 206.09 1.10252 206.1 1.08996C205.863 1.12451 205.626 1.18419 205.38 1.18733C204.473 1.1999 203.566 1.1999 202.659 1.19048C201.751 1.18105 200.844 1.13393 199.947 1.14964C198.725 1.16849 197.522 1.24702 196.299 1.27215C195.806 1.28157 195.244 1.25644 194.81 1.18105C193.834 1.01143 192.927 1.04598 191.754 1.19675C192.168 1.23759 192.345 1.25644 192.533 1.27215C192.523 1.28785 192.513 1.30355 192.503 1.31612C192.079 1.29727 191.655 1.27528 191.142 1.25016C191.33 1.19362 191.438 1.1622 191.547 1.13079C191.399 1.0931 191.251 1.02086 191.113 1.02714C190.511 1.04913 189.91 1.11195 189.308 1.11823C188.993 1.12137 188.677 1.02086 188.342 0.99573C187.139 0.90778 185.936 0.829247 184.724 0.753861C184.29 0.725592 183.846 0.716168 183.412 0.684758C183.304 0.675336 183.235 0.606236 183.284 0.631365C182.732 0.631365 182.318 0.643927 181.923 0.628222C181.322 0.603093 180.73 0.537135 180.129 0.524571C179.892 0.518288 179.646 0.606236 179.488 0.709893C179.922 0.709893 180.356 0.709893 180.79 0.709893C180.79 0.725598 180.799 0.738156 180.799 0.753861C180.573 0.769568 180.346 0.785273 180.06 0.80412C180.642 0.901494 181.164 0.986304 181.677 1.07111C181.657 1.10566 181.637 1.14335 181.618 1.17791C180.642 1.17791 179.675 1.17791 178.768 1.17791C178.827 1.18733 178.975 1.20617 179.222 1.24387C177.95 1.20617 176.777 1.15592 175.613 1.14022C175.012 1.13079 174.4 1.20304 173.809 1.19362C172.754 1.17477 171.778 1.35066 170.742 1.31297C169.658 1.27214 168.583 1.18419 167.489 1.13079C166.562 1.08368 165.625 1.05541 164.698 1.01457C163.2 0.948612 161.711 0.876365 160.192 0.747583C160.547 0.731878 160.912 0.713029 161.267 0.697324C161.277 0.678478 161.287 0.659633 161.287 0.640787C160.094 0.606235 158.891 0.571678 157.658 0.537126C157.718 0.508857 157.826 0.464887 157.915 0.424053C157.52 0.326681 157.126 0.232444 156.732 0.13507C156.801 0.109943 156.87 0.0879568 157.106 7.0894e-06C155.933 0.059688 154.947 0.113088 153.813 0.169627C154.276 0.219884 154.602 0.254438 154.927 0.288989C154.937 0.307836 154.947 0.329824 154.967 0.34867C154.138 0.408351 153.31 0.471168 152.482 0.530849C152.433 0.499437 152.393 0.46803 152.344 0.43662C152.64 0.364375 152.936 0.292125 153.29 0.204175C152.995 0.175905 152.659 0.122508 152.305 0.116225C151.851 0.106801 151.388 0.138217 150.934 0.150783C151.299 0.219886 151.693 0.295266 152.058 0.361228C151.447 0.763284 150.599 0.490016 149.859 0.483733C149.504 0.480592 149.159 0.44604 148.794 0.424052C148.617 0.153922 146.182 0.119368 145.284 0.433474C146.832 0.182191 148.173 0.496297 149.603 0.59053C147.542 0.634503 145.462 0.587384 143.411 0.675334C143.411 0.703603 143.421 0.731875 143.421 0.757005C144.752 0.757005 146.083 0.757005 147.404 0.757005C147.404 0.77271 147.414 0.785279 147.414 0.800984C147.227 0.816689 147.039 0.832387 146.852 0.851233C146.842 0.876361 146.832 0.901496 146.822 0.926625C147.68 1.10252 148.735 0.844951 149.721 1.08681C149.406 0.882644 149.021 0.7413 149.869 0.738158C150.264 0.738158 150.658 0.725593 151.042 0.706746C151.959 0.659631 152.344 0.80726 152.275 1.13707C151.683 1.1622 151.023 1.19047 150.362 1.21874C153.685 1.25957 156.889 1.55484 160.153 1.75273C158.822 2.00401 157.372 1.8124 155.992 1.86266C154.641 1.91291 153.251 1.82811 151.743 1.79984C152.314 1.69619 152.798 1.60824 153.29 1.51715C153.261 1.48574 153.231 1.45118 153.202 1.41977C151.476 1.92863 149.445 1.77157 147.483 1.79984C147.473 1.62394 148.479 1.83125 148.134 1.56112L148.154 1.5674C147.601 1.61765 147.049 1.66791 146.428 1.72445C146.527 1.75586 146.606 1.78099 146.684 1.80612C146.004 1.64592 145.136 2.1108 144.515 1.72759C144.486 1.71189 144.338 1.69618 144.288 1.70875C143.46 1.87522 142.563 1.79669 141.695 1.79355C140.729 1.79355 139.763 1.76529 138.787 1.76215C137.042 1.75272 135.296 1.75586 133.551 1.74644C133.206 1.7433 132.812 1.81869 132.536 1.63336C132.457 1.57682 131.717 1.59253 131.343 1.63964C130.514 1.7433 129.795 1.63964 129.065 1.54541C128.513 1.79356 127.842 1.63022 127.221 1.63022C127.211 1.60509 127.201 1.57682 127.201 1.55169C127.832 1.55169 128.454 1.55169 129.085 1.55169C129.607 1.53913 130.13 1.52657 130.652 1.51715C130.859 1.514 131.086 1.52656 131.283 1.51086C131.412 1.49829 131.5 1.4449 131.609 1.40721C131.49 1.3758 131.392 1.32239 131.264 1.31297C130.919 1.28156 130.406 1.36951 130.386 1.14336C130.386 1.13708 130.288 1.12451 130.238 1.12765C129.538 1.13079 128.789 1.19362 128.158 1.12451C126.965 0.989447 125.821 1.24073 124.618 1.10567C124.145 1.05227 123.465 1.21874 122.834 1.29099C124.608 1.3224 126.334 1.35381 128.049 1.38522C128.049 1.41349 128.049 1.44176 128.049 1.46689C126.59 1.46689 125.141 1.46375 123.681 1.46689C122.686 1.47003 121.7 1.48258 120.704 1.48887C118.032 1.50457 115.36 1.51714 112.698 1.53599C111.514 1.54227 110.341 1.55798 109.158 1.56426C108.941 1.56426 108.724 1.55483 108.261 1.54227C108.764 1.42605 109.079 1.3538 109.345 1.29412C108.862 1.24701 108.369 1.18733 107.866 1.1622C107.659 1.15278 107.423 1.25643 107.206 1.25643C106.486 1.25015 105.766 1.22816 105.046 1.19675C104.652 1.1779 104.268 1.09309 103.893 1.09938C102.542 1.12137 101.191 1.18419 99.8306 1.19989C99.0024 1.20932 98.1643 1.17162 97.3459 1.12765C96.9712 1.1088 96.5966 0.961175 96.2614 0.97688C95.7191 1.00201 95.2162 1.11509 94.8908 1.1622C94.388 1.09938 94.0231 1.01771 93.6485 1.01457C91.6469 0.992585 89.6454 0.986296 87.6438 0.980015C86.224 0.976874 84.8042 0.980015 83.552 0.980015C83.5915 0.976873 83.8084 0.961172 84.114 0.936045C83.552 0.901493 83.0985 0.866941 82.6351 0.848095C82.5463 0.844954 82.4379 0.888924 82.3393 0.910912C82.4182 0.936039 82.497 0.961176 82.7238 1.03656C81.1068 0.989445 79.6476 0.945463 78.1883 0.901487C78.1784 0.882641 78.1686 0.866941 78.1587 0.848095C78.7306 0.83239 79.3024 0.816687 79.8447 0.800981C79.6968 0.7413 79.4898 0.659626 79.263 0.568537C78.0009 0.826103 76.7192 1.00829 75.2106 0.898353C75.2501 0.785274 75.2993 0.665907 75.3487 0.546547C75.2993 0.537122 75.2501 0.530845 75.2008 0.521421C75.0036 0.650205 74.7965 0.778991 74.5993 0.907776C73.9092 0.907776 73.0908 0.895204 72.2724 0.910911C71.247 0.932897 70.2216 0.983159 69.1961 1.01457C67.8848 1.05855 66.5931 1.0554 65.3409 0.873218C65.1043 0.838666 64.7494 0.898349 64.4437 0.914054C64.4437 0.939183 64.4437 0.964307 64.4536 0.989436C64.7888 1.00828 65.1142 1.02714 65.4494 1.04598C65.4494 1.05855 65.4395 1.07424 65.4395 1.08681C64.8184 1.06482 64.1676 1.07739 63.5859 1.01143C62.1661 0.84809 60.7561 0.8795 59.3068 1.04912C59.849 1.06796 60.3914 1.08682 60.9238 1.10566C60.9238 1.13393 60.9336 1.15905 60.9336 1.18733C59.1786 1.18733 57.4334 1.18733 55.6783 1.18733C55.6685 1.2313 55.6586 1.27213 55.6586 1.31611C56.1615 1.34124 56.6841 1.41034 57.1573 1.38521C58.1729 1.32867 59.1194 1.27213 60.1448 1.40406C60.6181 1.46374 61.2787 1.35694 61.8604 1.32553C61.9985 1.31925 62.1365 1.32239 62.2746 1.32239C63.2901 1.32239 64.3057 1.28784 65.3114 1.32868C67.0368 1.39464 68.7032 1.2313 70.4188 1.24701C71.1582 1.25329 71.9076 1.14964 72.657 1.13393C73.5443 1.11195 74.4416 1.12765 75.3782 1.12765C74.7078 1.47944 74.3726 1.51714 73.1401 1.37265C73.6528 1.31611 74.0472 1.27528 74.4416 1.23131C74.4317 1.21874 74.4218 1.20931 74.4218 1.19675C73.6823 1.23444 72.9429 1.27214 72.2034 1.30983C72.2034 1.3381 72.2034 1.36322 72.2034 1.39149C72.7062 1.43861 73.219 1.48573 73.8894 1.54855C71.8287 1.54855 69.9455 1.54855 68.0524 1.54855C68.0524 1.73073 67.589 1.60823 67.2439 1.58938C66.8889 1.57053 66.5439 1.55169 66.1889 1.54227C65.9326 1.53599 65.6861 1.54227 65.4691 1.54227C64.9269 1.58938 64.1874 1.73073 63.9014 1.65848C63.4183 1.53598 63.0831 1.63335 62.7084 1.63649C61.4562 1.64906 60.2139 1.66477 58.9715 1.69932C57.2165 1.74958 55.4713 1.81868 53.7261 1.87522C52.8091 1.90663 51.9119 1.92234 51.3006 1.61137C51.2217 1.56739 50.9456 1.5674 50.64 1.53599C50.8963 1.63964 51.0738 1.7056 51.409 1.83753C50.9555 1.8658 50.6301 1.90978 50.3047 1.90035C48.668 1.86266 47.0313 1.81553 45.3946 1.76528C44.7833 1.74643 44.1818 1.70874 43.5804 1.6899C42.4563 1.65849 41.3323 1.63336 40.1689 1.66477C40.3956 1.70247 40.6323 1.73701 40.9774 1.79355C40.6914 1.98829 40.4055 2.18304 40.1097 2.37465C40.7309 2.34952 41.1943 2.12336 41.914 2.20189C42.0422 2.21445 42.2296 2.1642 42.4859 2.12651C42.1014 2.06683 41.845 2.02913 41.5887 1.9883C44.4776 1.78727 47.2581 2.22074 50.1076 1.95689C50.1076 1.98516 50.1076 2.01028 50.1076 2.03855C49.0624 2.07624 48.0173 2.1108 46.9721 2.14849C46.982 2.17676 46.9919 2.20189 47.0017 2.23016C47.1989 2.22074 47.3961 2.20189 47.5834 2.20503C47.8398 2.21132 48.0961 2.23644 48.3624 2.25528C51.9809 2.25528 55.5995 2.25528 59.2082 2.25528C57.5123 2.32439 55.8065 2.33382 54.1008 2.34952C53.1641 2.3558 52.2373 2.38407 51.3006 2.36837C50.3245 2.35266 49.3484 2.29298 48.3722 2.25215C48.2342 2.25215 48.0666 2.2333 47.9581 2.25215C46.9623 2.42805 45.9861 2.42176 44.941 2.27727C44.6551 2.23958 44.1917 2.35894 43.8071 2.4092C43.1367 2.45004 42.3676 2.43119 41.6281 2.45632C41.0957 2.47516 40.583 2.55997 40.0505 2.6008C39.8238 2.61651 39.3899 2.65734 39.6759 2.47516C38.9265 2.40292 38.9265 2.40292 37.4673 2.62279C37.1321 2.54427 36.8954 2.45318 36.6095 2.42805C35.9587 2.37465 35.2883 2.33067 34.6277 2.32439C34.1248 2.31811 33.5431 2.44375 33.1092 2.39349C32.2909 2.3024 31.5218 2.40606 30.7429 2.38093C30.102 2.35895 29.4709 2.30554 28.8202 2.30554C29.8949 2.66676 31.2852 2.32754 32.4289 2.51914C31.8767 2.72959 31.788 2.73273 31.1964 2.59138C30.4471 2.67305 29.8949 2.75471 29.3231 2.78612C26.6215 2.93689 23.9199 3.08138 21.2183 3.20702C20.1436 3.25728 19.0492 3.24472 17.9646 3.26985C17.3138 3.28555 16.6631 3.31697 15.7757 3.35152C16.3081 3.41748 16.6236 3.45517 16.9786 3.50228C16.0025 3.68132 15.1151 3.88549 14.1488 4.00171C13.2122 4.11479 12.1769 4.1462 11.1909 4.20274C10.3922 4.24986 9.58371 4.28441 8.80481 4.38807C10.0274 4.36294 11.25 4.33466 12.66 4.3064C12.4135 4.36608 12.3248 4.38806 12.2065 4.41633C12.8177 4.4446 13.6164 4.40063 13.9516 4.51371C14.7404 4.77756 15.4207 4.54826 16.1701 4.5514C15.6179 4.89691 14.484 4.82468 13.8136 4.79641C12.7389 4.74929 11.6543 4.765 10.5894 4.71788C10.195 4.69904 9.80066 4.68333 9.40625 4.66448C9.38654 4.70846 9.37668 4.74929 9.35693 4.79327C10.0373 4.82468 10.7176 4.84667 11.3881 4.89378C11.7825 4.92205 12.1473 4.99116 12.5417 5.03199C12.66 5.04455 12.8177 5.01942 12.9558 5.01942C13.8037 5.01314 14.7108 4.91577 15.401 5.24558C14.2672 5.24558 13.1727 5.27384 12.1078 5.23929C11.0331 5.20474 9.97812 5.10737 9.02173 5.04455C8.89353 4.89064 8.75549 4.73359 8.54843 4.4823C7.69064 4.9566 6.56662 4.80269 5.39331 4.8498C5.46234 4.72102 5.40317 4.58595 5.58066 4.52627C6.07364 4.34723 5.78772 4.30954 5.30457 4.27185C5.13696 4.25928 4.98905 4.22473 4.88059 4.20902C4.52564 4.33467 4.14111 4.46973 3.73688 4.61108C3.78616 4.6205 3.98337 4.66762 4.04251 4.68018C4.47635 4.60794 4.82141 4.5514 5.344 4.46659C5.21582 4.66134 5.14679 4.76185 5.06793 4.88121C4.37775 4.90949 3.66785 4.94403 2.95795 4.96602C2.19873 4.99115 1.9621 5.14506 2.40579 5.39006C2.14945 5.36808 1.95224 5.34923 1.75504 5.33353C1.72546 5.34295 1.70572 5.35238 1.67615 5.36494C1.92264 5.4309 2.13956 5.51571 2.41562 5.55654C2.79031 5.61308 3.20444 5.66019 3.60867 5.67276C4.52567 5.70417 5.45245 5.71046 6.36942 5.72616C6.94129 5.73558 7.52304 5.73872 8.10477 5.75129C9.77106 5.79212 11.4374 5.83296 13.0938 5.88322C14.415 5.92091 15.7461 5.97744 17.0673 6.01828C17.7082 6.04027 18.3491 6.04969 18.99 6.12822C17.8758 6.14706 16.7518 6.16591 15.6771 6.18475C15.5686 6.21931 15.4503 6.28841 15.3024 6.29784C14.3164 6.35124 13.3107 6.37322 12.3346 6.43918C11.5557 6.49258 10.8162 6.59623 10.0472 6.67161C9.10062 6.76271 8.1442 6.84438 7.18781 6.92605C7.13852 6.92919 7.06949 6.92605 7.02017 6.91663C6.47788 6.79413 5.93561 6.67162 5.29471 6.52713C4.58481 6.6088 3.87488 6.74386 3.68756 7.06739C4.03265 7.16791 4.37775 7.26213 4.71298 7.35951L4.70313 7.35637C5.29471 7.39407 5.88629 7.43176 6.43845 7.46631C6.20181 7.52285 5.86658 7.60452 5.46234 7.70189C5.64969 7.79298 5.82712 7.88093 6.05389 7.98459C5.81726 8.02228 5.56091 8.06311 5.31442 8.10395C6.11307 8.12594 6.88214 8.14792 7.64136 8.16991C7.64136 8.19818 7.64133 8.22959 7.65118 8.25786C7.43427 8.26414 7.20752 8.27357 6.9906 8.27985C6.03418 8.30183 5.08765 8.32068 4.13126 8.34581C3.51996 8.36151 2.89877 8.36465 2.31705 8.41491C1.60715 8.47773 0.92682 8.58766 7.12325e-07 8.70388C0.936677 8.93318 1.63672 9.1028 2.24802 9.25357C1.59729 9.42319 0.936677 9.59909 0.315522 9.75928C1.94238 9.89435 3.55939 10.0137 5.14682 10.1613C6.75397 10.3121 8.36112 10.3938 10.0176 10.4503C11.605 10.5069 13.1727 10.4001 14.7306 10.466C14.7404 10.5006 14.7404 10.5351 14.7503 10.5697C11.4275 10.7267 8.10474 10.8806 4.91016 11.0314C4.78198 11.0817 4.65384 11.1351 4.50592 11.1916C6.51733 11.1225 8.53857 11.0974 10.619 11.2701C9.81049 11.3549 9.13019 11.4303 8.44 11.4963C8.1442 11.5246 7.75967 11.5748 7.54276 11.534C6.33984 11.3015 5.12711 11.5308 3.91434 11.5277C4.93976 11.5654 5.97504 11.6031 7.00046 11.6408C7.00046 11.6596 7.01032 11.6753 7.01032 11.6942C5.82712 11.713 4.63409 11.735 3.45093 11.7539C3.45093 11.7884 3.44107 11.823 3.44107 11.8575C4.53549 11.9109 5.62994 11.9643 6.7934 12.0209C6.62576 12.1057 6.51733 12.1622 6.40888 12.2156C7.46387 12.2407 8.46957 12.269 9.55414 12.2941C9.39639 12.3318 9.29779 12.3569 8.99213 12.4355C11.3486 12.4041 13.3995 12.5423 15.2433 13.0009C13.3107 12.9663 11.3782 12.9318 9.43585 12.9003L9.44568 12.9003C9.24847 12.9475 9.05127 12.9946 8.8541 13.0417C11.112 13.1234 13.3699 13.2019 15.6376 13.2836C15.6376 13.315 15.6278 13.3432 15.6278 13.3747C13.9122 13.494 12.1867 13.6165 10.4711 13.7359C10.481 13.7704 10.4908 13.805 10.4908 13.8395C12.4825 13.8395 14.484 13.8395 16.4757 13.8395C16.5053 13.8772 16.5448 13.9149 16.5743 13.9526C16.249 14.0248 15.9334 14.0971 15.6081 14.1693C16.1306 14.295 16.6433 14.4175 17.1561 14.54C17.1265 14.5714 17.0969 14.6028 17.0673 14.6342C14.7798 14.4081 12.4924 14.4395 10.195 14.6311C12.1867 14.6311 14.1883 14.6311 16.18 14.6311C16.18 14.6562 16.1898 14.6845 16.1898 14.7096C14.7404 14.7567 13.3009 14.807 11.7332 14.8604C13.3403 14.9263 14.8193 14.986 16.4363 15.0551C14.7996 15.5011 13.0445 15.1965 11.2796 15.3441C11.9501 15.3598 12.4529 15.3724 13.0347 15.3881C12.8966 15.4415 12.8177 15.4729 12.6994 15.52C13.1136 15.52 13.4882 15.52 13.853 15.52C13.853 15.5577 13.8432 15.5985 13.8432 15.6362C11.8515 15.5985 9.85977 15.5608 7.8681 15.5231C7.8681 15.542 7.85828 15.564 7.85828 15.5828C9.33725 15.6331 10.8261 15.6802 12.305 15.7304C12.2952 15.7399 12.2952 15.7462 12.2853 15.7493C12.2656 15.7556 12.2262 15.7524 12.2065 15.7587C12.1571 15.7713 12.1078 15.787 11.9698 15.8278C12.5614 15.8278 13.0248 15.8278 13.4882 15.8278C13.5079 15.8529 13.5276 15.8781 13.5474 15.9032C13.0544 15.9472 12.5713 16.0069 12.0684 16.032C11.3683 16.0665 10.6584 16.0791 9.9584 16.0979C9.36682 16.1137 8.7851 16.1262 8.1738 16.1828C11.8811 16.3492 15.5883 16.5126 19.2858 16.679C19.2759 16.701 19.2759 16.7199 19.2661 16.7419C16.032 16.7858 12.7882 16.8298 9.55414 16.8738C9.54428 16.8895 9.54428 16.9083 9.53442 16.924C9.88937 16.946 10.2443 16.9712 10.7472 17.0026C10.3232 17.0214 10.0472 17.034 9.55414 17.056C10.688 17.1 11.605 17.1345 12.5219 17.1722C12.5219 17.2193 12.5121 17.2664 12.5121 17.3135C11.812 17.3135 11.1021 17.3135 10.4021 17.3135C10.3824 17.3355 10.3725 17.3575 10.3528 17.3795C10.5007 17.4109 10.6486 17.4423 10.8754 17.4926C10.6387 17.568 10.4021 17.6402 10.1753 17.7125C10.3627 17.8821 10.5598 18.0643 10.7768 18.2621C10.5106 18.2464 10.2542 18.2276 9.99783 18.2119C9.98798 18.2339 9.97812 18.2559 9.97812 18.2778C11.1514 18.3344 12.3247 18.3909 13.4488 18.4443C13.5375 18.4003 13.5079 18.4161 13.4783 18.4286C13.4488 18.4412 13.4192 18.4537 13.36 18.4757C13.7643 18.4757 14.1488 18.4757 14.6221 18.4757C14.3657 18.4475 14.1883 18.4255 14.0108 18.4035C14.0206 18.3878 14.0206 18.3721 14.0305 18.3564C15.2334 18.3815 16.4363 18.4066 17.6293 18.4349C17.6293 18.4537 17.6293 18.4757 17.6293 18.4946C16.8208 18.4946 16.0025 18.4946 15.194 18.4946C15.1841 18.5071 15.1644 18.5197 15.1545 18.5323C15.47 18.5637 15.7856 18.5982 16.1996 18.6391C15.6771 18.6893 15.2433 18.7302 14.7996 18.771C14.7897 18.793 14.7798 18.815 14.7798 18.837C16.1996 18.9657 17.6096 19.0945 19.0294 19.2233C19.0196 19.261 19.0097 19.2987 18.9998 19.3364C18.5266 19.327 18.0435 19.327 17.5702 19.3113C17.0476 19.2924 16.5152 19.2767 16.0123 19.2264C15.5588 19.1825 15.1447 19.0945 14.7108 19.0286C14.6714 19.0663 14.6221 19.1039 14.5827 19.1416C15.687 19.2893 16.7814 19.4495 17.9054 19.5814C18.5759 19.6599 18.8026 19.7856 18.4576 20.0902C20.8436 20.1342 23.1804 20.1593 25.5073 20.2284C26.0595 20.2441 26.5722 20.4043 27.0947 20.4923C26.5426 20.5206 25.9806 20.552 25.32 20.5865C25.4975 20.6336 25.6256 20.6651 25.813 20.7153C22.1944 20.7153 18.6252 20.7153 15.0855 20.7153C15.1249 20.731 15.2433 20.7844 15.4799 20.8818C14.5038 20.8347 13.6953 20.797 12.66 20.7467C13.1333 21.02 13.6755 21.0577 14.2474 21.0797C14.7207 21.0985 15.263 21.0231 15.5193 21.2776C15.5982 21.3529 16.318 21.3498 16.7518 21.3781C17.2152 21.4095 17.8857 21.3058 17.866 21.6356C17.866 21.6953 18.6449 21.7644 19.0787 21.8178C19.2759 21.8429 19.6111 21.8084 19.7097 21.8492C20.3704 22.1194 21.2281 21.9592 21.9874 21.9843C23.3579 22.0314 24.7284 22.0534 26.0989 22.0848C26.0989 22.1288 26.1088 22.1759 26.1088 22.2199C25.32 22.2607 24.541 22.2984 23.6241 22.3455C24.3833 22.6031 25.1031 22.4178 25.7735 22.3926C26.2862 22.3738 26.799 22.311 27.3116 22.3047C29.0075 22.2764 30.7133 22.2607 32.4092 22.2419C32.5768 22.2387 32.8824 22.2324 32.8923 22.2419C33.0205 22.4586 33.3853 22.3078 33.6516 22.3078C35.2784 22.3078 36.9052 22.3078 38.5321 22.3078C40.0505 22.3078 41.5591 22.2984 43.0775 22.3141C45.0495 22.333 47.0313 22.3675 49.0032 22.3989C49.9399 22.4083 50.8668 22.4178 51.8035 22.4272C51.7936 22.4523 51.7936 22.4774 51.7837 22.5026C50.7188 22.5246 49.6638 22.5466 48.6779 22.5654C48.7962 22.5057 48.9047 22.446 49.023 22.3895C48.3821 22.4712 47.5933 22.4021 47.1003 22.6596C46.9721 22.7287 46.3115 22.6785 45.8974 22.6816C45.2072 22.6848 44.5072 22.6816 43.817 22.6816C43.817 22.7067 43.817 22.7319 43.817 22.757C45.7199 22.757 47.6229 22.757 49.4272 22.757C49.4765 22.7696 49.3976 22.7476 49.1216 22.6753C51.6851 22.779 54.0909 22.7413 56.5362 22.9926C55.2741 23.2753 54.0515 23.1339 52.8584 23.1402C50.7484 23.1496 48.6385 23.181 46.5284 23.1999C46.1538 23.203 45.7791 23.1873 45.4143 23.1779C44.7734 23.1622 44.1227 23.1402 43.4818 23.1339C42.131 23.1245 40.7703 23.1182 39.4195 23.1182C38.5617 23.1182 37.7138 23.1308 36.856 23.1308C35.3573 23.1276 33.8684 23.1025 32.3698 23.1151C31.0288 23.1277 29.678 23.1779 28.3371 23.2125C28.347 23.2407 28.3469 23.269 28.3568 23.2973C29.2442 23.2784 30.1217 23.2439 31.0091 23.247C32.3796 23.2564 33.7501 23.2941 35.1206 23.3161C35.5939 23.3224 36.0573 23.3098 36.5306 23.3224C37.4081 23.3507 38.2758 23.3946 39.1533 23.4229C39.5773 23.4386 40.0013 23.4323 40.4252 23.4355C41.3816 23.4449 42.338 23.4732 43.2944 23.4637C44.0832 23.4543 44.8622 23.3695 45.6411 23.3664C47.4257 23.3632 49.2103 23.4009 50.9949 23.4041C51.6851 23.4072 52.3852 23.3381 53.0655 23.3475C54.1402 23.3632 55.2149 23.4449 56.2896 23.4512C57.7292 23.4575 59.1786 23.4229 60.6181 23.3946C61.9196 23.3695 63.3296 23.2093 64.493 23.3318C65.9128 23.4794 67.2538 23.3444 68.6046 23.426C68.7229 23.4323 68.8215 23.4606 68.9398 23.4763C68.9299 23.5014 68.9201 23.5297 68.9102 23.5548C67.6974 23.5548 66.4946 23.5548 65.2818 23.5548C65.2818 23.5925 65.2818 23.6302 65.2818 23.6679C65.7748 23.6679 66.2678 23.6711 66.7608 23.6679C69.9751 23.6428 73.1894 23.6082 76.4037 23.5894C77.8531 23.58 79.3024 23.6051 80.742 23.5925C81.6392 23.5831 82.5365 23.5297 83.4337 23.5014C83.5717 23.4983 83.7196 23.5109 83.8577 23.5297C84.3901 23.5988 84.8239 23.7716 85.524 23.5925C85.8001 23.5234 86.4015 23.6177 86.8551 23.6208C87.4664 23.6208 88.0777 23.5988 88.689 23.5925C89.3003 23.5894 89.9116 23.6114 90.513 23.5925C91.2427 23.5705 91.9723 23.514 92.702 23.4763C92.8498 23.47 93.0865 23.4575 93.1555 23.4857C93.609 23.6868 94.3288 23.6585 94.881 23.6648C95.4725 23.6711 95.3641 23.7464 95.3444 23.8595C95.4035 23.8187 95.5021 23.7402 95.512 23.7433C95.9853 23.803 96.3402 23.7559 96.6262 23.6177C96.6557 23.602 96.7839 23.5988 96.8628 23.6051C97.9671 23.6679 99.0813 23.7339 100.284 23.8061C100.126 23.8532 100.077 23.8846 100.018 23.8878C99.1897 23.8972 98.3615 23.9035 97.5234 23.9129C96.7839 23.9223 96.0247 24.0197 95.3345 23.8501C95.2852 23.8752 95.2359 23.9192 95.1965 23.9192C94.3485 23.8878 93.5105 23.8532 92.4653 23.8093C91.8343 23.9632 84.8831 23.9537 84.4197 23.7904C83.7788 23.8187 83.2759 23.8407 82.7731 23.8627C82.7632 23.847 82.7534 23.8344 82.7435 23.8187C82.8914 23.7873 83.0294 23.759 83.1773 23.7276C82.7731 23.7527 82.3195 23.6491 81.9745 23.8564C81.8364 23.9412 81.0082 23.9004 80.4955 23.9035C79.6278 23.9098 78.7602 23.9066 77.8925 23.9066C77.8925 23.938 77.8925 23.9726 77.8925 24.004C79.0165 24.004 80.1405 24.004 81.2646 24.004C81.7082 24.004 82.1519 24.0134 82.5956 24.0166C83.1576 24.0197 83.7295 24.0071 84.2915 24.0229C84.8634 24.0417 85.4254 24.0951 85.9874 24.1265C86.2043 24.1391 86.4508 24.1485 86.648 24.1234C87.703 24.004 88.6791 24.0605 89.7243 24.1799C90.3257 24.249 91.0652 24.1642 91.7455 24.1485C91.9526 24.1454 92.1892 24.1139 92.3568 24.1422C93.2245 24.2804 94.1809 24.293 94.9993 24.1893C96.3698 24.0166 97.5431 24.2113 98.7953 24.3244C97.5727 24.3244 96.3402 24.315 95.1176 24.3275C93.4513 24.3432 91.7751 24.3715 90.1088 24.3935C87.1311 24.4343 84.1436 24.494 81.166 24.5129C79.7955 24.5223 78.4348 24.4532 77.0544 24.4438C80.111 24.7045 83.2168 24.783 86.5396 24.6731C86.2931 24.7233 86.1846 24.7484 86.0761 24.7673C85.9775 24.783 85.879 24.7924 85.7804 24.8395C87.6833 25.0374 89.606 24.8866 91.5089 24.8866C91.5188 24.8552 91.5188 24.827 91.5286 24.7956C90.937 24.783 90.3454 24.7736 89.7539 24.761C89.7539 24.7422 89.7539 24.7233 89.7637 24.7076C94.7922 24.6636 99.8207 24.6197 104.849 24.5757L104.83 24.5788C105.037 24.5631 105.234 24.5474 105.214 24.5506C105.766 24.5317 106.082 24.5223 106.387 24.5129C106.999 24.494 107.6 24.4563 108.211 24.4563C110.272 24.4469 112.333 24.4563 114.394 24.4438C114.798 24.4406 115.192 24.3652 115.616 24.3213C115.685 24.337 115.833 24.3998 115.981 24.3998C117.559 24.3998 119.136 24.3904 120.714 24.3872C121.976 24.3841 123.248 24.3904 124.51 24.3935L124.49 24.3998C125.752 24.293 126.994 24.2239 128.197 24.4752C128.424 24.5223 128.72 24.5537 128.996 24.5568C129.706 24.5631 130.416 24.5474 131.116 24.5411L131.135 24.5506C130.278 24.5097 129.41 24.472 128.552 24.4312C128.562 24.3872 128.562 24.3464 128.572 24.3024C129.311 24.3024 130.13 24.2333 130.771 24.3181C131.885 24.4689 132.772 24.1736 133.798 24.2804C133.798 24.2553 133.798 24.2302 133.798 24.205C133.364 24.1768 132.92 24.1454 132.309 24.1045C133.541 24.1045 134.586 24.1045 135.632 24.1045C135.632 24.1171 135.632 24.1297 135.632 24.1422C135.158 24.1516 134.685 24.1642 134.212 24.1736C134.192 24.1925 134.182 24.2145 134.162 24.2333C134.448 24.2804 134.744 24.3244 134.941 24.3558C134.784 24.4595 134.636 24.5631 134.488 24.6636L134.478 24.6542C134.793 24.6542 135.109 24.6542 135.415 24.6542C135.415 24.6448 135.415 24.6354 135.415 24.6259C135.227 24.6165 135.04 24.6071 134.754 24.5945C135.543 24.2836 136.361 24.2553 137.377 24.3621C137.88 24.4155 138.491 24.3464 139.053 24.3401C139.881 24.3307 140.719 24.337 141.547 24.3213C142.05 24.3118 142.543 24.2804 143.046 24.2616C143.036 24.2239 143.026 24.1893 143.017 24.1516C142.297 24.1736 141.577 24.1956 140.867 24.2176C140.867 24.1831 140.857 24.1485 140.857 24.1139C144.565 24.0763 148.272 23.9538 152.097 24.1045C151.9 24.1485 151.782 24.2019 151.664 24.1988C150.283 24.1799 148.903 24.1485 147.513 24.1265C147.355 24.1234 147.187 24.1705 147.02 24.1768C146.655 24.1956 146.29 24.2239 145.935 24.2176C145.225 24.2019 144.515 24.1642 143.796 24.1925C144.525 24.472 145.501 24.3087 146.329 24.4029C146.32 24.4343 146.31 24.472 146.3 24.516C146.389 24.5129 146.428 24.516 146.438 24.5129C147.197 24.1736 148.203 24.4532 149.08 24.4029C149.997 24.3495 150.973 24.4281 151.999 24.45C151.93 24.5034 151.881 24.5537 151.792 24.6322C153.014 24.6322 154.207 24.6322 155.41 24.6322C155.42 24.6102 155.44 24.5851 155.45 24.5631C154.543 24.5286 153.645 24.494 152.738 24.4595C152.748 24.4438 152.748 24.4281 152.758 24.4123C154.651 24.4123 156.554 24.4092 158.447 24.4155C159.256 24.4186 160.074 24.4186 160.863 24.4595C161.947 24.516 163.002 24.6259 164.087 24.6762C164.767 24.7076 165.467 24.6731 166.158 24.6699C166.71 24.6668 167.262 24.6699 167.834 24.6699C167.893 24.6134 167.972 24.5317 168.011 24.494C168.317 24.5506 168.642 24.6416 168.711 24.6228C169.431 24.4186 170.18 24.5034 170.93 24.5757C170.969 24.5788 170.979 24.604 171.009 24.6197C171.048 24.5945 171.078 24.5506 171.127 24.5474C171.718 24.516 172.34 24.5097 172.921 24.4626C173.72 24.3966 174.026 24.6102 174.45 24.7484C174.834 24.8741 175.14 25.072 175.682 24.8113C175.712 24.7956 175.869 24.7893 175.919 24.8018C176.915 25.0814 177.753 24.7736 178.66 24.717C179.794 24.6479 180.947 24.604 182.071 24.5506C182.17 24.6888 182.219 24.7673 182.259 24.8238C182.663 24.7704 183.008 24.7265 183.402 24.6762C183.225 24.6605 183.038 24.6416 182.712 24.6102C183.077 24.5631 183.264 24.5348 183.462 24.5097C183.738 24.472 184.073 24.3809 184.28 24.4061C184.724 24.4626 184.319 24.5443 184.26 24.6322C184.181 24.739 184.378 24.8804 184.556 24.9872C184.595 25.0092 185.059 24.9306 185.325 24.9306C186.311 24.9275 187.297 24.9369 188.283 24.9463C188.5 24.9495 188.825 25.0217 188.894 24.9934C189.762 24.6668 190.797 24.9903 191.754 24.8992C192.72 24.8081 193.775 24.8301 194.79 24.8175C196.013 24.8018 197.236 24.8018 198.458 24.7893C198.557 24.7893 198.646 24.7327 198.734 24.7045C198.695 24.6731 198.665 24.6416 198.626 24.6071C199.819 24.6479 201.012 24.6888 202.106 24.7265C201.998 24.7076 201.781 24.6731 201.574 24.6385C201.594 24.6134 201.604 24.5883 201.623 24.5631C202.008 24.5788 202.402 24.6165 202.777 24.6102C204.157 24.5882 205.538 24.5537 206.918 24.5223C207.086 24.5191 207.253 24.5254 207.421 24.5317C208.387 24.5757 208.387 24.5757 209.038 24.3527C208.801 24.3087 208.525 24.2145 208.279 24.2239C207.766 24.2396 207.036 24.2553 206.81 24.3684C206.415 24.5631 206.179 24.4249 205.853 24.3841C206.031 24.3684 206.198 24.3527 206.336 24.3401C206.129 24.2522 205.942 24.1736 205.755 24.0951C205.804 24.07 205.853 24.048 205.893 24.0229C207.658 24.1642 209.393 24.1171 211.118 23.9914C211.118 23.9663 211.118 23.9412 211.118 23.9129C210.596 23.9129 210.063 23.9129 209.541 23.9129C209.541 23.8941 209.541 23.8721 209.551 23.8532C210.408 23.8532 211.266 23.8532 212.134 23.8532C212.134 23.8689 212.144 23.8815 212.144 23.8972C211.907 23.9098 211.661 23.9192 211.424 23.9318C211.414 23.9506 211.404 23.9695 211.385 23.9883C211.69 24.0291 211.986 24.0668 212.361 24.1171C211.779 24.2333 211.355 24.4626 210.586 24.2679C210.527 24.2522 210.379 24.2679 210.28 24.2836C209.827 24.3589 209.373 24.4406 208.831 24.5349C214.145 24.5537 219.401 24.4406 224.833 24.6228C223.433 24.3213 221.865 24.5129 220.574 24.2961C220.88 24.1642 221.688 24.3935 221.757 24.0857C222.408 24.4815 223.67 24.271 224.656 24.3841C225.198 24.4469 225.79 24.4689 226.352 24.5097C226.342 24.5317 226.332 24.5568 226.312 24.5788C225.908 24.5725 225.514 24.5631 225.09 24.5537C225.514 24.7202 226.233 24.7641 226.677 24.6636C227.062 24.5757 227.081 24.5066 226.717 24.4375C226.322 24.3621 225.898 24.3087 225.484 24.205C226.283 24.205 227.081 24.205 227.781 24.205C228.452 24.2553 229.073 24.3024 229.793 24.3558C229.408 24.4752 229.142 24.5568 228.955 24.6134C230.138 24.6919 231.301 24.7673 232.455 24.8427C232.485 24.8018 232.524 24.7579 232.554 24.717C231.735 24.6354 230.907 24.5537 230.089 24.4752C230.089 24.45 230.098 24.4249 230.098 24.3966C230.7 24.3966 231.311 24.4218 231.893 24.3904C232.455 24.359 232.977 24.271 233.599 24.271C233.421 24.3056 233.244 24.3401 233.066 24.3747C233.076 24.4029 233.076 24.4343 233.086 24.4626C234.792 24.516 236.507 24.5694 238.213 24.6228C238.223 24.5851 238.243 24.5474 238.252 24.5097C237.385 24.4783 236.517 24.4438 235.65 24.4124C235.64 24.3935 235.64 24.3747 235.63 24.359C235.945 24.3464 236.261 24.337 236.576 24.3244C237.375 24.2898 238.183 24.249 238.982 24.2145C239.081 24.2113 239.189 24.2176 239.317 24.2207C239.288 24.2836 239.268 24.3338 239.229 24.4218C239.879 24.2396 240.451 24.2113 241.053 24.3652C241.141 24.3904 241.348 24.3904 241.457 24.3747C242.522 24.205 243.616 24.1862 244.75 24.2616C244.849 24.2679 244.967 24.2584 245.075 24.2459C245.105 24.2427 245.125 24.2176 245.174 24.1862C244.563 24.1454 243.961 24.1077 243.37 24.0668C243.38 24.0511 243.389 24.0386 243.399 24.0229C244.375 23.9757 245.352 23.9255 246.328 23.8784C246.338 23.8909 246.347 23.9004 246.357 23.9129C246.13 23.9381 245.894 23.9632 245.637 23.9883C246.081 24.026 246.495 24.0637 246.919 24.0982C246.909 24.1202 246.9 24.1422 246.89 24.1611C246.535 24.1768 246.19 24.1925 245.776 24.2113C246.071 24.249 246.308 24.2773 246.535 24.3087L246.505 24.2993C247.225 24.5349 248.181 24.4406 248.862 24.3809C250.035 24.2773 251.149 24.293 252.313 24.3087C252.697 24.3118 253.082 24.3087 253.466 24.2553C252.017 24.2616 250.597 23.9569 249.079 24.2898C249.049 24.1265 249.029 24.0103 248.99 23.8187C249.374 23.8878 249.631 23.9381 249.936 23.9914C250.942 23.7716 252.086 23.7339 253.141 23.9098C253.752 23.8501 254.275 23.803 254.787 23.7559C254.787 23.7464 254.797 23.737 254.797 23.7276C254.186 23.7276 253.565 23.7276 252.953 23.7276C252.944 23.7025 252.934 23.6805 252.934 23.6554C253.299 23.6271 253.663 23.5925 254.038 23.5705C254.403 23.5486 254.787 23.5423 255.251 23.5266C255.349 23.5517 255.547 23.6397 255.754 23.6397C256.69 23.6428 257.617 23.6208 258.554 23.6114C259.254 23.602 259.954 23.6082 260.644 23.5863C261.946 23.5423 263.247 23.4292 264.539 23.4386C265.673 23.448 266.747 23.3318 267.862 23.3381C269.695 23.3444 271.539 23.3507 273.373 23.3412C274.596 23.335 275.828 23.3036 277.051 23.2879C277.238 23.2847 277.426 23.3067 277.613 23.3193C277.613 23.3444 277.623 23.3695 277.623 23.3947C276.272 23.4418 274.921 23.492 273.57 23.5391C273.56 23.5517 273.56 23.5611 273.551 23.5737C275.316 23.5737 277.08 23.5737 278.974 23.5737C278.599 23.492 278.313 23.4292 277.938 23.3444C281.912 23.291 285.737 23.2627 289.563 23.3444C289.563 23.3884 289.563 23.4323 289.573 23.4795C287.897 23.4795 286.22 23.4795 284.554 23.4795C284.554 23.5014 284.564 23.5266 284.564 23.5486C286.763 23.5486 288.961 23.5486 291.19 23.5486C291.21 23.4355 291.229 23.3632 291.259 23.2093C293.872 23.2093 296.465 23.2093 299.048 23.2093C299.048 23.1905 299.048 23.1716 299.048 23.1528C297.549 23.1528 296.051 23.1591 294.552 23.1496C294.167 23.1465 293.615 23.247 293.428 23.0114C293.418 22.9989 292.886 23.024 292.619 23.0523C292.186 23.0994 291.781 23.1654 291.357 23.225C291.328 23.1936 291.298 23.1622 291.259 23.1308C291.456 23.112 291.653 23.09 291.969 23.0586C291.022 23.0271 290.204 22.9989 289.395 22.9706C289.395 22.9518 289.385 22.9329 289.385 22.9141C290.273 22.9141 291.16 22.9141 292.048 22.9141C292.057 22.8764 292.057 22.8418 292.067 22.8041C291.279 22.7853 290.49 22.7664 289.701 22.7476C289.701 22.7319 289.701 22.713 289.701 22.6973C290.628 22.6973 291.555 22.6942 292.472 22.7068C292.55 22.7068 292.61 22.8293 292.728 22.9392C292.955 22.8827 293.231 22.8136 293.517 22.7476C293.605 22.7287 293.734 22.7099 293.832 22.713C294.848 22.7696 295.834 22.735 296.839 22.6785C297.579 22.6377 298.358 22.6848 299.117 22.6848C299.403 22.6848 299.679 22.6659 299.965 22.6565C299.955 22.6282 299.955 22.6031 299.945 22.5748C296.455 22.5748 292.965 22.5748 289.484 22.5748C289.484 22.5309 289.484 22.4869 289.474 22.4429C292.491 22.4429 295.508 22.4429 298.526 22.4429C298.535 22.3989 298.535 22.3518 298.545 22.3078C297.48 22.2764 296.425 22.2482 295.361 22.2168C295.351 22.2293 295.341 22.245 295.321 22.2576C295.42 22.2764 295.528 22.2921 295.715 22.3267C295.321 22.3518 294.996 22.3707 294.542 22.3958C294.69 22.2984 294.779 22.2419 294.858 22.1885C294.227 22.1885 293.635 22.1885 293.053 22.1885C293.053 22.1634 293.053 22.1414 293.053 22.1162C293.438 22.1162 293.862 22.1476 294.207 22.1068C294.621 22.0566 294.966 21.9435 295.4 21.8461C295.459 21.8681 295.558 21.9121 295.666 21.956C295.499 21.9749 295.331 21.9906 295.173 22.0094C295.183 22.0251 295.193 22.0409 295.203 22.0566C295.804 22.0566 296.416 22.0566 297.017 22.0566C297.017 22.0409 297.027 22.022 297.027 22.0063C296.721 22 296.416 21.9937 296.1 21.9875C296.997 21.755 298.082 21.6671 299.068 21.6828C300.517 21.7048 301.927 21.5163 303.406 21.6639C303.948 21.7173 304.668 21.576 305.299 21.5257C305.289 21.5006 305.289 21.4723 305.279 21.4472C304.974 21.4472 304.678 21.4472 304.372 21.4472C304.372 21.4158 304.363 21.3875 304.363 21.3561C305.329 21.3372 306.305 21.3153 307.271 21.2964C307.281 21.3247 307.301 21.3561 307.311 21.3844C306.768 21.4158 306.226 21.4503 305.684 21.4817C306.453 21.5194 307.251 21.6262 307.823 21.3373C307.932 21.2807 308.385 21.2933 308.691 21.2933C309.391 21.287 310.101 21.2901 310.811 21.2901C310.811 21.3278 310.811 21.3655 310.811 21.4032C309.845 21.4032 308.878 21.4032 307.912 21.4032C307.912 21.4409 307.912 21.4755 307.902 21.5131C308.632 21.5131 309.352 21.51 310.081 21.5131C312.201 21.5257 314.321 21.5446 316.441 21.5509C317.22 21.554 316.806 21.7048 316.687 21.8712C317.23 21.8964 317.732 21.9183 318.235 21.9372C318.245 21.9058 318.265 21.8744 318.275 21.8398C317.88 21.8241 317.486 21.8084 316.993 21.7896C318.324 21.5257 318.64 21.5194 319.754 21.6388C320.345 21.6137 320.947 21.5917 321.538 21.5571C321.864 21.5351 322.179 21.488 322.505 21.4503L322.524 21.4535C321.745 21.4535 320.966 21.4535 320.188 21.4535C320.188 21.4095 320.188 21.3655 320.188 21.3215C320.966 21.3215 321.736 21.3215 322.514 21.3215C322.514 21.2996 322.514 21.2744 322.514 21.2524C321.312 21.1928 320.109 21.1299 318.906 21.0703C318.561 21.0891 318.196 21.1331 317.87 21.1142C317.407 21.086 316.963 21.0137 316.51 20.9572C316.362 21.02 316.224 21.0828 316.007 21.1771C315.366 21.1771 314.587 21.1771 313.808 21.1771C313.808 21.1582 313.798 21.1394 313.798 21.1205C314.38 21.1205 314.962 21.1205 315.544 21.1205C315.563 21.0891 315.583 21.0577 315.603 21.0294C315.356 20.9949 315.11 20.9603 314.922 20.9321C315.179 20.8787 315.475 20.819 315.76 20.7624C315.721 20.731 315.672 20.6996 315.632 20.6713C314.725 20.7342 313.808 20.797 312.901 20.8598C312.881 20.8347 312.872 20.8096 312.852 20.7813C313.217 20.7624 313.572 20.7467 313.936 20.7279C313.946 20.7153 313.946 20.7028 313.956 20.6902C312.97 20.5928 311.984 20.4923 310.949 20.3918C310.998 20.4452 311.038 20.4892 311.156 20.6211C310.614 20.5426 310.219 20.486 309.854 20.4358C309.707 20.6242 309.43 20.6368 308.78 20.5049C308.504 20.4483 308.001 20.4986 307.636 20.5331C307.005 20.5928 306.453 20.5363 305.851 20.4829C305.388 20.442 304.816 20.4546 304.363 20.508C303.998 20.5488 303.722 20.6902 303.741 20.4295C303.367 20.4358 302.765 20.3918 302.647 20.4546C302.144 20.7247 302.016 20.5331 301.819 20.4169C301.533 20.4766 301.247 20.5394 300.764 20.6399C300.833 20.5017 300.862 20.4452 300.902 20.3824C300.705 20.3635 300.507 20.3415 300.231 20.3133C300.468 20.2724 300.626 20.2442 300.912 20.1939C300.714 20.1279 300.586 20.084 300.478 20.0431C300.606 20.0369 300.803 20.0274 301.01 20.018C301.01 19.9992 301.02 19.9803 301.02 19.9615C300.409 19.9615 299.807 19.9615 299.196 19.9615C302.578 19.6348 305.999 19.6976 309.43 19.9081C309.44 19.861 309.45 19.817 309.46 19.7699C308.849 19.7479 308.247 19.7259 307.636 19.7008C307.626 19.6851 307.626 19.6725 307.616 19.6568C308.021 19.6474 308.435 19.616 308.829 19.6348C310.249 19.707 311.669 19.8013 313.088 19.8861C313.601 19.9175 314.124 19.9395 314.636 19.9646L314.607 19.9615C315.09 19.9929 315.573 20.0211 316.056 20.0526C316.076 20.0337 316.106 20.018 316.125 19.9992C315.524 19.8924 314.913 19.6913 314.321 19.7008C313.739 19.707 313.197 19.7353 312.645 19.6662C312.448 19.6411 312.27 19.6034 311.925 19.5437C313.887 19.5437 315.622 19.5468 317.358 19.5406C317.87 19.5374 318.393 19.4746 318.896 19.4903C320.7 19.5531 322.495 19.6379 324.299 19.7133C324.457 19.7196 324.743 19.7259 324.753 19.7102C325.078 19.3144 326.143 19.5437 326.912 19.3678C326.508 19.729 326.971 19.817 327.76 19.8515C328.499 19.8829 329.229 19.9552 329.968 20.0086C329.949 20.0431 329.939 20.0746 329.919 20.1091C328.825 20.0526 327.72 19.9929 326.626 19.9363C326.616 19.9615 326.596 19.9835 326.587 20.0086C327.868 20.1028 329.16 20.2002 330.353 20.2881C330.708 20.1688 329.564 20.0714 330.807 19.9897C329.702 19.8892 328.904 19.817 328.095 19.7447C328.095 19.729 328.085 19.7133 328.085 19.6945C328.273 19.6819 328.47 19.6631 328.657 19.6568C328.766 19.6536 328.973 19.6851 328.982 19.6819C329.239 19.3961 329.89 19.5814 330.304 19.572C331.102 19.5563 331.911 19.6065 332.631 19.3395C332.384 19.3521 332.138 19.3772 332.118 19.3647C331.664 19.0568 331.063 19.2359 330.491 19.2956C330.333 19.3113 330.166 19.3333 330.008 19.327C329.14 19.2956 328.282 19.2484 327.415 19.2265C327.04 19.217 326.665 19.2642 326.291 19.261C325.896 19.2547 325.502 19.2202 325.108 19.1982C325.117 19.1668 325.127 19.1385 325.137 19.1071C325.66 19.1071 326.182 19.1071 326.695 19.1071C326.695 19.0914 326.705 19.0788 326.705 19.0631C325.384 18.9281 324.072 18.7867 322.751 18.6642C322.278 18.6202 321.765 18.6108 321.272 18.5449C322.002 18.5197 322.741 18.4977 323.471 18.4726C323.471 18.4632 323.481 18.4506 323.481 18.4412C322.741 18.4098 322.002 18.3752 321.252 18.3438C321.351 18.193 321.489 18.0925 322.041 18.1648C322.298 18.1993 322.81 18.2056 322.909 18.1554C323.461 17.8727 324.24 17.9952 324.94 18.0046C325.275 18.0077 325.601 18.0894 326.163 18.1711C325.364 18.1711 324.822 18.1711 324.289 18.1711C324.289 18.1836 324.279 18.1962 324.279 18.2088C324.812 18.2496 325.354 18.2904 325.886 18.3313C325.877 18.3627 325.867 18.3909 325.847 18.4223C325.413 18.4035 324.979 18.3847 324.546 18.3658C324.536 18.4004 324.526 18.4381 324.526 18.4726C325.768 18.4946 327.02 18.5134 328.263 18.5354C328.263 18.5197 328.273 18.504 328.273 18.4883C327.632 18.46 327.001 18.4318 326.36 18.4035C326.36 18.3784 326.36 18.3532 326.36 18.3281C327.08 18.347 327.799 18.369 328.519 18.3878C328.726 18.3941 328.933 18.3909 329.14 18.3847C329.337 18.3815 329.525 18.3595 329.712 18.3658C330.215 18.3784 330.718 18.3909 331.211 18.4255C331.516 18.4475 331.802 18.5103 332.128 18.5574C332.266 18.4852 332.404 18.4098 332.66 18.2747C332.226 18.1742 331.704 18.0548 331.112 17.9198C331.388 17.9449 331.605 17.9638 331.94 17.992C331.822 17.8978 331.753 17.8444 331.654 17.7564C331.95 17.8098 332.177 17.8507 332.404 17.8884C332.443 17.8727 332.493 17.857 332.532 17.8413C332.286 17.7502 332.029 17.6559 331.783 17.5648C331.891 17.5303 332.049 17.4863 332.108 17.4643C331.625 17.4235 331.142 17.3732 330.649 17.3481C330.166 17.323 329.673 17.3198 329.121 17.3041C329.209 17.2319 329.278 17.1785 329.357 17.1188C328.756 17.0591 328.174 17.0026 327.592 16.9461C327.612 16.9209 327.632 16.8927 327.651 16.8675C327.977 16.8958 328.292 16.9429 328.618 16.9461C329.051 16.9492 329.475 16.9021 329.909 16.8989C330.284 16.8958 330.659 16.9272 331.171 16.9492C330.935 16.8989 330.787 16.8675 330.639 16.833C330.659 16.8047 330.669 16.7796 330.688 16.7513C331.211 16.7764 331.733 16.8016 332.256 16.8267C331.97 16.6759 331.724 16.5503 331.487 16.4215C331.546 16.4089 331.605 16.3964 331.664 16.3807C331.211 16.3618 330.757 16.3398 330.274 16.3178C330.659 16.2267 331.004 16.1011 331.418 16.0603C331.911 16.01 332.473 16.032 333.153 16.0226C332.877 15.9723 332.709 15.9409 332.433 15.8907C332.729 15.8498 332.926 15.8215 333.143 15.7933C332.591 15.6802 332.059 15.5703 331.526 15.4603C331.112 15.4321 330.698 15.4038 330.294 15.3755C330.669 15.297 330.974 15.2373 331.319 15.1651C331.329 15.1713 331.428 15.2216 331.467 15.2467C332.138 15.0771 332.266 15.4038 332.719 15.4101C332.483 15.4352 332.197 15.4509 331.911 15.4697ZM305.634 18.3627C305.96 18.3438 306.344 18.3564 306.591 18.2967C307.202 18.1459 308.425 18.1899 308.967 18.4161C308.139 18.4443 307.33 18.4004 306.482 18.4443C304.944 18.526 303.377 18.5197 301.819 18.5511C301.809 18.5229 301.809 18.4914 301.799 18.4632C302.41 18.4475 303.031 18.4318 303.643 18.4161C304.313 18.3972 304.984 18.3784 305.654 18.3595C304.875 18.3595 304.106 18.3595 303.327 18.3595C303.327 18.3187 303.337 18.2747 303.337 18.2339C304.294 18.2339 305.26 18.2339 306.404 18.2339C306.049 18.2904 305.841 18.3281 305.634 18.3627ZM162.539 1.2156C162.756 0.948608 163.318 1.09938 163.732 1.1088C164.057 1.11823 164.422 1.2156 164.669 1.18105C165.714 1.04284 166.453 1.31925 167.36 1.37265C166.443 1.41348 165.546 1.42291 164.649 1.41349C164.028 1.4072 163.417 1.38836 162.805 1.35695C162.697 1.35381 162.628 1.26586 162.539 1.2156C162.243 1.21874 161.938 1.22816 161.642 1.22502C160.952 1.2156 160.252 1.1999 159.561 1.19047C159.344 1.18733 159.128 1.19989 158.92 1.20617C158.92 1.17476 158.911 1.14336 158.911 1.11509C160.035 1.07112 161.159 1.02399 162.283 0.980018C162.293 1.00201 162.302 1.02399 162.312 1.04912C162.194 1.08681 162.085 1.12451 161.918 1.17791C162.145 1.19047 162.342 1.20303 162.539 1.2156ZM319.793 17.3858C319.566 17.4109 319.241 17.4141 319.142 17.4675C318.827 17.6308 318.176 17.6591 317.703 17.5083C317.811 17.4926 317.93 17.48 318.087 17.458C317.121 17.4361 316.224 17.4141 315.327 17.3921C315.336 17.3732 315.336 17.3512 315.346 17.3324C315.691 17.279 316.046 17.2225 316.549 17.1439C316.086 17.0686 315.859 17.034 315.534 16.9837C316.559 16.9084 316.53 16.9115 316.875 17.2162C316.944 17.2759 317.249 17.3041 317.456 17.345C317.466 17.3481 317.525 17.323 317.565 17.3104C317.466 17.2664 317.368 17.2193 317.141 17.1188C318.117 17.1188 318.916 17.1188 319.724 17.1188C319.724 17.1377 319.734 17.1534 319.734 17.1722C319.103 17.1942 318.472 17.213 317.851 17.235C317.851 17.2633 317.861 17.2884 317.861 17.3167C318.511 17.3167 319.152 17.3167 319.803 17.3167C320.03 17.2853 320.266 17.2539 320.483 17.2225C320.404 17.1722 320.335 17.1251 320.188 17.0309C321.016 17.0246 321.499 17.2319 322.337 17.1848C323.412 17.1219 324.615 17.301 325.758 17.3858C325.916 17.3984 326.044 17.4675 326.182 17.5114C326.153 17.5303 326.123 17.5491 326.084 17.568C324.91 17.4989 323.737 17.4266 322.416 17.3481C322.751 17.4486 322.958 17.5083 323.155 17.568C322.623 17.725 322.09 17.747 321.39 17.568C321.864 17.5586 322.179 17.5523 322.495 17.546C322.505 17.5177 322.505 17.4895 322.514 17.4612C322.248 17.4486 321.972 17.4141 321.716 17.4298C321.174 17.4643 320.651 17.5271 320.119 17.5774C320.099 17.5554 320.079 17.5366 320.059 17.5146C320.138 17.4989 320.227 17.4832 320.335 17.4643C320.148 17.4361 319.971 17.4109 319.793 17.3858ZM331.112 4.89693C330.501 4.8718 329.89 4.84353 329.278 4.8184C329.268 4.83097 329.268 4.84668 329.259 4.85924C329.653 4.89693 330.047 4.93149 330.442 4.96918C330.442 4.98488 330.442 5.00373 330.442 5.01944C330.106 5.04456 329.761 5.06969 329.426 5.09167C329.426 5.10738 329.426 5.12309 329.436 5.1388C330.314 5.17649 331.191 5.21418 332.069 5.24873C332.059 5.26757 332.049 5.28956 332.049 5.30841C331.753 5.3304 331.467 5.35239 330.964 5.39008C331.378 5.4372 331.576 5.45919 331.773 5.48117C331.763 5.49374 331.753 5.5063 331.743 5.51572C330.609 5.48117 329.466 5.44662 328.332 5.41207C328.332 5.3995 328.332 5.38694 328.342 5.37438C328.844 5.36181 329.337 5.34924 330.097 5.3304C328.953 5.10424 328.066 4.89693 326.882 5.02886C327.612 4.90322 328.322 4.79328 329.032 4.68962C329.446 4.63622 330.856 4.78071 331.112 4.89693C331.743 4.64879 332.295 4.9629 332.887 4.92834C332.857 4.96918 332.838 5.01316 332.828 5.032C332.512 5.00688 332.276 4.98489 332.029 4.9629C332 4.98803 331.98 5.0163 331.95 5.04143C332.266 5.07912 332.581 5.11681 332.897 5.1545C332.887 5.17335 332.867 5.19219 332.857 5.21104C332.118 5.1702 331.378 5.12937 330.639 5.08854C330.639 5.06655 330.639 5.04142 330.639 5.01944C330.954 5.01001 331.27 5.00373 331.585 4.9943C331.595 4.97546 331.595 4.95976 331.605 4.94091C331.438 4.9252 331.27 4.91264 331.112 4.89693ZM322.988 7.50087C323.313 7.53543 323.648 7.56683 323.944 7.59825C323.836 7.53228 323.727 7.46947 323.629 7.41607C324.26 7.4569 324.782 7.48831 325.315 7.52286C325.334 7.49145 325.354 7.46318 325.374 7.43177C324.792 7.36581 324.21 7.29671 323.609 7.2276C324.348 7.2276 325.009 7.19619 325.62 7.23703C326.163 7.27472 326.656 7.39094 327.178 7.47261C327.149 7.49773 327.119 7.51973 327.089 7.54485C326.646 7.5103 326.192 7.47574 325.61 7.42863C326.064 7.83696 326.892 7.57312 327.474 7.67049C325.975 7.76473 324.526 8.02543 322.948 7.77414C322.968 7.67049 322.988 7.5794 323.007 7.48831C322.564 7.48831 322.12 7.48831 321.676 7.48831C321.676 7.50715 321.676 7.526 321.676 7.54171C321.874 7.55741 322.071 7.57626 322.268 7.59197C320.819 7.78985 320.178 7.21818 318.856 7.27786C318.876 7.24645 318.896 7.21503 318.925 7.18362C319.399 7.20247 319.872 7.22132 320.424 7.24017C320.049 7.02344 320.414 7.00773 320.809 7.02029C321.45 7.036 322.09 7.06112 322.731 7.08625C322.919 7.09253 323.106 7.1208 323.284 7.13651C323.274 7.15222 323.264 7.17106 323.254 7.18677C322.741 7.20247 322.219 7.21504 321.607 7.23388C322.159 7.34696 322.574 7.42235 322.988 7.50087ZM319.655 3.40493C319.645 3.46461 319.635 3.52429 319.626 3.58397C319.517 3.57769 319.34 3.58083 319.32 3.56512C319.024 3.26986 318.324 3.28243 317.614 3.28243C317.338 3.28243 317.072 3.273 316.796 3.26986C316.559 3.26672 316.332 3.26986 316.096 3.26986C317.358 3.1348 318.571 3.12223 319.665 3.41435C320.089 3.3955 320.513 3.34839 320.937 3.35781C322.012 3.3798 323.086 3.42691 324.161 3.46461C324.171 3.4489 324.171 3.43005 324.181 3.41435C322.919 3.34524 321.657 3.27301 320.207 3.19448C320.542 3.15365 320.779 3.10025 321.006 3.10653C322.426 3.14108 323.846 3.18506 325.265 3.23217C325.443 3.23845 325.61 3.27929 325.788 3.30127C325.719 3.3264 325.65 3.35153 325.581 3.37666C325.246 3.40493 324.91 3.43634 324.565 3.46461C324.565 3.47717 324.575 3.48973 324.575 3.5023C324.861 3.518 325.147 3.53685 325.443 3.55256C325.453 3.57768 325.453 3.59968 325.463 3.6248C325.246 3.63737 325.019 3.67192 324.812 3.6625C323.096 3.58397 321.381 3.49602 319.655 3.40493ZM305.792 4.1368C303.929 4.1368 302.075 4.1368 300.212 4.1368C300.212 4.10853 300.202 4.0834 300.202 4.05513C300.862 4.02686 301.533 3.97974 302.193 3.97974C303.022 3.9766 303.85 3.99859 304.668 4.03C305.053 4.04571 305.418 4.10538 305.792 4.14308C306.147 4.06769 306.502 3.99231 306.926 3.90122C304.264 3.90122 301.641 3.90122 299.038 3.90122C299.009 3.8007 298.979 3.70019 298.93 3.54313C300.478 3.64365 302.114 3.40179 303.505 3.62795C304.146 3.6091 304.639 3.59339 305.141 3.58082C305.151 3.60281 305.161 3.62481 305.161 3.64679C304.964 3.67192 304.767 3.69705 304.57 3.72218C306.384 3.64679 307.932 4.17134 309.756 3.96403C309.076 3.94519 308.395 3.92634 307.705 3.9075C307.715 3.8541 307.735 3.79756 307.744 3.74417C309.638 3.79128 311.531 3.8384 313.424 3.88237C313.424 3.9075 313.414 3.92948 313.414 3.95461C313.148 3.96403 312.881 3.9766 312.625 3.98602C312.615 4.02058 312.605 4.05513 312.595 4.08654C313.148 4.10539 313.7 4.12423 314.252 4.14308C314.252 4.16506 314.242 4.18391 314.242 4.2059C313.769 4.2059 313.296 4.2059 312.832 4.2059C312.822 4.23417 312.822 4.26244 312.812 4.29385C314.222 4.33154 315.622 4.36923 317.032 4.40693C317.032 4.43205 317.023 4.45405 317.023 4.47917C316.786 4.48546 316.549 4.5043 316.313 4.49802C316.096 4.49174 315.879 4.46346 315.662 4.44462C315.652 4.45718 315.632 4.46975 315.622 4.48545C315.849 4.53571 316.086 4.58597 316.352 4.64879C316.037 4.72418 315.8 4.78386 315.721 4.8027C315.376 4.73674 315.159 4.68334 314.922 4.65193C314.173 4.5577 313.384 4.64879 312.625 4.61109C312.231 4.59225 311.826 4.56398 311.402 4.53571C311.225 4.56712 310.929 4.62366 310.535 4.69591C310.574 4.58911 310.584 4.55141 310.584 4.54199C310.219 4.57654 309.874 4.64565 309.588 4.62366C309.263 4.60167 308.977 4.49802 308.681 4.43206C308.642 4.45091 308.612 4.46975 308.573 4.4886C308.681 4.53885 308.799 4.58596 308.898 4.62994C307.804 4.58282 306.758 4.53571 305.713 4.4886C305.743 4.35667 305.772 4.24673 305.792 4.1368ZM312.014 17.8664C312.457 17.9292 312.448 17.9292 312.536 18.1271C312.556 18.1648 312.684 18.2025 312.793 18.2213C312.842 18.2307 312.98 18.2088 313.039 18.1899C313.394 18.0737 314.715 18.0203 315.179 18.0643C315.593 18.1051 316.056 18.0894 316.49 18.0988C316.49 18.0737 316.49 18.0486 316.5 18.0234C316.382 18.0109 316.253 17.9983 315.928 17.9606C317.792 18.0109 319.448 18.058 321.095 18.1051C321.134 18.1271 321.164 18.1491 321.203 18.1711C320.828 18.2307 320.454 18.2904 320.01 18.3627C320.276 18.4161 320.503 18.46 320.779 18.5166C320.266 18.5449 319.862 18.5668 319.271 18.5982C319.626 18.6925 319.803 18.7396 320 18.7899C318.866 19.0757 311.757 19.1228 309.046 18.8652C309.411 18.8118 309.726 18.7647 310.052 18.7145C309.953 18.5543 309.421 18.2904 308.928 18.2025C309.312 18.2119 309.549 18.2182 309.795 18.2245C309.835 18.1962 309.874 18.1679 309.923 18.1397C309.559 18.0643 309.194 17.9857 308.947 17.9355C309.332 17.8664 309.726 17.7941 310.121 17.7219C310.111 17.6999 310.101 17.6779 310.081 17.6559C308.188 17.6245 306.305 17.5931 304.412 17.5617C304.402 17.5931 304.382 17.6214 304.372 17.6528C305.723 17.6999 307.064 17.747 308.415 17.791C308.415 17.8161 308.405 17.8444 308.405 17.8695C306.561 17.8381 304.717 17.8067 302.884 17.7753C302.884 17.747 302.893 17.7188 302.893 17.6905C303.662 17.6968 303.653 17.6936 304.205 17.4894C304.284 17.458 304.441 17.4329 304.56 17.4361C305.713 17.4518 306.857 17.4737 308.011 17.4926C309.716 17.5177 311.422 17.5366 313.128 17.5648C313.256 17.568 313.374 17.612 313.503 17.6371C313.483 17.6653 313.473 17.6968 313.453 17.725C312.911 17.7156 312.369 17.6936 311.836 17.6999C311.294 17.7062 310.673 17.6622 310.19 17.857C311.501 17.992 311.895 18.1679 311.649 18.4789C311.925 18.4789 312.201 18.4789 312.339 18.4789C312.25 18.3815 312.142 18.2936 312.093 18.1993C312.024 18.0894 312.033 17.9732 312.014 17.8664ZM86.9438 1.33181C86.3128 1.34438 85.7606 1.35695 85.2184 1.36951C84.1633 1.39464 83.1182 1.41348 82.0632 1.44489C81.6097 1.45746 81.0871 1.55483 80.7223 1.50458C79.9433 1.39464 79.1841 1.43233 78.4052 1.43862C77.4192 1.44804 76.4332 1.44175 75.4374 1.44175C75.8515 1.30668 76.3642 1.17162 76.9262 1.14336C77.7347 1.10252 78.5926 1.1779 79.4011 1.13707C81.1758 1.04598 82.9309 1.24701 84.6958 1.14964C84.9028 1.13707 85.1296 1.22188 85.3662 1.24073C85.5733 1.25643 85.8001 1.25015 86.017 1.24386C86.4607 1.22816 86.9142 1.18733 87.3579 1.19047C87.8509 1.19361 88.3636 1.27842 88.827 1.25015C89.5074 1.20932 89.9018 1.29413 90.3159 1.48573C89.1524 1.48573 88.0777 1.48573 86.9537 1.48573C86.9438 1.47945 86.9438 1.41662 86.9438 1.33181ZM318.955 4.29071C320.355 4.66135 320.671 4.65821 322.268 4.31898C322.514 4.26558 323.017 4.24359 323.205 4.29385C323.638 4.41321 324.082 4.45404 324.624 4.41949C324.605 4.5043 324.585 4.56712 324.585 4.5577C325.216 4.57026 325.768 4.58283 326.33 4.59539C326.33 4.61738 326.33 4.63936 326.33 4.66135C326.103 4.70533 325.867 4.75245 325.541 4.81527C325.906 4.82783 326.153 4.83725 326.409 4.84354C325.502 4.90322 324.595 4.92206 323.688 4.95661C322.09 5.01943 320.651 4.62052 319.024 4.76187C319.004 4.76187 318.975 4.73674 318.906 4.70533C319.083 4.67078 319.251 4.63937 319.537 4.58911C319.202 4.56712 318.975 4.55456 318.758 4.53885C318.837 4.44462 318.896 4.36923 318.955 4.29071ZM115.734 24.0888C115.744 24.1265 115.744 24.1611 115.754 24.1988C115.241 24.1988 114.729 24.1925 114.216 24.1988C113.151 24.2113 112.086 24.2302 111.021 24.2427C109.75 24.2616 108.478 24.2836 107.206 24.293C105.342 24.3056 103.479 24.293 101.615 24.3181C100.698 24.3307 99.2883 24.2522 98.7559 24.0763C100.393 24.0763 101.96 24.0605 103.528 24.0825C104.662 24.0951 105.786 24.1799 106.91 24.1862C108.32 24.1925 109.72 24.1454 111.13 24.1328C112.096 24.1234 113.062 24.1296 114.029 24.1234C114.591 24.1202 115.163 24.1014 115.734 24.0888ZM152.669 1.24701C153.527 0.794696 153.843 0.75386 155.065 0.860656C155.184 0.870078 155.331 0.876363 155.45 0.863799C156.663 0.747581 157.796 0.870082 158.881 0.951749C158.506 1.3381 157.727 1.25957 156.919 1.19675C156.298 1.14964 155.647 1.10566 155.016 1.11195C154.316 1.12451 153.606 1.19047 152.669 1.24701ZM333.252 5.36181C333.873 5.50002 334.405 5.62252 334.948 5.74502C334.977 5.72303 335.017 5.70105 335.046 5.67592C334.967 5.6131 334.898 5.54713 334.819 5.48431C334.859 5.45918 334.908 5.43091 334.948 5.40578C335.598 5.47489 336.249 5.54399 337.107 5.63194C336.653 5.66963 336.417 5.69162 336.298 5.70104C336.673 5.82668 337.058 5.95862 337.482 6.09996C337.087 6.18791 336.979 6.40465 336.18 6.20676C335.727 6.09368 334.958 6.11881 334.8 5.84554C334.8 5.8424 334.75 5.83925 334.721 5.83925C334.11 5.80156 333.498 5.76072 332.897 5.72303C333.025 5.59739 333.124 5.49688 333.252 5.36181ZM268.828 1.35695C268.828 1.37266 268.828 1.38836 268.828 1.40407C267.428 1.43862 266.028 1.4983 264.618 1.4983C263.257 1.4983 261.906 1.43862 260.546 1.40407C260.546 1.39464 260.536 1.38837 260.536 1.37894C261.748 1.35067 262.961 1.32554 264.302 1.29727C263.957 1.21561 263.73 1.16221 263.503 1.10881C263.523 1.08682 263.533 1.06483 263.553 1.0397C265.101 1.0397 266.649 1.0397 268.197 1.0397C268.197 1.06483 268.207 1.08997 268.207 1.1151C267.388 1.1151 266.56 1.1151 265.742 1.1151C265.732 1.14651 265.722 1.17792 265.712 1.21247C266.757 1.25958 267.792 1.3067 268.828 1.35695ZM271.165 1.17791C271.174 1.19676 271.194 1.21247 271.204 1.23131C272.387 1.23131 273.57 1.23131 274.754 1.23131C274.675 1.33497 274.517 1.41663 274.339 1.42291C273.353 1.45746 272.358 1.47945 271.362 1.49202C270.78 1.4983 270.277 1.28157 270.425 1.07426C270.583 0.86695 270.987 1.02086 271.303 1.02715C271.52 1.03343 271.746 1.0083 271.963 1.00516C272.929 0.992593 273.896 0.980027 274.872 0.973744C274.99 0.973744 275.108 1.01144 275.227 1.03343C275.227 1.04913 275.217 1.06798 275.217 1.08368C273.866 1.11824 272.515 1.14964 271.165 1.17791ZM86.1353 23.1465C86.1353 23.1716 86.1353 23.1999 86.1353 23.225C82.5365 23.225 78.9377 23.225 75.3388 23.225C78.9278 23.0271 82.5266 23.09 86.1353 23.1465ZM291.91 16.1011C291.111 16.1419 290.312 16.1859 289.464 16.2299C289.622 16.2739 289.74 16.3084 289.878 16.3461C289.08 16.4875 286.467 16.4152 286.142 16.2582C287.995 15.8907 289.987 16.1137 291.91 16.1011ZM131.954 23.9223C131.934 23.96 131.914 23.9946 131.895 24.0323C129.203 24.0009 126.511 23.9726 123.82 23.9412C123.82 23.9129 123.82 23.8846 123.829 23.8532C123.938 23.847 124.046 23.8375 124.155 23.8375C126.156 23.825 128.158 23.8061 130.15 23.8093C130.751 23.8124 131.352 23.8846 131.954 23.9223ZM310.052 6.32612C310.042 6.29785 310.022 6.26958 310.012 6.24445C309.726 6.22874 309.43 6.21304 309.145 6.19733C310.762 5.97746 312.26 5.99002 312.595 6.16592C312.27 6.18477 311.915 6.20361 311.57 6.22246C311.58 6.24445 311.59 6.26644 311.6 6.28843C311.905 6.30413 312.201 6.31983 312.507 6.33868C312.497 6.3638 312.487 6.38893 312.487 6.4172C311.284 6.43605 310.071 6.45804 308.868 6.47688C308.859 6.44861 308.859 6.42349 308.849 6.39522C309.253 6.36695 309.647 6.34811 310.052 6.32612ZM185.079 1.00829C185.926 1.00829 186.676 1.00829 187.435 1.00829C187.445 1.0397 187.455 1.06797 187.455 1.09938C187.12 1.12451 186.784 1.16848 186.449 1.17476C185.552 1.19361 184.645 1.20304 183.747 1.19362C183.629 1.19362 183.452 1.05855 183.442 0.983163C183.442 0.926623 183.678 0.813546 183.787 0.816687C184.329 0.835534 184.871 0.882651 185.522 0.926627C185.315 0.967459 185.236 0.980017 185.079 1.00829ZM165.832 1.77157C164.077 1.82811 162.302 1.94433 160.705 1.55169C162.45 1.48259 164.107 1.73074 165.832 1.77157ZM328.125 5.58482C328.559 5.59425 329.101 5.66649 329.397 5.60367C330.235 5.42463 330.876 5.6288 331.576 5.68534C331.96 5.71361 332.305 5.79842 332.64 5.85496C331.457 6.034 330.166 5.99944 328.125 5.58482ZM168.494 1.53599C168.494 1.52657 168.494 1.51715 168.494 1.50772C171.087 1.50772 173.681 1.50772 176.284 1.50773C176.126 1.61452 176.037 1.67734 175.938 1.74958C173.503 1.68048 170.999 1.60824 168.494 1.53599ZM318.807 21.3278C318.797 21.3592 318.797 21.3875 318.787 21.4189C316.234 21.4189 313.68 21.4189 311.126 21.4189C311.126 21.3875 311.126 21.3592 311.126 21.3278C313.69 21.3278 316.253 21.3278 318.807 21.3278ZM296.711 20.4012C296.701 20.3541 296.682 20.307 296.672 20.2599C297.855 20.4546 298.772 20.1311 299.857 20.1468C299.926 20.1468 299.985 20.1813 300.044 20.2002C300.093 20.219 300.143 20.2379 300.192 20.263C300.044 20.2976 299.926 20.3258 299.709 20.373C299.975 20.4201 300.182 20.4578 300.389 20.4923C300.33 20.53 300.261 20.5677 300.202 20.6054C299.038 20.5331 297.875 20.4672 296.711 20.4012ZM339.365 6.25073C339.799 6.34496 340.213 6.4392 340.637 6.53343C340.627 6.55542 340.617 6.5774 340.607 6.59939C339.73 6.58055 338.862 6.5617 337.984 6.54285C337.994 6.51773 337.994 6.49259 338.004 6.46746C338.241 6.41721 338.477 6.36695 338.783 6.30728C338.477 6.25702 338.28 6.2256 337.866 6.1565C338.655 6.11881 339.227 5.92721 339.621 6.22875C339.532 6.23817 339.434 6.24759 339.365 6.25073ZM334.642 9.94148C334.642 9.91949 334.642 9.90065 334.652 9.87866C335.303 9.90693 335.953 9.93519 336.604 9.96032C337.176 9.98231 337.659 10.0577 337.659 10.2807C337.659 10.3938 337.403 10.5037 337.265 10.6168C337.018 10.2744 336.417 10.2713 335.677 10.3027C335.362 10.3153 335.007 10.2462 334.681 10.2148C334.691 10.1959 334.701 10.1771 334.711 10.1582C335.559 10.1802 336.407 10.199 337.255 10.221C337.265 10.1928 337.284 10.1645 337.294 10.1362C336.407 10.0703 335.52 10.0043 334.642 9.94148ZM12.3938 16.2833C12.4037 16.255 12.4036 16.2299 12.4135 16.2016C14.7306 16.2519 17.0378 16.3021 19.3548 16.3555C19.3449 16.3964 19.3351 16.434 19.3252 16.4749C17.0082 16.4089 14.701 16.3461 12.3938 16.2833ZM275.809 1.6365C275.809 1.66163 275.809 1.68677 275.799 1.7119C274.162 1.7119 272.525 1.7119 270.888 1.7119C272.515 1.54542 274.152 1.51086 275.809 1.6365ZM230.917 23.9538C230.927 23.9349 230.937 23.9161 230.946 23.8972C232.277 23.8972 233.609 23.9098 234.94 23.8909C235.58 23.8815 235.738 23.9915 235.896 24.1202C234.2 24.0637 232.563 24.0103 230.917 23.9538ZM218.533 24.2082C217.152 24.2553 215.762 24.2993 214.382 24.3464C214.372 24.3024 214.362 24.2553 214.342 24.2113C215.743 24.1548 217.143 24.0982 218.533 24.0417C218.533 24.1516 218.533 24.205 218.533 24.2082ZM196.979 24.1202C196.506 24.2239 196.26 24.2773 196.013 24.3338C196.023 24.3464 196.043 24.359 196.053 24.3715C196.279 24.3527 196.506 24.337 196.733 24.3181C196.891 24.3935 197.038 24.4626 197.305 24.5914C196.447 24.5223 195.786 24.4689 195.274 24.4281C195.136 24.3118 195.047 24.2302 194.919 24.1234C195.54 24.1202 196.151 24.1202 196.979 24.1202ZM194.652 24.1485C194.14 24.4312 192.937 24.4972 192.079 24.3495C192.434 24.3275 192.7 24.3087 192.966 24.2898C192.966 24.2773 192.957 24.2616 192.957 24.249C192.74 24.2427 192.513 24.2364 192.296 24.2302C192.296 24.2019 192.306 24.1768 192.306 24.1485C193.016 24.1485 193.735 24.1485 194.652 24.1485ZM310.17 2.72645C310.16 2.69819 310.16 2.66992 310.15 2.64165C311.481 2.64165 312.812 2.64165 314.143 2.64165C314.143 2.66992 314.143 2.69819 314.143 2.72645C312.822 2.72645 311.491 2.72645 310.17 2.72645ZM105.451 23.8532C104.366 23.7998 103.39 23.7527 102.512 23.7087C103.883 23.7087 105.352 23.7087 106.811 23.7087C106.811 23.7307 106.811 23.7527 106.801 23.7747C106.309 23.803 105.796 23.8312 105.451 23.8532ZM318.62 6.67163C317.841 6.73131 317.318 6.77529 316.786 6.81612C316.993 6.7376 317.249 6.71561 317.466 6.66849C317.644 6.6308 317.782 6.56484 318.038 6.47375C317.358 6.4549 316.776 6.43605 316.194 6.42035C316.204 6.39208 316.204 6.36381 316.214 6.33554C317.062 6.35439 317.91 6.37324 318.965 6.39522C318.59 6.47061 318.383 6.51144 318.127 6.56483C318.275 6.59939 318.383 6.62137 318.62 6.67163ZM292.984 3.91377C292.462 3.87922 292.176 3.87295 291.91 3.84154C291.722 3.81955 291.574 3.76301 291.407 3.72218C291.614 3.70647 291.831 3.67191 292.038 3.6782C292.343 3.68762 292.649 3.72531 292.945 3.75044C292.955 3.7316 292.965 3.71275 292.984 3.69076C292.876 3.67192 292.767 3.65622 292.659 3.63737C292.698 3.61224 292.748 3.58711 292.787 3.56198C293.152 3.6405 293.517 3.72218 293.891 3.80385C293.448 3.85724 293.103 3.90121 292.984 3.91377ZM36.2743 2.56311C36.2644 2.59452 36.2545 2.62907 36.2446 2.66048C35.1502 2.6008 34.0163 2.69818 32.9318 2.59767C32.9416 2.55683 32.9515 2.51914 32.9613 2.47831C34.0656 2.50972 35.17 2.53484 36.2743 2.56311ZM238.114 24.0888C238.105 24.0637 238.095 24.0417 238.085 24.0166C239.702 24.0166 241.329 24.0166 242.946 24.0166C242.946 24.0417 242.946 24.0637 242.946 24.0888C241.339 24.0888 239.731 24.0888 238.114 24.0888ZM335.894 6.77529C336.279 6.8601 336.791 6.97318 337.235 7.07055C336.89 7.12709 336.713 7.18363 336.515 7.18677C336.259 7.19305 335.973 7.16792 335.727 7.13965C335.638 7.13023 335.529 7.05799 335.559 7.02344C335.608 6.95119 335.736 6.88523 335.894 6.77529ZM327.819 5.4152C326.882 5.37123 325.837 5.32411 324.693 5.27072C326.044 5.07597 327.129 5.14507 327.819 5.4152ZM338.438 11.0785C337.777 11.1571 337.186 11.2293 336.594 11.3016C336.575 11.2859 336.555 11.2733 336.535 11.2576C336.653 11.2262 336.772 11.1948 336.87 11.1696C336.683 11.0754 336.515 10.9843 336.318 10.8869C336.989 10.9466 337.59 11 338.438 11.0785ZM97.7108 23.3193C97.7108 23.3381 97.7108 23.3569 97.7108 23.3727C96.5079 23.3727 95.2951 23.3727 94.0922 23.3727C94.0922 23.3538 94.0922 23.335 94.0922 23.3193C95.2951 23.3193 96.5079 23.3193 97.7108 23.3193ZM301.424 15.3221C301.434 15.2876 301.444 15.2499 301.454 15.2153C303.031 15.2436 304.619 15.275 306.196 15.3033C306.196 15.3096 306.196 15.3158 306.187 15.3221C304.609 15.3221 303.012 15.3221 301.424 15.3221ZM302.617 4.28128C303.544 4.28128 304.372 4.28128 305.22 4.28128C304.846 4.50116 303.574 4.5043 302.617 4.28128ZM214.579 24.0731C214.195 24.3087 213.731 24.3778 213.1 24.3024C212.962 24.2867 212.834 24.227 212.785 24.1768C212.765 24.1548 212.962 24.0825 213.071 24.0794C213.544 24.0668 214.017 24.0731 214.579 24.0731ZM70.6948 23.1088C71.9963 23.1088 73.0612 23.1088 74.126 23.1088C74.1162 23.1402 74.1063 23.1748 74.0965 23.2062C73.0119 23.1905 71.8977 23.291 70.6948 23.1088ZM324.605 18.8778C324.595 18.9155 324.585 18.9532 324.565 18.9909C323.461 18.95 322.367 18.9061 321.262 18.8652C321.272 18.8338 321.282 18.8024 321.292 18.7742C322.396 18.8087 323.5 18.8433 324.605 18.8778ZM192.986 23.9443C192.976 23.9695 192.976 23.9914 192.966 24.0166C191.783 24.0103 190.58 24.0637 189.427 23.9443C190.62 23.9443 191.803 23.9443 192.986 23.9443ZM310.308 16.0571C310.308 16.076 310.308 16.0948 310.308 16.1137C309.184 16.1137 308.06 16.1137 306.946 16.1137C306.946 16.0948 306.946 16.076 306.956 16.0571C308.07 16.0571 309.184 16.0571 310.308 16.0571ZM178.827 24.516C179.784 24.4563 180.701 24.2145 181.706 24.4155C180.75 24.45 179.794 24.4815 178.827 24.516ZM121.887 1.94747C121.887 1.92234 121.887 1.89721 121.877 1.87208C123.06 1.87208 124.234 1.87208 125.417 1.87208C125.417 1.89721 125.417 1.92234 125.417 1.94747C124.243 1.94747 123.07 1.94747 121.887 1.94747ZM334.534 6.26015C334.504 6.29784 334.465 6.33869 334.435 6.37638C333.557 6.28215 332.68 6.18477 331.802 6.09054C331.832 6.05913 331.862 6.02458 331.891 5.99317C332.769 6.08112 333.656 6.1722 334.534 6.26015ZM226.874 1.44805C228.107 1.31926 228.393 1.36009 228.521 1.64907C228.008 1.64907 227.505 1.64907 226.835 1.64907C227.131 1.60824 227.259 1.58939 227.495 1.55484C227.239 1.51086 227.091 1.48574 226.874 1.44805ZM311.481 20.9855C312.507 20.9697 313.483 20.954 314.459 20.9383C314.114 21.1142 312.536 21.1394 311.481 20.9855ZM322.465 16.5785C322.485 16.61 322.495 16.6445 322.514 16.6759C321.578 16.7639 320.651 16.6476 319.714 16.5785C320.621 16.5785 321.548 16.5785 322.465 16.5785ZM337.758 9.71532C338.231 9.71532 338.665 9.71532 339.099 9.71532C339.128 9.74359 339.158 9.775 339.178 9.80327C338.783 9.87551 338.389 9.94776 337.935 10.0294C337.856 9.87551 337.807 9.80327 337.758 9.71532ZM238.114 1.6365C238.933 1.6208 239.751 1.60196 240.708 1.58311C239.83 1.90664 238.943 1.64592 238.114 1.6365ZM132.762 1.88779C132.772 1.90664 132.772 1.92548 132.782 1.94432C131.628 1.94432 130.465 1.94432 129.311 1.94432C129.311 1.92548 129.311 1.90664 129.321 1.88779C130.455 1.88779 131.609 1.88779 132.762 1.88779ZM123.465 23.8438C123.465 23.8658 123.465 23.8878 123.455 23.9066C122.202 23.9066 120.96 23.9066 119.708 23.9066C119.708 23.8846 119.708 23.8627 119.708 23.8438C120.97 23.8438 122.212 23.8438 123.465 23.8438ZM321.755 5.16707C321.755 5.11681 321.755 5.06341 321.755 5.01315C322.505 5.03514 323.244 5.05399 323.993 5.07597C323.993 5.10738 323.984 5.1388 323.984 5.16707C323.234 5.16707 322.495 5.16707 321.755 5.16707ZM18.0237 18.2276C18.8815 18.0611 20.183 18.0957 20.7943 18.2778C19.8971 18.2621 19.0393 18.2464 18.0237 18.2276ZM187.593 1.61452C187.593 1.63965 187.593 1.66477 187.593 1.6899C186.725 1.6899 185.857 1.6899 184.98 1.6899C184.98 1.66477 184.98 1.63965 184.98 1.61452C185.857 1.61452 186.725 1.61452 187.593 1.61452ZM84.5281 1.77785C85.0803 1.70246 85.593 1.41034 86.4212 1.71817C85.662 1.74329 85.0901 1.759 84.5281 1.77785ZM307.597 16.7073C307.597 16.7387 307.587 16.7733 307.587 16.8047C306.64 16.7796 305.703 16.7544 304.757 16.7325C304.767 16.7042 304.767 16.6759 304.777 16.6508C305.713 16.6696 306.65 16.6885 307.597 16.7073ZM188.184 24.3118C188.184 24.2993 188.184 24.2867 188.184 24.2741C188.835 24.2396 189.486 24.2082 190.107 24.1768C190.117 24.2364 190.137 24.315 190.156 24.3966C189.486 24.3652 188.835 24.337 188.184 24.3118ZM187.711 1.84696C187.711 1.8658 187.711 1.88465 187.711 1.90349C186.843 1.90349 185.976 1.90349 185.118 1.90349C185.118 1.88465 185.118 1.8658 185.118 1.84696C185.976 1.84696 186.843 1.84696 187.711 1.84696ZM314.883 15.1871C314.883 15.2122 314.883 15.2342 314.883 15.2593C314.222 15.2593 313.562 15.2593 312.891 15.2593C312.891 15.2342 312.891 15.2122 312.891 15.1871C313.552 15.1871 314.222 15.1871 314.883 15.1871ZM317.446 16.8078C317.446 16.8267 317.446 16.8455 317.456 16.8644C316.806 16.8424 316.155 16.8173 315.386 16.7921C315.829 16.7042 316.115 16.6445 316.244 16.6194C316.707 16.6916 317.072 16.7513 317.446 16.8078ZM218.493 23.8784C219.539 23.8784 220.387 23.8784 221.412 23.8784C221.067 23.9852 220.889 24.0417 220.663 24.1139C220.239 23.7213 219.292 24.0103 218.493 23.8784ZM76.8671 2.35895C76.8671 2.33382 76.8671 2.30869 76.8671 2.28356C77.7643 2.28356 78.6714 2.28356 79.5687 2.28356C79.5687 2.29299 79.5687 2.30241 79.5687 2.31183C78.6714 2.32754 77.7643 2.34324 76.8671 2.35895ZM158.368 24.1736C157.501 24.2773 156.643 24.3244 155.667 24.0982C156.722 24.1265 157.54 24.1485 158.368 24.1736ZM339 5.64451C338.97 5.66963 338.941 5.6979 338.911 5.72303C338.29 5.64765 337.511 5.6979 337.156 5.40578C337.768 5.48431 338.379 5.56598 339 5.64451ZM304.856 18.0548C304.856 18.036 304.856 18.0171 304.865 18.0014C305.763 18.0014 306.67 18.0014 307.567 18.0014C307.567 18.0203 307.557 18.0391 307.557 18.0548C306.65 18.0548 305.753 18.0548 304.856 18.0548ZM327.425 17.9166C327.415 17.8821 327.415 17.8475 327.405 17.8098C328.056 17.7973 328.706 17.7847 329.357 17.7722C329.367 17.8004 329.367 17.8287 329.377 17.857C328.726 17.8789 328.075 17.8978 327.425 17.9166ZM321.124 2.89293C319.695 3.10652 319.428 3.10338 318.975 2.89293C319.635 2.89293 320.335 2.89293 321.124 2.89293ZM320.119 14.8729C320.119 14.9106 320.119 14.9452 320.119 14.9829C319.409 14.9515 318.699 14.9201 317.989 14.8886C317.999 14.8572 318.018 14.8227 318.028 14.7913C318.728 14.8164 319.418 14.8447 320.119 14.8729ZM193.795 23.9946C193.795 23.9757 193.804 23.9569 193.804 23.938C194.643 23.938 195.471 23.938 196.309 23.938C196.309 23.9569 196.309 23.9757 196.299 23.9946C195.461 23.9946 194.623 23.9946 193.795 23.9946ZM330.363 16.6665C330.363 16.7042 330.353 16.7387 330.353 16.7764C329.742 16.7576 329.14 16.7387 328.529 16.7199C328.539 16.6759 328.559 16.6288 328.568 16.5848C329.16 16.6131 329.761 16.6382 330.363 16.6665ZM253.93 1.2156C253.673 1.47945 253.101 1.3758 252.53 1.36952C252.806 1.07426 253.476 1.269 253.93 1.2156ZM309.825 2.58197C309.815 2.61652 309.815 2.65421 309.805 2.68876C309.233 2.68876 308.661 2.68876 308.09 2.68876C308.09 2.66363 308.099 2.63851 308.099 2.61338C308.681 2.60396 309.253 2.59453 309.825 2.58197ZM327.02 11.5246C326.991 11.5685 326.951 11.6094 326.922 11.6534C326.35 11.6188 325.768 11.5811 325.196 11.5466C325.216 11.512 325.236 11.4806 325.265 11.446C325.847 11.4712 326.429 11.4994 327.02 11.5246ZM179.113 1.83439C179.103 1.79041 179.084 1.74958 179.074 1.7056C179.577 1.69304 180.08 1.68048 180.582 1.67106C180.592 1.71503 180.602 1.759 180.602 1.80298C180.109 1.8124 179.606 1.82496 179.113 1.83439ZM214.53 1.52343C214.54 1.49516 214.54 1.47003 214.55 1.44176C215.466 1.45746 216.383 1.47631 217.291 1.49201C217.281 1.50144 217.281 1.51086 217.271 1.52343C216.364 1.52343 215.447 1.52343 214.53 1.52343ZM322.978 16.3241C322.978 16.3587 322.988 16.3932 322.988 16.4278C322.09 16.4278 321.183 16.4278 320.286 16.4278C320.286 16.4152 320.286 16.4026 320.286 16.3869C321.174 16.365 322.071 16.343 322.978 16.3241ZM167.597 1.84381C167.607 1.8815 167.617 1.9192 167.627 1.95689C167.055 1.95689 166.483 1.95689 165.911 1.95689C165.901 1.93491 165.901 1.91606 165.891 1.89407C166.453 1.87836 167.025 1.85952 167.597 1.84381ZM95.3739 1.36637C95.3641 1.34438 95.3641 1.31925 95.3542 1.29726C96.074 1.29726 96.8037 1.29726 97.5234 1.29726C97.5234 1.31925 97.5234 1.34438 97.5234 1.36637C96.8037 1.36637 96.0937 1.36637 95.3739 1.36637Z" fill="url(#paint0_linear_6249_14191)"/>
<defs>
<linearGradient id="paint0_linear_6249_14191" x1="337.279" y1="25.0033" x2="113.51" y2="-144.824" gradientUnits="userSpaceOnUse">
<stop stop-color="#FDD925"/>
<stop offset="0.294518" stop-color="#FF9559"/>
<stop offset="0.682384" stop-color="#7C91FF"/>
<stop offset="1" stop-color="#7E33FF"/>
</linearGradient>
</defs>
</svg>
